<svg xmlns="http://www.w3.org/2000/svg" viewBox="0 0 477.2 554.38"><title>Asset 1</title><g id="Layer_2" data-name="Layer 2"><g id="Layer_1-2" data-name="Layer 1"><g style="opacity:0.52"><path d="M274.4,420.53q81.69,0,121.53-25.51t48.61-69.88q4.71-26.62-.68-49.55a83.66,83.66,0,0,0-22.62-40.3q-17.21-17.37-45.9-27-2.31-.76-4.7-1.47l-13.21,66.52a37.58,37.58,0,0,1,3.39,2.62q15.53,13.69,11.48,35.87-4.05,21.45-25,35.12t-66.84,13.68q-21.62,0-45.57-1.11a241.06,241.06,0,0,1-47.6-7q14.17-41.42,43.88-65.82a99.65,99.65,0,0,1,14.63-9.94l14.63-74.25q-51.75,9.12-88,40.19-51.32,44-66.84,123.87-10.12,51-2.7,86.89t28.69,58.05q21.27,22.18,56,32.54T267,554.38a267.08,267.08,0,0,0,54-5.17,186.7,186.7,0,0,0,44.55-14.79q16.21-6.66,26-15.16a88.79,88.79,0,0,0,15.53-17,68.9,68.9,0,0,0,8.44-16.64,132.54,132.54,0,0,0,4.05-14.79q2.69-12.57-.68-13.31t-15.53,3.7q-12.83,4.43-25.31,8.87a243.44,243.44,0,0,1-27,7.77A275.82,275.82,0,0,1,320,483a338.44,338.44,0,0,1-37.46,1.85q-50,0-77.65-15.16T177.18,412.4a256.55,256.55,0,0,0,49.63,7Q252.13,420.53,274.4,420.53Z" style="fill:#fff"/><path d="M339.56,211.29l-47.31-.08a8.91,8.91,0,0,0-8.31,6.55l-9.25,39.87a5.15,5.15,0,0,0,5.27,6.58l47.31.08a8.9,8.9,0,0,0,8.31-6.56l9.25-39.87A5.14,5.14,0,0,0,339.56,211.29Z" style="fill:#fff"/><path d="M387.08,45.94a26.29,26.29,0,0,1,4.07-.34,19,19,0,0,1,14.08,5.82c4.43,4.64,7,8.6,8.18,12.48a70.46,70.46,0,0,1-.75,43.15C438,94.68,466.34,72,477.2,62.92c-2.33-31.21-22-58.31-53.62-61.76-2.23-.29-4.42-.5-6.57-.69l-.46.59C402,14.7,392.74,31.12,386.89,46ZM228.14,117c-16.36-7.56-31.56-19-36.21-21.79A171.85,171.85,0,0,0,173.39,85c-15.53-7-33.82-10.59-55.92-11l-2.29,0c-30,0-54.76,12-73.62,35.56a199.86,199.86,0,0,0-29.83,50.24,328.72,328.72,0,0,1,33.83-28l.36-.06a61.92,61.92,0,0,1,15.21-9.09,135.52,135.52,0,0,1,54.55-11.23q6.51,0,13,.56c18.3,1.54,35,7.37,51.36,13,16.69,5.81,23.48,8.79,26.12,10.38-18.59,12.06-94,119.35-134.76,114.89-16.18-1.78-28.37-6.34-35.92-18.82-9.6-15.86-12.75-33.92-9.38-53.69.93-5.42,2.14-10.86,3.33-15.75A149.64,149.64,0,0,0,.87,203a159.56,159.56,0,0,0-.24,30.84C2,249.74,6.69,261.41,15.31,270.59,28,284.08,43.1,290.92,60.25,290.92c80.94-7.24,138.91-137.68,168.94-147a7.86,7.86,0,0,1,3.11-.8c7.81,3,37.39,20.33,45.24,23.21l6.36,2.36c.66-9.7,1.12-18.83,1.45-26.88-13.5-3.74-31.75-8.77-35.47-10.34,1.89-1.32,18.43-5,35.92-3.11.2-7.16.27-12.64.3-15.75C255.3,106.16,228.14,117,228.14,117Zm144.1,19.9c-20.9,1.84-28.95-5.13-28.95-5.13a66.18,66.18,0,0,1,1-15.45l.27-1.36-.07-.08a302.29,302.29,0,0,1,7.39-29.45C360.06,51.16,395.66,4.55,399.19,0c-92,3.56-96.32,103.76-98.58,117,0,4.86,0,9.73-.11,14.46l.11,0c-.05.69-.1,1.67-.15,2.78-.35,20.87-1.19,38.43-1.29,40.48h0c.1,3.31.05,6.64,0,10,0,2.18-.06,4.36-.06,6.54,0,4.26.1,8.51.16,12.73l.15,8.62h31l.3-4.22c.06-.91.1-1.67.2-2.43l3.42-28.24.78-.89c6.85-1.07,13.71-2.35,20.56-3.7,23.52-4.63,43.52-11.87,62.19-19.8,35.65-15.13,53.92-42.81,58.4-70.48-46.56,33.56-76.42,47.2-95.22,52A57.33,57.33,0,0,1,372.24,136.91Z" style="fill:#fff"/></g></g></g></svg>