<svg xmlns="http://www.w3.org/2000/svg" viewBox="0 0 38.82 47.61"><title>Asset 2</title><g id="Layer_2" data-name="Layer 2"><g id="Layer_1-2" data-name="Layer 1"><path d="M21.42,4.14A10.17,10.17,0,0,1,28.89,0a10.15,10.15,0,0,1-2.46,7.61c-3.32,4-7.09,3.34-7.09,3.34S18.63,7.81,21.42,4.14Zm-1.68,9.52c1.61,0,4.6-2.21,8.48-2.21a10.63,10.63,0,0,1,9.33,4.76,10.33,10.33,0,0,0-5.15,9,10.6,10.6,0,0,0,6.42,9.69S34.33,47.54,28.27,47.54c-2.78,0-4.94-1.87-7.87-1.87s-5.95,1.94-7.88,1.94C7,47.61,0,35.64,0,26c0-9.47,5.91-14.44,11.46-14.44,3.61,0,6.41,2.08,8.28,2.08Z" style="fill:#979797;opacity:0.4"/></g></g></svg>