<svg xmlns="http://www.w3.org/2000/svg" viewBox="0 0 121.01 22.73"><title>Asset 4</title><g id="Layer_2" data-name="Layer 2"><g id="Layer_1-2" data-name="Layer 1"><g style="opacity:0.4"><path d="M23.9,8.67a1.46,1.46,0,0,1,.48-1.22,2.18,2.18,0,0,1,1.36-.37,3.44,3.44,0,0,1,1,.13c.3.09.5.16.6.2v7.91a4.47,4.47,0,0,0,1,3.12,3.77,3.77,0,0,0,2.95,1.07,3.8,3.8,0,0,0,3-1.07,4.52,4.52,0,0,0,1-3.12V8.67a1.46,1.46,0,0,1,.48-1.22A2.1,2.1,0,0,1,37,7.08a3.56,3.56,0,0,1,1,.13l.6.2v8.66a6.9,6.9,0,0,1-.52,2.76,5.77,5.77,0,0,1-1.51,2.06,6.66,6.66,0,0,1-2.33,1.28,10.31,10.31,0,0,1-6,0A6.44,6.44,0,0,1,26,20.89a5.89,5.89,0,0,1-1.51-2.06,6.73,6.73,0,0,1-.54-2.76Z" style="fill:#d7822f"/><path d="M41.3,4.4a1.45,1.45,0,0,1,.48-1.22,2.12,2.12,0,0,1,1.33-.38,3.33,3.33,0,0,1,1,.14l.61.19V7.07H49.1a2,2,0,0,1,1.4.41,1.62,1.62,0,0,1,.4,1.19,2.91,2.91,0,0,1-.15.95,5.89,5.89,0,0,1-.24.62H44.73V17a3.32,3.32,0,0,0,.21,1.28,2,2,0,0,0,.59.79,2.09,2.09,0,0,0,.87.43,4.42,4.42,0,0,0,1,.12,4.81,4.81,0,0,0,1.63-.27,4.58,4.58,0,0,0,1.08-.51l1.39,2.28c-.16.12-.39.27-.68.45a5.62,5.62,0,0,1-1.07.52,9.49,9.49,0,0,1-1.41.4,8.43,8.43,0,0,1-1.72.17,5.39,5.39,0,0,1-4-1.37,4.86,4.86,0,0,1-1.36-3.6Z" style="fill:#d7822f"/><path d="M53,1.6A1.46,1.46,0,0,1,53.43.39,2.1,2.1,0,0,1,54.79,0a3.43,3.43,0,0,1,1,.14l.6.19V9a6.14,6.14,0,0,1,2.08-1.64,6.61,6.61,0,0,1,3-.68,7.91,7.91,0,0,1,3.06.59A7.15,7.15,0,0,1,67,8.9a7.55,7.55,0,0,1,1.63,2.52,8.61,8.61,0,0,1,.59,3.21,8.2,8.2,0,0,1-.61,3.19,7.28,7.28,0,0,1-1.68,2.53A8,8,0,0,1,64.34,22a8.64,8.64,0,0,1-3.26.6,9.55,9.55,0,0,1-3.27-.54,7,7,0,0,1-2.57-1.63,7.44,7.44,0,0,1-1.69-2.71,11,11,0,0,1-.6-3.82ZM61,19.51a4.64,4.64,0,0,0,1.88-.38,4.51,4.51,0,0,0,1.47-1,4.34,4.34,0,0,0,.95-1.54,5.53,5.53,0,0,0,.33-1.94,5.72,5.72,0,0,0-.33-2,4.3,4.3,0,0,0-.95-1.55,4.51,4.51,0,0,0-1.47-1A4.64,4.64,0,0,0,61,9.72a4.72,4.72,0,0,0-1.91.38,4.18,4.18,0,0,0-1.46,1,4.74,4.74,0,0,0-.95,1.56,5.41,5.41,0,0,0-.35,1.93,5.58,5.58,0,0,0,.35,2,4.43,4.43,0,0,0,1,1.53,4.55,4.55,0,0,0,1.48,1,4.81,4.81,0,0,0,1.88.36" style="fill:#d7822f"/><path d="M71.22,12.46a5.49,5.49,0,0,1,1.7-4.29,6.86,6.86,0,0,1,4.71-1.52,7.7,7.7,0,0,1,3.09.53,1.72,1.72,0,0,1,1.19,1.61,1.83,1.83,0,0,1-.29,1,2,2,0,0,1-.46.61,9,9,0,0,0-1.27-.46,6.35,6.35,0,0,0-1.71-.21q-3.53,0-3.52,3.74v8.73H71.22Z" style="fill:#d7822f"/><path d="M96.75,22.13c-.2,0-.52.08-1,.13l-1.52.15c-.58.05-1.23.1-2,.14s-1.47.06-2.25.06a15,15,0,0,1-3.84-.41,6.59,6.59,0,0,1-2.35-1.08,3.5,3.5,0,0,1-1.17-1.57,5.41,5.41,0,0,1-.32-1.82,5.84,5.84,0,0,1,.38-2.17A3.58,3.58,0,0,1,84,14a6,6,0,0,1,2.24-.95,15.51,15.51,0,0,1,3.38-.32c.76,0,1.48,0,2.16.08s1.2.09,1.54.13A3.88,3.88,0,0,0,93,11.2a2.63,2.63,0,0,0-1-1.08,3.7,3.7,0,0,0-1.44-.55,10.73,10.73,0,0,0-1.87-.15A8,8,0,0,0,86,9.81a5.88,5.88,0,0,0-1.37.67,3.37,3.37,0,0,1-.5-.58,1.65,1.65,0,0,1-.31-1A1.69,1.69,0,0,1,84,8.05a2,2,0,0,1,.8-.72,5.17,5.17,0,0,1,1.53-.5,13.75,13.75,0,0,1,2.44-.18A14.05,14.05,0,0,1,92,7a7.1,7.1,0,0,1,2.51,1.1,4.94,4.94,0,0,1,1.64,2,6.87,6.87,0,0,1,.59,3Zm-3.4-6.69-1.13-.18a18.79,18.79,0,0,0-2.48-.12,5.54,5.54,0,0,0-3,.62,2.15,2.15,0,0,0-.94,1.94,2.47,2.47,0,0,0,.2,1,1.67,1.67,0,0,0,.68.77,3.67,3.67,0,0,0,1.31.48,10.66,10.66,0,0,0,2.06.17,18,18,0,0,0,2.2-.11c.54-.07.9-.12,1.08-.16Z" style="fill:#d7822f"/><path d="M101.54.3A2,2,0,0,1,103,.9a2,2,0,0,1,.6,1.48,2,2,0,0,1-.6,1.47,2.09,2.09,0,0,1-3,0,2,2,0,0,1-.6-1.47,2,2,0,0,1,.6-1.48,2,2,0,0,1,1.48-.6M99.82,8.67a1.46,1.46,0,0,1,.48-1.22,2.16,2.16,0,0,1,1.36-.37,3.44,3.44,0,0,1,1,.13c.3.09.5.16.6.2V22.19H99.82Z" style="fill:#d7822f"/><path d="M106.32,13.06a6.28,6.28,0,0,1,.56-2.69,6,6,0,0,1,1.53-2,6.93,6.93,0,0,1,2.32-1.26,9.49,9.49,0,0,1,2.94-.44,9.65,9.65,0,0,1,3,.44A6.79,6.79,0,0,1,119,8.35a5.83,5.83,0,0,1,1.52,2,6.43,6.43,0,0,1,.54,2.69v9.13h-3.43V13.94a4.44,4.44,0,0,0-1-3.12,4.55,4.55,0,0,0-5.86,0,4.49,4.49,0,0,0-1,3.12v8.25h-3.43Z" style="fill:#d7822f"/><path d="M21.19,7.56a10.46,10.46,0,0,0-2.33-3.45,10.9,10.9,0,0,0-3.49-2.29A11.35,11.35,0,0,0,11,1a11.27,11.27,0,0,0-4.35.83A10.79,10.79,0,0,0,3.18,4.11,10.34,10.34,0,0,0,.84,7.56,10.92,10.92,0,0,0,0,11.86a11,11,0,0,0,.84,4.31,10.4,10.4,0,0,0,2.34,3.44A10.63,10.63,0,0,0,6.67,21.9a11.27,11.27,0,0,0,4.35.83,11.35,11.35,0,0,0,4.35-.83,10.74,10.74,0,0,0,3.49-2.29,10.52,10.52,0,0,0,2.33-3.44A11,11,0,0,0,22,11.86a10.92,10.92,0,0,0-.85-4.3M4.44,11.07c1.23-.41,2.86-.93,2.86-.93C10.88,9,11.36,7.66,11.36,7.66a6,6,0,0,0,3.36,2.23s1.43.48,2.77,1c.07.13.13.26.19.4A6.58,6.58,0,0,1,18.16,13H16.32v0a2.57,2.57,0,0,0-.55-.82,2.7,2.7,0,0,0-.83-.54,2.75,2.75,0,0,0-1-.2,2.66,2.66,0,0,0-1,.2,2.48,2.48,0,0,0-.83.54,2.6,2.6,0,0,0-.56.82,1.6,1.6,0,0,0-.1.31h-.7a1.63,1.63,0,0,0-.11-.31,2.42,2.42,0,0,0-.55-.82,2.59,2.59,0,0,0-.83-.54,2.78,2.78,0,0,0-2.07,0,2.48,2.48,0,0,0-.83.54,2.6,2.6,0,0,0-.56.82v0H3.87a7.43,7.43,0,0,1,.48-1.75l.09-.18m11,2.93a1.5,1.5,0,0,1-.12.6,1.51,1.51,0,0,1-.33.49,1.43,1.43,0,0,1-.49.32,1.59,1.59,0,0,1-.62.12,1.54,1.54,0,0,1-.61-.12,1.38,1.38,0,0,1-.5-.32,1.51,1.51,0,0,1-.33-.49,1.59,1.59,0,0,1,0-1.21,1.51,1.51,0,0,1,.33-.49,1.63,1.63,0,0,1,1.11-.44A1.58,1.58,0,0,1,15,12.9a1.53,1.53,0,0,1,.45,1.1M9.7,14a1.5,1.5,0,0,1-.12.6,1.51,1.51,0,0,1-.33.49,1.34,1.34,0,0,1-.49.32,1.59,1.59,0,0,1-.62.12,1.54,1.54,0,0,1-.61-.12A1.34,1.34,0,0,1,7,15.09a1.25,1.25,0,0,1-.33-.49,1.59,1.59,0,0,1,0-1.21A1.25,1.25,0,0,1,7,12.9a1.49,1.49,0,0,1,.49-.32,1.54,1.54,0,0,1,.61-.12,1.59,1.59,0,0,1,.62.12,1.49,1.49,0,0,1,.49.32A1.53,1.53,0,0,1,9.7,14m6.46,5.15a7.22,7.22,0,0,1-2.29,1.5,7.66,7.66,0,0,1-5.7,0,7,7,0,0,1-2.29-1.5,6.84,6.84,0,0,1-1.53-2.26,6.94,6.94,0,0,1-.55-2.71H5.53a2.58,2.58,0,0,0,.19.84,2.53,2.53,0,0,0,1.39,1.36,2.52,2.52,0,0,0,1,.2,2.54,2.54,0,0,0,1-.2,2.59,2.59,0,0,0,.83-.54,2.32,2.32,0,0,0,.55-.82,2.48,2.48,0,0,0,.18-.66h.55a2.6,2.6,0,0,0,2.6,2.22,2.57,2.57,0,0,0,1-.2,2.7,2.7,0,0,0,.83-.54,2.46,2.46,0,0,0,.55-.82,2.58,2.58,0,0,0,.2-.84h1.72a6.94,6.94,0,0,1-.55,2.71,6.67,6.67,0,0,1-1.52,2.26" style="fill:#d7822f"/></g></g></g></svg>