<svg xmlns="http://www.w3.org/2000/svg" viewBox="0 0 125.54 18.38"><title>Asset 5</title><g id="Layer_2" data-name="Layer 2"><g id="Layer_1-2" data-name="Layer 1"><g style="opacity:0.4"><path d="M68.84,8.54a15.56,15.56,0,0,0-2-1,16.19,16.19,0,0,1-2.8-1.6A1.64,1.64,0,0,1,63.68,4a1.17,1.17,0,0,1,1.19-.65s1.25.07,1.25,1.1V5.93h4.5V3.79S71,.29,65.32.13c0,0-4.44-.29-5.71,2.1,0,0-.5.53-.5,2.39V6a4.44,4.44,0,0,0,.74,2.54A5.92,5.92,0,0,0,61.4,9.87s2.23,1.21,3.57,1.9c0,0,1.36.77,1.18,2A1.33,1.33,0,0,1,64.73,15a1.25,1.25,0,0,1-1.19-1.29V12.23H58.75v2.11s-.14,4,6,4c0,0,5.87.12,6.15-4.14V12.52a4.49,4.49,0,0,0-2.08-4Zm-23-7.9-1.5,9.42H44L42.55.72H35l-.37,17.07h4.44l0-12.86h.35l2.36,12.86h4.67L48.87,4.93h.31l.11,12.86h4.46L53.27.64ZM19.39.71,16.44,17.77h4.78L23,4.54h.4l1.75,13.23H29.9L26.94.71ZM119.75,8.3v2.52H121v2.7a1.23,1.23,0,1,1-2.45.09V4.26c0-1,1.22-1,1.22-1a1.14,1.14,0,0,1,1.18,1.15V5.82h4.5C125.58,3,125,2.37,125,2.37,123.91-.14,119.68,0,119.68,0c-6.49,0-5.77,5-5.77,5v9c.14,4.67,6.54,4.2,6.64,4.2,2.85-.32,3.71-1.22,3.71-1.22a2.76,2.76,0,0,0,1-1.41,8.11,8.11,0,0,0,.29-2V8.3Zm-14.92,2.78h-.2L100.06.64H94.59V17.79H99L98.78,7.36H99l4.73,10.43H109V.64h-4.5l.32,10.44Zm-21.1,2.44s.07,1.41-1.24,1.41a1.29,1.29,0,0,1-1.37-1.38l0-12.9H76.22v12.8s-.5,4.85,6.34,4.85c0,0,5.94.07,5.94-4.63V.65H83.73V13.52Zm-73.64-5a15.56,15.56,0,0,0-2-1,15.54,15.54,0,0,1-2.8-1.6A1.63,1.63,0,0,1,4.94,4a1.15,1.15,0,0,1,1.18-.65s1.26.07,1.26,1.1V5.93h4.49V3.79S12.2.29,6.57.13c0,0-.43,0-1.05,0,0,0-3.41.18-4.63,2.05l0,0S.37,2.76.37,4.62V6A4.38,4.38,0,0,0,1.1,8.5,6,6,0,0,0,2.65,9.88s2.23,1.2,3.57,1.89c0,0,1.36.77,1.18,2A1.33,1.33,0,0,1,6,15a1.24,1.24,0,0,1-1.19-1.29V12.23H0v2.12s-.13,4,6,4c0,0,5.87.12,6.15-4.14V12.52a4.49,4.49,0,0,0-2.08-4Z"/></g></g></g></svg>