<svg xmlns="http://www.w3.org/2000/svg" viewBox="0 0 140.44 29.98"><title>Asset 6</title><g id="Layer_2" data-name="Layer 2"><g id="Layer_1-2" data-name="Layer 1"><g style="opacity:0.4"><path d="M140.44,13.56V11.09h-3.06V7.25l-.11,0-2.88.88h0v2.91h-4.55V9.47a2.57,2.57,0,0,1,.5-1.71,1.77,1.77,0,0,1,1.41-.58,3.14,3.14,0,0,1,1.33.31l.11,0V4.93h0a5.72,5.72,0,0,0-4.12.35,4.1,4.1,0,0,0-1.66,1.64,4.88,4.88,0,0,0-.59,2.4v1.78h-2.13v2.47h2.13V24h3.07V13.56h4.55v6.62c0,2.72,1.28,4.1,3.81,4.1a6.72,6.72,0,0,0,1.31-.14,3.36,3.36,0,0,0,.94-.31l0,0V21.32l-.12.08a2.23,2.23,0,0,1-.62.27,2.19,2.19,0,0,1-.6.1,1.67,1.67,0,0,1-1.31-.47,2.62,2.62,0,0,1-.41-1.66V13.56Zm-22.7,8.21a3.28,3.28,0,0,1-2.61-1.09,4.66,4.66,0,0,1-.93-3.1,4.88,4.88,0,0,1,.93-3.18,3.23,3.23,0,0,1,2.59-1.11,3.13,3.13,0,0,1,2.51,1.07,4.74,4.74,0,0,1,.92,3.15,5.08,5.08,0,0,1-.86,3.19,3.09,3.09,0,0,1-2.55,1.07m.14-11a6.73,6.73,0,0,0-5,1.85,6.92,6.92,0,0,0-1.82,5,6.57,6.57,0,0,0,1.77,4.82,6.44,6.44,0,0,0,4.75,1.78,6.52,6.52,0,0,0,4.91-1.88,6.9,6.9,0,0,0,1.81-5,6.75,6.75,0,0,0-1.7-4.86,6.27,6.27,0,0,0-4.71-1.77m-11.77,0a5.53,5.53,0,0,0-3.55,1.1,3.5,3.5,0,0,0-1.38,2.86,4.1,4.1,0,0,0,.29,1.59,3.22,3.22,0,0,0,.92,1.2,7.62,7.62,0,0,0,1.86,1,12.51,12.51,0,0,1,1.55.73,2,2,0,0,1,.69.56,1.29,1.29,0,0,1,.19.73c0,.86-.65,1.28-2,1.28a5.53,5.53,0,0,1-1.68-.3,6.63,6.63,0,0,1-1.72-.87l-.12-.1v3l0,0a7.52,7.52,0,0,0,1.63.5,8.92,8.92,0,0,0,1.73.2,5.89,5.89,0,0,0,3.75-1.1,3.58,3.58,0,0,0,1.4-2.93A3.34,3.34,0,0,0,109,18a6.48,6.48,0,0,0-2.55-1.63,6.54,6.54,0,0,1-1.82-.94,1.34,1.34,0,0,1-.37-1,1.09,1.09,0,0,1,.47-.92,2.09,2.09,0,0,1,1.3-.37,5.33,5.33,0,0,1,1.56.24,5.1,5.1,0,0,1,1.35.63l.13.09v-2.8l0,0a6.52,6.52,0,0,0-1.38-.38,8.83,8.83,0,0,0-1.51-.16m-12.93,11a3.24,3.24,0,0,1-2.6-1.09,4.61,4.61,0,0,1-.94-3.1,4.83,4.83,0,0,1,.94-3.18,3.2,3.2,0,0,1,2.58-1.11,3.13,3.13,0,0,1,2.51,1.07,4.74,4.74,0,0,1,.92,3.15,5.08,5.08,0,0,1-.86,3.19,3.09,3.09,0,0,1-2.55,1.07m.14-11a6.75,6.75,0,0,0-5,1.85,7,7,0,0,0-1.81,5,6.53,6.53,0,0,0,1.77,4.82A6.4,6.4,0,0,0,93,24.28a6.51,6.51,0,0,0,4.91-1.88,6.9,6.9,0,0,0,1.81-5A6.75,6.75,0,0,0,98,12.55a6.25,6.25,0,0,0-4.71-1.77M81.84,13.32V11.09h-3V24h3V17.38a4.57,4.57,0,0,1,.76-2.73,2.3,2.3,0,0,1,2-1,3.54,3.54,0,0,1,.91.14,2.32,2.32,0,0,1,.7.28l.13.1V11.07l0,0A3.42,3.42,0,0,0,83,11.6a4.06,4.06,0,0,0-1.16,1.72Zm-8.45-2.54a7.43,7.43,0,0,0-3.68.89,5.92,5.92,0,0,0-2.43,2.5,8,8,0,0,0-.84,3.7,6.8,6.8,0,0,0,.82,3.31,5.69,5.69,0,0,0,2.26,2.3,6.81,6.81,0,0,0,3.31.8,7.26,7.26,0,0,0,3.66-.86l0,0V20.63l-.13.09a5.79,5.79,0,0,1-1.48.77,4.44,4.44,0,0,1-1.45.28,3.74,3.74,0,0,1-2.84-1.1,4.33,4.33,0,0,1-1-3.06,4.44,4.44,0,0,1,1.09-3.15,3.72,3.72,0,0,1,2.84-1.17,4.91,4.91,0,0,1,2.88,1l.13.1V11.46l0,0A5.15,5.15,0,0,0,75.08,11a7.75,7.75,0,0,0-1.69-.19m-9,.31h-3V24h3V11.09ZM62.88,5.61a1.8,1.8,0,0,0-1.29.51A1.66,1.66,0,0,0,61,7.38a1.62,1.62,0,0,0,.54,1.24,1.87,1.87,0,0,0,1.3.49,1.91,1.91,0,0,0,1.3-.49,1.62,1.62,0,0,0,.54-1.24,1.69,1.69,0,0,0-.53-1.25,1.78,1.78,0,0,0-1.31-.52m-7.56,4.53V24h3.09V6H54.13L48.69,19.35,43.42,6H39V24h2.9V10.14H42L47.54,24h2.19l5.49-13.83Z" style="fill:#6f6d6d"/><path d="M14.25,14.25H0V0H14.25Z" style="fill:#d15224"/><path d="M30,14.25H15.73V0H30V14.25Z" style="fill:#98ca3e"/><path d="M14.25,30H0V15.74H14.25Z" style="fill:#61aaeb"/><path d="M30,30H15.73V15.74H30V30Z" style="fill:#eaba2e"/></g></g></g></svg>