<svg xmlns="http://www.w3.org/2000/svg" viewBox="0 0 94.15 30.73"><title>Asset 1</title><g id="Layer_2" data-name="Layer 2"><g id="Layer_1-2" data-name="Layer 1"><g style="opacity:0.4"><path d="M11.6,0h.83a11.39,11.39,0,0,1,7.82,3.3c-.76.78-1.53,1.52-2.27,2.29A8.55,8.55,0,0,0,3.63,10.74a8.81,8.81,0,0,0,1.92,6.8,8.48,8.48,0,0,0,6.16,3,8.23,8.23,0,0,0,6.13-2.1,6.7,6.7,0,0,0,2-4.36H12V10.85h11c.57,3.49-.25,7.43-2.91,9.92a10.77,10.77,0,0,1-6.71,3A12.29,12.29,0,0,1,6.37,22.4,12.13,12.13,0,0,1,.73,16,11.59,11.59,0,0,1,.65,8.09,12,12,0,0,1,5,2.32,12.45,12.45,0,0,1,11.6,0Z" style="fill:#557ffa"/><path d="M74.94.82h3.38V23.38c-1.12,0-2.26,0-3.38,0,0-7.5,0-15,0-22.54Z" style="fill:#6dae44"/><path d="M30.57,8.64a7.94,7.94,0,0,1,6.06,1.3,7.37,7.37,0,0,1,3,4.74,7.73,7.73,0,0,1-13.78,6.08,7.9,7.9,0,0,1-1-7.17,7.5,7.5,0,0,1,5.77-4.95m.47,3a4.23,4.23,0,0,0-2.21,1.41,5,5,0,0,0,.25,6.52,4.21,4.21,0,0,0,3.76,1.17,4.26,4.26,0,0,0,2.94-2.16,5,5,0,0,0-.85-5.94,4.29,4.29,0,0,0-3.89-1Z" style="fill:#d73c1c"/><path d="M47.31,8.64a7.86,7.86,0,0,1,6.78,1.88A7.83,7.83,0,0,1,54.83,21a7.81,7.81,0,0,1-12.24-.25,8,8,0,0,1-1-7.33,7.5,7.5,0,0,1,5.72-4.79m.48,3A4.24,4.24,0,0,0,45.58,13a5,5,0,0,0,.17,6.46,4.19,4.19,0,0,0,3.85,1.25,4.34,4.34,0,0,0,2.94-2.16,5,5,0,0,0-.88-6,4.25,4.25,0,0,0-3.87-1Z" style="fill:#ebbb2e"/><path d="M61.52,9.56a6.44,6.44,0,0,1,6.19-.48,6,6,0,0,1,1.61,1.19c0-.43,0-.87,0-1.31h3.2V22.91a8.39,8.39,0,0,1-2.07,5.86A7.54,7.54,0,0,1,64,30.63a7.36,7.36,0,0,1-5.53-4.41c1-.45,2-.82,2.93-1.24a4.33,4.33,0,0,0,3.08,2.65,4.13,4.13,0,0,0,4-1.26c1-1.2,1-2.85.93-4.32a5.55,5.55,0,0,1-2.58,1.58A6.94,6.94,0,0,1,60.44,22,7.72,7.72,0,0,1,57.82,16a7.81,7.81,0,0,1,3.7-6.4m3.27,2A4.1,4.1,0,0,0,62.31,13a5,5,0,0,0,0,6.33,4.14,4.14,0,0,0,3.56,1.46,4,4,0,0,0,3-2,5.33,5.33,0,0,0-.53-6,3.87,3.87,0,0,0-3.57-1.25Z" style="fill:#557ffa"/><path d="M82.38,10.36a7.11,7.11,0,0,1,7.25-1.43,8.12,8.12,0,0,1,4.52,5.32L83.88,18.5a4.08,4.08,0,0,0,2.18,2.05,4.41,4.41,0,0,0,4.17-.6A6.29,6.29,0,0,0,91.4,18.7c.87.59,1.74,1.16,2.61,1.74a7.74,7.74,0,0,1-12.21.78,8.11,8.11,0,0,1,.58-10.86m1.69,2.93a4.59,4.59,0,0,0-.74,2.65l6.87-2.86A2.84,2.84,0,0,0,88,11.52,4,4,0,0,0,84.07,13.29Z" style="fill:#d73c1c"/></g></g></g></svg>