<svg xmlns="http://www.w3.org/2000/svg" viewBox="0 0 76.8 50.65"><title>Asset 3</title><g id="Layer_2" data-name="Layer 2"><g id="Layer_1-2" data-name="Layer 1"><g style="opacity:0.4"><path d="M36.48,45.15c-15.17,1.4-31-.8-33.21-12.67-1.08-5.84,1.59-12,5.12-15.9v-2C2,20.11-1.43,27.17.56,35.52,3.1,46.22,16.67,52.28,37.39,50.27c8.21-.8,18.93-3.44,26.4-7.54V36.92c-6.78,4-18,7.36-27.31,8.23Zm40-30.76C72.86-3.19,38.74-4.3,16.74,9.09v1.48c22-11.3,53.14-11.23,56,5,1,5.35-2.07,10.93-7.46,14.15v4.2c6.49-2.38,13.14-10.07,11.2-19.49Z" style="fill:#487cbd"/><path d="M62.56,11.83h-4V29.55c0,2.08,1,3.88,4,4.17ZM15.18,18.3h-4V29.88c0,2.08,1,3.89,4,4.17V18.3Zm-4-5.93h4v3.77h-4ZM39,33.87a4.25,4.25,0,0,1-4.58-4.45V14.05h3.94V18.3h3v3.18h-3v7.7a1.22,1.22,0,0,0,1.36,1.4h1.61v3.29H39m7.26-6.55a3.28,3.28,0,0,0,3.49,3.5,4.47,4.47,0,0,0,3.63-1.49l2.43,2.33a7.8,7.8,0,0,1-6.09,2.48c-3.77,0-7.39-2.06-7.39-8.07,0-5.13,3.16-8,7.31-8s6.63,3.4,6.63,7.86v1.43h-10m3.2-6a3,3,0,0,0-2.82,1.63,4,4,0,0,0-.38,1.7h6.08C52.27,22.93,51.5,21.3,49.47,21.3Zm-23.58.18c1.16,0,1.64.58,1.64,1.5V33.89h3.94V23c0-2.21-1.17-4.66-4.64-4.66H18.68V33.89h3.95V21.48Zm41-6.49a1.58,1.58,0,1,1,0-3.16,1.58,1.58,0,1,1,0,3.16Zm0-2.9a1.31,1.31,0,0,0-1.3,1.32,1.3,1.3,0,0,0,1.3,1.31,1.32,1.32,0,0,0,1.32-1.31A1.33,1.33,0,0,0,66.84,12.09Zm.7,2.27h-.29a.07.07,0,0,1-.06,0l-.4-.68-.06,0h-.18v.68a.08.08,0,0,1-.07.07h-.27a.07.07,0,0,1-.06-.07V12.58c0-.1,0-.14.12-.16l.48,0c.5,0,.79.15.79.6v0a.48.48,0,0,1-.36.5l.42.71s0,0,0,.05,0,.06-.07.06ZM67.16,13c0-.19-.12-.25-.37-.25h-.26v.54h.26c.25,0,.37-.08.37-.26Z" style="fill:#487cbd"/></g></g></g></svg>