<svg xmlns="http://www.w3.org/2000/svg" viewBox="0 0 62 57"><title>Asset 1</title><g id="Layer_2" data-name="Layer 2"><g id="Layer_1-2" data-name="Layer 1"><path d="M56,43.89l-9.55-4.78A2.62,2.62,0,0,1,45,36.75V33.37c.23-.28.47-.6.72-.95a22.8,22.8,0,0,0,3-5.8A4,4,0,0,0,51,23V19a4,4,0,0,0-1-2.62V11.06a8.94,8.94,0,0,0-2.09-6.53C45.85,2.19,42.52,1,38,1s-7.85,1.19-9.91,3.53A8.68,8.68,0,0,0,26,9.33,13.1,13.1,0,0,0,20,8C9.61,8,9,16.85,9,17v4.58a3.46,3.46,0,0,0-1,2.33v3.45a3.57,3.57,0,0,0,1.31,2.77A15.32,15.32,0,0,0,13,36.41v2.75a2.15,2.15,0,0,1-1.17,1.91L5.13,45.24A7.92,7.92,0,0,0,1,52.2V56H61V52A9,9,0,0,0,56,43.89ZM15,51.76V54H3V52.2A5.94,5.94,0,0,1,6.14,47l6.65-4.17A4.13,4.13,0,0,0,15,39.16V35.57l-.31-.3a13.31,13.31,0,0,1-3.47-6l-.09-.39-.35-.22A1.59,1.59,0,0,1,10,27.36V23.91a1.71,1.71,0,0,1,.67-1.17l.33-.3V17.06c0-.29.54-7.06,9-7.06a10.42,10.42,0,0,1,6,1.64v4.74A4,4,0,0,0,25,19v4a3.8,3.8,0,0,0,.1.89c0,.12.08.22.12.34a3.34,3.34,0,0,0,.18.5h0a4,4,0,0,0,1.1,1.38s0,0,0,.05c.06.23.13.46.19.68l.09.26s0,.1,0,.14.07.22.11.32l.19.56c0,.08.07.15.1.23s.16.41.25.61l.06.15.05.13.08.16q.15.33.3.63a.41.41,0,0,0,.05.09l.18.37.32.59c.06.09.11.18.16.27l.41.68.09.13c.24.38.45.68.62.92l.13.17.07.09v3.31A2.64,2.64,0,0,1,28.62,39L26,40.42l-.47,0-.18.39L19.7,43.84A9,9,0,0,0,15,51.76ZM59,54H17V51.76a7,7,0,0,1,3.66-6.16l8.92-4.87A4.65,4.65,0,0,0,32,36.65v-4h0l-.19-.24,0,0-.17-.21,0,0-.18-.26h0l-.54-.8v0c-.1-.16-.21-.32-.31-.5l0,0c-.22-.38-.46-.81-.7-1.28h0c-.13-.26-.26-.53-.38-.81h0l-.05-.11h0l-.17-.39-.06-.15L29,27.35c-.1-.27-.2-.55-.29-.85l-.05-.17a.14.14,0,0,1,0-.07,9.15,9.15,0,0,1-.26-1l-.09-.39-.34-.22A2,2,0,0,1,27,23V19a2,2,0,0,1,.67-1.48l.33-.29V10.65l0,0A6.93,6.93,0,0,1,29.6,5.85C31.25,4,34.08,3,38,3s6.73,1,8.39,2.83a7.08,7.08,0,0,1,1.62,5v6.36l.33.3A2,2,0,0,1,49,19v4a2,2,0,0,1-1.42,1.9l-.5.15-.16.5a21,21,0,0,1-2.83,5.71c-.3.42-.59.79-.84,1.08l-.25.28v4.13a4.6,4.6,0,0,0,2.57,4.15l9.55,4.78A7,7,0,0,1,59,52Z" style="fill:#4d4d4d;stroke:#4d4d4d;stroke-miterlimit:10;stroke-width:2px"/></g></g></svg>