<?xml version="1.0" encoding="utf-8"?>
<!-- Generator: Adobe Illustrator 22.1.0, SVG Export Plug-In . SVG Version: 6.00 Build 0)  -->
<svg version="1.1" id="Layer_1" xmlns="http://www.w3.org/2000/svg" xmlns:xlink="http://www.w3.org/1999/xlink" x="0px" y="0px"
	 viewBox="0 0 66 76" style="enable-background:new 0 0 66 76;" xml:space="preserve">
	<path style="fill:#F3D951;" d="M0,76h37.2C53.1,76,66,63.1,66,47.2V0H0V76z"/>
	<defs>
		<path id="SVGID_1_" d="M0,76h37.2C53.1,76,66,63.1,66,47.2V0H0V76z"/>
	</defs>
	<clipPath id="SVGID_2_">
		<use xlink:href="#SVGID_1_"  style="overflow:visible;"/>
	</clipPath>
	<linearGradient id="SVGID_3_" gradientUnits="userSpaceOnUse" x1="-994.2233" y1="584.9633" x2="-906.2233" y2="584.9633" gradientTransform="matrix(0.4483 -0.7765 0.866 0.5 -53.6099 -987.2036)">
		<stop  offset="0.1273" style="stop-color:#F6EAAD;stop-opacity:0"/>
		<stop  offset="0.5089" style="stop-color:#F6EAAD"/>
		<stop  offset="0.548" style="stop-color:#F6EAAD;stop-opacity:0.9055"/>
		<stop  offset="0.9223" style="stop-color:#F6EAAD;stop-opacity:0"/>
	</linearGradient>
	<polygon style="clip-path:url(#SVGID_2_);fill:url(#SVGID_3_);" points="43.7,98.3 83.1,29.9 10.4,-12.1 -29.1,56.3"/>
	<path style="fill:#6C23F1;" d="M34.7,52.2c4.5,0,7.8-0.7,10-2.1c2.2-1.4,3.5-3.3,4-5.8c0.3-1.5,0.2-2.8-0.1-4.1
	c-0.3-1.3-0.9-2.4-1.9-3.3c-0.9-1-2.2-1.7-3.8-2.2c-0.1,0-0.3-0.1-0.4-0.1L41.5,40c0.1,0.1,0.2,0.1,0.3,0.2
	c0.9,0.8,1.2,1.7,0.9,3c-0.2,1.2-0.9,2.1-2.1,2.9c-1.2,0.8-3,1.1-5.5,1.1c-1.2,0-2.4,0-3.8-0.1c-1.3-0.1-2.6-0.3-3.9-0.6
	c0.8-2.3,2-4.1,3.6-5.4c0.4-0.3,0.8-0.6,1.2-0.8l1.2-6.1c-2.8,0.5-5.3,1.6-7.3,3.3c-2.8,2.4-4.7,5.8-5.5,10.2
	c-0.6,2.8-0.6,5.2-0.2,7.2c0.4,2,1.2,3.6,2.4,4.8c1.2,1.2,2.7,2.1,4.6,2.7c1.9,0.6,4.1,0.9,6.5,0.9c1.6,0,3.1-0.1,4.5-0.4
	c1.4-0.3,2.6-0.7,3.7-1.2c0.9-0.4,1.6-0.8,2.1-1.3c0.5-0.5,1-0.9,1.3-1.4c0.3-0.5,0.5-0.9,0.7-1.4c0.1-0.4,0.3-0.9,0.3-1.2
	c0.1-0.7,0.1-1.1-0.1-1.1c-0.2,0-0.6,0.1-1.3,0.3c-0.7,0.2-1.4,0.5-2.1,0.7c-0.7,0.2-1.4,0.5-2.2,0.6c-0.8,0.2-1.7,0.3-2.6,0.4
	c-0.9,0.1-1.9,0.2-3.1,0.2c-2.8,0-4.9-0.4-6.4-1.3c-1.5-0.8-2.3-2.4-2.3-4.7c1.3,0.3,2.7,0.5,4.1,0.6
	C32.1,52.2,33.5,52.2,34.7,52.2z"/>
	<path style="fill:#6C23F1;" d="M40.1,34.9l-3.9,0c-0.3,0-0.6,0.2-0.7,0.5l-0.8,3.3c-0.1,0.3,0.1,0.5,0.4,0.5l3.9,0
	c0.3,0,0.6-0.2,0.7-0.5l0.8-3.3C40.6,35.2,40.4,34.9,40.1,34.9z"/>		
	<path style="fill:#6C23F1;" d="M44,21.3c0.1,0,0.2,0,0.3,0c0.5,0,0.9,0.2,1.2,0.5c0.4,0.4,0.6,0.7,0.7,1
	c0.4,1.2,0.3,2.4-0.1,3.6c2.1-1,4.4-2.9,5.3-3.6c-0.2-2.6-1.8-4.8-4.4-5.1c-0.2,0-0.4,0-0.5-0.1c0,0,0,0,0,0
	C45.2,18.7,44.5,20,44,21.3C44,21.3,44,21.3,44,21.3z M30.9,27.1c-1.4-0.6-2.6-1.6-3-1.8c-0.5-0.3-1-0.6-1.5-0.8
	c-1.3-0.6-2.8-0.9-4.6-0.9l-0.2,0c-2.5,0-4.5,1-6.1,2.9c-1.1,1.3-1.9,2.7-2.4,4.1c1.4-1.3,2.8-2.3,2.8-2.3l0.1,0
	c0.3-0.3,0.7-0.5,1.2-0.7c1.5-0.6,2.9-0.9,4.5-0.9c0.4,0,0.7,0,1.1,0c1.5,0.1,2.9,0.6,4.2,1.1c1.4,0.5,1.9,0.7,2.2,0.9
	c-1.5,1-7.8,9.9-11.1,9.5c-1.3-0.1-2.3-0.5-3-1.6c-0.8-1.3-1.1-2.8-0.8-4.4c0.1-0.4,0.2-0.9,0.3-1.3c-1.2,1.2-1.9,2.5-2.4,3.4
	c-0.1,0.8-0.1,1.7,0,2.6c0.1,1.3,0.5,2.3,1.2,3c1,1.1,2.3,1.7,3.7,1.7c6.7-0.6,11.5-11.4,13.9-12.1c0.1,0,0.2-0.1,0.3-0.1
	c0.6,0.2,3.1,1.7,3.7,1.9c0.2,0.1,0.3,0.1,0.5,0.2c0.1-0.8,0.1-1.6,0.1-2.2c-1.1-0.3-2.6-0.7-2.9-0.9c0.2-0.1,1.5-0.4,3-0.3
	c0-0.6,0-1,0-1.3C33.1,26.2,30.9,27.1,30.9,27.1z M42.8,28.8c-1.7,0.2-2.4-0.4-2.4-0.4s0-0.6,0.1-1.3l0-0.1l0,0
	c0.1-0.3,0.3-1.4,0.6-2.5c0.7-2.8,3.6-6.6,3.9-7c-7.6,0.3-7.9,8.6-8.1,9.7c0,0.4,0,0.8,0,1.2c0,0,0,0,0,0c0,0.1,0,0.2,0,0.3
	c0,1.8-0.1,3.2-0.1,3.3c0,0,0,0,0,0c0,0.3,0,0.5,0,0.8c0,0.2,0,0.4,0,0.5c0,0.4,0,0.7,0,1.1l0,0.7l2.6,0l0-0.3
	c0-0.1,0-0.1,0-0.2l0.3-2.3l0.1-0.1c0.6-0.1,1.1-0.2,1.7-0.3c1.9-0.4,3.6-1,5.1-1.6c2.9-1.2,4.4-3.5,4.8-5.8
	c-3.8,2.7-6.2,3.9-7.8,4.3C43.3,28.7,43,28.7,42.8,28.8z"/>	
</svg>
