<svg xmlns="http://www.w3.org/2000/svg" xmlns:xlink="http://www.w3.org/1999/xlink" viewBox="0 0 696.51 591.01"><defs><linearGradient id="linear-gradient" x1="219.06" y1="586.49" x2="477.18" y2="586.49" gradientUnits="userSpaceOnUse"><stop offset="0" stop-color="#6b6b6b"/><stop offset="0.05" stop-color="#7c7c7c"/><stop offset="0.14" stop-color="#919191"/><stop offset="0.25" stop-color="#a0a0a0"/><stop offset="0.36" stop-color="#a8a8a8"/><stop offset="0.55" stop-color="#ababab"/><stop offset="0.67" stop-color="#a7a7a7"/><stop offset="0.78" stop-color="#9d9d9d"/><stop offset="0.88" stop-color="#8a8a8a"/><stop offset="0.98" stop-color="#717171"/><stop offset="1" stop-color="#6b6b6b"/></linearGradient><linearGradient id="linear-gradient-2" x1="348.26" y1="586.43" x2="348.26" y2="476.71" gradientUnits="userSpaceOnUse"><stop offset="0" stop-color="#cecece"/><stop offset="0.5" stop-color="#3a3a3a"/><stop offset="0.62" stop-color="#3a3a3a"/><stop offset="1" stop-color="#252525"/></linearGradient><radialGradient id="radial-gradient" cx="340.65" cy="221.13" r="302.75" gradientTransform="translate(-6.19 41.16) scale(1.04 0.9)" gradientUnits="userSpaceOnUse"><stop offset="0" stop-color="#fff"/><stop offset="1" stop-color="#a8a8a8"/></radialGradient><clipPath id="clip-path"><polyline points="336.62 425.85 336.62 454.1 359.62 454.1 359.62 425.85" style="fill:none"/></clipPath></defs><title>Asset 1</title><g id="Layer_2" data-name="Layer 2"><g id="Layer_1-2" data-name="Layer 1"><path d="M219.06,582c1.07,10.87,9.37,8.91,19.15,8.91H458c9.77,0,18.08,2,19.15-8.91Z" style="fill:url(#linear-gradient)"/><path d="M475.1,577.22l-41-40.79c-10-12-8.66-54.16-8.47-59.72H270.93c.18,5.56,1.52,47.75-8.47,59.72l-41,40.79c-8.12,9.21,6.94,9.21,18.17,9.21H456.93C468.15,586.43,483.21,586.43,475.1,577.22Z" style="fill:url(#linear-gradient-2)"/><path d="M696.51,457.5c0,12-9.28,21.7-20.74,21.7h-655C9.29,479.2,0,469.48,0,457.5V21.7C0,9.71,9.29,0,20.74,0h655c11.46,0,20.74,9.71,20.74,21.7Z" style="fill:url(#radial-gradient)"/><g style="clip-path:url(#clip-path)"><path d="M355.83,440.86a6.39,6.39,0,0,1,3.05-5.38,6.64,6.64,0,0,0-5.17-2.8c-2.2-.22-4.29,1.3-5.4,1.3s-2.84-1.26-4.66-1.23a6.93,6.93,0,0,0-5.85,3.54c-2.49,4.32-.64,10.73,1.79,14.23,1.19,1.72,2.6,3.65,4.46,3.58s2.47-1.16,4.63-1.16,2.77,1.16,4.66,1.12,3.15-1.75,4.32-3.47a15.59,15.59,0,0,0,2-4,6.21,6.21,0,0,1-3.79-5.71" style="fill:#272425"/></g><path d="M352.27,430.36a6.2,6.2,0,0,0,1.47-4.51,6.36,6.36,0,0,0-4.16,2.14,6,6,0,0,0-1.5,4.37,5.19,5.19,0,0,0,4.19-2" style="fill:#272425"/><path d="M696.51,401.79V22.49C696.51,10.07,687.23,0,675.77,0h-655C9.29,0,0,10.07,0,22.49v379.3Z" style="fill:#272425"/></g></g></svg>