<svg xmlns="http://www.w3.org/2000/svg" viewBox="0 0 78 78"><title>Asset 1</title><g id="Layer_2" data-name="Layer 2"><g id="Layer_1-2" data-name="Layer 1"><path d="M24.38,0H0V24.38H24.38ZM19.5,19.5H4.88V4.88H19.5Z" style="fill:#4e4e4e"/><rect x="9.75" y="9.75" width="4.88" height="4.88" style="fill:#4e4e4e"/><path d="M53.63,0V24.38H78V0Zm19.5,19.5H58.5V4.88H73.13Z" style="fill:#4e4e4e"/><rect x="63.38" y="9.75" width="4.88" height="4.88" style="fill:#4e4e4e"/><path d="M0,78H24.38V53.63H0ZM4.88,58.5H19.5V73.13H4.88Z" style="fill:#4e4e4e"/><rect x="9.75" y="63.38" width="4.88" height="4.88" style="fill:#4e4e4e"/><rect x="39" width="9.75" height="4.88" style="fill:#4e4e4e"/><polygon points="39 19.5 43.88 19.5 43.88 14.63 48.75 14.63 48.75 9.75 34.13 9.75 34.13 4.88 29.25 4.88 29.25 9.75 29.25 12.19 29.25 14.63 39 14.63 39 19.5" style="fill:#4e4e4e"/><rect x="29.25" y="19.5" width="4.88" height="4.88" style="fill:#4e4e4e"/><polygon points="48.75 24.38 43.88 24.38 43.88 29.25 29.25 29.25 29.25 34.13 48.75 34.13 48.75 24.38" style="fill:#4e4e4e"/><polygon points="4.88 43.88 9.75 43.88 9.75 39 4.88 39 4.88 29.25 0 29.25 0 48.75 4.88 48.75 4.88 43.88" style="fill:#4e4e4e"/><rect x="9.75" y="29.25" width="4.88" height="4.88" style="fill:#4e4e4e"/><polygon points="29.25 48.75 39 48.75 39 43.88 34.13 43.88 34.13 39 24.38 39 24.38 29.25 19.5 29.25 19.5 39 14.63 39 14.63 48.75 19.5 48.75 19.5 43.88 21.94 43.88 24.38 43.88 29.25 43.88 29.25 48.75" style="fill:#4e4e4e"/><rect x="43.88" y="39" width="4.88" height="9.75" style="fill:#4e4e4e"/><polygon points="43.88 53.63 29.25 53.63 29.25 58.5 39 58.5 39 73.13 29.25 73.13 29.25 78 43.88 78 43.88 73.13 53.63 73.13 53.63 68.25 43.88 68.25 43.88 53.63" style="fill:#4e4e4e"/><rect x="29.25" y="63.38" width="4.88" height="4.88" style="fill:#4e4e4e"/><rect x="48.75" y="53.63" width="4.88" height="9.75" style="fill:#4e4e4e"/><polygon points="73.13 63.38 58.5 63.38 58.5 78 63.38 78 63.38 68.25 73.13 68.25 73.13 63.38" style="fill:#4e4e4e"/><rect x="68.25" y="73.13" width="9.75" height="4.88" style="fill:#4e4e4e"/><rect x="73.13" y="53.63" width="4.88" height="4.88" style="fill:#4e4e4e"/><polygon points="58.5 58.5 63.38 58.5 63.38 43.88 53.63 43.88 53.63 48.75 58.5 48.75 58.5 58.5" style="fill:#4e4e4e"/><polygon points="68.25 34.13 63.38 34.13 63.38 29.25 58.5 29.25 58.5 34.13 53.63 34.13 53.63 39 73.13 39 73.13 34.13 78 34.13 78 29.25 68.25 29.25 68.25 34.13" style="fill:#4e4e4e"/><rect x="68.25" y="43.88" width="9.75" height="4.88" style="fill:#4e4e4e"/></g></g></svg>