<svg xmlns="http://www.w3.org/2000/svg" viewBox="0 0 24 20.52"><title>Asset 1</title><g id="Layer_2" data-name="Layer 2"><g id="Layer_1-2" data-name="Layer 1"><path d="M19.05,20.52a4.39,4.39,0,0,1-3.87-1.94,9.48,9.48,0,0,1-1.34-5.48q0-8.76,8.29-13.1L24,3.41A12.75,12.75,0,0,0,19.82,7a8.29,8.29,0,0,0-1.37,4.88,2.25,2.25,0,0,1,.6-.06,4.62,4.62,0,0,1,3.11,1.1,3.77,3.77,0,0,1,1.31,3,4.59,4.59,0,0,1-1.24,3.38A4.32,4.32,0,0,1,19.05,20.52Zm-13.84,0a4.39,4.39,0,0,1-3.87-1.94A9.56,9.56,0,0,1,0,13.1Q0,4.34,8.29,0l1.87,3.41A12.86,12.86,0,0,0,6,7a8.29,8.29,0,0,0-1.37,4.88,2.3,2.3,0,0,1,.6-.06,4.62,4.62,0,0,1,3.11,1.1,3.77,3.77,0,0,1,1.31,3,4.59,4.59,0,0,1-1.24,3.38A4.32,4.32,0,0,1,5.21,20.52Z" style="fill:#fff"/></g></g></svg>