<svg xmlns="http://www.w3.org/2000/svg" viewBox="0 0 17 14.73"><title>Asset 1</title><g id="Layer_2" data-name="Layer 2"><g id="Layer_1-2" data-name="Layer 1"><path d="M16.34,2.93a2.21,2.21,0,0,0-1.61-.66h-2L12.3,1.06a1.63,1.63,0,0,0-.62-.75A1.61,1.61,0,0,0,10.77,0H6.23a1.61,1.61,0,0,0-.91.31,1.63,1.63,0,0,0-.62.75L4.25,2.27h-2a2.21,2.21,0,0,0-1.61.66A2.19,2.19,0,0,0,0,4.53v7.94a2.19,2.19,0,0,0,.66,1.6,2.21,2.21,0,0,0,1.61.66H14.73a2.21,2.21,0,0,0,1.61-.66,2.19,2.19,0,0,0,.66-1.6V4.53a2.19,2.19,0,0,0-.66-1.6Zm-5,8.37a3.8,3.8,0,0,1-2.8,1.17A3.8,3.8,0,0,1,5.7,11.3,3.8,3.8,0,0,1,4.53,8.5,3.8,3.8,0,0,1,5.7,5.7,3.8,3.8,0,0,1,8.5,4.53,3.8,3.8,0,0,1,11.3,5.7a3.8,3.8,0,0,1,1.17,2.8,3.8,3.8,0,0,1-1.17,2.8Z" style="fill:#333"/><path d="M8.5,6.14A2.36,2.36,0,0,0,6.14,8.5,2.36,2.36,0,0,0,8.5,10.86,2.36,2.36,0,0,0,10.86,8.5,2.36,2.36,0,0,0,8.5,6.14Z" style="fill:#333"/></g></g></svg>