<svg xmlns="http://www.w3.org/2000/svg" viewBox="0 0 53.96 57.06"><title>Asset 1</title><g id="Layer_2" data-name="Layer 2"><g id="Layer_1-2" data-name="Layer 1"><path d="M1.71,56.32a.43.43,0,0,0,.3.74L27,57l25,.09a.43.43,0,0,0,.31-.74l-25-25a.43.43,0,0,0-.61,0Z" style="fill:#fff"/><path d="M48.15,2,27,23.18,5.81,2,27,2.09,48.15,2M52,0h0L27,.09,2,0H2a.43.43,0,0,0-.3.74l25,25a.42.42,0,0,0,.3.12.47.47,0,0,0,.31-.12l25-25A.43.43,0,0,0,52,0Z" style="fill:#fff"/><line x1="50.46" y1="28.53" x2="52.96" y2="28.53" style="fill:none;stroke:#fff;stroke-linecap:round;stroke-miterlimit:10;stroke-width:2px;stroke-dasharray:0,7,0,0,0,0"/><line x1="50.6" y1="28.53" x2="1" y2="28.53" style="fill:none;stroke:#fff;stroke-linecap:round;stroke-miterlimit:10;stroke-width:2px;stroke-dasharray:0,7,0,0,0,0"/><line x1="3.5" y1="28.53" x2="1" y2="28.53" style="fill:none;stroke:#fff;stroke-linecap:round;stroke-miterlimit:10;stroke-width:2px;stroke-dasharray:0,7,0,0,0,0"/></g></g></svg>