<svg xmlns="http://www.w3.org/2000/svg" viewBox="0 0 660 585.57"><title>Asset 1</title><g id="Layer_2" data-name="Layer 2"><g id="Layer_1-2" data-name="Layer 1"><path d="M140.56,585.57a4.72,4.72,0,1,1,0-9.44h45.29a60.88,60.88,0,0,0,60.8-60.81v-41H30.17A30.21,30.21,0,0,1,0,444.19v-414A30.21,30.21,0,0,1,30.17,0H629.83A30.22,30.22,0,0,1,660,30.17v414a30.21,30.21,0,0,1-30.17,30.18H413.35v41a60.87,60.87,0,0,0,60.8,60.81h45.29a4.72,4.72,0,0,1,0,9.44ZM256.1,515.32a69.45,69.45,0,0,1-14.81,43l-13.82,17.76H432.53l-13.82-17.76a69.45,69.45,0,0,1-14.81-43v-41H256.1ZM30.17,9.44A20.75,20.75,0,0,0,9.44,30.17v311H650.56V30.17A20.75,20.75,0,0,0,629.83,9.44Z" style="fill:#333"/></g></g></svg>