<svg xmlns="http://www.w3.org/2000/svg" viewBox="0 0 21.65 23.36"><title>Asset 1</title><g id="Layer_2" data-name="Layer 2"><g id="Layer_1-2" data-name="Layer 1"><path d="M21.46,11.21,17.2,7a.66.66,0,1,0-.94.94L19.37,11H5.79a.67.67,0,1,0,0,1.33H19.37l-3.11,3.12a.65.65,0,0,0,0,.94.67.67,0,0,0,.47.2.63.63,0,0,0,.47-.2l4.25-4.25a.67.67,0,0,0,0-.95Z" style="fill:#fff"/><path d="M10.43,22H4.34a3,3,0,0,1-3-3V4.34a3,3,0,0,1,3-3h6.19a.67.67,0,0,0,0-1.34H4.34A4.34,4.34,0,0,0,0,4.34V19a4.34,4.34,0,0,0,4.34,4.34h6.09a.67.67,0,0,0,0-1.34Z" style="fill:#fff"/></g></g></svg>