<svg xmlns="http://www.w3.org/2000/svg" xmlns:xlink="http://www.w3.org/1999/xlink" viewBox="0 0 275.42 207.37"><defs><linearGradient id="linear-gradient" x1="43.12" y1="112.87" x2="232.12" y2="112.87" gradientUnits="userSpaceOnUse"><stop offset="0" stop-color="#72cc5c"/><stop offset="1" stop-color="#38bf0c"/></linearGradient><linearGradient id="linear-gradient-2" x1="245.63" y1="53.63" x2="275.42" y2="53.63" xlink:href="#linear-gradient"/><linearGradient id="linear-gradient-3" x1="257.54" y1="53.62" x2="263.51" y2="53.62" xlink:href="#linear-gradient"/><linearGradient id="linear-gradient-4" x1="0" y1="60.99" x2="17.88" y2="60.99" xlink:href="#linear-gradient"/></defs><title>Asset 1</title><g id="Layer_2" data-name="Layer 2"><g id="Layer_1-2" data-name="Layer 1"><circle cx="137.62" cy="112.87" r="94.5" style="fill:url(#linear-gradient)"/><path d="M230.74,17.89H206.9a3,3,0,1,1,0-6h23.84a3,3,0,0,1,0,6" style="fill:#fff"/><path d="M218.81,29.79a3,3,0,0,1-3-3V3a3,3,0,1,1,6,0V26.82a3,3,0,0,1-3,3" style="fill:#fff"/><path d="M272.44,56.61H248.61a3,3,0,1,1,0-6h23.83a3,3,0,1,1,0,6" style="fill:url(#linear-gradient-2)"/><path d="M260.53,68.52a3,3,0,0,1-3-3V41.72a3,3,0,1,1,6,0V65.55a3,3,0,0,1-3,3" style="fill:url(#linear-gradient-3)"/><path d="M187.89,182H176a3,3,0,1,1,0-6h11.91a3,3,0,1,1,0,6" style="fill:#fff"/><path d="M249.2,182H199.82a3,3,0,1,1,0-6H249.2a3,3,0,1,1,0,6" style="fill:#fff"/><path d="M14.89,64H3a3,3,0,1,1,0-6H14.89a3,3,0,1,1,0,6" style="fill:url(#linear-gradient-4)"/><path d="M58.2,80H18.82a3,3,0,1,1,0-6H58.2a3,3,0,1,1,0,6" style="fill:#fff"/><path d="M220.49,39.09c-3-5.68-66.35,22.55-94.88,69.73-4.23-8-6.25-12.32-9.65-17.83-5.58-9.13-24.12-4.24-24.12,9.7C113.31,159,134.05,165,141.7,141.24,169.35,68.63,223.56,44.77,220.49,39.09Z" style="fill:#fff;fill-rule:evenodd"/></g></g></svg>