<?xml version="1.0" encoding="utf-8"?>
<!-- Generator: Adobe Illustrator 22.1.0, SVG Export Plug-In . SVG Version: 6.00 Build 0)  -->
<svg version="1.1" id="Layer_1" xmlns="http://www.w3.org/2000/svg" xmlns:xlink="http://www.w3.org/1999/xlink" x="0px" y="0px"
	 viewBox="0 0 77 77" style="enable-background:new 0 0 77 77;" xml:space="preserve">
<g>
	<path style="fill:#202020;" d="M38.5,77L38.5,77C59.8,77,77,59.8,77,38.5v0C77,17.2,59.8,0,38.5,0h0C17.2,0,0,17.2,0,38.5v0
		C0,59.8,17.2,77,38.5,77z"/>
	<g>
		<defs>
			<path id="SVGID_1_" d="M38.5,77L38.5,77C59.8,77,77,59.8,77,38.5v0C77,17.2,59.8,0,38.5,0h0C17.2,0,0,17.2,0,38.5v0
				C0,59.8,17.2,77,38.5,77z"/>
		</defs>
		<clipPath id="SVGID_2_">
			<use xlink:href="#SVGID_1_"  style="overflow:visible;"/>
		</clipPath>
		<g style="clip-path:url(#SVGID_2_);">
			<path style="fill:#4E4E4E;" d="M39,52.4c7.3,0,13.2-7.2,13.2-16.1c0-8.9-1.9-16.1-13.2-16.1c-11.3,0-13.2,7.2-13.2,16.1
				C25.8,45.2,31.7,52.4,39,52.4L39,52.4z M39,52.4"/>
			<path style="fill:#4E4E4E;" d="M64,76.3c-0.2-15.5-2.3-19.9-17.7-22.7c0,0-2.2,2.8-7.2,2.8c-5.1,0-7.2-2.8-7.2-2.8
				c-15.3,2.8-17.4,7.1-17.7,22.1c0,1.2,0,1.3,0,1.2c0,0.3,0,0.8,0,1.6c0,0,3.7,7.4,25,7.4c21.3,0,25-7.4,25-7.4c0-0.6,0-0.9,0-1.2
				C64,77.5,64,77.3,64,76.3L64,76.3z M64,76.3"/>
		</g>
	</g>
</g>
</svg>
