<svg xmlns="http://www.w3.org/2000/svg" viewBox="0 0 425.55 410.37"><title>Asset 1</title><g id="Layer_2" data-name="Layer 2"><g id="Layer_1-2" data-name="Layer 1"><circle cx="211.75" cy="205.87" r="204.5" style="fill:#e4e4e4"/><path d="M372.24,382.27a1.71,1.71,0,0,1-1.66,2.12H294.87c-13.58,0-24.59-9.88-24.59-22.07h0c0-12.19,11-22.07,24.59-22.07H362Z" style="fill:#487fea"/><polygon points="149.62 157.67 131.91 157.67 98.46 78.76 116.48 78.76 149.62 157.67" style="fill:#487fea"/><path d="M319.69,80.28a14.33,14.33,0,1,1-19.31-6.14A14.34,14.34,0,0,1,319.69,80.28Z" style="fill:#487fea"/><polyline points="315.99 342.37 361.98 342.37 321.69 170.15 242.29 170.15 315.99 342.37" style="fill:#487fea"/><path d="M222.78,168.91l.16.38,6.28,15.25,6.41,15.55a15,15,0,0,1-27.76,11.43l-17.54-42.61Z" style="fill:#487fea"/><path d="M378.75,109.67a59.62,59.62,0,0,1-17.12,42C351.06,162.39,344.45,168,328.31,168H175.56l-14.69-36H313c16.14,0,27.75-6.63,38.33-17.38s14.36-24.32,14.36-40.72c0-1.43,0-1.84-.14-3.24C375.13,81.24,378.75,94.13,378.75,109.67Z" style="fill:#65a7dd"/><path d="M380.86,17.89H357a3,3,0,1,1,0-6h23.84a3,3,0,0,1,0,6" style="fill:#2e353a"/><path d="M368.94,29.79a3,3,0,0,1-3-3V3a3,3,0,1,1,6,0V26.82a3,3,0,0,1-3,3" style="fill:#2e353a"/><path d="M422.57,56.61H398.74a3,3,0,1,1,0-6h23.83a3,3,0,1,1,0,6" style="fill:#2e353a"/><path d="M410.65,68.52a3,3,0,0,1-3-3V41.72a3,3,0,1,1,6,0V65.55a3,3,0,0,1-3,3" style="fill:#2e353a"/><path d="M297,387.42c-15.19,0-27.55-11.23-27.55-25s12.36-25,27.55-25H360.7L321.6,170.23H229.45l63.12,147.25-5.28,2.26L240.76,211.17l-3.13,4a17.89,17.89,0,0,1-7.24,5.5,17.66,17.66,0,0,1-6.8,1.35A17.93,17.93,0,0,1,207,210.91l-16.87-41H152.47l-4.21-10.15h-30.5L74.41,55.17h30.5L100.7,45H319.3A62.44,62.44,0,0,1,330.42,168.9l-3.11.56,39.77,170,10.32,42.26a4.6,4.6,0,0,1-4.46,5.68Zm0-44.31c-12,0-21.81,8.65-21.81,19.28s9.78,19.29,21.81,19.29h74.53l-9.42-38.57ZM212.28,208.72a12.19,12.19,0,1,0,22.55-9.29l-12.16-29.52H196.3Zm-56-44.55h163a56.71,56.71,0,0,0,53.22-76.3l-3.23-8.74-2.48,9A62.78,62.78,0,0,1,306.19,134H143.77ZM121.59,154h24.29l-38.6-93.12H83Zm20.52-25.81H306.19a56.91,56.91,0,0,0,40.35-16.6A56.29,56.29,0,0,0,363.22,72.8l0-1.14-.74-.87a56.62,56.62,0,0,0-43.2-20H109.8Z" style="fill:#2e353a"/><path d="M75,122.75,62.74,93.93A3.41,3.41,0,1,1,69,91.25l12.3,28.82A3.41,3.41,0,1,1,75,122.75" style="fill:#2e353a"/><path d="M61.86,153.38,31.51,82.26a3.41,3.41,0,1,1,6.28-2.68L68.14,150.7a3.41,3.41,0,1,1-6.28,2.68" style="fill:#2e353a"/><path d="M48.68,184,.28,70.59a3.41,3.41,0,1,1,6.28-2.68L55,181.32A3.41,3.41,0,1,1,48.68,184" style="fill:#2e353a"/></g></g></svg>