<svg xmlns="http://www.w3.org/2000/svg" viewBox="0 0 57.38 72.74"><title>Asset 1</title><g id="Layer_2" data-name="Layer 2"><g id="Layer_1-2" data-name="Layer 1"><path d="M28.69,72.74A28.69,28.69,0,1,1,57.38,44.05,28.72,28.72,0,0,1,28.69,72.74Zm0-50.69a22,22,0,1,0,22,22A22,22,0,0,0,28.69,22.05Z" style="fill:#0680ef"/><circle cx="28.69" cy="44.05" r="4.02" style="fill:#0680ef"/><path d="M51,16.75h0a3.93,3.93,0,0,1,3.93,3.93v5.79a1.11,1.11,0,0,1-1.11,1.11H48.13A1.11,1.11,0,0,1,47,26.48V20.69A3.93,3.93,0,0,1,51,16.75Z" transform="translate(30.6 -29.53) rotate(45)" style="fill:#0680ef"/><path d="M3.61,16.75H9.26a1.11,1.11,0,0,1,1.11,1.11v5.79a3.93,3.93,0,0,1-3.93,3.93h0A3.93,3.93,0,0,1,2.5,23.66V17.86A1.11,1.11,0,0,1,3.61,16.75Z" transform="translate(26.66 33.3) rotate(135)" style="fill:#0680ef"/><rect x="25.37" y="10.32" width="6.64" height="6.28" style="fill:#0680ef"/><rect x="21" width="15.38" height="7.69" rx="3.85" ry="3.85" style="fill:#0680ef"/><path d="M27,45.72l3.34-3.34L42.09,55.79A1.18,1.18,0,0,1,42,57.4h0a1.18,1.18,0,0,1-1.61.05Z" style="fill:#0680ef"/></g></g></svg>