<svg xmlns="http://www.w3.org/2000/svg" viewBox="0 0 51.46 51.38"><title>Asset 3</title><g id="Layer_2" data-name="Layer 2"><g id="Layer_1-2" data-name="Layer 1"><path d="M.87,18.28A.86.86,0,0,1,0,17.42V.87A.87.87,0,0,1,.87,0H17.44a.87.87,0,0,1,.87.87V17.42a.86.86,0,0,1-.87.86Zm.87-1.73H16.57V1.74H1.74Z" style="fill:#bfbfbf"/><path d="M34,18.28a.86.86,0,0,1-.87-.86V.87A.87.87,0,0,1,34,0H50.59a.87.87,0,0,1,.87.87V17.42a.86.86,0,0,1-.87.86Zm.87-1.73H49.72V1.74H34.89Z" style="fill:#bfbfbf"/><path d="M.87,51.38A.87.87,0,0,1,0,50.51V34a.87.87,0,0,1,.87-.86H17.44a.87.87,0,0,1,.87.86V50.51a.87.87,0,0,1-.87.87Zm.87-1.74H16.57V34.83H1.74Z" style="fill:#bfbfbf"/><path d="M25.73,18.28a.87.87,0,0,1-.87-.86V.87a.87.87,0,1,1,1.74,0V17.42A.87.87,0,0,1,25.73,18.28Z" style="fill:#bfbfbf"/><path d="M25.73,34.83a.87.87,0,0,1-.87-.87v-7.4H.87a.87.87,0,1,1,0-1.74H25.73a.87.87,0,0,1,.87.87V34A.87.87,0,0,1,25.73,34.83Z" style="fill:#bfbfbf"/><path d="M25.73,51.38a.87.87,0,0,1-.87-.87V42.24a.87.87,0,1,1,1.74,0v7.4h6.55V34a.87.87,0,0,1,1.74,0V50.51a.87.87,0,0,1-.87.87Z" style="fill:#bfbfbf"/><path d="M42.3,34.83a.87.87,0,0,1-.87-.87v-7.4H34a.87.87,0,0,1,0-1.74H42.3a.87.87,0,0,1,.87.87V34A.87.87,0,0,1,42.3,34.83Z" style="fill:#bfbfbf"/><path d="M50.59,43.11a.87.87,0,0,1-.87-.87V25.69a.87.87,0,1,1,1.74,0V42.24A.87.87,0,0,1,50.59,43.11Z" style="fill:#bfbfbf"/><path d="M42.3,51.38a.87.87,0,0,1-.87-.87V42.24a.87.87,0,1,1,1.74,0v7.4h7.42a.87.87,0,0,1,0,1.74Z" style="fill:#bfbfbf"/></g></g></svg>