<svg xmlns="http://www.w3.org/2000/svg" xmlns:xlink="http://www.w3.org/1999/xlink" viewBox="0 0 1890.64 427.5"><defs><clipPath id="clip-path" transform="translate(0 -137)"><rect x="97.56" width="1695" height="516.57" style="fill:none"/></clipPath></defs><title>Asset 1</title><g style="isolation:isolate"><g id="Layer_2" data-name="Layer 2"><g id="Layer_1-2" data-name="Layer 1"><g style="opacity:0.45"><g style="clip-path:url(#clip-path)"><g style="mix-blend-mode:overlay"><polygon points="1439.33 265.61 1508.46 265.61 1467.72 248.25 1403.59 248.25 1439.33 265.61" style="fill:none"/><polygon points="1595.7 341.56 1686.71 341.56 1617.68 312.15 1535.14 312.15 1595.7 341.56" style="fill:none"/><polygon points="1482.37 286.52 1557.52 286.52 1509.67 266.13 1440.39 266.13 1482.37 286.52" style="fill:none"/><polygon points="1670.43 378.82 1595.77 342.46 1504.5 342.46 1568.68 378.82 1670.43 378.82" style="fill:none"/><polygon points="1533.62 311.41 1615.95 311.41 1558.97 287.13 1483.63 287.13 1533.62 311.41" style="fill:none"/><polygon points="1359.24 378.82 1316.62 342.46 1225.35 342.46 1257.49 378.82 1359.24 378.82" style="fill:none"/><polygon points="1246.34 171.87 1288.46 171.87 1272.9 165.24 1232.68 165.24 1246.34 171.87" style="fill:none"/><polygon points="1063.2 159.02 1068.54 165.06 1108.71 165.06 1101.63 159.02 1063.2 159.02" style="fill:none"/><polygon points="1261.79 179.38 1306.08 179.38 1288.91 172.06 1246.73 172.06 1261.79 179.38" style="fill:none"/><polygon points="1402.67 247.81 1466.67 247.81 1431.57 232.85 1371.87 232.85 1402.67 247.81" style="fill:none"/><polygon points="1298 196.97 1347.36 196.97 1326.16 187.93 1279.41 187.93 1298 196.97" style="fill:none"/><polygon points="1255.52 378.82 1223.58 342.46 1132.31 342.46 1153.77 378.82 1255.52 378.82" style="fill:none"/><polygon points="1278.92 187.7 1325.6 187.7 1306.58 179.59 1262.23 179.59 1278.92 187.7" style="fill:none"/><polygon points="1371.08 232.46 1430.67 232.46 1400.1 219.44 1344.27 219.44 1371.08 232.46" style="fill:none"/><polygon points="1319.41 207.36 1371.76 207.36 1347.98 197.23 1298.55 197.23 1319.41 207.36" style="fill:none"/><polygon points="1343.58 219.1 1399.31 219.1 1372.45 207.66 1320.02 207.66 1343.58 219.1" style="fill:none"/><polygon points="1566.71 378.82 1502.73 342.46 1411.45 342.46 1464.96 378.82 1566.71 378.82" style="fill:none"/><polygon points="1040.05 187.7 1035.31 179.59 990.96 179.59 993.36 187.7 1040.05 187.7" style="fill:none"/><polygon points="1035.19 179.38 1030.91 172.06 988.73 172.06 990.89 179.38 1035.19 179.38" style="fill:none"/><polygon points="1045.47 196.97 1040.19 187.93 993.43 187.93 996.11 196.97 1045.47 196.97" style="fill:none"/><polygon points="1030.8 171.87 1026.92 165.24 986.7 165.24 988.67 171.87 1030.8 171.87" style="fill:none"/><polygon points="1024.03 159.02 1027.6 165.06 1067.76 165.06 1062.46 159.02 1024.03 159.02" style="fill:none"/><polygon points="1051.55 207.36 1045.63 197.23 996.19 197.23 999.19 207.36 1051.55 207.36" style="fill:none"/><polygon points="984.86 159.02 986.65 165.06 1026.82 165.06 1023.29 159.02 984.86 159.02" style="fill:none"/><polygon points="1151.8 378.82 1130.54 342.46 1039.25 342.46 1050.03 378.82 1151.8 378.82" style="fill:none"/><polygon points="1112.38 311.41 1098.19 287.13 1022.84 287.13 1030.04 311.41 1112.38 311.41" style="fill:none"/><polygon points="1058.42 219.1 1051.73 207.66 999.28 207.66 1002.67 219.1 1058.42 219.1" style="fill:none"/><polygon points="1130.01 341.56 1112.82 312.15 1030.26 312.15 1038.98 341.56 1130.01 341.56" style="fill:none"/><polygon points="1097.83 286.52 1085.91 266.13 1016.62 266.13 1022.66 286.52 1097.83 286.52" style="fill:none"/><polygon points="1085.61 265.61 1075.46 248.25 1011.32 248.25 1016.46 265.61 1085.61 265.61" style="fill:none"/><polygon points="1066.23 232.46 1058.61 219.44 1002.77 219.44 1006.63 232.46 1066.23 232.46" style="fill:none"/><polygon points="1075.2 247.81 1066.45 232.85 1006.75 232.85 1011.18 247.81 1075.2 247.81" style="fill:none"/><polygon points="1462.99 378.82 1409.68 342.46 1318.39 342.46 1361.22 378.82 1462.99 378.82" style="fill:none"/><polygon points="748.56 248.25 684.43 248.25 664.08 265.61 733.21 265.61 748.56 248.25" style="fill:none"/><polygon points="774.03 219.44 718.2 219.44 702.93 232.46 762.52 232.46 774.03 219.44" style="fill:none"/><polygon points="762.18 232.85 702.49 232.85 684.95 247.81 748.95 247.81 762.18 232.85" style="fill:none"/><polygon points="732.76 266.13 663.48 266.13 639.58 286.52 714.74 286.52 732.76 266.13" style="fill:none"/><polygon points="562.97 286.52 638.12 286.52 662.13 266.13 592.85 266.13 562.97 286.52" style="fill:none"/><polygon points="526.48 311.41 608.81 311.41 637.4 287.13 562.07 287.13 526.48 311.41" style="fill:none"/><polygon points="714.19 287.13 638.86 287.13 610.4 311.41 692.73 311.41 714.19 287.13" style="fill:none"/><polygon points="793.66 197.23 744.23 197.23 732.35 207.36 784.7 207.36 793.66 197.23" style="fill:none"/><polygon points="815.91 172.06 773.73 172.06 765.15 179.38 809.44 179.38 815.91 172.06" style="fill:none"/><polygon points="821.94 165.24 781.73 165.24 773.95 171.87 816.08 171.87 821.94 165.24" style="fill:none"/><polygon points="731.01 171.87 773.13 171.87 780.95 165.24 740.73 165.24 731.01 171.87" style="fill:none"/><polygon points="801.88 187.93 755.13 187.93 744.54 196.97 793.89 196.97 801.88 187.93" style="fill:none"/><polygon points="809.25 179.59 764.9 179.59 755.4 187.7 802.09 187.7 809.25 179.59" style="fill:none"/><polygon points="688.06 171.87 730.19 171.87 739.95 165.24 699.73 165.24 688.06 171.87" style="fill:none"/><polygon points="784.44 207.66 732 207.66 718.59 219.1 774.33 219.1 784.44 207.66" style="fill:none"/><polygon points="1257.93 158.86 1244.96 153.33 1208.17 153.33 1219.55 158.86 1257.93 158.86" style="fill:none"/><polygon points="1023.2 158.86 1019.96 153.33 983.17 153.33 984.81 158.86 1023.2 158.86" style="fill:none"/><polygon points="1101.44 158.86 1094.96 153.33 1058.18 153.33 1063.06 158.86 1101.44 158.86" style="fill:none"/><polygon points="1062.32 158.86 1057.46 153.33 1020.68 153.33 1023.94 158.86 1062.32 158.86" style="fill:none"/><polygon points="1140.57 158.86 1132.46 153.33 1095.67 153.33 1102.18 158.86 1140.57 158.86" style="fill:none"/><polygon points="1232.32 165.06 1272.48 165.06 1258.3 159.02 1219.88 159.02 1232.32 165.06" style="fill:none"/><polygon points="1218.81 158.86 1207.46 153.33 1170.68 153.33 1180.43 158.86 1218.81 158.86" style="fill:none"/><polygon points="1179.69 158.86 1169.96 153.33 1133.18 153.33 1141.31 158.86 1179.69 158.86" style="fill:none"/><polygon points="661.78 219.1 717.51 219.1 730.99 207.66 678.55 207.66 661.78 219.1" style="fill:none"/><polygon points="905.83 158.86 907.46 153.33 870.67 153.33 867.44 158.86 905.83 158.86" style="fill:none"/><polygon points="678.99 207.36 731.34 207.36 743.27 197.23 693.84 197.23 678.99 207.36" style="fill:none"/><polygon points="642.2 232.46 701.78 232.46 717.11 219.44 661.28 219.44 642.2 232.46" style="fill:none"/><polygon points="619.71 247.81 683.71 247.81 701.33 232.85 641.63 232.85 619.71 247.81" style="fill:none"/><polygon points="707.81 187.7 754.5 187.7 764.04 179.59 719.7 179.59 707.81 187.7" style="fill:none"/><polygon points="772.91 172.06 730.73 172.06 720.01 179.38 764.29 179.38 772.91 172.06" style="fill:none"/><polygon points="694.23 196.97 743.58 196.97 754.22 187.93 707.47 187.93 694.23 196.97" style="fill:none"/><polygon points="593.61 265.61 662.74 265.61 683.18 248.25 619.05 248.25 593.61 265.61" style="fill:none"/><polygon points="1251.06 286.52 1227.16 266.13 1157.88 266.13 1175.9 286.52 1251.06 286.52" style="fill:none"/><polygon points="1364.17 311.41 1328.58 287.13 1253.24 287.13 1281.83 311.41 1364.17 311.41" style="fill:none"/><polygon points="1280.23 311.41 1251.78 287.13 1176.44 287.13 1197.91 311.41 1280.23 311.41" style="fill:none"/><polygon points="1448.1 311.41 1405.38 287.13 1330.05 287.13 1365.77 311.41 1448.1 311.41" style="fill:none"/><polygon points="1187.7 232.46 1172.44 219.44 1116.61 219.44 1128.12 232.46 1187.7 232.46" style="fill:none"/><polygon points="1226.56 265.61 1206.21 248.25 1142.08 248.25 1157.42 265.61 1226.56 265.61" style="fill:none"/><polygon points="1172.05 219.1 1158.63 207.66 1106.2 207.66 1116.31 219.1 1172.05 219.1" style="fill:none"/><polygon points="1205.69 247.81 1188.15 232.85 1128.46 232.85 1141.68 247.81 1205.69 247.81" style="fill:none"/><polygon points="1150.69 165.24 1160.45 171.87 1202.58 171.87 1190.91 165.24 1150.69 165.24" style="fill:none"/><polygon points="1184.09 187.93 1197.38 196.97 1246.73 196.97 1230.84 187.93 1184.09 187.93" style="fill:none"/><polygon points="1171.81 179.59 1183.74 187.7 1230.42 187.7 1216.16 179.59 1171.81 179.59" style="fill:none"/><polygon points="1160.73 172.06 1171.5 179.38 1215.79 179.38 1202.92 172.06 1160.73 172.06" style="fill:none"/><polygon points="1197.77 197.23 1212.68 207.36 1265.03 207.36 1247.2 197.23 1197.77 197.23" style="fill:none"/><polygon points="1230.45 219.44 1249.61 232.46 1309.19 232.46 1286.28 219.44 1230.45 219.44" style="fill:none"/><polygon points="1250.17 232.85 1272.18 247.81 1336.18 247.81 1309.86 232.85 1250.17 232.85" style="fill:none"/><polygon points="1213.11 207.66 1229.95 219.1 1285.68 219.1 1265.55 207.66 1213.11 207.66" style="fill:none"/><polygon points="1272.84 248.25 1298.38 265.61 1367.52 265.61 1336.97 248.25 1272.84 248.25" style="fill:none"/><polygon points="1158.29 207.36 1146.41 197.23 1096.98 197.23 1105.93 207.36 1158.29 207.36" style="fill:none"/><polygon points="1327.68 286.52 1297.8 266.13 1228.5 266.13 1252.51 286.52 1327.68 286.52" style="fill:none"/><polygon points="1159.65 207.66 1173.13 219.1 1228.87 219.1 1212.1 207.66 1159.65 207.66" style="fill:none"/><polygon points="1173.52 219.44 1188.86 232.46 1248.45 232.46 1229.36 219.44 1173.52 219.44" style="fill:none"/><polygon points="1207.45 248.25 1227.9 265.61 1297.04 265.61 1271.6 248.25 1207.45 248.25" style="fill:none"/><polygon points="1672.41 378.82 1774.16 378.82 1688.81 342.46 1597.54 342.46 1672.41 378.82" style="fill:none"/><polygon points="1189.31 232.85 1206.93 247.81 1270.94 247.81 1249.01 232.85 1189.31 232.85" style="fill:none"/><polygon points="1074.73 172.06 1081.2 179.38 1125.48 179.38 1116.91 172.06 1074.73 172.06" style="fill:none"/><polygon points="1135.23 187.7 1125.73 179.59 1081.38 179.59 1088.55 187.7 1135.23 187.7" style="fill:none"/><polygon points="1146.1 196.97 1135.51 187.93 1088.76 187.93 1096.74 196.97 1146.1 196.97" style="fill:none"/><polygon points="1117.73 172.06 1126.34 179.38 1170.64 179.38 1159.92 172.06 1117.73 172.06" style="fill:none"/><polygon points="1147.37 197.23 1159.3 207.36 1211.66 207.36 1196.81 197.23 1147.37 197.23" style="fill:none"/><polygon points="1136.42 187.93 1147.06 196.97 1196.42 196.97 1183.18 187.93 1136.42 187.93" style="fill:none"/><polygon points="1126.59 179.59 1136.14 187.7 1182.83 187.7 1170.95 179.59 1126.59 179.59" style="fill:none"/><polygon points="1311.02 232.85 1337.43 247.81 1401.43 247.81 1370.71 232.85 1311.02 232.85" style="fill:none"/><polygon points="1266.57 207.66 1286.76 219.1 1342.5 219.1 1319 207.66 1266.57 207.66" style="fill:none"/><polygon points="1102.37 159.02 1109.49 165.06 1149.66 165.06 1140.8 159.02 1102.37 159.02" style="fill:none"/><polygon points="1287.36 219.44 1310.35 232.46 1369.93 232.46 1343.19 219.44 1287.36 219.44" style="fill:none"/><polygon points="1338.21 248.25 1368.86 265.61 1437.99 265.61 1402.35 248.25 1338.21 248.25" style="fill:none"/><polygon points="1369.77 266.13 1405.75 286.52 1480.91 286.52 1439.05 266.13 1369.77 266.13" style="fill:none"/><polygon points="1593.93 341.56 1533.54 312.15 1451 312.15 1502.92 341.56 1593.93 341.56" style="fill:none"/><polygon points="1406.84 287.13 1449.69 311.41 1532.02 311.41 1482.17 287.13 1406.84 287.13" style="fill:none"/><polygon points="1231.75 187.93 1247.69 196.97 1297.05 196.97 1278.5 187.93 1231.75 187.93" style="fill:none"/><polygon points="1180.71 159.02 1191.38 165.06 1231.54 165.06 1219.13 159.02 1180.71 159.02" style="fill:none"/><polygon points="1141.55 159.02 1150.44 165.06 1190.6 165.06 1179.97 159.02 1141.55 159.02" style="fill:none"/><polygon points="1191.69 165.24 1203.39 171.87 1245.52 171.87 1231.9 165.24 1191.69 165.24" style="fill:none"/><polygon points="1248.16 197.23 1266.04 207.36 1318.39 207.36 1297.59 197.23 1248.16 197.23" style="fill:none"/><polygon points="1203.73 172.06 1216.64 179.38 1260.93 179.38 1245.91 172.06 1203.73 172.06" style="fill:none"/><polygon points="1501.15 341.56 1449.39 312.15 1366.86 312.15 1410.14 341.56 1501.15 341.56" style="fill:none"/><polygon points="1217.02 179.59 1231.33 187.7 1278.01 187.7 1261.37 179.59 1217.02 179.59" style="fill:none"/><polygon points="1174.44 286.52 1156.54 266.13 1087.25 266.13 1099.29 286.52 1174.44 286.52" style="fill:none"/><polygon points="1095.79 196.97 1087.85 187.93 1041.1 187.93 1046.43 196.97 1095.79 196.97" style="fill:none"/><polygon points="1087.64 187.7 1080.52 179.59 1036.17 179.59 1040.96 187.7 1087.64 187.7" style="fill:none"/><polygon points="1104.92 207.36 1096.02 197.23 1046.59 197.23 1052.57 207.36 1104.92 207.36" style="fill:none"/><polygon points="1080.34 179.38 1073.91 172.06 1031.73 172.06 1036.05 179.38 1080.34 179.38" style="fill:none"/><polygon points="1115.23 219.1 1105.18 207.66 1052.74 207.66 1059.5 219.1 1115.23 219.1" style="fill:none"/><polygon points="1068.7 165.24 1074.56 171.87 1116.68 171.87 1108.91 165.24 1068.7 165.24" style="fill:none"/><polygon points="1027.7 165.24 1031.62 171.87 1073.74 171.87 1067.92 165.24 1027.7 165.24" style="fill:none"/><polygon points="1156.08 265.61 1140.83 248.25 1076.7 248.25 1086.95 265.61 1156.08 265.61" style="fill:none"/><polygon points="1222.79 341.56 1196.96 312.15 1114.42 312.15 1131.78 341.56 1222.79 341.56" style="fill:none"/><polygon points="1315.58 341.56 1281.1 312.15 1198.56 312.15 1224.56 341.56 1315.58 341.56" style="fill:none"/><polygon points="1196.31 311.41 1174.98 287.13 1099.65 287.13 1113.98 311.41 1196.31 311.41" style="fill:none"/><polygon points="1408.37 341.56 1365.25 312.15 1282.7 312.15 1317.34 341.56 1408.37 341.56" style="fill:none"/><polygon points="1140.44 247.81 1127.3 232.85 1067.61 232.85 1076.44 247.81 1140.44 247.81" style="fill:none"/><polygon points="1126.96 232.46 1115.53 219.44 1059.7 219.44 1067.38 232.46 1126.96 232.46" style="fill:none"/><polygon points="1109.69 165.24 1117.5 171.87 1159.63 171.87 1149.91 165.24 1109.69 165.24" style="fill:none"/><polygon points="1299.14 266.13 1329.14 286.52 1404.3 286.52 1368.42 266.13 1299.14 266.13" style="fill:none"/><polygon points="828.84 426.05 944.2 426.05 944.33 379.95 842.25 379.95 828.84 426.05" style="fill:none"/><polygon points="634.13 379.95 593.64 426.05 709.01 426.05 736.22 379.95 634.13 379.95" style="fill:none"/><polygon points="530.07 379.95 476.04 426.05 591.4 426.05 632.14 379.95 530.07 379.95" style="fill:none"/><polygon points="738.18 379.95 711.23 426.05 826.61 426.05 840.27 379.95 738.18 379.95" style="fill:none"/><polygon points="426.01 379.95 358.45 426.05 473.81 426.05 528.09 379.95 426.01 379.95" style="fill:none"/><polygon points="293.1 342.46 201.82 342.46 116.48 378.82 218.23 378.82 293.1 342.46" style="fill:none"/><polygon points="321.94 379.95 240.84 426.05 356.21 426.05 424.04 379.95 321.94 379.95" style="fill:none"/><polygon points="217.89 379.95 123.24 426.05 238.6 426.05 319.96 379.95 217.89 379.95" style="fill:none"/><polygon points="113.83 379.95 5.65 426.05 121.01 426.05 215.91 379.95 113.83 379.95" style="fill:none"/><polygon points="880.7 247.81 944.7 247.81 944.74 232.85 885.05 232.85 880.7 247.81" style="fill:none"/><polygon points="889.04 219.1 944.78 219.1 944.81 207.66 892.37 207.66 889.04 219.1" style="fill:none"/><polygon points="875.52 265.61 944.65 265.61 944.7 248.25 880.57 248.25 875.52 265.61" style="fill:none"/><polygon points="869.43 286.52 944.59 286.52 944.65 266.13 875.37 266.13 869.43 286.52" style="fill:none"/><polygon points="853.42 341.56 944.44 341.56 944.52 312.15 861.98 312.15 853.42 341.56" style="fill:none"/><polygon points="842.58 378.82 944.33 378.82 944.43 342.46 853.16 342.46 842.58 378.82" style="fill:none"/><polygon points="862.19 311.41 944.52 311.41 944.59 287.13 869.26 287.13 862.19 311.41" style="fill:none"/><polygon points="670.76 159.02 632.33 159.02 618.15 165.06 658.32 165.06 670.76 159.02" style="fill:none"/><polygon points="611.23 187.93 564.48 187.93 543.28 196.97 592.63 196.97 611.23 187.93" style="fill:none"/><polygon points="628.41 179.59 584.06 179.59 565.03 187.7 611.72 187.7 628.41 179.59" style="fill:none"/><polygon points="657.96 165.24 617.74 165.24 602.18 171.87 644.3 171.87 657.96 165.24" style="fill:none"/><polygon points="643.9 172.06 601.73 172.06 584.56 179.38 628.85 179.38 643.9 172.06" style="fill:none"/><polygon points="710.21 158.86 719.96 153.33 683.18 153.33 671.83 158.86 710.21 158.86" style="fill:none"/><polygon points="682.46 153.33 645.68 153.33 632.71 158.86 671.08 158.86 682.46 153.33" style="fill:none"/><polygon points="892.46 207.36 944.81 207.36 944.84 197.23 895.41 197.23 892.46 207.36" style="fill:none"/><polygon points="518.76 232.85 459.07 232.85 423.96 247.81 487.97 247.81 518.76 232.85" style="fill:none"/><polygon points="592.09 197.23 542.66 197.23 518.88 207.36 571.23 207.36 592.09 197.23" style="fill:none"/><polygon points="450.25 266.13 380.96 266.13 333.12 286.52 408.27 286.52 450.25 266.13" style="fill:none"/><polygon points="407 287.13 331.67 287.13 274.69 311.41 357.02 311.41 407 287.13" style="fill:none"/><polygon points="487.05 248.25 422.92 248.25 382.17 265.61 451.31 265.61 487.05 248.25" style="fill:none"/><polygon points="570.62 207.66 518.18 207.66 491.33 219.1 547.06 219.1 570.62 207.66" style="fill:none"/><polygon points="355.5 312.15 272.96 312.15 203.92 341.56 294.94 341.56 355.5 312.15" style="fill:none"/><polygon points="546.36 219.44 490.53 219.44 459.97 232.46 519.55 232.46 546.36 219.44" style="fill:none"/><polygon points="895.49 196.97 944.84 196.97 944.87 187.93 898.11 187.93 895.49 196.97" style="fill:none"/><polygon points="946.31 379.95 946.44 426.05 1061.81 426.05 1048.4 379.95 946.31 379.95" style="fill:none"/><polygon points="1154.44 379.95 1181.64 426.05 1297 426.05 1256.51 379.95 1154.44 379.95" style="fill:none"/><polygon points="1010.08 248.25 945.94 248.25 945.99 265.61 1015.13 265.61 1010.08 248.25" style="fill:none"/><polygon points="1050.36 379.95 1064.03 426.05 1179.41 426.05 1152.46 379.95 1050.36 379.95" style="fill:none"/><polygon points="1028.67 312.15 946.12 312.15 946.2 341.56 1037.23 341.56 1028.67 312.15" style="fill:none"/><polygon points="1015.28 266.13 945.99 266.13 946.05 286.52 1021.22 286.52 1015.28 266.13" style="fill:none"/><polygon points="1021.39 287.13 946.05 287.13 946.12 311.41 1028.46 311.41 1021.39 287.13" style="fill:none"/><polygon points="1037.49 342.46 946.2 342.46 946.31 378.82 1048.07 378.82 1037.49 342.46" style="fill:none"/><polygon points="674.85 179.38 719.15 179.38 729.91 172.06 687.72 172.06 674.85 179.38" style="fill:none"/><polygon points="1776.81 379.95 1674.73 379.95 1769.63 426.05 1884.99 426.05 1776.81 379.95" style="fill:none"/><polygon points="1570.68 379.95 1652.04 426.05 1767.39 426.05 1672.75 379.95 1570.68 379.95" style="fill:none"/><polygon points="1362.55 379.95 1416.83 426.05 1532.21 426.05 1464.64 379.95 1362.55 379.95" style="fill:none"/><polygon points="1258.49 379.95 1299.24 426.05 1414.59 426.05 1360.57 379.95 1258.49 379.95" style="fill:none"/><polygon points="1466.62 379.95 1534.44 426.05 1649.8 426.05 1568.69 379.95 1466.62 379.95" style="fill:none"/><polygon points="995.24 197.23 945.8 197.23 945.83 207.36 998.19 207.36 995.24 197.23" style="fill:none"/><polygon points="1005.6 232.85 945.9 232.85 945.94 247.81 1009.95 247.81 1005.6 232.85" style="fill:none"/><polygon points="982.47 153.33 945.68 153.33 945.69 158.86 984.08 158.86 982.47 153.33" style="fill:none"/><polygon points="984.12 159.02 945.69 159.02 945.71 165.06 985.88 165.06 984.12 159.02" style="fill:none"/><polygon points="904.77 165.06 944.93 165.06 944.95 159.02 906.52 159.02 904.77 165.06" style="fill:none"/><polygon points="898.18 187.7 944.87 187.7 944.89 179.59 900.54 179.59 898.18 187.7" style="fill:none"/><polygon points="900.6 179.38 944.89 179.38 944.91 172.06 902.73 172.06 900.6 179.38" style="fill:none"/><polygon points="902.78 171.87 944.91 171.87 944.93 165.24 904.72 165.24 902.78 171.87" style="fill:none"/><polygon points="906.57 158.86 944.95 158.86 944.96 153.33 908.18 153.33 906.57 158.86" style="fill:none"/><polygon points="998.27 207.66 945.83 207.66 945.86 219.1 1001.6 219.1 998.27 207.66" style="fill:none"/><polygon points="1001.7 219.44 945.86 219.44 945.9 232.46 1005.49 232.46 1001.7 219.44" style="fill:none"/><polygon points="985.93 165.24 945.71 165.24 945.73 171.87 987.86 171.87 985.93 165.24" style="fill:none"/><polygon points="749.33 158.86 757.47 153.33 720.67 153.33 710.95 158.86 749.33 158.86" style="fill:none"/><polygon points="992.53 187.93 945.77 187.93 945.8 196.97 995.16 196.97 992.53 187.93" style="fill:none"/><polygon points="987.91 172.06 945.73 172.06 945.75 179.38 990.04 179.38 987.91 172.06" style="fill:none"/><polygon points="990.11 179.59 945.75 179.59 945.77 187.7 992.46 187.7 990.11 179.59" style="fill:none"/><polygon points="885.16 232.46 944.74 232.46 944.78 219.44 888.95 219.44 885.16 232.46" style="fill:none"/><polygon points="844.06 197.23 794.62 197.23 785.72 207.36 838.08 207.36 844.06 197.23" style="fill:none"/><polygon points="854.47 179.59 810.11 179.59 802.99 187.7 849.69 187.7 854.47 179.59" style="fill:none"/><polygon points="849.55 187.93 802.78 187.93 794.85 196.97 844.22 196.97 849.55 187.93" style="fill:none"/><polygon points="862.94 165.24 822.72 165.24 816.89 171.87 859.03 171.87 862.94 165.24" style="fill:none"/><polygon points="858.91 172.06 816.73 172.06 810.3 179.38 854.6 179.38 858.91 172.06" style="fill:none"/><polygon points="823.04 232.85 763.34 232.85 750.2 247.81 814.21 247.81 823.04 232.85" style="fill:none"/><polygon points="837.9 207.66 785.46 207.66 775.41 219.1 831.15 219.1 837.9 207.66" style="fill:none"/><polygon points="830.95 219.44 775.11 219.44 763.67 232.46 823.26 232.46 830.95 219.44" style="fill:none"/><polygon points="700.04 165.06 740.21 165.06 749.1 159.02 710.67 159.02 700.04 165.06" style="fill:none"/><polygon points="659.1 165.06 699.26 165.06 709.92 159.02 671.5 159.02 659.1 165.06" style="fill:none"/><polygon points="645.12 171.87 687.24 171.87 698.95 165.24 658.74 165.24 645.12 171.87" style="fill:none"/><polygon points="629.71 179.38 673.99 179.38 686.9 172.06 644.72 172.06 629.71 179.38" style="fill:none"/><polygon points="740.99 165.06 781.15 165.06 788.27 159.02 749.85 159.02 740.99 165.06" style="fill:none"/><polygon points="813.95 248.25 749.8 248.25 734.56 265.61 803.7 265.61 813.95 248.25" style="fill:none"/><polygon points="781.93 165.06 822.09 165.06 827.43 159.02 789.01 159.02 781.93 165.06" style="fill:none"/><polygon points="612.63 187.7 659.31 187.7 673.62 179.59 629.27 179.59 612.63 187.7" style="fill:none"/><polygon points="866.61 159.02 828.18 159.02 822.87 165.06 863.04 165.06 866.61 159.02" style="fill:none"/><polygon points="523.12 265.61 592.27 265.61 617.81 248.25 553.67 248.25 523.12 265.61" style="fill:none"/><polygon points="581.45 232.46 641.04 232.46 660.2 219.44 604.36 219.44 581.45 232.46" style="fill:none"/><polygon points="554.45 247.81 618.47 247.81 640.48 232.85 580.77 232.85 554.45 247.81" style="fill:none"/><polygon points="604.96 219.1 660.7 219.1 677.53 207.66 625.09 207.66 604.96 219.1" style="fill:none"/><polygon points="625.61 207.36 677.97 207.36 692.88 197.23 643.44 197.23 625.61 207.36" style="fill:none"/><polygon points="788.45 158.86 794.96 153.33 758.18 153.33 750.08 158.86 788.45 158.86" style="fill:none"/><polygon points="660.22 187.7 706.91 187.7 718.84 179.59 674.48 179.59 660.22 187.7" style="fill:none"/><polygon points="803.4 266.13 734.1 266.13 716.2 286.52 791.36 286.52 803.4 266.13" style="fill:none"/><polygon points="486.34 286.52 561.51 286.52 591.51 266.13 522.22 266.13 486.34 286.52" style="fill:none"/><polygon points="776.24 312.15 693.68 312.15 667.84 341.56 758.87 341.56 776.24 312.15" style="fill:none"/><polygon points="791 287.13 715.65 287.13 694.33 311.41 776.67 311.41 791 287.13" style="fill:none"/><polygon points="692.08 312.15 609.54 312.15 575.06 341.56 666.08 341.56 692.08 312.15" style="fill:none"/><polygon points="442.54 311.41 524.88 311.41 560.61 287.13 485.26 287.13 442.54 311.41" style="fill:none"/><polygon points="389.49 341.56 480.51 341.56 523.8 312.15 441.24 312.15 389.49 341.56" style="fill:none"/><polygon points="607.94 312.15 525.4 312.15 482.28 341.56 573.3 341.56 607.94 312.15" style="fill:none"/><polygon points="643.9 196.97 693.27 196.97 706.56 187.93 659.8 187.93 643.9 196.97" style="fill:none"/><polygon points="879.32 248.25 815.18 248.25 805.03 265.61 874.17 265.61 879.32 248.25" style="fill:none"/><polygon points="887.86 219.44 832.02 219.44 824.41 232.46 884 232.46 887.86 219.44" style="fill:none"/><polygon points="883.89 232.85 824.19 232.85 815.44 247.81 879.45 247.81 883.89 232.85" style="fill:none"/><polygon points="851.39 342.46 760.1 342.46 738.84 378.82 840.61 378.82 851.39 342.46" style="fill:none"/><polygon points="874.02 266.13 804.73 266.13 792.81 286.52 867.98 286.52 874.02 266.13" style="fill:none"/><polygon points="860.38 312.15 777.82 312.15 760.62 341.56 851.65 341.56 860.38 312.15" style="fill:none"/><polygon points="894.45 197.23 845.01 197.23 839.08 207.36 891.44 207.36 894.45 197.23" style="fill:none"/><polygon points="867.79 287.13 792.45 287.13 778.25 311.41 860.6 311.41 867.79 287.13" style="fill:none"/><polygon points="891.36 207.66 838.91 207.66 832.22 219.1 887.96 219.1 891.36 207.66" style="fill:none"/><polygon points="593.59 196.97 642.95 196.97 658.89 187.93 612.14 187.93 593.59 196.97" style="fill:none"/><polygon points="905.78 159.02 867.35 159.02 863.82 165.06 903.99 165.06 905.78 159.02" style="fill:none"/><polygon points="866.7 158.86 869.97 153.33 833.18 153.33 828.32 158.86 866.7 158.86" style="fill:none"/><polygon points="897.21 187.93 850.45 187.93 845.16 196.97 894.53 196.97 897.21 187.93" style="fill:none"/><polygon points="899.68 179.59 855.32 179.59 850.58 187.7 897.28 187.7 899.68 179.59" style="fill:none"/><polygon points="903.93 165.24 863.71 165.24 859.84 171.87 901.97 171.87 903.93 165.24" style="fill:none"/><polygon points="901.91 172.06 859.72 172.06 855.45 179.38 899.74 179.38 901.91 172.06" style="fill:none"/><polygon points="758.35 342.46 667.06 342.46 635.12 378.82 736.88 378.82 758.35 342.46" style="fill:none"/><polygon points="489.21 247.81 553.21 247.81 579.62 232.85 519.92 232.85 489.21 247.81" style="fill:none"/><polygon points="520.71 232.46 580.29 232.46 603.28 219.44 547.45 219.44 520.71 232.46" style="fill:none"/><polygon points="452.65 265.61 521.78 265.61 552.42 248.25 488.29 248.25 452.65 265.61" style="fill:none"/><polygon points="827.58 158.86 832.46 153.33 795.68 153.33 789.2 158.86 827.58 158.86" style="fill:none"/><polygon points="409.73 286.52 484.88 286.52 520.87 266.13 451.59 266.13 409.73 286.52" style="fill:none"/><polygon points="572.24 207.36 624.59 207.36 642.48 197.23 593.05 197.23 572.24 207.36" style="fill:none"/><polygon points="548.14 219.1 603.87 219.1 624.07 207.66 571.64 207.66 548.14 219.1" style="fill:none"/><polygon points="220.2 378.82 321.95 378.82 386.14 342.46 294.87 342.46 220.2 378.82" style="fill:none"/><polygon points="479.2 342.46 387.91 342.46 323.93 378.82 425.69 378.82 479.2 342.46" style="fill:none"/><polygon points="665.29 342.46 574.01 342.46 531.39 378.82 633.14 378.82 665.29 342.46" style="fill:none"/><polygon points="296.7 341.56 387.72 341.56 439.64 312.15 357.1 312.15 296.7 341.56" style="fill:none"/><polygon points="358.62 311.41 440.94 311.41 483.8 287.13 408.47 287.13 358.62 311.41" style="fill:none"/><polygon points="572.24 342.46 480.97 342.46 427.67 378.82 529.42 378.82 572.24 342.46" style="fill:none"/><path d="M1245.33,290.19h-600L0,564.5H1890.64Zm528.83,225.64H1672.41l-74.87-36.37h91.27ZM1227.9,402.61l-20.45-17.36h64.14L1297,402.61Zm69.9.52,29.88,20.39h-75.17l-24-20.39Zm-90.87-18.32-17.62-15H1249l21.93,15Zm-18.07-15.35-15.34-13h55.84l19.09,13Zm-15.73-13.36-13.48-11.44h52.44l16.78,11.44Zm-13.83-11.74-11.93-10.13h49.44l14.85,10.13ZM1147.06,334l-10.64-9h46.76l13.24,9Zm-10.92-9.27-9.55-8.11H1171l11.88,8.11Zm-9.8-8.32-8.61-7.32h42.19l10.72,7.32Zm-.86,0H1081.2l-6.47-7.32h42.18Zm.25.21,9.5,8.11h-46.68l-7.17-8.11Zm9.78,8.34,10.59,9h-49.36l-8-9Zm10.9,9.3,11.88,10.13h-52.35l-9-10.13Zm12.22,10.43L1172,356.1h-55.73l-10.11-11.44Zm13.81,11.78,15.26,13h-59.58l-11.51-13Zm15.71,13.41,17.54,15h-64l-13.22-15Zm18.06,15.4,20.35,17.36h-69.14l-15.34-17.36Zm21,17.88,23.9,20.39H1175.9l-18-20.39Zm24.62,21,28.45,24.28h-82.32l-21.47-24.28Zm1.46,0h75.34l35.59,24.28h-82.34Zm76.81,0h75.33l42.72,24.28h-82.33Zm-.91-.61-30-20.39h69.28l35.88,20.39Zm-30.76-20.91-25.54-17.36H1337l30.55,17.36Zm-26.2-17.8-22-15h59.69l26.33,15Zm-22.57-15.35-19.16-13h55.83l22.91,13ZM1230,356.1l-16.84-11.44h52.44l20.13,11.44Zm-17.27-11.74-14.91-10.13h49.43L1265,344.36ZM1197.38,334l-13.29-9h46.75l15.89,9Zm-13.64-9.27-11.93-8.11h44.35l14.26,8.11Zm-12.24-8.32-10.76-7.32h42.18l12.87,7.32Zm-11-7.51-9.76-6.63h40.22l11.67,6.63Zm-.82,0H1117.5l-7.81-6.63h40.22Zm-43,0h-42.12l-5.86-6.63h40.21Zm-42.94,0h-42.12l-3.92-6.63h40.22Zm.17.19,6.43,7.32h-44.29l-4.32-7.32Zm6.61,7.53,7.12,8.11H1041l-4.79-8.11Zm7.33,8.34,7.94,9h-49.36l-5.33-9Zm8.17,9.3,8.9,10.13h-52.35l-6-10.13Zm9.16,10.43,10,11.44H1059.5l-6.76-11.44Zm10.35,11.78,11.44,13h-59.59l-7.68-13Zm11.77,13.41,13.14,15h-64l-8.83-15Zm13.53,15.4,15.25,17.36H1087l-10.25-17.36Zm15.7,17.88,17.91,20.39h-75.15l-12-20.39Zm18.45,21,21.33,24.28H1114l-14.33-24.28Zm22,25,25.83,29.42h-91l-17.36-29.42Zm1.6,0h82.54l34.48,29.42h-91Zm84.14,0h82.55l43.12,29.42h-91Zm84.16,0h82.53l51.76,29.42h-91Zm84.14,0h82.54l60.39,29.42h-91Zm-1.31-.74-42.85-24.28h75.33L1532,448.41Zm-43.94-24.89-36-20.39h69.28l41.86,20.39Zm-36.89-20.91-30.65-17.36h64.13L1438,402.61Zm-31.43-17.8-26.41-15h59.69l30.72,15Zm-27.08-15.35-23-13h55.83l26.74,13Zm-23.59-13.36-20.19-11.44H1319l23.5,11.44ZM1266,344.36l-17.88-10.13h49.43l20.8,10.13ZM1247.69,334l-15.94-9h46.75l18.55,9Zm-16.36-9.27L1217,316.59h44.35L1278,324.7Zm-14.68-8.32-12.92-7.32h42.18l15,7.32Zm-13.26-7.51-11.7-6.63h40.21l13.62,6.63Zm-12-6.81-10.67-6h38.43l12.4,6Zm-.78,0h-40.16l-8.9-6H1180Zm-40.94,0h-40.17l-7.12-6h38.43Zm-41,0h-40.17l-5.34-6h38.42Zm-41,0H1027.6l-3.57-6h38.43Zm-40.94,0H986.65l-1.79-6h38.43Zm.1.18,3.88,6.63H988.67l-2-6.63Zm4,6.82,4.28,7.32H990.9l-2.17-7.32Zm4.4,7.53,4.74,8.11H993.36l-2.4-8.11Zm4.88,8.34,5.28,9H996.11l-2.68-9Zm5.44,9.3,5.92,10.13H999.19l-3-10.13Zm6.1,10.43,6.69,11.44h-55.75l-3.39-11.44Zm6.88,11.78,7.62,13h-59.6l-3.86-13Zm7.84,13.41,8.75,15h-64l-4.43-15Zm9,15.4,10.15,17.36h-69.15l-5.14-17.36Zm10.45,17.88,11.92,20.39h-75.17l-6-20.39Zm12.28,21,14.19,24.28H1030l-7.2-24.28Zm14.63,25L1130,478.57h-91l-8.72-29.42Zm17.72,30.31,21.26,36.37H1050l-10.78-36.37Zm1.77,0h91.27l31.94,36.37H1153.77Zm93,0h91.27l42.63,36.37H1257.5Zm93,0h91.29L1463,515.83H1361.22Zm93.06,0h91.28l64,36.37H1465Zm93,0h91.27l74.66,36.37H1568.68Zm182.21-.89h-91l-60.56-29.42h82.54ZM1616,448.41h-82.33l-50-24.28H1559Zm-58.43-24.89h-75.15l-42-20.39h69.28Zm-49.06-20.91h-69.13l-35.74-17.36h64.13Zm-41.79-17.8h-64l-30.8-15h59.69Zm-36-15.35h-59.59l-26.81-13h55.83Zm-31.36-13.36h-55.73L1320,344.66h52.43Zm-27.55-11.74h-52.35l-20.86-10.13H1348ZM1347.36,334H1298l-18.59-9h46.75Zm-21.76-9.27h-46.68l-16.69-8.11h44.35Zm-19.52-8.32h-44.29l-15.06-7.32h42.18Zm-17.62-7.51h-42.12l-13.66-6.63h40.22Zm-16-6.81h-40.16l-12.44-6h38.42ZM1245,290.33l13,5.53h-38.38l-11.38-5.53Zm-37.5,0,11.35,5.53h-38.38l-9.75-5.53Zm-37.5,0,9.73,5.53h-38.38l-8.13-5.53Zm-37.5,0,8.11,5.53h-38.39l-6.51-5.53Zm-37.5,0,6.48,5.53h-38.38l-4.88-5.53Zm-37.5,0,4.86,5.53h-38.38l-3.26-5.53Zm-37.5,0,3.24,5.53H984.81l-1.64-5.53Zm-112.5,0-1.63,5.53H867.44l3.23-5.53ZM764,316.59l-9.54,8.11H707.81l11.89-8.11Zm-44-.21,10.72-7.32h42.18l-8.62,7.32Zm34.21,8.55-10.64,9H694.23l13.24-9Zm-11,9.3-11.93,10.13H679l14.86-10.13ZM731,344.66,717.51,356.1H661.78l16.77-11.44Zm-13.88,11.78-15.33,13H642.2l19.08-13Zm-15.78,13.41-17.62,15h-64l21.92-15Zm-18.15,15.4-20.44,17.36H593.61l25.44-17.36Zm-21,17.88-24,20.39H563l29.88-20.39Zm-24.73,21-28.59,24.28H526.48l35.59-24.28Zm1.46,0h75.33l-21.46,24.28H610.4Zm.72-.61,23.9-20.39h69.28l-18,20.39Zm24.5-20.91,20.35-17.36h64.13l-15.35,17.36ZM685,384.81l17.54-15h59.69l-13.23,15Zm18-15.35,15.27-13H774l-11.51,13Zm15.66-13.36L732,344.66h52.43L774.33,356.1Zm13.76-11.74,11.88-10.13h49.43l-9,10.13ZM744.54,334l10.59-9h46.75l-8,9Zm10.86-9.27,9.51-8.11h44.34l-7.16,8.11Zm9.75-8.32,8.58-7.32h42.18l-6.47,7.32Zm8.8-7.51,7.78-6.63h40.21l-5.86,6.63Zm-.81,0H731l9.72-6.63h40.21Zm-42.95,0H688.06l11.67-6.63H740Zm-.28.19-10.76,7.32h-44.3l12.87-7.32Zm-11.07,7.53-11.93,8.11H660.22l14.26-8.11Zm-12.28,8.34-13.29,9H643.9l15.9-9Zm-13.68,9.3L678,344.36H625.61l17.83-10.13Zm-15.35,10.43L660.7,356.1H605l20.14-11.44ZM660.2,356.44l-19.16,13H581.45l22.91-13Zm-19.72,13.41-22,15h-64l26.32-15Zm-22.67,15.4-25.54,17.36H523.12l30.55-17.36Zm-26.3,17.88-30,20.39H486.34l35.88-20.39Zm-30.9,21-35.73,24.28H442.54l42.72-24.28Zm-36.81,25-43.28,29.42h-91l51.76-29.42Zm1.6,0h82.54L573.3,478.57h-91Zm84.14,0h82.54l-26,29.42h-91Zm84.14,0h82.56l-17.37,29.42h-91Zm.65-.74,21.32-24.28H791l-14.33,24.28Zm21.86-24.89,17.91-20.39h69.3l-12,20.39Zm18.37-20.91,15.24-17.36H814L803.7,402.61Zm15.64-17.8,13.14-15H823l-8.83,15Zm13.47-15.35,11.44-13H831l-7.69,13Zm11.74-13.36,10.05-11.44H837.9l-6.75,11.44Zm10.31-11.74,8.9-10.13h49.44l-6,10.13ZM794.85,334l7.94-9h46.76l-5.34,9ZM803,324.7l7.12-8.11h44.36l-4.78,8.11Zm7.31-8.32,6.42-7.32h42.19l-4.31,7.32Zm6.59-7.51,5.83-6.63h40.22L859,308.87Zm6-6.81,5.31-6h38.43l-3.57,6Zm-.78,0H781.93l7.08-6h38.43Zm-40.94,0H741l8.85-6h38.43Zm-40.94,0H700l10.63-6H749.1Zm-41,0H659.1l12.4-6h38.42Zm-.31.18-11.71,6.63H645.12l13.62-6.63Zm-12.05,6.82L674,316.38H629.7l15-7.32Zm-13.28,7.53-14.31,8.11H612.63l16.64-8.11Zm-14.73,8.34L643,334H593.59l18.55-9Zm-16.41,9.3-17.89,10.13H572.24l20.81-10.13Zm-18.41,10.43-20.2,11.44H548.14l23.5-11.44Zm-20.79,11.78-23,13H520.71l26.74-13Zm-23.66,13.41-26.41,15h-64l30.71-15Zm-27.2,15.4-30.64,17.36H452.65l35.64-17.36Zm-31.55,17.88-36,20.39H409.73l41.86-20.39Zm-37.07,21-42.86,24.28H358.62l49.85-24.28Zm-44.16,25-51.92,29.42h-91l60.4-29.42Zm-53.5,30.31L322,515.83H220.2l74.67-36.37Zm1.77,0H479.2l-53.51,36.37H323.93Zm93.06,0h91.27l-42.82,36.37H427.67Zm93,0h91.28l-32.15,36.37H531.39Zm93,0h91.29l-21.47,36.37H635.12Zm93,0h91.29l-10.78,36.37H738.84Zm.52-.89,17.2-29.42h82.56l-8.73,29.42Zm17.63-30.16,14.2-24.28h75.34l-7.19,24.28Zm14.56-24.89,11.92-20.39H874l-6,20.39ZM805,402.61l10.15-17.36h64.14l-5.15,17.36Zm10.41-17.8,8.75-15h59.7l-4.44,15Zm9-15.35,7.61-13h55.84l-3.86,13Zm7.81-13.36,6.69-11.44h52.45L888,356.1Zm6.86-11.74L845,334.23h49.44l-3,10.13ZM845.16,334l5.28-9h46.77l-2.68,9Zm5.42-9.27,4.74-8.11h44.36l-2.4,8.11Zm4.87-8.32,4.27-7.32h42.19l-2.17,7.32Zm4.39-7.51,3.87-6.63h40.22l-2,6.63Zm4-6.81,3.53-6h38.43l-1.79,6ZM870,290.33l-3.27,5.53H828.32l4.86-5.53Zm-37.51,0-4.88,5.53H789.2l6.48-5.53Zm-37.5,0-6.51,5.53H750.08l8.1-5.53Zm-37.49,0-8.14,5.53H711l9.73-5.53Zm-37.51,0-9.76,5.53H671.83l11.35-5.53Zm-74.28,0h36.78l-11.38,5.53H632.71ZM632.33,296h38.43l-12.44,6H618.15Zm-14.59,6.22H658l-13.66,6.63H602.18Zm-16,6.82H643.9l-15,7.32H584.56Zm-17.66,7.53h44.35l-16.69,8.11H565Zm-19.58,8.34h46.75l-18.6,9H543.28Zm-21.82,9.3h49.43l-20.86,10.13H518.88Zm-24.48,10.43h52.44L547.06,356.1H491.33Zm-27.65,11.78h55.83l-26.81,13H460Zm-31.46,13.41h59.7l-30.8,15H424Zm-36.15,15.4h64.13l-35.74,17.36H382.17Zm-42,17.88h69.29l-42,20.39H333.11Zm-49.29,21H407l-50,24.28H274.69Zm-58.71,25H355.5l-60.56,29.42h-91Zm-71.14,30.31H293.1l-74.87,36.37H116.48ZM5.65,563.05,113.83,517H215.91L121,563.05Zm117.59,0L217.89,517H320l-81.36,46.1Zm117.6,0,81.1-46.1H424l-67.82,46.1Zm117.61,0L426,517H528.09l-54.28,46.1Zm117.59,0,54-46.1H632.15l-40.75,46.1Zm117.6,0L634.13,517H736.22L709,563.05Zm117.59,0L738.18,517H840.27l-13.66,46.1Zm233,0H828.84L842.25,517H944.33Zm.13-47.22H842.58l10.58-36.37h91.27Zm.11-37.26h-91L862,449.15h82.54Zm.08-30.16H862.19l7.07-24.28h75.33Zm.07-24.89H869.43l5.94-20.39h69.28Zm.06-20.91H875.52l5.05-17.36H944.7Zm.05-17.8h-64l4.35-15h59.69Zm0-15.35H885.16l3.79-13h55.83Zm0-13.36H889.05l3.32-11.44h52.44Zm0-11.74H892.46l2.95-10.13h49.43Zm0-10.39H895.48l2.63-9h46.76Zm0-9.27H898.18l2.36-8.11h44.35Zm0-8.32H900.6l2.13-7.32h42.18Zm0-7.51H902.79l1.92-6.63h40.22Zm0-6.81H904.77l1.75-6H945Zm0-6.2H906.57l1.61-5.53H945Zm.73-5.53h36.79l1.6,5.53H945.69Zm0,5.69h38.43l1.76,6H945.71Zm0,6.22h40.22l1.93,6.63H945.73Zm0,6.82h42.19l2.12,7.32H945.75Zm0,7.53h44.36l2.35,8.11H945.77Zm0,8.34h46.76l2.63,9H945.8Zm0,9.3h49.44l3,10.13H945.83Zm0,10.43h52.44l3.33,11.44H945.86Zm0,11.78h55.84l3.79,13H945.9Zm0,13.41h59.7l4.35,15h-64Zm0,15.4h64.14l5,17.36H946Zm0,17.88h69.29l5.94,20.39H946.05Zm.06,21h75.35l7.06,24.28H946.12Zm.07,25h82.55l8.56,29.42h-91Zm.08,30.31h91.29l10.58,36.37H946.31Zm.24,83.59-.13-46.1H1048.4l13.41,46.1Zm117.59,0L1050.36,517h102.1l27,46.1Zm117.61,0-27.2-46.1h102.07l40.49,46.1Zm117.6,0L1258.49,517h102.08l54,46.1Zm117.59,0L1362.55,517h102.09l67.57,46.1Zm117.62,0L1466.62,517H1568.7l81.1,46.1Zm117.59,0L1570.68,517h102.07l94.64,46.1Zm22.69-46.1h102.08L1885,563.05H1769.63Z" transform="translate(0 -137)" style="fill:#333"/></g><g style="mix-blend-mode:overlay"><polygon points="1439.33 265.61 1508.46 265.61 1467.72 248.25 1403.59 248.25 1439.33 265.61" style="fill:none"/><polygon points="1595.7 341.56 1686.71 341.56 1617.68 312.15 1535.14 312.15 1595.7 341.56" style="fill:none"/><polygon points="1482.37 286.52 1557.52 286.52 1509.67 266.13 1440.39 266.13 1482.37 286.52" style="fill:none"/><polygon points="1670.43 378.82 1595.77 342.46 1504.5 342.46 1568.68 378.82 1670.43 378.82" style="fill:none"/><polygon points="1533.62 311.41 1615.95 311.41 1558.97 287.13 1483.63 287.13 1533.62 311.41" style="fill:none"/><polygon points="1359.24 378.82 1316.62 342.46 1225.35 342.46 1257.49 378.82 1359.24 378.82" style="fill:none"/><polygon points="1246.34 171.87 1288.46 171.87 1272.9 165.24 1232.68 165.24 1246.34 171.87" style="fill:none"/><polygon points="1063.2 159.02 1068.54 165.06 1108.71 165.06 1101.63 159.02 1063.2 159.02" style="fill:none"/><polygon points="1261.79 179.38 1306.08 179.38 1288.91 172.06 1246.73 172.06 1261.79 179.38" style="fill:none"/><polygon points="1402.67 247.81 1466.67 247.81 1431.57 232.85 1371.87 232.85 1402.67 247.81" style="fill:none"/><polygon points="1298 196.97 1347.36 196.97 1326.16 187.93 1279.41 187.93 1298 196.97" style="fill:none"/><polygon points="1255.52 378.82 1223.58 342.46 1132.31 342.46 1153.77 378.82 1255.52 378.82" style="fill:none"/><polygon points="1278.92 187.7 1325.6 187.7 1306.58 179.59 1262.23 179.59 1278.92 187.7" style="fill:none"/><polygon points="1371.08 232.46 1430.67 232.46 1400.1 219.44 1344.27 219.44 1371.08 232.46" style="fill:none"/><polygon points="1319.41 207.36 1371.76 207.36 1347.98 197.23 1298.55 197.23 1319.41 207.36" style="fill:none"/><polygon points="1343.58 219.1 1399.31 219.1 1372.45 207.66 1320.02 207.66 1343.58 219.1" style="fill:none"/><polygon points="1566.71 378.82 1502.73 342.46 1411.45 342.46 1464.96 378.82 1566.71 378.82" style="fill:none"/><polygon points="1040.05 187.7 1035.31 179.59 990.96 179.59 993.36 187.7 1040.05 187.7" style="fill:none"/><polygon points="1035.19 179.38 1030.91 172.06 988.73 172.06 990.89 179.38 1035.19 179.38" style="fill:none"/><polygon points="1045.47 196.97 1040.19 187.93 993.43 187.93 996.11 196.97 1045.47 196.97" style="fill:none"/><polygon points="1030.8 171.87 1026.92 165.24 986.7 165.24 988.67 171.87 1030.8 171.87" style="fill:none"/><polygon points="1024.03 159.02 1027.6 165.06 1067.76 165.06 1062.46 159.02 1024.03 159.02" style="fill:none"/><polygon points="1051.55 207.36 1045.63 197.23 996.19 197.23 999.19 207.36 1051.55 207.36" style="fill:none"/><polygon points="984.86 159.02 986.65 165.06 1026.82 165.06 1023.29 159.02 984.86 159.02" style="fill:none"/><polygon points="1151.8 378.82 1130.54 342.46 1039.25 342.46 1050.03 378.82 1151.8 378.82" style="fill:none"/><polygon points="1112.38 311.41 1098.19 287.13 1022.84 287.13 1030.04 311.41 1112.38 311.41" style="fill:none"/><polygon points="1058.42 219.1 1051.73 207.66 999.28 207.66 1002.67 219.1 1058.42 219.1" style="fill:none"/><polygon points="1130.01 341.56 1112.82 312.15 1030.26 312.15 1038.98 341.56 1130.01 341.56" style="fill:none"/><polygon points="1097.83 286.52 1085.91 266.13 1016.62 266.13 1022.66 286.52 1097.83 286.52" style="fill:none"/><polygon points="1085.61 265.61 1075.46 248.25 1011.32 248.25 1016.46 265.61 1085.61 265.61" style="fill:none"/><polygon points="1066.23 232.46 1058.61 219.44 1002.77 219.44 1006.63 232.46 1066.23 232.46" style="fill:none"/><polygon points="1075.2 247.81 1066.45 232.85 1006.75 232.85 1011.18 247.81 1075.2 247.81" style="fill:none"/><polygon points="1462.99 378.82 1409.68 342.46 1318.39 342.46 1361.22 378.82 1462.99 378.82" style="fill:none"/><polygon points="748.56 248.25 684.43 248.25 664.08 265.61 733.21 265.61 748.56 248.25" style="fill:none"/><polygon points="774.03 219.44 718.2 219.44 702.93 232.46 762.52 232.46 774.03 219.44" style="fill:none"/><polygon points="762.18 232.85 702.49 232.85 684.95 247.81 748.95 247.81 762.18 232.85" style="fill:none"/><polygon points="732.76 266.13 663.48 266.13 639.58 286.52 714.74 286.52 732.76 266.13" style="fill:none"/><polygon points="562.97 286.52 638.12 286.52 662.13 266.13 592.85 266.13 562.97 286.52" style="fill:none"/><polygon points="526.48 311.41 608.81 311.41 637.4 287.13 562.07 287.13 526.48 311.41" style="fill:none"/><polygon points="714.19 287.13 638.86 287.13 610.4 311.41 692.73 311.41 714.19 287.13" style="fill:none"/><polygon points="793.66 197.23 744.23 197.23 732.35 207.36 784.7 207.36 793.66 197.23" style="fill:none"/><polygon points="815.91 172.06 773.73 172.06 765.15 179.38 809.44 179.38 815.91 172.06" style="fill:none"/><polygon points="821.94 165.24 781.73 165.24 773.95 171.87 816.08 171.87 821.94 165.24" style="fill:none"/><polygon points="731.01 171.87 773.13 171.87 780.95 165.24 740.73 165.24 731.01 171.87" style="fill:none"/><polygon points="801.88 187.93 755.13 187.93 744.54 196.97 793.89 196.97 801.88 187.93" style="fill:none"/><polygon points="809.25 179.59 764.9 179.59 755.4 187.7 802.09 187.7 809.25 179.59" style="fill:none"/><polygon points="688.06 171.87 730.19 171.87 739.95 165.24 699.73 165.24 688.06 171.87" style="fill:none"/><polygon points="784.44 207.66 732 207.66 718.59 219.1 774.33 219.1 784.44 207.66" style="fill:none"/><polygon points="1257.93 158.86 1244.96 153.33 1208.17 153.33 1219.55 158.86 1257.93 158.86" style="fill:none"/><polygon points="1023.2 158.86 1019.96 153.33 983.17 153.33 984.81 158.86 1023.2 158.86" style="fill:none"/><polygon points="1101.44 158.86 1094.96 153.33 1058.18 153.33 1063.06 158.86 1101.44 158.86" style="fill:none"/><polygon points="1062.32 158.86 1057.46 153.33 1020.68 153.33 1023.94 158.86 1062.32 158.86" style="fill:none"/><polygon points="1140.57 158.86 1132.46 153.33 1095.67 153.33 1102.18 158.86 1140.57 158.86" style="fill:none"/><polygon points="1232.32 165.06 1272.48 165.06 1258.3 159.02 1219.88 159.02 1232.32 165.06" style="fill:none"/><polygon points="1218.81 158.86 1207.46 153.33 1170.68 153.33 1180.43 158.86 1218.81 158.86" style="fill:none"/><polygon points="1179.69 158.86 1169.96 153.33 1133.18 153.33 1141.31 158.86 1179.69 158.86" style="fill:none"/><polygon points="661.78 219.1 717.51 219.1 730.99 207.66 678.55 207.66 661.78 219.1" style="fill:none"/><polygon points="905.83 158.86 907.46 153.33 870.67 153.33 867.44 158.86 905.83 158.86" style="fill:none"/><polygon points="678.99 207.36 731.34 207.36 743.27 197.23 693.84 197.23 678.99 207.36" style="fill:none"/><polygon points="642.2 232.46 701.78 232.46 717.11 219.44 661.28 219.44 642.2 232.46" style="fill:none"/><polygon points="619.71 247.81 683.71 247.81 701.33 232.85 641.63 232.85 619.71 247.81" style="fill:none"/><polygon points="707.81 187.7 754.5 187.7 764.04 179.59 719.7 179.59 707.81 187.7" style="fill:none"/><polygon points="772.91 172.06 730.73 172.06 720.01 179.38 764.29 179.38 772.91 172.06" style="fill:none"/><polygon points="694.23 196.97 743.58 196.97 754.22 187.93 707.47 187.93 694.23 196.97" style="fill:none"/><polygon points="593.61 265.61 662.74 265.61 683.18 248.25 619.05 248.25 593.61 265.61" style="fill:none"/><polygon points="1251.06 286.52 1227.16 266.13 1157.88 266.13 1175.9 286.52 1251.06 286.52" style="fill:none"/><polygon points="1364.17 311.41 1328.58 287.13 1253.24 287.13 1281.83 311.41 1364.17 311.41" style="fill:none"/><polygon points="1280.23 311.41 1251.78 287.13 1176.44 287.13 1197.91 311.41 1280.23 311.41" style="fill:none"/><polygon points="1448.1 311.41 1405.38 287.13 1330.05 287.13 1365.77 311.41 1448.1 311.41" style="fill:none"/><polygon points="1187.7 232.46 1172.44 219.44 1116.61 219.44 1128.12 232.46 1187.7 232.46" style="fill:none"/><polygon points="1226.56 265.61 1206.21 248.25 1142.08 248.25 1157.42 265.61 1226.56 265.61" style="fill:none"/><polygon points="1172.05 219.1 1158.63 207.66 1106.2 207.66 1116.31 219.1 1172.05 219.1" style="fill:none"/><polygon points="1205.69 247.81 1188.15 232.85 1128.46 232.85 1141.68 247.81 1205.69 247.81" style="fill:none"/><polygon points="1150.69 165.24 1160.45 171.87 1202.58 171.87 1190.91 165.24 1150.69 165.24" style="fill:none"/><polygon points="1184.09 187.93 1197.38 196.97 1246.73 196.97 1230.84 187.93 1184.09 187.93" style="fill:none"/><polygon points="1171.81 179.59 1183.74 187.7 1230.42 187.7 1216.16 179.59 1171.81 179.59" style="fill:none"/><polygon points="1160.73 172.06 1171.5 179.38 1215.79 179.38 1202.92 172.06 1160.73 172.06" style="fill:none"/><polygon points="1197.77 197.23 1212.68 207.36 1265.03 207.36 1247.2 197.23 1197.77 197.23" style="fill:none"/><polygon points="1230.45 219.44 1249.61 232.46 1309.19 232.46 1286.28 219.44 1230.45 219.44" style="fill:none"/><polygon points="1250.17 232.85 1272.18 247.81 1336.18 247.81 1309.86 232.85 1250.17 232.85" style="fill:none"/><polygon points="1213.11 207.66 1229.95 219.1 1285.68 219.1 1265.55 207.66 1213.11 207.66" style="fill:none"/><polygon points="1272.84 248.25 1298.38 265.61 1367.52 265.61 1336.97 248.25 1272.84 248.25" style="fill:none"/><polygon points="1158.29 207.36 1146.41 197.23 1096.98 197.23 1105.93 207.36 1158.29 207.36" style="fill:none"/><polygon points="1327.68 286.52 1297.8 266.13 1228.5 266.13 1252.51 286.52 1327.68 286.52" style="fill:none"/><polygon points="1159.65 207.66 1173.13 219.1 1228.87 219.1 1212.1 207.66 1159.65 207.66" style="fill:none"/><polygon points="1173.52 219.44 1188.86 232.46 1248.45 232.46 1229.36 219.44 1173.52 219.44" style="fill:none"/><polygon points="1207.45 248.25 1227.9 265.61 1297.04 265.61 1271.6 248.25 1207.45 248.25" style="fill:none"/><polygon points="1672.41 378.82 1774.16 378.82 1688.81 342.46 1597.54 342.46 1672.41 378.82" style="fill:none"/><polygon points="1189.31 232.85 1206.93 247.81 1270.94 247.81 1249.01 232.85 1189.31 232.85" style="fill:none"/><polygon points="1074.73 172.06 1081.2 179.38 1125.48 179.38 1116.91 172.06 1074.73 172.06" style="fill:none"/><polygon points="1135.23 187.7 1125.73 179.59 1081.38 179.59 1088.55 187.7 1135.23 187.7" style="fill:none"/><polygon points="1146.1 196.97 1135.51 187.93 1088.76 187.93 1096.74 196.97 1146.1 196.97" style="fill:none"/><polygon points="1117.73 172.06 1126.34 179.38 1170.64 179.38 1159.92 172.06 1117.73 172.06" style="fill:none"/><polygon points="1147.37 197.23 1159.3 207.36 1211.66 207.36 1196.81 197.23 1147.37 197.23" style="fill:none"/><polygon points="1136.42 187.93 1147.06 196.97 1196.42 196.97 1183.18 187.93 1136.42 187.93" style="fill:none"/><polygon points="1126.59 179.59 1136.14 187.7 1182.83 187.7 1170.95 179.59 1126.59 179.59" style="fill:none"/><polygon points="1311.02 232.85 1337.43 247.81 1401.43 247.81 1370.71 232.85 1311.02 232.85" style="fill:none"/><polygon points="1266.57 207.66 1286.76 219.1 1342.5 219.1 1319 207.66 1266.57 207.66" style="fill:none"/><polygon points="1102.37 159.02 1109.49 165.06 1149.66 165.06 1140.8 159.02 1102.37 159.02" style="fill:none"/><polygon points="1287.36 219.44 1310.35 232.46 1369.93 232.46 1343.19 219.44 1287.36 219.44" style="fill:none"/><polygon points="1338.21 248.25 1368.86 265.61 1437.99 265.61 1402.35 248.25 1338.21 248.25" style="fill:none"/><polygon points="1369.77 266.13 1405.75 286.52 1480.91 286.52 1439.05 266.13 1369.77 266.13" style="fill:none"/><polygon points="1593.93 341.56 1533.54 312.15 1451 312.15 1502.92 341.56 1593.93 341.56" style="fill:none"/><polygon points="1406.84 287.13 1449.69 311.41 1532.02 311.41 1482.17 287.13 1406.84 287.13" style="fill:none"/><polygon points="1231.75 187.93 1247.69 196.97 1297.05 196.97 1278.5 187.93 1231.75 187.93" style="fill:none"/><polygon points="1180.71 159.02 1191.38 165.06 1231.54 165.06 1219.13 159.02 1180.71 159.02" style="fill:none"/><polygon points="1141.55 159.02 1150.44 165.06 1190.6 165.06 1179.97 159.02 1141.55 159.02" style="fill:none"/><polygon points="1191.69 165.24 1203.39 171.87 1245.52 171.87 1231.9 165.24 1191.69 165.24" style="fill:none"/><polygon points="1248.16 197.23 1266.04 207.36 1318.39 207.36 1297.59 197.23 1248.16 197.23" style="fill:none"/><polygon points="1203.73 172.06 1216.64 179.38 1260.93 179.38 1245.91 172.06 1203.73 172.06" style="fill:none"/><polygon points="1501.15 341.56 1449.39 312.15 1366.86 312.15 1410.14 341.56 1501.15 341.56" style="fill:none"/><polygon points="1217.02 179.59 1231.33 187.7 1278.01 187.7 1261.37 179.59 1217.02 179.59" style="fill:none"/><polygon points="1174.44 286.52 1156.54 266.13 1087.25 266.13 1099.29 286.52 1174.44 286.52" style="fill:none"/><polygon points="1095.79 196.97 1087.85 187.93 1041.1 187.93 1046.43 196.97 1095.79 196.97" style="fill:none"/><polygon points="1087.64 187.7 1080.52 179.59 1036.17 179.59 1040.96 187.7 1087.64 187.7" style="fill:none"/><polygon points="1104.92 207.36 1096.02 197.23 1046.59 197.23 1052.57 207.36 1104.92 207.36" style="fill:none"/><polygon points="1080.34 179.38 1073.91 172.06 1031.73 172.06 1036.05 179.38 1080.34 179.38" style="fill:none"/><polygon points="1115.23 219.1 1105.18 207.66 1052.74 207.66 1059.5 219.1 1115.23 219.1" style="fill:none"/><polygon points="1068.7 165.24 1074.56 171.87 1116.68 171.87 1108.91 165.24 1068.7 165.24" style="fill:none"/><polygon points="1027.7 165.24 1031.62 171.87 1073.74 171.87 1067.92 165.24 1027.7 165.24" style="fill:none"/><polygon points="1156.08 265.61 1140.83 248.25 1076.7 248.25 1086.95 265.61 1156.08 265.61" style="fill:none"/><polygon points="1222.79 341.56 1196.96 312.15 1114.42 312.15 1131.78 341.56 1222.79 341.56" style="fill:none"/><polygon points="1315.58 341.56 1281.1 312.15 1198.56 312.15 1224.56 341.56 1315.58 341.56" style="fill:none"/><polygon points="1196.31 311.41 1174.98 287.13 1099.65 287.13 1113.98 311.41 1196.31 311.41" style="fill:none"/><polygon points="1408.37 341.56 1365.25 312.15 1282.7 312.15 1317.34 341.56 1408.37 341.56" style="fill:none"/><polygon points="1140.44 247.81 1127.3 232.85 1067.61 232.85 1076.44 247.81 1140.44 247.81" style="fill:none"/><polygon points="1126.96 232.46 1115.53 219.44 1059.7 219.44 1067.38 232.46 1126.96 232.46" style="fill:none"/><polygon points="1109.69 165.24 1117.5 171.87 1159.63 171.87 1149.91 165.24 1109.69 165.24" style="fill:none"/><polygon points="1299.14 266.13 1329.14 286.52 1404.3 286.52 1368.42 266.13 1299.14 266.13" style="fill:none"/><polygon points="828.84 426.05 944.2 426.05 944.33 379.95 842.25 379.95 828.84 426.05" style="fill:none"/><polygon points="634.13 379.95 593.64 426.05 709.01 426.05 736.22 379.95 634.13 379.95" style="fill:none"/><polygon points="530.07 379.95 476.04 426.05 591.4 426.05 632.14 379.95 530.07 379.95" style="fill:none"/><polygon points="738.18 379.95 711.23 426.05 826.61 426.05 840.27 379.95 738.18 379.95" style="fill:none"/><polygon points="426.01 379.95 358.45 426.05 473.81 426.05 528.09 379.95 426.01 379.95" style="fill:none"/><polygon points="293.1 342.46 201.82 342.46 116.48 378.82 218.23 378.82 293.1 342.46" style="fill:none"/><polygon points="321.94 379.95 240.84 426.05 356.21 426.05 424.04 379.95 321.94 379.95" style="fill:none"/><polygon points="217.89 379.95 123.24 426.05 238.6 426.05 319.96 379.95 217.89 379.95" style="fill:none"/><polygon points="113.83 379.95 5.65 426.05 121.01 426.05 215.91 379.95 113.83 379.95" style="fill:none"/><polygon points="880.7 247.81 944.7 247.81 944.74 232.85 885.05 232.85 880.7 247.81" style="fill:none"/><polygon points="889.04 219.1 944.78 219.1 944.81 207.66 892.37 207.66 889.04 219.1" style="fill:none"/><polygon points="875.52 265.61 944.65 265.61 944.7 248.25 880.57 248.25 875.52 265.61" style="fill:none"/><polygon points="869.43 286.52 944.59 286.52 944.65 266.13 875.37 266.13 869.43 286.52" style="fill:none"/><polygon points="853.42 341.56 944.44 341.56 944.52 312.15 861.98 312.15 853.42 341.56" style="fill:none"/><polygon points="842.58 378.82 944.33 378.82 944.43 342.46 853.16 342.46 842.58 378.82" style="fill:none"/><polygon points="862.19 311.41 944.52 311.41 944.59 287.13 869.26 287.13 862.19 311.41" style="fill:none"/><polygon points="670.76 159.02 632.33 159.02 618.15 165.06 658.32 165.06 670.76 159.02" style="fill:none"/><polygon points="611.23 187.93 564.48 187.93 543.28 196.97 592.63 196.97 611.23 187.93" style="fill:none"/><polygon points="628.41 179.59 584.06 179.59 565.03 187.7 611.72 187.7 628.41 179.59" style="fill:none"/><polygon points="657.96 165.24 617.74 165.24 602.18 171.87 644.3 171.87 657.96 165.24" style="fill:none"/><polygon points="643.9 172.06 601.73 172.06 584.56 179.38 628.85 179.38 643.9 172.06" style="fill:none"/><polygon points="710.21 158.86 719.96 153.33 683.18 153.33 671.83 158.86 710.21 158.86" style="fill:none"/><polygon points="682.46 153.33 645.68 153.33 632.71 158.86 671.08 158.86 682.46 153.33" style="fill:none"/><polygon points="892.46 207.36 944.81 207.36 944.84 197.23 895.41 197.23 892.46 207.36" style="fill:none"/><polygon points="518.76 232.85 459.07 232.85 423.96 247.81 487.97 247.81 518.76 232.85" style="fill:none"/><polygon points="592.09 197.23 542.66 197.23 518.88 207.36 571.23 207.36 592.09 197.23" style="fill:none"/><polygon points="450.25 266.13 380.96 266.13 333.12 286.52 408.27 286.52 450.25 266.13" style="fill:none"/><polygon points="407 287.13 331.67 287.13 274.69 311.41 357.02 311.41 407 287.13" style="fill:none"/><polygon points="487.05 248.25 422.92 248.25 382.17 265.61 451.31 265.61 487.05 248.25" style="fill:none"/><polygon points="570.62 207.66 518.18 207.66 491.33 219.1 547.06 219.1 570.62 207.66" style="fill:none"/><polygon points="355.5 312.15 272.96 312.15 203.92 341.56 294.94 341.56 355.5 312.15" style="fill:none"/><polygon points="546.36 219.44 490.53 219.44 459.97 232.46 519.55 232.46 546.36 219.44" style="fill:none"/><polygon points="895.49 196.97 944.84 196.97 944.87 187.93 898.11 187.93 895.49 196.97" style="fill:none"/><polygon points="946.31 379.95 946.44 426.05 1061.81 426.05 1048.4 379.95 946.31 379.95" style="fill:none"/><polygon points="1154.44 379.95 1181.64 426.05 1297 426.05 1256.51 379.95 1154.44 379.95" style="fill:none"/><polygon points="1010.08 248.25 945.94 248.25 945.99 265.61 1015.13 265.61 1010.08 248.25" style="fill:none"/><polygon points="1050.36 379.95 1064.03 426.05 1179.41 426.05 1152.46 379.95 1050.36 379.95" style="fill:none"/><polygon points="1028.67 312.15 946.12 312.15 946.2 341.56 1037.23 341.56 1028.67 312.15" style="fill:none"/><polygon points="1015.28 266.13 945.99 266.13 946.05 286.52 1021.22 286.52 1015.28 266.13" style="fill:none"/><polygon points="1021.39 287.13 946.05 287.13 946.12 311.41 1028.46 311.41 1021.39 287.13" style="fill:none"/><polygon points="1037.49 342.46 946.2 342.46 946.31 378.82 1048.07 378.82 1037.49 342.46" style="fill:none"/><polygon points="674.85 179.38 719.15 179.38 729.91 172.06 687.72 172.06 674.85 179.38" style="fill:none"/><polygon points="1776.81 379.95 1674.73 379.95 1769.63 426.05 1884.99 426.05 1776.81 379.95" style="fill:none"/><polygon points="1570.68 379.95 1652.04 426.05 1767.39 426.05 1672.75 379.95 1570.68 379.95" style="fill:none"/><polygon points="1362.55 379.95 1416.83 426.05 1532.21 426.05 1464.64 379.95 1362.55 379.95" style="fill:none"/><polygon points="1258.49 379.95 1299.24 426.05 1414.59 426.05 1360.57 379.95 1258.49 379.95" style="fill:none"/><polygon points="1466.62 379.95 1534.44 426.05 1649.8 426.05 1568.69 379.95 1466.62 379.95" style="fill:none"/><polygon points="995.24 197.23 945.8 197.23 945.83 207.36 998.19 207.36 995.24 197.23" style="fill:none"/><polygon points="1005.6 232.85 945.9 232.85 945.94 247.81 1009.95 247.81 1005.6 232.85" style="fill:none"/><polygon points="982.47 153.33 945.68 153.33 945.69 158.86 984.08 158.86 982.47 153.33" style="fill:none"/><polygon points="984.12 159.02 945.69 159.02 945.71 165.06 985.88 165.06 984.12 159.02" style="fill:none"/><polygon points="904.77 165.06 944.93 165.06 944.95 159.02 906.52 159.02 904.77 165.06" style="fill:none"/><polygon points="898.18 187.7 944.87 187.7 944.89 179.59 900.54 179.59 898.18 187.7" style="fill:none"/><polygon points="900.6 179.38 944.89 179.38 944.91 172.06 902.73 172.06 900.6 179.38" style="fill:none"/><polygon points="902.78 171.87 944.91 171.87 944.93 165.24 904.72 165.24 902.78 171.87" style="fill:none"/><polygon points="906.57 158.86 944.95 158.86 944.96 153.33 908.18 153.33 906.57 158.86" style="fill:none"/><polygon points="998.27 207.66 945.83 207.66 945.86 219.1 1001.6 219.1 998.27 207.66" style="fill:none"/><polygon points="1001.7 219.44 945.86 219.44 945.9 232.46 1005.49 232.46 1001.7 219.44" style="fill:none"/><polygon points="985.93 165.24 945.71 165.24 945.73 171.87 987.86 171.87 985.93 165.24" style="fill:none"/><polygon points="749.33 158.86 757.47 153.33 720.67 153.33 710.95 158.86 749.33 158.86" style="fill:none"/><polygon points="992.53 187.93 945.77 187.93 945.8 196.97 995.16 196.97 992.53 187.93" style="fill:none"/><polygon points="987.91 172.06 945.73 172.06 945.75 179.38 990.04 179.38 987.91 172.06" style="fill:none"/><polygon points="990.11 179.59 945.75 179.59 945.77 187.7 992.46 187.7 990.11 179.59" style="fill:none"/><polygon points="885.16 232.46 944.74 232.46 944.78 219.44 888.95 219.44 885.16 232.46" style="fill:none"/><polygon points="844.06 197.23 794.62 197.23 785.72 207.36 838.08 207.36 844.06 197.23" style="fill:none"/><polygon points="854.47 179.59 810.11 179.59 802.99 187.7 849.69 187.7 854.47 179.59" style="fill:none"/><polygon points="849.55 187.93 802.78 187.93 794.85 196.97 844.22 196.97 849.55 187.93" style="fill:none"/><polygon points="862.94 165.24 822.72 165.24 816.89 171.87 859.03 171.87 862.94 165.24" style="fill:none"/><polygon points="858.91 172.06 816.73 172.06 810.3 179.38 854.6 179.38 858.91 172.06" style="fill:none"/><polygon points="823.04 232.85 763.34 232.85 750.2 247.81 814.21 247.81 823.04 232.85" style="fill:none"/><polygon points="837.9 207.66 785.46 207.66 775.41 219.1 831.15 219.1 837.9 207.66" style="fill:none"/><polygon points="830.95 219.44 775.11 219.44 763.67 232.46 823.26 232.46 830.95 219.44" style="fill:none"/><polygon points="700.04 165.06 740.21 165.06 749.1 159.02 710.67 159.02 700.04 165.06" style="fill:none"/><polygon points="659.1 165.06 699.26 165.06 709.92 159.02 671.5 159.02 659.1 165.06" style="fill:none"/><polygon points="645.12 171.87 687.24 171.87 698.95 165.24 658.74 165.24 645.12 171.87" style="fill:none"/><polygon points="629.71 179.38 673.99 179.38 686.9 172.06 644.72 172.06 629.71 179.38" style="fill:none"/><polygon points="740.99 165.06 781.15 165.06 788.27 159.02 749.85 159.02 740.99 165.06" style="fill:none"/><polygon points="813.95 248.25 749.8 248.25 734.56 265.61 803.7 265.61 813.95 248.25" style="fill:none"/><polygon points="781.93 165.06 822.09 165.06 827.43 159.02 789.01 159.02 781.93 165.06" style="fill:none"/><polygon points="612.63 187.7 659.31 187.7 673.62 179.59 629.27 179.59 612.63 187.7" style="fill:none"/><polygon points="866.61 159.02 828.18 159.02 822.87 165.06 863.04 165.06 866.61 159.02" style="fill:none"/><polygon points="523.12 265.61 592.27 265.61 617.81 248.25 553.67 248.25 523.12 265.61" style="fill:none"/><polygon points="581.45 232.46 641.04 232.46 660.2 219.44 604.36 219.44 581.45 232.46" style="fill:none"/><polygon points="554.45 247.81 618.47 247.81 640.48 232.85 580.77 232.85 554.45 247.81" style="fill:none"/><polygon points="604.96 219.1 660.7 219.1 677.53 207.66 625.09 207.66 604.96 219.1" style="fill:none"/><polygon points="625.61 207.36 677.97 207.36 692.88 197.23 643.44 197.23 625.61 207.36" style="fill:none"/><polygon points="788.45 158.86 794.96 153.33 758.18 153.33 750.08 158.86 788.45 158.86" style="fill:none"/><polygon points="660.22 187.7 706.91 187.7 718.84 179.59 674.48 179.59 660.22 187.7" style="fill:none"/><polygon points="803.4 266.13 734.1 266.13 716.2 286.52 791.36 286.52 803.4 266.13" style="fill:none"/><polygon points="486.34 286.52 561.51 286.52 591.51 266.13 522.22 266.13 486.34 286.52" style="fill:none"/><polygon points="776.24 312.15 693.68 312.15 667.84 341.56 758.87 341.56 776.24 312.15" style="fill:none"/><polygon points="791 287.13 715.65 287.13 694.33 311.41 776.67 311.41 791 287.13" style="fill:none"/><polygon points="692.08 312.15 609.54 312.15 575.06 341.56 666.08 341.56 692.08 312.15" style="fill:none"/><polygon points="442.54 311.41 524.88 311.41 560.61 287.13 485.26 287.13 442.54 311.41" style="fill:none"/><polygon points="389.49 341.56 480.51 341.56 523.8 312.15 441.24 312.15 389.49 341.56" style="fill:none"/><polygon points="607.94 312.15 525.4 312.15 482.28 341.56 573.3 341.56 607.94 312.15" style="fill:none"/><polygon points="643.9 196.97 693.27 196.97 706.56 187.93 659.8 187.93 643.9 196.97" style="fill:none"/><polygon points="879.32 248.25 815.18 248.25 805.03 265.61 874.17 265.61 879.32 248.25" style="fill:none"/><polygon points="887.86 219.44 832.02 219.44 824.41 232.46 884 232.46 887.86 219.44" style="fill:none"/><polygon points="883.89 232.85 824.19 232.85 815.44 247.81 879.45 247.81 883.89 232.85" style="fill:none"/><polygon points="851.39 342.46 760.1 342.46 738.84 378.82 840.61 378.82 851.39 342.46" style="fill:none"/><polygon points="874.02 266.13 804.73 266.13 792.81 286.52 867.98 286.52 874.02 266.13" style="fill:none"/><polygon points="860.38 312.15 777.82 312.15 760.62 341.56 851.65 341.56 860.38 312.15" style="fill:none"/><polygon points="894.45 197.23 845.01 197.23 839.08 207.36 891.44 207.36 894.45 197.23" style="fill:none"/><polygon points="867.79 287.13 792.45 287.13 778.25 311.41 860.6 311.41 867.79 287.13" style="fill:none"/><polygon points="891.36 207.66 838.91 207.66 832.22 219.1 887.96 219.1 891.36 207.66" style="fill:none"/><polygon points="593.59 196.97 642.95 196.97 658.89 187.93 612.14 187.93 593.59 196.97" style="fill:none"/><polygon points="905.78 159.02 867.35 159.02 863.82 165.06 903.99 165.06 905.78 159.02" style="fill:none"/><polygon points="866.7 158.86 869.97 153.33 833.18 153.33 828.32 158.86 866.7 158.86" style="fill:none"/><polygon points="897.21 187.93 850.45 187.93 845.16 196.97 894.53 196.97 897.21 187.93" style="fill:none"/><polygon points="899.68 179.59 855.32 179.59 850.58 187.7 897.28 187.7 899.68 179.59" style="fill:none"/><polygon points="903.93 165.24 863.71 165.24 859.84 171.87 901.97 171.87 903.93 165.24" style="fill:none"/><polygon points="901.91 172.06 859.72 172.06 855.45 179.38 899.74 179.38 901.91 172.06" style="fill:none"/><polygon points="758.35 342.46 667.06 342.46 635.12 378.82 736.88 378.82 758.35 342.46" style="fill:none"/><polygon points="489.21 247.81 553.21 247.81 579.62 232.85 519.92 232.85 489.21 247.81" style="fill:none"/><polygon points="520.71 232.46 580.29 232.46 603.28 219.44 547.45 219.44 520.71 232.46" style="fill:none"/><polygon points="452.65 265.61 521.78 265.61 552.42 248.25 488.29 248.25 452.65 265.61" style="fill:none"/><polygon points="827.58 158.86 832.46 153.33 795.68 153.33 789.2 158.86 827.58 158.86" style="fill:none"/><polygon points="409.73 286.52 484.88 286.52 520.87 266.13 451.59 266.13 409.73 286.52" style="fill:none"/><polygon points="572.24 207.36 624.59 207.36 642.48 197.23 593.05 197.23 572.24 207.36" style="fill:none"/><polygon points="548.14 219.1 603.87 219.1 624.07 207.66 571.64 207.66 548.14 219.1" style="fill:none"/><polygon points="220.2 378.82 321.95 378.82 386.14 342.46 294.87 342.46 220.2 378.82" style="fill:none"/><polygon points="479.2 342.46 387.91 342.46 323.93 378.82 425.69 378.82 479.2 342.46" style="fill:none"/><polygon points="665.29 342.46 574.01 342.46 531.39 378.82 633.14 378.82 665.29 342.46" style="fill:none"/><polygon points="296.7 341.56 387.72 341.56 439.64 312.15 357.1 312.15 296.7 341.56" style="fill:none"/><polygon points="358.62 311.41 440.94 311.41 483.8 287.13 408.47 287.13 358.62 311.41" style="fill:none"/><polygon points="572.24 342.46 480.97 342.46 427.67 378.82 529.42 378.82 572.24 342.46" style="fill:none"/><path d="M1245.33,290.19h-600L0,564.5H1890.64Zm528.83,225.64H1672.41l-74.87-36.37h91.27ZM1227.9,402.61l-20.45-17.36h64.14L1297,402.61Zm69.9.52,29.88,20.39h-75.17l-24-20.39Zm-90.87-18.32-17.62-15H1249l21.93,15Zm-18.07-15.35-15.34-13h55.84l19.09,13Zm-15.73-13.36-13.48-11.44h52.44l16.78,11.44Zm-13.83-11.74-11.93-10.13h49.44l14.85,10.13ZM1147.06,334l-10.64-9h46.76l13.24,9Zm-10.92-9.27-9.55-8.11H1171l11.88,8.11Zm-9.8-8.32-8.61-7.32h42.19l10.72,7.32Zm-.86,0H1081.2l-6.47-7.32h42.18Zm.25.21,9.5,8.11h-46.68l-7.17-8.11Zm9.78,8.34,10.59,9h-49.36l-8-9Zm10.9,9.3,11.88,10.13h-52.35l-9-10.13Zm12.22,10.43L1172,356.1h-55.73l-10.11-11.44Zm13.81,11.78,15.26,13h-59.58l-11.51-13Zm15.71,13.41,17.54,15h-64l-13.22-15Zm18.06,15.4,20.35,17.36h-69.14l-15.34-17.36Zm21,17.88,23.9,20.39H1175.9l-18-20.39Zm24.62,21,28.45,24.28h-82.32l-21.47-24.28Zm1.46,0h75.34l35.59,24.28h-82.34Zm76.81,0h75.33l42.72,24.28h-82.33Zm-.91-.61-30-20.39h69.28l35.88,20.39Zm-30.76-20.91-25.54-17.36H1337l30.55,17.36Zm-26.2-17.8-22-15h59.69l26.33,15Zm-22.57-15.35-19.16-13h55.83l22.91,13ZM1230,356.1l-16.84-11.44h52.44l20.13,11.44Zm-17.27-11.74-14.91-10.13h49.43L1265,344.36ZM1197.38,334l-13.29-9h46.75l15.89,9Zm-13.64-9.27-11.93-8.11h44.35l14.26,8.11Zm-12.24-8.32-10.76-7.32h42.18l12.87,7.32Zm-11-7.51-9.76-6.63h40.22l11.67,6.63Zm-.82,0H1117.5l-7.81-6.63h40.22Zm-43,0h-42.12l-5.86-6.63h40.21Zm-42.94,0h-42.12l-3.92-6.63h40.22Zm.17.19,6.43,7.32h-44.29l-4.32-7.32Zm6.61,7.53,7.12,8.11H1041l-4.79-8.11Zm7.33,8.34,7.94,9h-49.36l-5.33-9Zm8.17,9.3,8.9,10.13h-52.35l-6-10.13Zm9.16,10.43,10,11.44H1059.5l-6.76-11.44Zm10.35,11.78,11.44,13h-59.59l-7.68-13Zm11.77,13.41,13.14,15h-64l-8.83-15Zm13.53,15.4,15.25,17.36H1087l-10.25-17.36Zm15.7,17.88,17.91,20.39h-75.15l-12-20.39Zm18.45,21,21.33,24.28H1114l-14.33-24.28Zm22,25,25.83,29.42h-91l-17.36-29.42Zm1.6,0h82.54l34.48,29.42h-91Zm84.14,0h82.55l43.12,29.42h-91Zm84.16,0h82.53l51.76,29.42h-91Zm84.14,0h82.54l60.39,29.42h-91Zm-1.31-.74-42.85-24.28h75.33L1532,448.41Zm-43.94-24.89-36-20.39h69.28l41.86,20.39Zm-36.89-20.91-30.65-17.36h64.13L1438,402.61Zm-31.43-17.8-26.41-15h59.69l30.72,15Zm-27.08-15.35-23-13h55.83l26.74,13Zm-23.59-13.36-20.19-11.44H1319l23.5,11.44ZM1266,344.36l-17.88-10.13h49.43l20.8,10.13ZM1247.69,334l-15.94-9h46.75l18.55,9Zm-16.36-9.27L1217,316.59h44.35L1278,324.7Zm-14.68-8.32-12.92-7.32h42.18l15,7.32Zm-13.26-7.51-11.7-6.63h40.21l13.62,6.63Zm-12-6.81-10.67-6h38.43l12.4,6Zm-.78,0h-40.16l-8.9-6H1180Zm-40.94,0h-40.17l-7.12-6h38.43Zm-41,0h-40.17l-5.34-6h38.42Zm-41,0H1027.6l-3.57-6h38.43Zm-40.94,0H986.65l-1.79-6h38.43Zm.1.18,3.88,6.63H988.67l-2-6.63Zm4,6.82,4.28,7.32H990.9l-2.17-7.32Zm4.4,7.53,4.74,8.11H993.36l-2.4-8.11Zm4.88,8.34,5.28,9H996.11l-2.68-9Zm5.44,9.3,5.92,10.13H999.19l-3-10.13Zm6.1,10.43,6.69,11.44h-55.75l-3.39-11.44Zm6.88,11.78,7.62,13h-59.6l-3.86-13Zm7.84,13.41,8.75,15h-64l-4.43-15Zm9,15.4,10.15,17.36h-69.15l-5.14-17.36Zm10.45,17.88,11.92,20.39h-75.17l-6-20.39Zm12.28,21,14.19,24.28H1030l-7.2-24.28Zm14.63,25L1130,478.57h-91l-8.72-29.42Zm17.72,30.31,21.26,36.37H1050l-10.78-36.37Zm1.77,0h91.27l31.94,36.37H1153.77Zm93,0h91.27l42.63,36.37H1257.5Zm93,0h91.29L1463,515.83H1361.22Zm93.06,0h91.28l64,36.37H1465Zm93,0h91.27l74.66,36.37H1568.68Zm182.21-.89h-91l-60.56-29.42h82.54ZM1616,448.41h-82.33l-50-24.28H1559Zm-58.43-24.89h-75.15l-42-20.39h69.28Zm-49.06-20.91h-69.13l-35.74-17.36h64.13Zm-41.79-17.8h-64l-30.8-15h59.69Zm-36-15.35h-59.59l-26.81-13h55.83Zm-31.36-13.36h-55.73L1320,344.66h52.43Zm-27.55-11.74h-52.35l-20.86-10.13H1348ZM1347.36,334H1298l-18.59-9h46.75Zm-21.76-9.27h-46.68l-16.69-8.11h44.35Zm-19.52-8.32h-44.29l-15.06-7.32h42.18Zm-17.62-7.51h-42.12l-13.66-6.63h40.22Zm-16-6.81h-40.16l-12.44-6h38.42ZM1245,290.33l13,5.53h-38.38l-11.38-5.53Zm-37.5,0,11.35,5.53h-38.38l-9.75-5.53Zm-37.5,0,9.73,5.53h-38.38l-8.13-5.53Zm-37.5,0,8.11,5.53h-38.39l-6.51-5.53Zm-37.5,0,6.48,5.53h-38.38l-4.88-5.53Zm-37.5,0,4.86,5.53h-38.38l-3.26-5.53Zm-37.5,0,3.24,5.53H984.81l-1.64-5.53Zm-112.5,0-1.63,5.53H867.44l3.23-5.53ZM764,316.59l-9.54,8.11H707.81l11.89-8.11Zm-44-.21,10.72-7.32h42.18l-8.62,7.32Zm34.21,8.55-10.64,9H694.23l13.24-9Zm-11,9.3-11.93,10.13H679l14.86-10.13ZM731,344.66,717.51,356.1H661.78l16.77-11.44Zm-13.88,11.78-15.33,13H642.2l19.08-13Zm-15.78,13.41-17.62,15h-64l21.92-15Zm-18.15,15.4-20.44,17.36H593.61l25.44-17.36Zm-21,17.88-24,20.39H563l29.88-20.39Zm-24.73,21-28.59,24.28H526.48l35.59-24.28Zm1.46,0h75.33l-21.46,24.28H610.4Zm.72-.61,23.9-20.39h69.28l-18,20.39Zm24.5-20.91,20.35-17.36h64.13l-15.35,17.36ZM685,384.81l17.54-15h59.69l-13.23,15Zm18-15.35,15.27-13H774l-11.51,13Zm15.66-13.36L732,344.66h52.43L774.33,356.1Zm13.76-11.74,11.88-10.13h49.43l-9,10.13ZM744.54,334l10.59-9h46.75l-8,9Zm10.86-9.27,9.51-8.11h44.34l-7.16,8.11Zm9.75-8.32,8.58-7.32h42.18l-6.47,7.32Zm8.8-7.51,7.78-6.63h40.21l-5.86,6.63Zm-.81,0H731l9.72-6.63h40.21Zm-42.95,0H688.06l11.67-6.63H740Zm-.28.19-10.76,7.32h-44.3l12.87-7.32Zm-11.07,7.53-11.93,8.11H660.22l14.26-8.11Zm-12.28,8.34-13.29,9H643.9l15.9-9Zm-13.68,9.3L678,344.36H625.61l17.83-10.13Zm-15.35,10.43L660.7,356.1H605l20.14-11.44ZM660.2,356.44l-19.16,13H581.45l22.91-13Zm-19.72,13.41-22,15h-64l26.32-15Zm-22.67,15.4-25.54,17.36H523.12l30.55-17.36Zm-26.3,17.88-30,20.39H486.34l35.88-20.39Zm-30.9,21-35.73,24.28H442.54l42.72-24.28Zm-36.81,25-43.28,29.42h-91l51.76-29.42Zm1.6,0h82.54L573.3,478.57h-91Zm84.14,0h82.54l-26,29.42h-91Zm84.14,0h82.56l-17.37,29.42h-91Zm.65-.74,21.32-24.28H791l-14.33,24.28Zm21.86-24.89,17.91-20.39h69.3l-12,20.39Zm18.37-20.91,15.24-17.36H814L803.7,402.61Zm15.64-17.8,13.14-15H823l-8.83,15Zm13.47-15.35,11.44-13H831l-7.69,13Zm11.74-13.36,10.05-11.44H837.9l-6.75,11.44Zm10.31-11.74,8.9-10.13h49.44l-6,10.13ZM794.85,334l7.94-9h46.76l-5.34,9ZM803,324.7l7.12-8.11h44.36l-4.78,8.11Zm7.31-8.32,6.42-7.32h42.19l-4.31,7.32Zm6.59-7.51,5.83-6.63h40.22L859,308.87Zm6-6.81,5.31-6h38.43l-3.57,6Zm-.78,0H781.93l7.08-6h38.43Zm-40.94,0H741l8.85-6h38.43Zm-40.94,0H700l10.63-6H749.1Zm-41,0H659.1l12.4-6h38.42Zm-.31.18-11.71,6.63H645.12l13.62-6.63Zm-12.05,6.82L674,316.38H629.7l15-7.32Zm-13.28,7.53-14.31,8.11H612.63l16.64-8.11Zm-14.73,8.34L643,334H593.59l18.55-9Zm-16.41,9.3-17.89,10.13H572.24l20.81-10.13Zm-18.41,10.43-20.2,11.44H548.14l23.5-11.44Zm-20.79,11.78-23,13H520.71l26.74-13Zm-23.66,13.41-26.41,15h-64l30.71-15Zm-27.2,15.4-30.64,17.36H452.65l35.64-17.36Zm-31.55,17.88-36,20.39H409.73l41.86-20.39Zm-37.07,21-42.86,24.28H358.62l49.85-24.28Zm-44.16,25-51.92,29.42h-91l60.4-29.42Zm-53.5,30.31L322,515.83H220.2l74.67-36.37Zm1.77,0H479.2l-53.51,36.37H323.93Zm93.06,0h91.27l-42.82,36.37H427.67Zm93,0h91.28l-32.15,36.37H531.39Zm93,0h91.29l-21.47,36.37H635.12Zm93,0h91.29l-10.78,36.37H738.84Zm.52-.89,17.2-29.42h82.56l-8.73,29.42Zm17.63-30.16,14.2-24.28h75.34l-7.19,24.28Zm14.56-24.89,11.92-20.39H874l-6,20.39ZM805,402.61l10.15-17.36h64.14l-5.15,17.36Zm10.41-17.8,8.75-15h59.7l-4.44,15Zm9-15.35,7.61-13h55.84l-3.86,13Zm7.81-13.36,6.69-11.44h52.45L888,356.1Zm6.86-11.74L845,334.23h49.44l-3,10.13ZM845.16,334l5.28-9h46.77l-2.68,9Zm5.42-9.27,4.74-8.11h44.36l-2.4,8.11Zm4.87-8.32,4.27-7.32h42.19l-2.17,7.32Zm4.39-7.51,3.87-6.63h40.22l-2,6.63Zm4-6.81,3.53-6h38.43l-1.79,6ZM870,290.33l-3.27,5.53H828.32l4.86-5.53Zm-37.51,0-4.88,5.53H789.2l6.48-5.53Zm-37.5,0-6.51,5.53H750.08l8.1-5.53Zm-37.49,0-8.14,5.53H711l9.73-5.53Zm-37.51,0-9.76,5.53H671.83l11.35-5.53Zm-74.28,0h36.78l-11.38,5.53H632.71ZM632.33,296h38.43l-12.44,6H618.15Zm-14.59,6.22H658l-13.66,6.63H602.18Zm-16,6.82H643.9l-15,7.32H584.56Zm-17.66,7.53h44.35l-16.69,8.11H565Zm-19.58,8.34h46.75l-18.6,9H543.28Zm-21.82,9.3h49.43l-20.86,10.13H518.88Zm-24.48,10.43h52.44L547.06,356.1H491.33Zm-27.65,11.78h55.83l-26.81,13H460Zm-31.46,13.41h59.7l-30.8,15H424Zm-36.15,15.4h64.13l-35.74,17.36H382.17Zm-42,17.88h69.29l-42,20.39H333.11Zm-49.29,21H407l-50,24.28H274.69Zm-58.71,25H355.5l-60.56,29.42h-91Zm-71.14,30.31H293.1l-74.87,36.37H116.48ZM5.65,563.05,113.83,517H215.91L121,563.05Zm117.59,0L217.89,517H320l-81.36,46.1Zm117.6,0,81.1-46.1H424l-67.82,46.1Zm117.61,0L426,517H528.09l-54.28,46.1Zm117.59,0,54-46.1H632.15l-40.75,46.1Zm117.6,0L634.13,517H736.22L709,563.05Zm117.59,0L738.18,517H840.27l-13.66,46.1Zm233,0H828.84L842.25,517H944.33Zm.13-47.22H842.58l10.58-36.37h91.27Zm.11-37.26h-91L862,449.15h82.54Zm.08-30.16H862.19l7.07-24.28h75.33Zm.07-24.89H869.43l5.94-20.39h69.28Zm.06-20.91H875.52l5.05-17.36H944.7Zm.05-17.8h-64l4.35-15h59.69Zm0-15.35H885.16l3.79-13h55.83Zm0-13.36H889.05l3.32-11.44h52.44Zm0-11.74H892.46l2.95-10.13h49.43Zm0-10.39H895.48l2.63-9h46.76Zm0-9.27H898.18l2.36-8.11h44.35Zm0-8.32H900.6l2.13-7.32h42.18Zm0-7.51H902.79l1.92-6.63h40.22Zm0-6.81H904.77l1.75-6H945Zm0-6.2H906.57l1.61-5.53H945Zm.73-5.53h36.79l1.6,5.53H945.69Zm0,5.69h38.43l1.76,6H945.71Zm0,6.22h40.22l1.93,6.63H945.73Zm0,6.82h42.19l2.12,7.32H945.75Zm0,7.53h44.36l2.35,8.11H945.77Zm0,8.34h46.76l2.63,9H945.8Zm0,9.3h49.44l3,10.13H945.83Zm0,10.43h52.44l3.33,11.44H945.86Zm0,11.78h55.84l3.79,13H945.9Zm0,13.41h59.7l4.35,15h-64Zm0,15.4h64.14l5,17.36H946Zm0,17.88h69.29l5.94,20.39H946.05Zm.06,21h75.35l7.06,24.28H946.12Zm.07,25h82.55l8.56,29.42h-91Zm.08,30.31h91.29l10.58,36.37H946.31Zm.24,83.59-.13-46.1H1048.4l13.41,46.1Zm117.59,0L1050.36,517h102.1l27,46.1Zm117.61,0-27.2-46.1h102.07l40.49,46.1Zm117.6,0L1258.49,517h102.08l54,46.1Zm117.59,0L1362.55,517h102.09l67.57,46.1Zm117.62,0L1466.62,517H1568.7l81.1,46.1Zm117.59,0L1570.68,517h102.07l94.64,46.1Zm22.69-46.1h102.08L1885,563.05H1769.63Z" transform="translate(0 -137)" style="fill:#333"/></g></g></g><rect x="909.06" width="43" height="66" rx="21.5" ry="21.5" style="fill:#c3c3c3;opacity:0.48"/><path d="M923.81,177.72l6.6,6.07a.59.59,0,0,0,.8,0l6.6-6.07" transform="translate(0 -137)" style="fill:none;stroke:#fff;stroke-linecap:round;stroke-miterlimit:10;stroke-width:2px;opacity:0.45"/><path d="M923.81,168.1l6.6,6.07a.59.59,0,0,0,.8,0l6.6-6.07" transform="translate(0 -137)" style="fill:none;stroke:#fff;stroke-linecap:round;stroke-miterlimit:10;stroke-width:2px;opacity:0.45"/></g></g></g></svg>