<svg xmlns="http://www.w3.org/2000/svg" viewBox="0 0 36.63 36.63"><title>Asset 1</title><g id="Layer_2" data-name="Layer 2"><g id="Layer_1-2" data-name="Layer 1"><path d="M4.06,22.33a15,15,0,0,0,1.34,3.2l-1.62,2a1.68,1.68,0,0,0,.13,2.23L6.7,32.6a1.68,1.68,0,0,0,2.23.13l2-1.61a14.7,14.7,0,0,0,3.32,1.4l.3,2.62a1.69,1.69,0,0,0,1.67,1.49h4a1.68,1.68,0,0,0,1.66-1.49l.29-2.53a14.69,14.69,0,0,0,3.56-1.44l2,1.56a1.69,1.69,0,0,0,2.23-.12l2.8-2.8a1.68,1.68,0,0,0,.12-2.23l-1.53-1.94a14.93,14.93,0,0,0,1.47-3.5l2.36-.27a1.68,1.68,0,0,0,1.48-1.67v-4a1.67,1.67,0,0,0-1.48-1.66l-2.33-.27a14.54,14.54,0,0,0-1.41-3.46L32.85,9a1.68,1.68,0,0,0-.13-2.23L29.93,4a1.67,1.67,0,0,0-2.23-.13L25.94,5.28A14.54,14.54,0,0,0,22.3,3.76L22,1.49A1.69,1.69,0,0,0,20.37,0H16.42a1.69,1.69,0,0,0-1.67,1.49l-.26,2.27a14.5,14.5,0,0,0-3.74,1.58L8.93,3.89A1.68,1.68,0,0,0,6.7,4L3.91,6.82A1.66,1.66,0,0,0,3.78,9L5.3,11a14.66,14.66,0,0,0-1.38,3.5l-2.43.28A1.67,1.67,0,0,0,0,16.41v4A1.68,1.68,0,0,0,1.49,22ZM18.4,11.62a6.55,6.55,0,1,1-6.55,6.55,6.55,6.55,0,0,1,6.55-6.55Z" style="fill:#7f7f7f"/></g></g></svg>