<?xml version="1.0" encoding="utf-8"?>
<!-- Generator: Adobe Illustrator 22.1.0, SVG Export Plug-In . SVG Version: 6.00 Build 0)  -->
<svg version="1.1" id="Layer_1" xmlns="http://www.w3.org/2000/svg" xmlns:xlink="http://www.w3.org/1999/xlink" x="0px" y="0px"
	 viewBox="0 0 650 1085" style="enable-background:new 0 0 650 1085;" xml:space="preserve">
<g>
	<defs>
		
			<rect id="SVGID_1_" x="-2" y="-0.4" transform="matrix(-1 -1.224647e-16 1.224647e-16 -1 648 1085)" width="652" height="1085.9"/>
	</defs>
	<use xlink:href="#SVGID_1_"  style="overflow:visible;fill:#363636;"/>
	<clipPath id="SVGID_2_">
		<use xlink:href="#SVGID_1_"  style="overflow:visible;"/>
	</clipPath>
	<g style="opacity:8.000000e-02;clip-path:url(#SVGID_2_);">
		<g>
			<line style="fill:#F1F1F1;" x1="566" y1="1465" x2="82.8" y2="-870.3"/>
			
				<line style="fill:#F1F1F1;stroke:#E4E4E4;stroke-width:4.166667e-02;stroke-miterlimit:10;" x1="613" y1="1441.3" x2="36.1" y2="-817.5"/>
			
				<line style="fill:#F1F1F1;stroke:#E4E4E4;stroke-width:8.333334e-02;stroke-miterlimit:10;" x1="660" y1="1417.7" x2="-10.5" y2="-764.8"/>
			
				<line style="fill:#F1F1F1;stroke:#E4E4E4;stroke-width:0.125;stroke-miterlimit:10;" x1="707.1" y1="1394" x2="-57.2" y2="-712"/>
			
				<line style="fill:#F1F1F1;stroke:#E4E4E4;stroke-width:0.1667;stroke-miterlimit:10;" x1="754.1" y1="1370.4" x2="-103.9" y2="-659.3"/>
			
				<line style="fill:#F1F1F1;stroke:#E4E4E4;stroke-width:0.2083;stroke-miterlimit:10;" x1="801.1" y1="1346.7" x2="-150.5" y2="-606.5"/>
			
				<line style="fill:#F1F1F1;stroke:#E4E4E4;stroke-width:0.25;stroke-miterlimit:10;" x1="848.1" y1="1323.1" x2="-197.2" y2="-553.7"/>
			
				<line style="fill:#F1F1F1;stroke:#E4E4E4;stroke-width:0.2917;stroke-miterlimit:10;" x1="895.2" y1="1299.4" x2="-243.9" y2="-501"/>
			
				<line style="fill:#F1F1F1;stroke:#E4E4E4;stroke-width:0.3333;stroke-miterlimit:10;" x1="942.2" y1="1275.8" x2="-290.5" y2="-448.2"/>
			
				<line style="fill:#F1F1F1;stroke:#E4E4E4;stroke-width:0.375;stroke-miterlimit:10;" x1="989.2" y1="1252.1" x2="-337.2" y2="-395.5"/>
			
				<line style="fill:#F1F1F1;stroke:#E4E4E4;stroke-width:0.4167;stroke-miterlimit:10;" x1="1036.2" y1="1228.5" x2="-383.9" y2="-342.7"/>
			
				<line style="fill:#F1F1F1;stroke:#E4E4E4;stroke-width:0.4583;stroke-miterlimit:10;" x1="1083.3" y1="1204.8" x2="-430.5" y2="-290"/>
			
				<line style="fill:#F1F1F1;stroke:#E4E4E4;stroke-width:0.5;stroke-miterlimit:10;" x1="1130.3" y1="1181.2" x2="-477.2" y2="-237.2"/>
			
				<line style="fill:#F1F1F1;stroke:#E4E4E4;stroke-width:0.5417;stroke-miterlimit:10;" x1="1177.3" y1="1157.5" x2="-523.9" y2="-184.4"/>
			
				<line style="fill:#F1F1F1;stroke:#E4E4E4;stroke-width:0.5833;stroke-miterlimit:10;" x1="1224.3" y1="1133.9" x2="-570.6" y2="-131.7"/>
			
				<line style="fill:#F1F1F1;stroke:#E4E4E4;stroke-width:0.625;stroke-miterlimit:10;" x1="1271.3" y1="1110.2" x2="-617.2" y2="-78.9"/>
			
				<line style="fill:#F1F1F1;stroke:#E4E4E4;stroke-width:0.6667;stroke-miterlimit:10;" x1="1318.4" y1="1086.6" x2="-663.9" y2="-26.2"/>
			
				<line style="fill:#F1F1F1;stroke:#E4E4E4;stroke-width:0.7083;stroke-miterlimit:10;" x1="1365.4" y1="1062.9" x2="-710.6" y2="26.6"/>
			
				<line style="fill:#F1F1F1;stroke:#E4E4E4;stroke-width:0.75;stroke-miterlimit:10;" x1="1412.4" y1="1039.3" x2="-757.2" y2="79.4"/>
			
				<line style="fill:#F1F1F1;stroke:#E4E4E4;stroke-width:0.7917;stroke-miterlimit:10;" x1="1459.4" y1="1015.6" x2="-803.9" y2="132.1"/>
			
				<line style="fill:#F1F1F1;stroke:#E4E4E4;stroke-width:0.8333;stroke-miterlimit:10;" x1="1506.5" y1="992" x2="-850.6" y2="184.9"/>
			
				<line style="fill:#F1F1F1;stroke:#E4E4E4;stroke-width:0.875;stroke-miterlimit:10;" x1="1553.5" y1="968.3" x2="-897.2" y2="237.6"/>
			
				<line style="fill:#F1F1F1;stroke:#E4E4E4;stroke-width:0.9167;stroke-miterlimit:10;" x1="1600.5" y1="944.7" x2="-943.9" y2="290.4"/>
			
				<line style="fill:#F1F1F1;stroke:#E4E4E4;stroke-width:0.9583;stroke-miterlimit:10;" x1="1647.5" y1="921" x2="-990.6" y2="343.1"/>
			<line style="fill:none;stroke:#E4E4E4;stroke-miterlimit:10;" x1="1694.5" y1="897.4" x2="-1037.2" y2="395.9"/>
		</g>
	</g>
</g>
</svg>
