<svg xmlns="http://www.w3.org/2000/svg" viewBox="0 0 44.23 46.77"><title>Asset 4</title><g id="Layer_2" data-name="Layer 2"><g id="Layer_1-2" data-name="Layer 1"><path d="M22.89,46.77a2.12,2.12,0,1,1,2.23-2.12A2.18,2.18,0,0,1,22.89,46.77Zm-10-2.25a1.71,1.71,0,1,1,1.81-1.7A1.76,1.76,0,0,1,12.9,44.52Zm19.73-.16A2.27,2.27,0,1,1,35,42.09,2.34,2.34,0,0,1,32.63,44.36Zm6.76-6.07c-.6-1.17-1.25-2.4-2-3.71a17.42,17.42,0,0,0,2.94-9.7c0-9.9-8.33-18-18.57-18A19,19,0,0,0,15,8.17l-1.46.56,5.9,5.79L0,18.69,4.68,0l6.13,6,.64-.32A22.81,22.81,0,0,1,21.8,3.27c12.37,0,22.43,9.69,22.43,21.61A21.08,21.08,0,0,1,39.39,38.29ZM3.85,36.23a.77.77,0,1,1,0-1.53.77.77,0,1,1,0,1.53Z" style="fill:#fff"/></g></g></svg>