<svg xmlns="http://www.w3.org/2000/svg" viewBox="0 0 73.33 61.11"><title>Asset 1</title><g id="Layer_2" data-name="Layer 2"><g id="Layer_1-2" data-name="Layer 1"><path d="M26.89,26.89H45.22a1.22,1.22,0,0,0,1.22-1.22V11a1.22,1.22,0,0,0-1.22-1.23H42.78v-3a6.73,6.73,0,0,0-13.45,0V9.77H26.89A1.22,1.22,0,0,0,25.67,11V25.67a1.22,1.22,0,0,0,1.22,1.22ZM31.78,6.72a4.28,4.28,0,0,1,8.55,0V9.77H31.78Zm-3.67,5.5H44V24.44H28.11Zm31.78,22H13.45a13.45,13.45,0,1,0,0,26.89H59.89a13.45,13.45,0,0,0,0-26.89Zm0,24.44H13.45a11,11,0,1,1,0-22H59.89a11,11,0,0,1,0,22ZM19,44.13l-3.12,1.56V41.55a1.22,1.22,0,0,0-2.44,0v4.14l-3.13-1.56a1.22,1.22,0,1,0-1.09,2.19l3.58,1.79L10,51.82a1.22,1.22,0,0,0,.25,1.71,1.15,1.15,0,0,0,.73.25,1.23,1.23,0,0,0,1-.49l2.69-3.59,2.68,3.59a1.23,1.23,0,0,0,1,.49,1.2,1.2,0,0,0,.74-.25,1.23,1.23,0,0,0,.24-1.71l-2.79-3.71,3.58-1.79A1.22,1.22,0,1,0,19,44.13Zm14.67,0-3.12,1.56V41.55a1.23,1.23,0,0,0-2.45,0v4.14L25,44.13a1.22,1.22,0,1,0-1.09,2.19l3.58,1.79-2.79,3.71a1.22,1.22,0,0,0,.24,1.71,1.2,1.2,0,0,0,.74.25,1.24,1.24,0,0,0,1-.49l2.68-3.59L32,53.29a1.23,1.23,0,0,0,1,.49,1.15,1.15,0,0,0,.73-.25A1.22,1.22,0,0,0,34,51.82l-2.78-3.71,3.58-1.79a1.23,1.23,0,0,0,.54-1.65,1.21,1.21,0,0,0-1.63-.54Zm14.66,0-3.12,1.56V41.55a1.22,1.22,0,0,0-2.44,0v4.14l-3.12-1.56a1.22,1.22,0,0,0-1.64.54,1.24,1.24,0,0,0,.54,1.65l3.58,1.79-2.78,3.71a1.22,1.22,0,0,0,.24,1.71,1.17,1.17,0,0,0,.73.25,1.21,1.21,0,0,0,1-.49L44,49.7l2.69,3.59a1.22,1.22,0,1,0,2-1.47l-2.78-3.71,3.58-1.79A1.24,1.24,0,0,0,50,44.67a1.22,1.22,0,0,0-1.64-.54Zm14.67,0-3.12,1.56V41.55a1.22,1.22,0,1,0-2.44,0v4.14l-3.12-1.56a1.23,1.23,0,1,0-1.1,2.19l3.58,1.79L54,51.82a1.23,1.23,0,0,0,.25,1.71,1.17,1.17,0,0,0,.73.25,1.24,1.24,0,0,0,1-.49l2.68-3.59,2.69,3.59a1.23,1.23,0,0,0,1,.49,1.2,1.2,0,0,0,.74-.25,1.22,1.22,0,0,0,.24-1.71l-2.79-3.71,3.58-1.79a1.24,1.24,0,0,0,.55-1.65A1.23,1.23,0,0,0,63,44.13Z" style="fill:#bfbfbf"/></g></g></svg>