<svg xmlns="http://www.w3.org/2000/svg" viewBox="0 0 30 27.81"><title>Asset 1</title><g id="Layer_2" data-name="Layer 2"><g id="Layer_1-2" data-name="Layer 1"><path d="M18.32,17.73c.58,0,.79-.27.79-.85V7.38a1.06,1.06,0,0,0-2.11,0v8.24H10.4a1.06,1.06,0,0,0,0,2.11Z" style="fill:#979797"/><path d="M28.64,19.89A13.91,13.91,0,0,0,11.44.8a13.76,13.76,0,0,0-7.86,7L2.05,3.52A1.07,1.07,0,0,0,.7,2.87,1.06,1.06,0,0,0,.06,4.22l2.45,6.93a1.11,1.11,0,0,0,.55.6,1.14,1.14,0,0,0,.45.1,1,1,0,0,0,.35-.06l7.31-2.6a1,1,0,0,0,.64-1.34,1.05,1.05,0,0,0-1.35-.64L5.35,9a11.66,11.66,0,0,1,6.79-6.23A11.79,11.79,0,0,1,26.73,19a11.8,11.8,0,0,1-19.29,3A1,1,0,0,0,6,21.89a1,1,0,0,0,0,1.48,13.91,13.91,0,0,0,22.74-3.48Z" style="fill:#979797"/></g></g></svg>