<?xml version="1.0" encoding="utf-8"?>
<!-- Generator: Adobe Illustrator 22.1.0, SVG Export Plug-In . SVG Version: 6.00 Build 0)  -->
<svg version="1.1" id="Layer_1" xmlns="http://www.w3.org/2000/svg" xmlns:xlink="http://www.w3.org/1999/xlink" x="0px" y="0px"
	 viewBox="0 0 117 118" style="enable-background:new 0 0 117 118;" xml:space="preserve">
<g>
	<g>
		
			<image style="overflow:visible;opacity:0.3;" width="226" height="226" xlink:href="DB3E0B94.png"  transform="matrix(1 0 0 1 -43 -35)">
		</image>
		<g>
			<circle style="fill:#FFFFFF;" cx="55.1" cy="63.3" r="43.5"/>
		</g>
	</g>
	<g>
		<g>
			<defs>
				<path id="SVGID_1_" d="M58.3,116.8L58.3,116.8c-32.1,0-58.1-26-58.1-58.1v0c0-32.1,26-58.1,58.1-58.1h0
					c32.1,0,58.1,26,58.1,58.1v0C116.4,90.8,90.4,116.8,58.3,116.8z"/>
			</defs>
			<clipPath id="SVGID_2_">
				<use xlink:href="#SVGID_1_"  style="overflow:visible;"/>
			</clipPath>
			<linearGradient id="SVGID_3_" gradientUnits="userSpaceOnUse" x1="-16.5243" y1="54.9025" x2="116.1839" y2="54.9025">
				<stop  offset="0" style="stop-color:#65A7DD"/>
				<stop  offset="1" style="stop-color:#487FEA"/>
			</linearGradient>
			<rect x="-16.5" y="-7.2" style="clip-path:url(#SVGID_2_);fill:url(#SVGID_3_);" width="132.7" height="124.3"/>
		</g>
	</g>
	<polygon style="fill:#FFFFFF;" points="81,28.6 58.7,54.6 48.9,40.9 43.7,40.9 55.8,57.9 35.8,81.2 40.2,81.2 57.6,60.4 60.4,57 
		69,46.7 62.2,59.5 59.9,63.7 50.6,81.2 54.3,81.2 61.8,66.3 72.4,81.2 77.6,81.2 64,62 	"/>
</g>
</svg>
