<svg xmlns="http://www.w3.org/2000/svg" viewBox="0 0 57.06 53.96"><title>Asset 2</title><g id="Layer_2" data-name="Layer 2"><g id="Layer_1-2" data-name="Layer 1"><path d="M56.32,52.26a.43.43,0,0,0,.74-.31L57,27l.09-25a.43.43,0,0,0-.74-.3l-25,25a.43.43,0,0,0,0,.61Z" style="fill:#fff"/><path d="M2,5.81,23.18,27,2,48.15,2.09,27,2,5.81M.43,1.58A.43.43,0,0,0,0,2L.09,27,0,52a.43.43,0,0,0,.43.43.47.47,0,0,0,.31-.12l25-25a.43.43,0,0,0,0-.61l-25-25a.43.43,0,0,0-.31-.13Z" style="fill:#fff"/><line x1="28.53" y1="3.5" x2="28.53" y2="1" style="fill:none;stroke:#fff;stroke-linecap:round;stroke-miterlimit:10;stroke-width:2px;stroke-dasharray:0,7,0,0,0,0"/><line x1="28.53" y1="3.36" x2="28.53" y2="52.96" style="fill:none;stroke:#fff;stroke-linecap:round;stroke-miterlimit:10;stroke-width:2px;stroke-dasharray:0,7,0,0,0,0"/><line x1="28.53" y1="50.46" x2="28.53" y2="52.96" style="fill:none;stroke:#fff;stroke-linecap:round;stroke-miterlimit:10;stroke-width:2px;stroke-dasharray:0,7,0,0,0,0"/></g></g></svg>