<svg xmlns="http://www.w3.org/2000/svg" viewBox="0 0 73.76 54.84"><title>Asset 3</title><g id="Layer_2" data-name="Layer 2"><g id="Layer_1-2" data-name="Layer 1"><g id="cloud-off"><path d="M56.45,47.65H17.75A17.58,17.58,0,0,1,.29,33.49,16.8,16.8,0,0,1,3.62,19.94a18.09,18.09,0,0,1,13.16-6.88L22,12.73,10.78,1.92l1-1L63,52.23l-1,1ZM17.29,15A15.38,15.38,0,0,0,2,31.13,15.56,15.56,0,0,0,17.72,45.71h36.8L23.8,15Zm52.08,28.5a1,1,0,0,1-.75-1.75,11.87,11.87,0,0,0,3.15-9.44A12.25,12.25,0,0,0,59.41,21.52H57.13A20.25,20.25,0,0,0,39.12,2c-.76-.07-1.51-.11-2.24-.11a17.51,17.51,0,0,0-7.19,1.41,1.1,1.1,0,0,1-.4.08,1,1,0,0,1-.71-.3,1,1,0,0,1-.28-.94,1,1,0,0,1,.61-.74,21.44,21.44,0,0,1,8-1.44A22.4,22.4,0,0,1,58.79,17.75l.35,1.7,1.72.13a14.29,14.29,0,0,1,12.9,14,14,14,0,0,1-3.58,9.5A1.12,1.12,0,0,1,69.37,43.49Z" style="fill:#e4e4e4"/></g><line x1="63.13" y1="53.84" x2="10.63" y2="1.34" style="fill:none;stroke:#e4e4e4;stroke-linecap:round;stroke-miterlimit:10;stroke-width:2px"/></g></g></svg>