<svg xmlns="http://www.w3.org/2000/svg" viewBox="0 0 64.71 80.13"><title>Asset 2</title><g id="Layer_2" data-name="Layer 2"><g id="Layer_1-2" data-name="Layer 1"><path d="M41.22,43H13.74A13.75,13.75,0,0,1,0,29.26a14.76,14.76,0,0,1,7.51-12.6l.1-.05v-.12c0-.15,0-.28,0-.41a9.57,9.57,0,0,1,9.56-9.57,9.46,9.46,0,0,1,1.07.06l.32,0,.73.13.37.1.66.2.36.14c.22.08.43.18.64.28l.25.11.15.08.1-.14A18.83,18.83,0,0,1,36.78,0,18.32,18.32,0,0,1,54.91,17.38v.15l.14,0a13.18,13.18,0,0,1,9.65,12.59A12.87,12.87,0,0,1,51.85,43ZM41,41.22H51.85A11.1,11.1,0,0,0,62.93,30.15a11.33,11.33,0,0,0-9-11A20.39,20.39,0,0,0,51.22,19a16.87,16.87,0,0,0-2.46.17h-.13a.89.89,0,0,1-.14-1.76,18,18,0,0,1,2.74-.19c.62,0,1.18,0,1.65.06l.23,0,0-.24A16.62,16.62,0,0,0,36.78,1.77,17.37,17.37,0,0,0,23.29,8.5l-.11.15.14.12a9.56,9.56,0,0,1,3.4,7.31.88.88,0,1,1-1.76,0,7.79,7.79,0,0,0-3.58-6.55,7.44,7.44,0,0,0-.78-.44L20.36,9a6.7,6.7,0,0,0-.92-.36l-.12,0a8.63,8.63,0,0,0-.88-.2l-.26,0a8.74,8.74,0,0,0-1-.07,7.81,7.81,0,0,0-7.8,7.8c0,.09,0,.18,0,.28v.37c0,.16,0,.3,0,.43v.56l-.5.24a13.1,13.1,0,0,0-7.09,11.3,12,12,0,0,0,12,12H41Z" style="fill:#e4e4e4"/><line x1="33.76" y1="77.09" x2="33.76" y2="42.47" style="fill:none;stroke:#e4e4e4;stroke-linecap:round;stroke-miterlimit:10;stroke-width:2px"/><polyline points="28.26 73.2 33.76 78.71 39.26 73.2" style="fill:none;stroke:#e4e4e4;stroke-linecap:round;stroke-miterlimit:10;stroke-width:2px"/><polyline points="60.76 58.77 39.76 58.77 39.76 42.47" style="fill:none;stroke:#e4e4e4;stroke-linecap:round;stroke-miterlimit:10;stroke-width:2px"/><polyline points="57.26 62.76 61.26 58.77 57.26 54.78" style="fill:none;stroke:#e4e4e4;stroke-linecap:round;stroke-miterlimit:10;stroke-width:2px"/><polyline points="6.26 58.77 27.26 58.77 27.26 42.47" style="fill:none;stroke:#e4e4e4;stroke-linecap:round;stroke-miterlimit:10;stroke-width:2px"/><polyline points="9.76 62.76 5.76 58.77 9.76 54.78" style="fill:none;stroke:#e4e4e4;stroke-linecap:round;stroke-miterlimit:10;stroke-width:2px"/></g></g></svg>