<svg xmlns="http://www.w3.org/2000/svg" viewBox="0 0 61.55 55.65"><title>Asset 5</title><g id="Layer_2" data-name="Layer 2"><g id="Layer_1-2" data-name="Layer 1"><path d="M33.73,55.65a.93.93,0,1,1,0-1.85,26,26,0,1,0-26-26A30.74,30.74,0,0,0,8.89,36.7l.9,3,3-7.53a.92.92,0,0,1,.86-.58,1,1,0,0,1,.35.07.92.92,0,0,1,.51,1.2l-3.61,8.94-.07.12,0,.08-.09.12-.09.09-.1.07-.12.06-.1,0-.11,0-.09,0h-.08l-.2,0-.1,0-.13-.05-.09,0L.46,37A1,1,0,0,1,0,36.43a.91.91,0,0,1,.1-.7.93.93,0,0,1,.8-.46.94.94,0,0,1,.46.13L7.58,39l-.67-2.57a32.09,32.09,0,0,1-1-8.65A27.84,27.84,0,0,1,33.73,0a27.83,27.83,0,0,1,0,55.65Z" transform="translate(0)" style="fill:#e4e4e4"/></g></g></svg>