<svg xmlns="http://www.w3.org/2000/svg" viewBox="0 0 76.67 65.05"><title>Asset 4</title><g id="Layer_2" data-name="Layer 2"><g id="Layer_1-2" data-name="Layer 1"><path d="M56.41,50.85a.9.9,0,0,1,0-1.79h5.13A13.36,13.36,0,0,0,74.89,35.72,13.64,13.64,0,0,0,64,22.43a27.24,27.24,0,0,0-3.23-.2,20.53,20.53,0,0,0-2.95.2H57.7a.89.89,0,0,1-.13-1.77,21.62,21.62,0,0,1,3.23-.23c.64,0,1.3,0,2,.07l.47,0,0-.47A20,20,0,0,0,43.61,1.78,20.84,20.84,0,0,0,27.43,9.85l-.23.31.29.24a11.21,11.21,0,0,1,4,8.57.89.89,0,0,1-1.78,0,9.4,9.4,0,0,0-4.33-7.92,8,8,0,0,0-.95-.54l-.28-.13A9.27,9.27,0,0,0,23,9.94l-.13,0a9.73,9.73,0,0,0-1.07-.24l-.32-.05A9.37,9.37,0,0,0,10.82,19a2.09,2.09,0,0,0,0,.25l0,.36v.18c0,.22,0,.36,0,.5v.56l-.5.24a15.76,15.76,0,0,0-8.54,13.6,14.42,14.42,0,0,0,14.41,14.4h6.65a.9.9,0,0,1,0,1.79H16.19A16.2,16.2,0,0,1,0,34.66,17.38,17.38,0,0,1,8.85,19.81l.23-.12,0-.26c0-.15,0-.3,0-.46A11.23,11.23,0,0,1,20.26,7.75a11.52,11.52,0,0,1,1.26.07l.37.06c.29,0,.58.09.86.15l.35.1c.34.09.59.16.85.25l.43.16c.26.1.51.22.75.34l.29.12.3.16.2-.27A22.23,22.23,0,0,1,43.61,0,21.65,21.65,0,0,1,65,20.53v.29l.28.08A15.5,15.5,0,0,1,76.67,35.72,15.15,15.15,0,0,1,61.54,50.85Z" style="fill:#e4e4e4"/><path d="M39.63,65.05a.89.89,0,0,1-.89-.89V36.61l-8.81,8.81a.89.89,0,0,1-.63.26.88.88,0,0,1-.63-.26.89.89,0,0,1,0-1.26L39,33.83a1,1,0,0,1,.29-.19.8.8,0,0,1,.34-.07h0a.83.83,0,0,1,.34.07,1,1,0,0,1,.29.19L50.59,44.16a.91.91,0,0,1,0,1.26.91.91,0,0,1-1.27,0l-8.8-8.81V64.16A.89.89,0,0,1,39.63,65.05Z" style="fill:#e4e4e4"/></g></g></svg>