<svg xmlns="http://www.w3.org/2000/svg" viewBox="0 0 15 15"><title>Asset 1</title><g id="Layer_2" data-name="Layer 2"><g id="Layer_1-2" data-name="Layer 1"><path d="M1.5,15A1.5,1.5,0,0,1,0,13.5v-1a1.5,1.5,0,0,1,3,0v1A1.5,1.5,0,0,1,1.5,15Z" style="fill:#a4a4a4;fill-rule:evenodd"/><path d="M7.5,15A1.5,1.5,0,0,1,6,13.5v-6a1.5,1.5,0,0,1,3,0v6A1.5,1.5,0,0,1,7.5,15Z" style="fill:#a4a4a4;fill-rule:evenodd"/><path d="M13.5,15A1.5,1.5,0,0,1,12,13.5V1.5a1.5,1.5,0,0,1,3,0v12A1.5,1.5,0,0,1,13.5,15Z" style="fill:#a4a4a4;fill-rule:evenodd"/></g></g></svg>