<svg xmlns="http://www.w3.org/2000/svg" viewBox="0 0 21.35 16.81"><title>Asset 1</title><g id="Layer_2" data-name="Layer 2"><g id="Layer_1-2" data-name="Layer 1"><path d="M.75,16.06V13.64A3.91,3.91,0,0,1,4.66,9.72H9.5a3.92,3.92,0,0,1,3.92,3.92v2.42" style="fill:none;stroke:#a4a4a4;stroke-linecap:round;stroke-miterlimit:10;stroke-width:1.5px;fill-rule:evenodd"/><circle cx="7.08" cy="3.92" r="3.17" style="fill:none;stroke:#a4a4a4;stroke-linecap:round;stroke-miterlimit:10;stroke-width:1.5px"/><path d="M17.79,10.71a.7.7,0,0,1-.47-.19.67.67,0,0,1,0-.93l1.79-1.78H13a.67.67,0,0,1-.66-.66A.66.66,0,0,1,13,6.5h6.1L17.32,4.71a.66.66,0,0,1,0-.92.65.65,0,0,1,.47-.2.63.63,0,0,1,.46.2l2.9,2.9a.65.65,0,0,1,.2.45.67.67,0,0,1-.2.48l-2.9,2.9A.66.66,0,0,1,17.79,10.71Z" style="fill:#a4a4a4"/></g></g></svg>