<svg xmlns="http://www.w3.org/2000/svg" viewBox="0 0 20.01 22.7"><title>Asset 1</title><g id="Layer_2" data-name="Layer 2"><g id="Layer_1-2" data-name="Layer 1"><path d="M10,22.7a3,3,0,0,1-3.18-2.62v-.32l1.47,0v.29c0,.64.8,1.19,1.71,1.19s1.7-.55,1.72-1.19V19.8l1.47,0v.32A3,3,0,0,1,10,22.7Z" style="fill:#fff"/><path d="M10,19.83a50,50,0,0,1-6.55-.35C1.16,19.17.13,18.63,0,17.7c-.07-.64.33-1.21,1.21-1.7a2,2,0,0,0,1-1.32,14,14,0,0,0,.23-2.38c0-.37,0-.74.06-1.14a13.11,13.11,0,0,1,.92-4.31A6.8,6.8,0,0,1,6.86,3.29a6.42,6.42,0,0,1,1.31-.47A1.88,1.88,0,0,1,8,2a2,2,0,1,1,3.85.81,6.68,6.68,0,0,1,1.28.45,6.89,6.89,0,0,1,3.45,3.58,12.83,12.83,0,0,1,.91,4.31c0,.37,0,.73.06,1.07a15.25,15.25,0,0,0,.23,2.45,2,2,0,0,0,1,1.32c.87.49,1.28,1.06,1.21,1.69-.12.94-1.15,1.47-3.44,1.79a50.17,50.17,0,0,1-6.56.35Zm-8.46-2.3c.38.21,2,.83,8.46.84s8-.61,8.45-.85a3.17,3.17,0,0,0-.37-.25A3.51,3.51,0,0,1,16.35,15a15.84,15.84,0,0,1-.26-2.63c0-.4,0-.74-.06-1.1-.18-2.55-.73-5.34-3.51-6.66a5.22,5.22,0,0,0-1.09-.38A5.66,5.66,0,0,0,10,4.05a5.77,5.77,0,0,0-1.43.17,5.64,5.64,0,0,0-1.07.37C4.71,5.92,4.15,8.71,4,11.26c0,.38,0,.75-.05,1.1A17,17,0,0,1,3.65,15a3.46,3.46,0,0,1-1.72,2.28A3.64,3.64,0,0,0,1.54,17.53ZM10,1.45a.56.56,0,1,0,.56.56A.56.56,0,0,0,10,1.45Z" style="fill:#fff"/></g></g></svg>