<svg xmlns="http://www.w3.org/2000/svg" viewBox="0 0 19.61 22.3"><title>Asset 3</title><g id="Layer_2" data-name="Layer 2"><g id="Layer_1-2" data-name="Layer 1"><path d="M9.8,22.3a2.77,2.77,0,0,1-3-2.43v-.1l1.07,0v.09c0,.77.88,1.39,1.91,1.39s1.9-.62,1.92-1.39V19.8l1.07,0v.1A2.76,2.76,0,0,1,9.8,22.3Z" style="fill:#b0b0b0"/><path d="M9.8,19.43a51.62,51.62,0,0,1-6.52-.34c-2.16-.3-3.17-.8-3.27-1.62-.06-.54.31-1,1.1-1.49a2.26,2.26,0,0,0,1.12-1.46,14.52,14.52,0,0,0,.23-2.42c0-.36,0-.73.06-1.13a12.87,12.87,0,0,1,.9-4.24A6.75,6.75,0,0,1,8.08,2.8l.18,0A1.87,1.87,0,0,1,8,1.81a1.81,1.81,0,1,1,3.62,0,1.78,1.78,0,0,1-.27.95l.19,0a7.13,7.13,0,0,1,1.3.45,6.75,6.75,0,0,1,3.36,3.48A12.84,12.84,0,0,1,17.08,11c0,.37,0,.73.06,1.07a14.47,14.47,0,0,0,.24,2.48A2.25,2.25,0,0,0,18.49,16c.8.45,1.17.95,1.11,1.48-.11.83-1.11,1.33-3.27,1.63a51.8,51.8,0,0,1-6.53.34ZM1.05,17.37s.53,1,8.75,1c8,0,8.7-.94,8.75-1h0A1.91,1.91,0,0,0,18,16.9a3.28,3.28,0,0,1-1.63-2.15,15.48,15.48,0,0,1-.26-2.6c0-.4,0-.75-.06-1.1-.18-2.61-.75-5.46-3.62-6.83a6.61,6.61,0,0,0-1.13-.4A6.65,6.65,0,0,0,9.8,3.65a6.56,6.56,0,0,0-1.47.17,6.62,6.62,0,0,0-1.11.39C4.33,5.59,3.75,8.44,3.57,11.05c0,.38,0,.75,0,1.1a16.59,16.59,0,0,1-.26,2.6A3.34,3.34,0,0,1,1.63,16.9c-.51.29-.58.47-.58.47ZM9.8,1.05a.76.76,0,1,0,.76.76A.76.76,0,0,0,9.8,1.05Z" style="fill:#b0b0b0"/></g></g></svg>