<svg xmlns="http://www.w3.org/2000/svg" viewBox="0 0 12.64 16.9"><title>Asset 1</title><g id="Layer_2" data-name="Layer 2"><g id="Layer_1-2" data-name="Layer 1"><path d="M3.46,16.9a2.17,2.17,0,0,1-2.09-2.23L.71,5.1A1.66,1.66,0,0,1,0,3.78,1.51,1.51,0,0,1,1.51,2.27H3.83v-.1A2.56,2.56,0,0,1,4.19.79,1.51,1.51,0,0,1,5.47,0h1.7A1.51,1.51,0,0,1,8.45.79a2.63,2.63,0,0,1,.36,1.36v.1l.1,0h2.22A1.51,1.51,0,0,1,12,5l-.7,9.63a2.18,2.18,0,0,1-2.1,2.24ZM2.12,14.62a1.44,1.44,0,0,0,1.34,1.53H9.17a1.43,1.43,0,0,0,1.35-1.5l.64-9.36H1.48ZM1.51,3a.76.76,0,0,0-.76.76.77.77,0,0,0,.61.74h9.9A.76.76,0,0,0,11.13,3Zm4-2.27c-.49,0-.89.63-.89,1.4v.1H8.06v-.1c0-.77-.4-1.4-.89-1.4Z" style="fill:#487fea"/><path d="M7.62,12.42a.38.38,0,0,1-.38-.37v-3a.38.38,0,1,1,.75,0v3A.38.38,0,0,1,7.62,12.42Z" style="fill:#487fea"/><path d="M5,12.42a.38.38,0,0,1-.38-.37v-3a.38.38,0,0,1,.76,0v3A.38.38,0,0,1,5,12.42Z" style="fill:#487fea"/></g></g></svg>