<svg xmlns="http://www.w3.org/2000/svg" viewBox="0 0 22.93 22.94"><title>Asset 2</title><g id="Layer_2" data-name="Layer 2"><g id="Layer_1-2" data-name="Layer 1"><path d="M11.47,7.25a4.23,4.23,0,0,1,0,8.45,4.27,4.27,0,0,1-3-1.24,4.22,4.22,0,0,1,3-7.21Zm2.64-4.76a8.07,8.07,0,0,1,.94.33,7.49,7.49,0,0,1,.9.44,2.58,2.58,0,0,1,1.75-.68,2.63,2.63,0,0,1,1.88.78h0a2.66,2.66,0,0,1,.77,1.87A2.62,2.62,0,0,1,19.69,7c.15.3.3.6.43.91s.23.62.33.94a2.64,2.64,0,0,1,2.48,2.64h0a2.61,2.61,0,0,1-.77,1.87,2.64,2.64,0,0,1-1.71.77,9.67,9.67,0,0,1-.33,1c-.13.3-.28.6-.43.9a2.65,2.65,0,0,1,.66,1.75,2.68,2.68,0,0,1-.77,1.88h0a2.65,2.65,0,0,1-3.63.1,9.3,9.3,0,0,1-.9.43,8.07,8.07,0,0,1-.94.33,2.64,2.64,0,0,1-5.28,0,7.46,7.46,0,0,1-.94-.33A8.46,8.46,0,0,1,7,19.69a2.64,2.64,0,0,1-3.62-.1h0a2.65,2.65,0,0,1-.78-1.88A2.61,2.61,0,0,1,3.25,16c-.16-.3-.31-.6-.44-.9a9.67,9.67,0,0,1-.33-1,2.64,2.64,0,0,1-1.7-.77A2.62,2.62,0,0,1,0,11.47H0A2.66,2.66,0,0,1,2.48,8.83a9.48,9.48,0,0,1,.33-.94c.13-.31.28-.61.44-.91a2.58,2.58,0,0,1-.67-1.75,2.63,2.63,0,0,1,.78-1.87h0a2.61,2.61,0,0,1,1.86-.78A2.56,2.56,0,0,1,7,3.26a7,7,0,0,1,.91-.44,7.46,7.46,0,0,1,.94-.33A2.68,2.68,0,0,1,9.59.77a2.67,2.67,0,0,1,3.75,0,2.69,2.69,0,0,1,.77,1.72Zm.41,1.61a8.92,8.92,0,0,0-1.14-.37A.5.5,0,0,1,13,3.16s0-.06,0-.09V3a1.47,1.47,0,0,0-.45-1.06,1.51,1.51,0,0,0-2.13,0A1.51,1.51,0,0,0,10,3v.09a.28.28,0,0,0,0,.09h0a.53.53,0,0,1-.39.56,9.25,9.25,0,0,0-1.16.38,8.92,8.92,0,0,0-1.07.54.53.53,0,0,1-.7-.1L6.6,4.47,6.53,4.4h0A1.53,1.53,0,0,0,5.46,4,1.51,1.51,0,0,0,4.4,4.4h0A1.5,1.5,0,0,0,4,5.47,1.48,1.48,0,0,0,4.4,6.53h0l.06.07.07.06h0a.51.51,0,0,1,.12.67A7.42,7.42,0,0,0,4.1,8.42a6.78,6.78,0,0,0-.37,1.13.54.54,0,0,1-.57.43H3a1.5,1.5,0,0,0-1.51,1.51h0A1.5,1.5,0,0,0,3,13h.18a.52.52,0,0,1,.56.4,7.74,7.74,0,0,0,.38,1.15,6.7,6.7,0,0,0,.54,1.07.52.52,0,0,1-.11.7.12.12,0,0,0-.06.06h0l-.06.06h0A1.46,1.46,0,0,0,4,17.47a1.48,1.48,0,0,0,.45,1.07h0A1.51,1.51,0,0,0,5.46,19a1.53,1.53,0,0,0,1.07-.44h0l.07-.06a.5.5,0,0,1,.05-.07h0a.51.51,0,0,1,.67-.13,8.11,8.11,0,0,0,1.1.56,7.34,7.34,0,0,0,1.12.37.53.53,0,0,1,.43.57.31.31,0,0,0,0,.09V20A1.5,1.5,0,0,0,12.53,21,1.44,1.44,0,0,0,13,20v-.09s0-.05,0-.09h0a.52.52,0,0,1,.39-.57,7.83,7.83,0,0,0,1.16-.37,8.78,8.78,0,0,0,1.06-.54.53.53,0,0,1,.71.11l.05.07a.31.31,0,0,1,.06.06h0a1.51,1.51,0,0,0,1.07.44,1.53,1.53,0,0,0,1.07-.44h0A1.5,1.5,0,0,0,19,17.47a1.48,1.48,0,0,0-.43-1.06h0l-.07-.06a.22.22,0,0,0-.07-.06h0a.52.52,0,0,1-.13-.68,7,7,0,0,0,.55-1.09,7.46,7.46,0,0,0,.37-1.13.53.53,0,0,1,.57-.42H20A1.46,1.46,0,0,0,21,12.54a1.5,1.5,0,0,0,.45-1.07h0A1.52,1.52,0,0,0,20,10h-.19a.53.53,0,0,1-.56-.39,7.15,7.15,0,0,0-.38-1.16,7.15,7.15,0,0,0-.54-1.07.51.51,0,0,1,.11-.69l.07-.06h0s0,0,.07-.07h0A1.5,1.5,0,0,0,19,5.47a1.52,1.52,0,0,0-.43-1.07h0A1.53,1.53,0,0,0,17.47,4a1.51,1.51,0,0,0-1.07.44h0l-.06.07a.25.25,0,0,0-.05.07h0a.55.55,0,0,1-.69.12,7.87,7.87,0,0,0-1.08-.56Zm-1,5.35a2.85,2.85,0,1,0-2,4.87,2.85,2.85,0,0,0,2-4.87Z" style="fill:#0680ef"/></g></g></svg>