<svg xmlns="http://www.w3.org/2000/svg" viewBox="0 0 10.96 15.87"><title>Asset 1</title><g id="Layer_2" data-name="Layer 2"><g id="Layer_1-2" data-name="Layer 1"><path d="M0,0H5.76A5.54,5.54,0,0,1,9.3,1,3.76,3.76,0,0,1,10.48,4,4.34,4.34,0,0,1,10,6.36,3.47,3.47,0,0,1,8.44,7.68,3.57,3.57,0,0,1,11,11.42,4.19,4.19,0,0,1,9.7,14.84a5.63,5.63,0,0,1-3.65,1H0ZM5.69,1.56H1.77V7H5.85A2.84,2.84,0,0,0,8,6.34a2.94,2.94,0,0,0,.68-2.11,2.58,2.58,0,0,0-.72-2A3.39,3.39,0,0,0,5.69,1.56Zm.18,7H1.77v5.73H6a3.74,3.74,0,0,0,2.37-.65,2.83,2.83,0,0,0,.81-2.31,3,3,0,0,0-.33-1.47A1.92,1.92,0,0,0,8,9,5,5,0,0,0,5.87,8.58Z" style="fill:#fff"/></g></g></svg>