<svg xmlns="http://www.w3.org/2000/svg" viewBox="0 0 16 16"><title>Asset 1</title><g id="Layer_2" data-name="Layer 2"><g id="Layer_1-2" data-name="Layer 1"><path d="M14.67,1.5H12.5V.5A.5.5,0,0,0,12,0a.5.5,0,0,0-.5.5v1h-3V.5a.5.5,0,0,0-1,0v1h-3V.5A.5.5,0,0,0,4,0a.5.5,0,0,0-.5.5v1H1.33A1.34,1.34,0,0,0,0,2.83V14.66A1.34,1.34,0,0,0,1.33,16H14.67A1.34,1.34,0,0,0,16,14.66V2.83A1.34,1.34,0,0,0,14.67,1.5ZM15,14.66a.34.34,0,0,1-.33.34H1.33A.34.34,0,0,1,1,14.66V2.83a.33.33,0,0,1,.33-.33H3.5v1A.5.5,0,0,0,4,4a.5.5,0,0,0,.5-.5v-1h3v1a.5.5,0,0,0,1,0v-1h3v1A.5.5,0,0,0,12,4a.5.5,0,0,0,.5-.5v-1h2.17a.33.33,0,0,1,.33.33Z" style="fill:#487fea"/><rect x="3.5" y="6" width="2" height="1.5" style="fill:#487fea"/><rect x="3.5" y="8.5" width="2" height="1.5" style="fill:#487fea"/><rect x="3.5" y="11" width="2" height="1.5" style="fill:#487fea"/><rect x="7" y="11" width="2" height="1.5" style="fill:#487fea"/><rect x="7" y="8.5" width="2" height="1.5" style="fill:#487fea"/><rect x="7" y="6" width="2" height="1.5" style="fill:#487fea"/><rect x="10.5" y="11" width="2" height="1.5" style="fill:#487fea"/><rect x="10.5" y="8.5" width="2" height="1.5" style="fill:#487fea"/><rect x="10.5" y="6" width="2" height="1.5" style="fill:#487fea"/></g></g></svg>