<svg xmlns="http://www.w3.org/2000/svg" viewBox="0 0 192.07 193.39"><title>Asset 2</title><g id="Layer_2" data-name="Layer 2"><g id="Layer_1-2" data-name="Layer 1"><path d="M144.75,106.49a4.8,4.8,0,0,1,0-9.59A22.13,22.13,0,0,0,165.66,82l9.41-27.17a4.67,4.67,0,0,0-.86-4,4.75,4.75,0,0,0-3.83-1.9h-16a4.8,4.8,0,1,1,0-9.59h16a14.37,14.37,0,0,1,13.83,18.33l-9.49,27.43A31.73,31.73,0,0,1,144.75,106.49Z" style="fill:#e59733"/><path d="M68.85,106.49a31.74,31.74,0,0,1-30-21.34L29.47,58A14.38,14.38,0,0,1,43.22,39.39H59.27a4.8,4.8,0,0,1,0,9.59H43.22a4.78,4.78,0,0,0-4.61,6.11L47.94,82A22.13,22.13,0,0,0,68.85,96.9a4.8,4.8,0,0,1,0,9.59Z" style="fill:#e8a53f"/><path d="M129.34,166.08A29.19,29.19,0,0,1,121.19,146v-16.8a4.74,4.74,0,0,0-6-4.6,33.65,33.65,0,0,1-16.68,0,4.73,4.73,0,0,0-6,4.6V146a29.24,29.24,0,0,1-8.15,20.07,4.74,4.74,0,0,0,3.35,8.14H126A4.74,4.74,0,0,0,129.34,166.08Z" style="fill:#e8a53f"/><path d="M154.74,29.81H58.89a4.7,4.7,0,0,0-4.7,5.46L63.58,98A43.7,43.7,0,0,0,150,98l9.4-62.69A4.7,4.7,0,0,0,154.74,29.81Z" style="fill:#f3d951"/><path d="M129.34,166.08a4.74,4.74,0,0,1-3.36,8.14H106.81V125.66a33.25,33.25,0,0,0,8.34-1.06,4.75,4.75,0,0,1,6,4.61V146A29.19,29.19,0,0,0,129.34,166.08Z" style="fill:#e59733"/><path d="M133.08,68l-14.67-2.21L111.8,52.53a4.52,4.52,0,0,0-5-2.4,4.3,4.3,0,0,0-3.54,2.4L96.65,65.75,82,68A4.8,4.8,0,0,0,79.3,76.1L89.94,86.46,87.45,101a4.83,4.83,0,0,0,7,5.08l12.36-6.52.77-.39,13,6.91a4.83,4.83,0,0,0,7-5.08l-2.49-14.57L135.76,76.1A4.79,4.79,0,0,0,133.08,68Z" style="fill:#e8a53f"/><path d="M159.44,35.27,150,98a43.71,43.71,0,0,1-43.23,37.28V29.81h47.93A4.7,4.7,0,0,1,159.44,35.27Z" style="fill:#ebbd3d"/><path d="M135.76,76.1,125.12,86.46,127.61,101a4.83,4.83,0,0,1-7,5.08l-13-6.91-.77.39V50.13a4.52,4.52,0,0,1,5,2.4l6.61,13.22L133.08,68A4.79,4.79,0,0,1,135.76,76.1Z" style="fill:#e59733"/><path d="M126,164.64H87.64A14.35,14.35,0,0,0,73.27,179v9.58a4.74,4.74,0,0,0,4.79,4.79h57.51a4.75,4.75,0,0,0,4.79-4.79V179A14.36,14.36,0,0,0,126,164.64Z" style="fill:#77767f"/><path d="M140.36,179v9.58a4.75,4.75,0,0,1-4.79,4.79H106.81V164.64H126A14.36,14.36,0,0,1,140.36,179Z" style="fill:#57565c"/><path d="M172.12,10.93H161.53a1.33,1.33,0,0,1,0-2.65h10.59a1.33,1.33,0,0,1,0,2.65" style="fill:#fff"/><path d="M166.83,16.22a1.33,1.33,0,0,1-1.33-1.32V4.31a1.33,1.33,0,1,1,2.65,0V14.9a1.32,1.32,0,0,1-1.32,1.32" style="fill:#fff"/><path d="M190.66,28.14H180.07a1.33,1.33,0,1,1,0-2.65h10.59a1.33,1.33,0,0,1,0,2.65" style="fill:#f3d951"/><path d="M185.36,33.43A1.32,1.32,0,0,1,184,32.11V21.52a1.33,1.33,0,1,1,2.65,0V32.11a1.33,1.33,0,0,1-1.33,1.32" style="fill:#f3d951"/><path d="M190.1,130H157.5a2,2,0,0,1,0-3.93h32.6a2,2,0,1,1,0,3.93" style="fill:#fff"/><path d="M24.61,37.63H16.75a2,2,0,1,1,0-3.93h7.86a2,2,0,1,1,0,3.93" style="fill:#ebbd3d"/><path d="M28,48.2H2a2,2,0,1,1,0-3.94H28a2,2,0,1,1,0,3.94" style="fill:#fff"/><path d="M41.6,123.55H32.81a1.1,1.1,0,1,1,0-2.2H41.6a1.1,1.1,0,1,1,0,2.2" style="fill:#fff"/><path d="M37.2,127.94a1.09,1.09,0,0,1-1.09-1.1v-8.79a1.1,1.1,0,1,1,2.19,0v8.79a1.1,1.1,0,0,1-1.1,1.1" style="fill:#fff"/><path d="M62.91,146.12H54.12a1.1,1.1,0,0,1,0-2.2h8.79a1.1,1.1,0,0,1,0,2.2" style="fill:#f3d951"/><path d="M58.51,150.51a1.1,1.1,0,0,1-1.1-1.1v-8.78a1.1,1.1,0,1,1,2.2,0v8.78a1.1,1.1,0,0,1-1.1,1.1" style="fill:#f3d951"/><path d="M50.15,6.6H41.36a1.1,1.1,0,1,1,0-2.2h8.79a1.1,1.1,0,0,1,0,2.2" style="fill:#fff"/><path d="M45.75,11a1.1,1.1,0,0,1-1.1-1.1V1.1a1.1,1.1,0,1,1,2.2,0V9.89a1.1,1.1,0,0,1-1.1,1.1" style="fill:#fff"/></g></g></svg>