<svg xmlns="http://www.w3.org/2000/svg" viewBox="0 0 25 25"><title>Asset 1</title><g id="Layer_2" data-name="Layer 2"><g id="Layer_1-2" data-name="Layer 1"><circle cx="12.5" cy="12.5" r="12.5" style="fill:#dc4062"/><path d="M13.17,4.75a1.69,1.69,0,0,0-.56-.12,1.76,1.76,0,0,0-.46.06,1.64,1.64,0,0,0-1.23,1.73l.49,6.31.23,2.87a.71.71,0,0,0,.69.65.67.67,0,0,0,.24,0,.68.68,0,0,0,.47-.58l.38-3,.44-3.43.35-2.74A1.65,1.65,0,0,0,13.17,4.75Z" style="fill:#fff"/><path d="M12.6,17.34a2.48,2.48,0,0,0-.27,0,1.58,1.58,0,0,0-.69.15,1.53,1.53,0,0,0-.87,1.34h0a1.52,1.52,0,0,0,1,1.47,1.71,1.71,0,0,0,.47.09,1.61,1.61,0,0,0,.49-.07,1.49,1.49,0,0,0,.59-.36,1.46,1.46,0,0,0,.47-1.06h0A1.52,1.52,0,0,0,12.6,17.34Z" style="fill:#fff"/></g></g></svg>