<svg xmlns="http://www.w3.org/2000/svg" viewBox="0 0 11.96 15.93"><title>Asset 1</title><g id="Layer_2" data-name="Layer 2"><g id="Layer_1-2" data-name="Layer 1"><path d="M12,3.61a1.5,1.5,0,0,0-1.5-1.5H8.39v0A2.47,2.47,0,0,0,8,.78,1.48,1.48,0,0,0,6.77,0H5.19A1.5,1.5,0,0,0,3.91.78a2.56,2.56,0,0,0-.35,1.31v0H1.5A1.5,1.5,0,0,0,.66,4.85l.61,8.9a2.14,2.14,0,0,0,2.05,2.18H8.64a2.13,2.13,0,0,0,2-2.18l.61-8.9A1.49,1.49,0,0,0,12,3.61ZM5.19.89H6.77c.4,0,.74.54.74,1.2H4.45C4.45,1.43,4.78.89,5.19.89ZM1.5,3h9a.61.61,0,0,1,.12,1.21H1.38A.61.61,0,0,1,1.5,3ZM9.8,13.71v0A1.24,1.24,0,0,1,8.64,15H3.32a1.24,1.24,0,0,1-1.16-1.3v0l-.59-8.6h8.82Z" style="fill:#fff"/><path d="M6,7.2a.45.45,0,0,0-.45.45V12.2a.45.45,0,0,0,.89,0V7.65A.45.45,0,0,0,6,7.2Z" style="fill:#fff"/><path d="M7.93,8.09a.44.44,0,0,0-.44.44v2.78a.45.45,0,1,0,.89,0V8.53A.45.45,0,0,0,7.93,8.09Z" style="fill:#fff"/><path d="M4,8.09a.44.44,0,0,0-.44.44v2.78a.45.45,0,0,0,.44.45.44.44,0,0,0,.44-.45V8.53A.44.44,0,0,0,4,8.09Z" style="fill:#fff"/></g></g></svg>