<svg xmlns="http://www.w3.org/2000/svg" viewBox="0 0 12.44 16.7"><title>Asset 1</title><g id="Layer_2" data-name="Layer 2"><g id="Layer_1-2" data-name="Layer 1"><path d="M3.36,16.7a2.08,2.08,0,0,1-2-2.13L.7,4.9.62,4.85A1.43,1.43,0,0,1,0,3.68,1.41,1.41,0,0,1,1.41,2.27H3.83v-.2A2.55,2.55,0,0,1,4.17.74,1.43,1.43,0,0,1,5.37,0h1.7a1.43,1.43,0,0,1,1.2.74,2.53,2.53,0,0,1,.34,1.31v.2l.2,0H11a1.41,1.41,0,0,1,1.41,1.41,1.44,1.44,0,0,1-.63,1.17l-.08.05-.66,9.65a2.09,2.09,0,0,1-2,2.15ZM1.92,14.53a1.54,1.54,0,0,0,1.44,1.62H9.07a1.53,1.53,0,0,0,1.45-1.6l.65-9.46H1.27ZM1.41,2.82a.86.86,0,0,0-.17,1.7h9.92A.85.85,0,0,0,11,2.82Zm4-2.27c-.56,0-1,.66-1,1.5v.2H8.06v-.2c0-.84-.44-1.5-1-1.5Z" style="fill:#fff"/><path d="M7.52,12.22A.27.27,0,0,1,7.24,12V9a.28.28,0,1,1,.55,0v3A.27.27,0,0,1,7.52,12.22Z" style="fill:#fff"/><path d="M4.92,12.22A.28.28,0,0,1,4.64,12V9a.29.29,0,0,1,.28-.28A.28.28,0,0,1,5.19,9v3A.27.27,0,0,1,4.92,12.22Z" style="fill:#fff"/></g></g></svg>