<svg xmlns="http://www.w3.org/2000/svg" viewBox="0 0 26.44 40.53"><title>Asset 3</title><g id="Layer_2" data-name="Layer 2"><g id="Layer_1-2" data-name="Layer 1"><path d="M23.57,1a1.87,1.87,0,0,1,1.87,1.86V37.67a1.87,1.87,0,0,1-1.87,1.86H2.86A1.87,1.87,0,0,1,1,37.67V2.86A1.87,1.87,0,0,1,2.86,1H23.57m0-1H2.86A2.86,2.86,0,0,0,0,2.86V37.67a2.86,2.86,0,0,0,2.86,2.86H23.57a2.86,2.86,0,0,0,2.87-2.86V2.86A2.86,2.86,0,0,0,23.57,0Z" style="fill:#cacaca"/><path d="M1,30.9,6.6,25.25A1.78,1.78,0,0,1,9,25l7.11,5a1.79,1.79,0,0,0,2.43-.31l6.57-7" style="fill:none;stroke:#cacaca;stroke-miterlimit:10"/><circle cx="17.63" cy="9.84" r="2.95" style="fill:none;stroke:#cacaca;stroke-miterlimit:10"/></g></g></svg>