<svg xmlns="http://www.w3.org/2000/svg" viewBox="0 0 35.44 29.53"><title>Asset 2</title><g id="Layer_2" data-name="Layer 2"><g id="Layer_1-2" data-name="Layer 1"><path d="M32.57,1a1.87,1.87,0,0,1,1.87,1.86V26.67a1.87,1.87,0,0,1-1.87,1.86H2.86A1.87,1.87,0,0,1,1,26.67V2.86A1.87,1.87,0,0,1,2.86,1H32.57m0-1H2.86A2.86,2.86,0,0,0,0,2.86V26.67a2.86,2.86,0,0,0,2.86,2.86H32.57a2.86,2.86,0,0,0,2.87-2.86V2.86A2.86,2.86,0,0,0,32.57,0Z" style="fill:#cacaca"/><path d="M1,21.66l7.8-6.83a2.72,2.72,0,0,1,3.31-.31L22,20.57a2.76,2.76,0,0,0,3.38-.38l9.11-8.38" style="fill:none;stroke:#cacaca;stroke-miterlimit:10"/><circle cx="23.63" cy="9.84" r="2.95" style="fill:none;stroke:#cacaca;stroke-miterlimit:10"/></g></g></svg>