<svg xmlns="http://www.w3.org/2000/svg" viewBox="0 0 29.2 29.53"><title>Asset 1</title><g id="Layer_2" data-name="Layer 2"><g id="Layer_1-2" data-name="Layer 1"><path d="M14.6,1A13.61,13.61,0,0,1,28.2,14.6v.33a13.6,13.6,0,0,1-27.2,0V14.6A13.61,13.61,0,0,1,14.6,1m0-1h0A14.6,14.6,0,0,0,0,14.6v.33a14.6,14.6,0,0,0,14.6,14.6h0a14.6,14.6,0,0,0,14.6-14.6V14.6A14.6,14.6,0,0,0,14.6,0Z" style="fill:#cacaca"/><path d="M1.5,18.74l2-1.91a2.72,2.72,0,0,1,3.31-.31l8.88,4.05a2.75,2.75,0,0,0,3.37-.38l9.12-8.38" style="fill:none;stroke:#cacaca;stroke-miterlimit:10"/><circle cx="17.39" cy="9.84" r="2.95" style="fill:none;stroke:#cacaca;stroke-miterlimit:10"/></g></g></svg>