<svg xmlns="http://www.w3.org/2000/svg" viewBox="0 0 19 15.92"><title>Asset 2</title><g id="Layer_2" data-name="Layer 2"><g id="Layer_1-2" data-name="Layer 1"><path d="M5.29,8.29h8.42A1.32,1.32,0,0,0,15,7V1.33A1.32,1.32,0,0,0,13.71,0H5.29A1.32,1.32,0,0,0,4,1.33V7A1.32,1.32,0,0,0,5.29,8.29ZM17,5.89h-.6V8.28a1.47,1.47,0,0,1-1.47,1.48H4.09A1.47,1.47,0,0,1,2.62,8.28V5.89H2a2,2,0,0,0-2,2v6a2,2,0,0,0,2,2H3.34V14.54a1.47,1.47,0,0,1,1.47-1.47h9.38a1.47,1.47,0,0,1,1.47,1.47v1.38H17a2,2,0,0,0,2-2v-6A2,2,0,0,0,17,5.89Zm-4.06,8.37H6.08c-.59,0-1.07.35-1.07.78v.74h9V15C14,14.61,13.51,14.26,12.92,14.26Z" style="fill:#fff"/></g></g></svg>