<svg xmlns="http://www.w3.org/2000/svg" viewBox="0 0 13.1 16.58"><title>Asset 3</title><g id="Layer_2" data-name="Layer 2"><g id="Layer_1-2" data-name="Layer 1"><path d="M0,4.08A1.52,1.52,0,0,0,.72,5.35l.66,9A2.23,2.23,0,0,0,3.6,16.58H9.38a2.22,2.22,0,0,0,2.22-2.21l.67-9A1.52,1.52,0,0,0,13,4.08" style="fill:#fff"/><path d="M8.08,8.06a.56.56,0,0,0-.58.54V12a.58.58,0,0,0,1.16,0V8.6A.56.56,0,0,0,8.08,8.06Z" style="fill:#487fea"/><path d="M4.92,8.06a.56.56,0,0,0-.58.54V12A.58.58,0,0,0,5.5,12V8.6A.56.56,0,0,0,4.92,8.06Z" style="fill:#487fea"/><path d="M13.1,2.86h0a.92.92,0,0,0-.93-.93H10.23a.93.93,0,0,1-.65-.27L9.2.27A1,1,0,0,0,8.54,0H4.67A.94.94,0,0,0,4,.27L3.62,1.66A.93.93,0,0,1,3,1.93H1a.93.93,0,0,0-.93.93h0" style="fill:#fff"/></g></g></svg>