<svg xmlns="http://www.w3.org/2000/svg" viewBox="0 0 22.2 19.48"><title>Asset 2</title><g id="Layer_2" data-name="Layer 2"><g id="Layer_1-2" data-name="Layer 1"><path d="M11.24,11.49a2.34,2.34,0,1,1,2.35-2.34A2.34,2.34,0,0,1,11.24,11.49Zm0-3.42a1.08,1.08,0,1,0,1.08,1.08A1.08,1.08,0,0,0,11.24,8.07Z" style="fill:#a4a4a4"/><path d="M2.16,19.48A2.15,2.15,0,0,1,0,17.3V6.37A2.25,2.25,0,0,1,2.16,4.05H2.9L3.15,2A2.15,2.15,0,0,1,4,.5,2.09,2.09,0,0,1,5.32,0l.3,0L20.2,1.68a2.27,2.27,0,0,1,2,2.49L21,15a2.34,2.34,0,0,1-.81,1.51,2.77,2.77,0,0,1-1,.43v.35a2.29,2.29,0,0,1-2.34,2.18Zm3.93-7.37a1.24,1.24,0,0,0-.72.24L1.23,15.4l0,1.9a.87.87,0,0,0,.86.91h14.7a1,1,0,0,0,1.07-.91v-5l-5.11,3a2.57,2.57,0,0,1-1.3.36A2.7,2.7,0,0,1,9.81,15L6.9,12.43A1.17,1.17,0,0,0,6.09,12.11ZM16.83,4.05a2.41,2.41,0,0,1,2.34,2.32v9.25a.55.55,0,0,0,.17-.1.8.8,0,0,0,.32-.65L20.92,4a1,1,0,0,0-.87-1.07L5.49,1.26h-.1a1.13,1.13,0,0,0-.64.2,1.14,1.14,0,0,0-.36.63l-.22,2ZM6.11,10.85a2.53,2.53,0,0,1,1.62.6L10.67,14a1.2,1.2,0,0,0,.81.3,1.34,1.34,0,0,0,.65-.17L18,10.77l-.05-4.4a1.13,1.13,0,0,0-1.08-1H2.16a1,1,0,0,0-.89,1v7.42l3.37-2.45A2.45,2.45,0,0,1,6.11,10.85Z" style="fill:#a4a4a4"/></g></g></svg>