<svg xmlns="http://www.w3.org/2000/svg" viewBox="0 0 13 11.8"><title>Asset 1</title><g id="Layer_2" data-name="Layer 2"><g id="Layer_1-2" data-name="Layer 1"><path d="M7.1,0A5.91,5.91,0,0,0,1.2,5.88a6.84,6.84,0,0,0,.22,1.83l-.8-.46a.4.4,0,0,0-.56.15A.41.41,0,0,0,.2,8L2.07,9.05h0l.06,0H2.4l.05,0,0,0,0,0,0,0,0,0,0,0v0s0,0,0,0L3.4,7a.42.42,0,1,0-.77-.31l-.38.94A6.21,6.21,0,0,1,2,5.9,5.07,5.07,0,1,1,7.1,11a.42.42,0,0,0,0,.83A5.9,5.9,0,0,0,7.1,0Z" style="fill:#7f7f7f"/><path d="M6.94,6.69a.31.31,0,0,0,.13,0h0l.14,0,0,0,.09-.06s0,0,0,0L10,4a.42.42,0,0,0,0-.59.41.41,0,0,0-.58,0L7,5.82,4.87,4.93a.41.41,0,0,0-.32.76l2.39,1Z" style="fill:#7f7f7f"/></g></g></svg>