<svg xmlns="http://www.w3.org/2000/svg" viewBox="0 0 18 15"><title>Asset 1</title><g id="Layer_2" data-name="Layer 2"><g id="Layer_1-2" data-name="Layer 1"><path d="M15.14,1.2A1.67,1.67,0,0,1,16.8,2.86v9.28a1.67,1.67,0,0,1-1.66,1.66H2.86A1.67,1.67,0,0,1,1.2,12.14V2.86A1.67,1.67,0,0,1,2.86,1.2H15.14m0-1.2H2.86A2.86,2.86,0,0,0,0,2.86v9.28A2.86,2.86,0,0,0,2.86,15H15.14A2.86,2.86,0,0,0,18,12.14V2.86A2.86,2.86,0,0,0,15.14,0Z" style="fill:#a4a4a4"/><path d="M.5,11l4-3.46a1.38,1.38,0,0,1,1.68-.17l5,3.08a1.4,1.4,0,0,0,1.71-.19L17.5,6" style="fill:none;stroke:#a4a4a4;stroke-miterlimit:10;stroke-width:1.20000004768372px"/><circle cx="12" cy="5" r="1.5" style="fill:none;stroke:#a4a4a4;stroke-miterlimit:10;stroke-width:1.20000004768372px"/></g></g></svg>