<svg xmlns="http://www.w3.org/2000/svg" viewBox="0 0 12 14.59"><title>Asset 2</title><g id="Layer_2" data-name="Layer 2"><g id="Layer_1-2" data-name="Layer 1"><path d="M10.45,5.27V4.06A4.27,4.27,0,0,0,6,0,4.27,4.27,0,0,0,1.56,4.06V5.27A2.17,2.17,0,0,0,0,7.36v5.06a2.17,2.17,0,0,0,2.17,2.17H9.83A2.17,2.17,0,0,0,12,12.42V7.35A2.17,2.17,0,0,0,10.45,5.27ZM7,10.15a1,1,0,0,1-2.08,0V8.59A1,1,0,0,1,7,8.59Zm2.29-5H2.67V4.06A3.16,3.16,0,0,1,6,1.12,3.16,3.16,0,0,1,9.33,4.06Z" style="fill:#b0b0b0"/></g></g></svg>