<svg xmlns="http://www.w3.org/2000/svg" viewBox="0 0 19.36 22.27"><title>Asset 2</title><g id="Layer_2" data-name="Layer 2"><g id="Layer_1-2" data-name="Layer 1"><path d="M16.75,13.52a8,8,0,0,0-16,0" style="fill:none;stroke:#a4a4a4;stroke-miterlimit:10;stroke-width:1.5px;fill-rule:evenodd"/><path d="M8.75,21.52a8,8,0,0,0,8-8" style="fill:none;stroke:#a4a4a4;stroke-miterlimit:10;stroke-width:1.5px;fill-rule:evenodd"/><path d="M.75,13.52a8,8,0,0,0,8,8" style="fill:none;stroke:#a4a4a4;stroke-miterlimit:10;stroke-width:1.5px;fill-rule:evenodd"/><path d="M8.75,18a4.5,4.5,0,0,0,0-9" style="fill:none;stroke:#a4a4a4;stroke-miterlimit:10;stroke-width:1.5px;fill-rule:evenodd"/><path d="M4.25,13.52A4.49,4.49,0,0,0,8.75,18" style="fill:none;stroke:#a4a4a4;stroke-miterlimit:10;stroke-width:1.5px;fill-rule:evenodd"/><path d="M8.75,9a4.5,4.5,0,0,0-4.5,4.5" style="fill:none;stroke:#a4a4a4;stroke-miterlimit:10;stroke-width:1.5px;fill-rule:evenodd"/><line x1="15.14" y1="4.64" x2="8.89" y2="13.24" style="fill:none;stroke:#fff;stroke-linecap:round;stroke-miterlimit:10;stroke-width:4px"/><line x1="15.14" y1="4.64" x2="8.89" y2="13.24" style="fill:none;stroke:#a4a4a4;stroke-linecap:round;stroke-miterlimit:10;stroke-width:1.5px"/><path d="M13.89,2.47l.52,3.12,2-2.75L16,.16a.18.18,0,0,0-.33-.08Z" style="fill:#a4a4a4"/><path d="M17.55,5.18l-3.14.41,2-2.75,2.7-.35a.19.19,0,0,1,.17.3Z" style="fill:#a4a4a4"/><path d="M8.25,13.52a.5.5,0,0,0,.5.5" style="fill:none;stroke:#a4a4a4;stroke-miterlimit:10;stroke-width:1.5px;fill-rule:evenodd"/></g></g></svg>