<svg xmlns="http://www.w3.org/2000/svg" viewBox="0 0 13.61 14.63"><title>Asset 1</title><g id="Layer_2" data-name="Layer 2"><g id="Layer_1-2" data-name="Layer 1"><path d="M10.35,10.58a.73.73,0,0,1-.5-.21.71.71,0,0,1,0-1L11.21,8H5.08a.7.7,0,1,1,0-1.4h6.13L9.85,5.26a.71.71,0,0,1,0-1,.7.7,0,0,1,1,0L13.4,6.82a.71.71,0,0,1,.21.49.75.75,0,0,1-.21.51l-2.56,2.55A.67.67,0,0,1,10.35,10.58Z" style="fill:#a4a4a4"/><path d="M2.91,14.63A2.9,2.9,0,0,1,0,11.73V2.91A2.91,2.91,0,0,1,2.91,0H6.63a.7.7,0,1,1,0,1.4H2.91A1.52,1.52,0,0,0,1.4,2.91v8.82a1.51,1.51,0,0,0,1.51,1.5H6.57a.7.7,0,0,1,0,1.4Z" style="fill:#a4a4a4"/></g></g></svg>