<svg xmlns="http://www.w3.org/2000/svg" viewBox="0 0 19.48 14.79"><title>Asset 2</title><g id="Layer_2" data-name="Layer 2"><g id="Layer_1-2" data-name="Layer 1"><path d="M15.5,11.6a15,15,0,0,0,3.83-3.72.84.84,0,0,0,0-1C16.84,3.5,13.46,1.39,9.74,1.39a9.07,9.07,0,0,0-1.28.09L9.64,3.16a4.18,4.18,0,0,1,4.19,4.51,4.5,4.5,0,0,1-.24,1.18M11,5.18a2.57,2.57,0,0,1,1.15,1.65" style="fill:#fff"/><path d="M12,10.44a3.94,3.94,0,0,1-2,.68h0a4.17,4.17,0,0,1-4.36-4.5A4.33,4.33,0,0,1,7.2,3.57L5.9,1.67A13.7,13.7,0,0,0,.15,6.42a.83.83,0,0,0,0,1C2.64,10.79,6,12.9,9.74,12.9a9.85,9.85,0,0,0,3.49-.64M11,9.1a2.33,2.33,0,0,1-1.13.37h0A2.53,2.53,0,0,1,7.25,6.73a2.57,2.57,0,0,1,.89-1.81" style="fill:#fff"/><line x1="14.08" y1="14.29" x2="4.51" y2="0.5" style="fill:none;stroke:#fff;stroke-linecap:round;stroke-miterlimit:10"/></g></g></svg>