<svg xmlns="http://www.w3.org/2000/svg" viewBox="0 0 19.48 12.01"><title>Asset 1</title><g id="Layer_2" data-name="Layer 2"><g id="Layer_1-2" data-name="Layer 1"><path d="M9.74,0C6,0,2.64,2.11.15,5.53a.83.83,0,0,0,0,1C2.64,9.9,6,12,9.74,12s7.1-2.11,9.59-5.53a.83.83,0,0,0,0-1C16.84,2.11,13.46,0,9.74,0ZM10,10.23a4.17,4.17,0,0,1-4.36-4.5A4.18,4.18,0,0,1,9.47,1.78a4.17,4.17,0,0,1,4.36,4.5,4.18,4.18,0,0,1-3.82,4ZM9.9,8.58A2.53,2.53,0,0,1,7.25,5.84,2.56,2.56,0,0,1,9.58,3.42a2.54,2.54,0,0,1,2.66,2.75A2.56,2.56,0,0,1,9.9,8.58Z" style="fill:#fff"/></g></g></svg>