<svg xmlns="http://www.w3.org/2000/svg" viewBox="0 0 18.5 24.36"><title>Asset 4</title><g id="Layer_2" data-name="Layer 2"><g id="Layer_1-2" data-name="Layer 1"><rect x="-2.18" y="3.68" width="22.86" height="17" rx="3.71" ry="3.71" transform="translate(21.43 2.93) rotate(90)" style="fill:none;stroke:#0680EF;stroke-miterlimit:10;stroke-width:1.5px"/><line x1="13.75" y1="15.75" x2="4.75" y2="15.75" style="fill:none;stroke:#0680EF;stroke-linecap:round;stroke-miterlimit:10;stroke-width:1.5px"/><path d="M10.61,18.75H7.89a1.14,1.14,0,0,1-1.14-1.14V15.75h5v1.86A1.14,1.14,0,0,1,10.61,18.75Z" style="fill:none;stroke:#0680EF;stroke-miterlimit:10;stroke-width:1.5px"/><path d="M12.34,5.25a.93.93,0,0,1,.91.91V9.34a.93.93,0,0,1-.91.91H6.16a.93.93,0,0,1-.91-.91V6.16a.93.93,0,0,1,.91-.91h6.18m0-1.5H6.16A2.42,2.42,0,0,0,3.75,6.16V9.34a2.42,2.42,0,0,0,2.41,2.41h6.18a2.42,2.42,0,0,0,2.41-2.41V6.16a2.42,2.42,0,0,0-2.41-2.41Z" style="fill:#0680EF"/></g></g></svg>