<svg xmlns="http://www.w3.org/2000/svg" viewBox="0 0 18 18"><title>Asset 2</title><g id="Layer_2" data-name="Layer 2"><g id="Layer_1-2" data-name="Layer 1"><rect x="1" y="1" width="16" height="16" rx="2" ry="2" style="fill:#487fea"/><path d="M15,2a1,1,0,0,1,1,1V15a1,1,0,0,1-1,1H3a1,1,0,0,1-1-1V3A1,1,0,0,1,3,2H15m0-2H3A3,3,0,0,0,0,3V15a3,3,0,0,0,3,3H15a3,3,0,0,0,3-3V3a3,3,0,0,0-3-3Z" style="fill:#487fea"/><path d="M7.65,12.43l-1-1-1.3-1.29a1.09,1.09,0,0,1,0-1.52,1.07,1.07,0,0,1,1.52,0l.78.78,3.56-3.56a1.07,1.07,0,0,1,1.52,0,1.09,1.09,0,0,1,0,1.52Z" style="fill:#fff"/></g></g></svg>