<svg xmlns="http://www.w3.org/2000/svg" viewBox="0 0 11.8 15.79"><title>Asset 2</title><g id="Layer_2" data-name="Layer 2"><g id="Layer_1-2" data-name="Layer 1"><path d="M3.23,15.79A2,2,0,0,1,1.28,13.7L.66,4.76A1.56,1.56,0,0,1,0,3.52a1.41,1.41,0,0,1,1.41-1.4H3.58V2A2.52,2.52,0,0,1,3.91.73,1.43,1.43,0,0,1,5.11,0H6.69a1.43,1.43,0,0,1,1.2.73A2.5,2.5,0,0,1,8.22,2v.1l.1,0h2.07a1.4,1.4,0,0,1,.79,2.57l-.66,9a2,2,0,0,1-1.95,2.09ZM2,13.67A1.34,1.34,0,0,0,3.23,15.1H8.57a1.34,1.34,0,0,0,1.26-1.41l.6-8.76H1.37ZM1.41,2.81a.71.71,0,0,0-.15,1.41h9.26a.73.73,0,0,0,.59-.71.71.71,0,0,0-.72-.71ZM5.11.69c-.47,0-.84.59-.84,1.31v.1H7.53V2c0-.72-.37-1.31-.84-1.31Z" style="fill:#fff"/><path d="M7.11,11.6a.34.34,0,0,1-.34-.34V8.46a.34.34,0,0,1,.34-.34.35.35,0,0,1,.35.34v2.8A.35.35,0,0,1,7.11,11.6Z" style="fill:#fff"/><path d="M4.69,11.6a.35.35,0,0,1-.35-.34V8.46a.35.35,0,0,1,.35-.34A.34.34,0,0,1,5,8.46v2.8A.34.34,0,0,1,4.69,11.6Z" style="fill:#fff"/></g></g></svg>