<svg xmlns="http://www.w3.org/2000/svg" viewBox="0 0 14.38 11.98"><title>Asset 1</title><g id="Layer_2" data-name="Layer 2"><g id="Layer_1-2" data-name="Layer 1"><path d="M11.52.8a2.06,2.06,0,0,1,2.06,2.06V9.12a2.06,2.06,0,0,1-2.06,2.06H2.86A2.06,2.06,0,0,1,.8,9.12V2.86A2.07,2.07,0,0,1,2.86.8h8.66m0-.8H2.86A2.86,2.86,0,0,0,0,2.86V9.12A2.86,2.86,0,0,0,2.86,12h8.66a2.86,2.86,0,0,0,2.86-2.86V2.86A2.86,2.86,0,0,0,11.52,0Z" style="fill:#fff"/><path d="M.4,8.79,3.56,6a1.13,1.13,0,0,1,1.35-.13l4,2.46a1.11,1.11,0,0,0,1.37-.16L14,4.79" style="fill:none;stroke:#fff;stroke-miterlimit:10;stroke-width:0.800000011920929px"/><circle cx="9.59" cy="3.99" r="1.2" style="fill:none;stroke:#fff;stroke-miterlimit:10;stroke-width:0.800000011920929px"/></g></g></svg>