<svg xmlns="http://www.w3.org/2000/svg" viewBox="0 0 10 13.32"><title>Asset 1</title><g id="Layer_2" data-name="Layer 2"><g id="Layer_1-2" data-name="Layer 1"><path d="M10,3A1.26,1.26,0,0,0,8.75,1.76H7A2.12,2.12,0,0,0,6.73.65,1.27,1.27,0,0,0,5.66,0H4.34A1.27,1.27,0,0,0,3.27.65,2.12,2.12,0,0,0,3,1.75H1.25a1.26,1.26,0,0,0-.7,2.3l.52,7.44a1.77,1.77,0,0,0,1.7,1.82H7.23a1.77,1.77,0,0,0,1.7-1.82l.52-7.44A1.27,1.27,0,0,0,10,3ZM4.34.74H5.66c.34,0,.62.45.62,1H3.72C3.72,1.19,4,.74,4.34.74ZM1.25,2.51h7.5a.51.51,0,0,1,.1,1H1.15a.51.51,0,0,1,.1-1Zm6.94,9v0a1,1,0,0,1-1,1.09H2.77a1,1,0,0,1-1-1.09v0l-.5-7.19H8.69Z" style="fill:#fff"/><path d="M6,6.76a.38.38,0,0,0-.37.38V9.46A.37.37,0,0,0,6,9.83a.36.36,0,0,0,.37-.37V7.14A.37.37,0,0,0,6,6.76Z" style="fill:#fff"/><path d="M4,6.76a.37.37,0,0,0-.37.38V9.46A.36.36,0,0,0,4,9.83a.37.37,0,0,0,.37-.37V7.14A.38.38,0,0,0,4,6.76Z" style="fill:#fff"/></g></g></svg>