<svg xmlns="http://www.w3.org/2000/svg" viewBox="0 0 14.97 21.2"><title>Asset 3</title><g id="Layer_2" data-name="Layer 2"><g id="Layer_1-2" data-name="Layer 1"><path d="M7.59,21.2A.72.72,0,0,1,7,20.86L1.12,11.42a7.49,7.49,0,1,1,12.79-.1L8.2,20.85a.73.73,0,0,1-.61.35ZM7.48,1.42a6,6,0,0,0-5.15,9.24l5.24,8.45,5.11-8.53a6.05,6.05,0,0,0-5.2-9.16Z" style="fill:#a4a4a4"/><path d="M7.48,11.27a3.79,3.79,0,1,1,3.79-3.79A3.79,3.79,0,0,1,7.48,11.27Zm0-6.16A2.37,2.37,0,1,0,9.85,7.48,2.38,2.38,0,0,0,7.48,5.11Z" style="fill:#a4a4a4"/></g></g></svg>