<svg xmlns="http://www.w3.org/2000/svg" viewBox="0 0 230.42 58.59"><title>Asset 1</title><g id="Layer_2" data-name="Layer 2"><g id="Layer_1-2" data-name="Layer 1"><path d="M229.34,3.92A397.28,397.28,0,0,0,5.11,37.22c-1.75.81-.23,3.4,1.51,2.59a397.14,397.14,0,0,1,221.92-33c1.89.27,2.7-2.63.8-2.89Z" style="fill:#e4e4e4"/><path d="M1.58,42.43c18,1.91,36.31,5,51.29,15.88,1.56,1.13,3.06-1.47,1.51-2.59C39,44.56,20.07,41.39,1.58,39.43c-1.92-.21-1.9,2.8,0,3Z" style="fill:#e4e4e4"/><path d="M15,6.47A83.64,83.64,0,0,1,.28,40.17c-1.14,1.56,1.46,3.06,2.59,1.51a85.34,85.34,0,0,0,15-34.42c.37-1.88-2.52-2.69-2.89-.79Z" style="fill:#e4e4e4"/></g></g></svg>