<svg xmlns="http://www.w3.org/2000/svg" viewBox="0 0 13.8 18.45"><title>Asset 1</title><g id="Layer_2" data-name="Layer 2"><g id="Layer_1-2" data-name="Layer 1"><path d="M3.78,18.45A2.39,2.39,0,0,1,1.49,16L.78,5.58A1.82,1.82,0,0,1,0,4.13,1.66,1.66,0,0,1,1.66,2.47H4.17v-.1A2.83,2.83,0,0,1,4.57.86,1.65,1.65,0,0,1,6,0H7.82A1.65,1.65,0,0,1,9.23.86a2.81,2.81,0,0,1,.4,1.49v.1l.1,0h2.41a1.66,1.66,0,0,1,.93,3L12.31,16A2.39,2.39,0,0,1,10,18.45ZM2.33,16a1.56,1.56,0,0,0,1.45,1.66H10A1.55,1.55,0,0,0,11.47,16l.7-10.21H1.63ZM1.66,3.31a.82.82,0,0,0-.17,1.62h10.8a.82.82,0,0,0-.15-1.62ZM6,.84c-.54,0-1,.68-1,1.51v.1H8.79v-.1c0-.83-.43-1.51-1-1.51Z" style="fill:#dc4062"/><path d="M8.32,13.57a.42.42,0,0,1-.42-.42V9.89a.42.42,0,0,1,.84,0v3.26A.42.42,0,0,1,8.32,13.57Z" style="fill:#dc4062"/><path d="M5.48,13.57a.42.42,0,0,1-.42-.42V9.89a.42.42,0,0,1,.84,0v3.26A.42.42,0,0,1,5.48,13.57Z" style="fill:#dc4062"/></g></g></svg>