<svg xmlns="http://www.w3.org/2000/svg" viewBox="0 0 22.51 23.68"><title>Asset 2</title><g id="Layer_2" data-name="Layer 2"><g id="Layer_1-2" data-name="Layer 1"><path d="M11.61,23.68a.83.83,0,1,1,.89-.83A.86.86,0,0,1,11.61,23.68ZM6.38,22.5a.62.62,0,1,1,.67-.61A.64.64,0,0,1,6.38,22.5Zm10.33-.08a.92.92,0,1,1,1-.91A.95.95,0,0,1,16.71,22.42ZM20.3,19c-.23-.46-.49-.93-.75-1.42A9.42,9.42,0,0,0,21,12.49,9.86,9.86,0,0,0,11,2.81a10.18,10.18,0,0,0-3.65.68l-1.17.44,3,3L0,8.89,2.22,0l3,3,.52-.26A11.6,11.6,0,0,1,11,1.45a11.28,11.28,0,0,1,11.47,11A10.76,10.76,0,0,1,20.3,19Z" style="fill:#487fea"/></g></g></svg>