<svg xmlns="http://www.w3.org/2000/svg" viewBox="0 0 22.51 23.68"><title>Asset 1</title><g id="Layer_2" data-name="Layer 2"><g id="Layer_1-2" data-name="Layer 1"><path d="M10.9,23.68a.83.83,0,1,1,.89-.83A.86.86,0,0,1,10.9,23.68Zm5.23-1.18a.62.62,0,1,1,.67-.61A.64.64,0,0,1,16.13,22.5ZM5.8,22.42a.92.92,0,1,1,0-1.83.92.92,0,1,1,0,1.83ZM2.21,19A10.76,10.76,0,0,1,0,12.49a11.28,11.28,0,0,1,11.47-11,11.68,11.68,0,0,1,5.3,1.25l.51.26,3-3,2.22,8.89-9.25-2,3-3-1.17-.44a10.14,10.14,0,0,0-3.65-.68,9.86,9.86,0,0,0-10,9.68A9.32,9.32,0,0,0,3,17.59C2.7,18.08,2.45,18.55,2.21,19Z" style="fill:#487fea"/></g></g></svg>