<svg xmlns="http://www.w3.org/2000/svg" viewBox="0 0 15 15"><title>Asset 2</title><g id="Layer_2" data-name="Layer 2"><g id="Layer_1-2" data-name="Layer 1"><circle cx="7.5" cy="7.5" r="7" style="fill:none;stroke:#a4a4a4;stroke-miterlimit:10"/><path d="M6.91,8.47a1.86,1.86,0,0,1,.2-.87,3.57,3.57,0,0,1,.75-.85,4.07,4.07,0,0,0,.56-.59,1,1,0,0,0,.16-.58.9.9,0,0,0-.28-.69,1.09,1.09,0,0,0-.79-.28,1.09,1.09,0,0,0-.78.29,1.63,1.63,0,0,0-.42.69L5.22,5.14A2.57,2.57,0,0,1,6,4a2.2,2.2,0,0,1,1.47-.5,2.54,2.54,0,0,1,1.19.27,2,2,0,0,1,1.1,1.8,1.72,1.72,0,0,1-.28,1,5.32,5.32,0,0,1-.73.84,2.54,2.54,0,0,0-.51.6,1.26,1.26,0,0,0-.14.62v.32H6.91Zm0,2.8a.83.83,0,0,1,.6-1.42.78.78,0,0,1,.58.24.85.85,0,0,1,0,1.18.76.76,0,0,1-.58.25A.79.79,0,0,1,6.91,11.27Z" style="fill:#a4a4a4"/></g></g></svg>