<svg xmlns="http://www.w3.org/2000/svg" viewBox="0 0 20.5 20.75"><title>Asset 2</title><g id="Layer_2" data-name="Layer 2"><g id="Layer_1-2" data-name="Layer 1"><path d="M19.75,16.29A3.71,3.71,0,0,1,16,20" style="fill:none;stroke:#a4a4a4;stroke-miterlimit:10;stroke-width:1.5px;fill-rule:evenodd"/><path d="M19.75,5.66V16.29" style="fill:none;stroke:#a4a4a4;stroke-miterlimit:10;stroke-width:1.5px;fill-rule:evenodd"/><path d="M16,2a3.71,3.71,0,0,1,3.71,3.71" style="fill:none;stroke:#a4a4a4;stroke-miterlimit:10;stroke-width:1.5px;fill-rule:evenodd"/><path d="M4.46,2H16" style="fill:none;stroke:#a4a4a4;stroke-miterlimit:10;stroke-width:1.5px;fill-rule:evenodd"/><path d="M.75,5.66A3.71,3.71,0,0,1,4.46,2" style="fill:none;stroke:#a4a4a4;stroke-miterlimit:10;stroke-width:1.5px;fill-rule:evenodd"/><path d="M.75,16.29V5.66" style="fill:none;stroke:#a4a4a4;stroke-miterlimit:10;stroke-width:1.5px;fill-rule:evenodd"/><path d="M4.46,20A3.71,3.71,0,0,1,.75,16.29" style="fill:none;stroke:#a4a4a4;stroke-miterlimit:10;stroke-width:1.5px;fill-rule:evenodd"/><path d="M16,20H4.46" style="fill:none;stroke:#a4a4a4;stroke-miterlimit:10;stroke-width:1.5px;fill-rule:evenodd"/><line x1="0.75" y1="7.65" x2="19.75" y2="7.65" style="fill:none;stroke:#a4a4a4;stroke-miterlimit:10;stroke-width:1.5px"/><line x1="14.05" y1="2.9" x2="14.05" y2="1" style="fill:none;stroke:#a4a4a4;stroke-linecap:round;stroke-miterlimit:10;stroke-width:2px"/><line x1="6.45" y1="2.9" x2="6.45" y2="1" style="fill:none;stroke:#a4a4a4;stroke-linecap:round;stroke-miterlimit:10;stroke-width:2px"/><line x1="12.25" y1="12.5" x2="13.25" y2="13.5" style="fill:none;stroke:#a4a4a4;stroke-linecap:round;stroke-miterlimit:10;stroke-width:1.5px"/><line x1="13.38" y1="13.61" x2="16.38" y2="10.61" style="fill:none;stroke:#a4a4a4;stroke-linecap:round;stroke-miterlimit:10;stroke-width:1.5px"/></g></g></svg>