<svg xmlns="http://www.w3.org/2000/svg" viewBox="0 0 22 22"><title>Asset 1</title><g id="Layer_2" data-name="Layer 2"><g id="Layer_1-2" data-name="Layer 1"><path d="M2.44,13.41a8.32,8.32,0,0,0,.81,1.92l-1,1.23a1,1,0,0,0,.08,1.34L4,19.58a1,1,0,0,0,1.33.07l1.23-1a8.94,8.94,0,0,0,2,.84l.18,1.57a1,1,0,0,0,1,.9h2.38a1,1,0,0,0,1-.9l.18-1.51a9.17,9.17,0,0,0,2.13-.87l1.19.94A1,1,0,0,0,18,19.58l1.68-1.68a1,1,0,0,0,.08-1.34l-.92-1.16a9,9,0,0,0,.88-2.1l1.42-.17a1,1,0,0,0,.89-1V9.76a1,1,0,0,0-.89-1l-1.4-.17a9.16,9.16,0,0,0-.84-2.08l.86-1.08a1,1,0,0,0-.08-1.34L18,2.41a1,1,0,0,0-1.33-.07l-1.06.83a8.68,8.68,0,0,0-2.18-.91L13.24.89a1,1,0,0,0-1-.89H9.86a1,1,0,0,0-1,.89L8.7,2.26a8.68,8.68,0,0,0-2.24,1l-1.1-.87A1,1,0,0,0,4,2.41L2.35,4.09a1,1,0,0,0-.08,1.34l.92,1.16a8.43,8.43,0,0,0-.83,2.1L.89,8.86a1,1,0,0,0-.89,1v2.37a1,1,0,0,0,.89,1ZM11.05,7a3.93,3.93,0,1,1-3.93,3.93A3.93,3.93,0,0,1,11.05,7Z" style="fill:#b0b0b0"/></g></g></svg>