<svg xmlns="http://www.w3.org/2000/svg" viewBox="0 0 22.53 22.54"><title>Asset 1</title><g id="Layer_2" data-name="Layer 2"><g id="Layer_1-2" data-name="Layer 1"><path d="M11.27,22.54a2.43,2.43,0,0,1-2.44-2.3V20.1l-.14,0a8.88,8.88,0,0,1-.91-.32,6.78,6.78,0,0,1-.89-.43l-.12-.07-.11.1A2.45,2.45,0,0,1,5,20a2.38,2.38,0,0,1-1.72-.72,2.43,2.43,0,0,1-.1-3.35l.09-.1-.07-.12c-.15-.29-.29-.59-.42-.89a7.77,7.77,0,0,1-.33-.92l0-.14H2.3A2.46,2.46,0,0,1,.72,13a2.44,2.44,0,0,1,0-3.46A2.41,2.41,0,0,1,2.3,8.83h.14l0-.14a7,7,0,0,1,.33-.91c.13-.3.27-.6.42-.89l.07-.13-.09-.1A2.41,2.41,0,0,1,2.58,5,2.46,2.46,0,0,1,5,2.58a2.42,2.42,0,0,1,1.63.62l.11.1.12-.07a8.22,8.22,0,0,1,.88-.42,7.77,7.77,0,0,1,.92-.33l.14,0V2.3A2.36,2.36,0,0,1,9.54.72,2.44,2.44,0,0,1,13,.72a2.46,2.46,0,0,1,.71,1.58v.14l.14,0a7.18,7.18,0,0,1,.92.33,7.1,7.1,0,0,1,.88.42l.13.07.11-.1a2.38,2.38,0,0,1,1.61-.62,2.45,2.45,0,0,1,1.84,4.07l-.09.1.06.13c.15.29.3.59.43.89s.22.6.32.92l0,.13h.14a2.44,2.44,0,0,1,0,4.88H20.1l0,.14a8.48,8.48,0,0,1-.33.93c-.12.3-.27.6-.42.89l-.06.12.09.1A2.47,2.47,0,0,1,20,17.51,2.46,2.46,0,0,1,17.5,20a2.47,2.47,0,0,1-1.62-.62l-.1-.1-.13.07a6.47,6.47,0,0,1-.88.42,7.18,7.18,0,0,1-.92.33l-.14,0v.14A2.51,2.51,0,0,1,13,21.83,2.44,2.44,0,0,1,11.27,22.54ZM6.86,18.21a.29.29,0,0,1,.16,0,7.88,7.88,0,0,0,1.12.58,8.16,8.16,0,0,0,1.15.38.32.32,0,0,1,.28.35v.11a1.75,1.75,0,0,0,.5,1.3,1.73,1.73,0,0,0,1.21.5A1.74,1.74,0,0,0,13,19.76V19.6a.34.34,0,0,1,.23-.39,8.4,8.4,0,0,0,1.19-.38,9.38,9.38,0,0,0,1.1-.56.33.33,0,0,1,.19-.06.3.3,0,0,1,.25.12l.07.09a1.77,1.77,0,0,0,1.27.56,1.74,1.74,0,0,0,1.21-.5A1.72,1.72,0,0,0,19,17.27a1.61,1.61,0,0,0-.31-1h.12l-.45-.36a.31.31,0,0,1-.08-.41,9,9,0,0,0,.57-1.12,8.75,8.75,0,0,0,.38-1.16.32.32,0,0,1,.32-.28h.24a1.72,1.72,0,0,0,1.21-.5,1.71,1.71,0,0,0,0-2.42,1.74,1.74,0,0,0-1.2-.5h0l-.23,0a.31.31,0,0,1-.33-.24,8.74,8.74,0,0,0-.39-1.19,8,8,0,0,0-.56-1.09.33.33,0,0,1,.06-.44l.06-.05.05,0A1.75,1.75,0,0,0,19,5.27a1.69,1.69,0,0,0-.49-1.21,1.74,1.74,0,0,0-1.21-.5,1.72,1.72,0,0,0-1.21.5l-.12.14a.32.32,0,0,1-.27.13.35.35,0,0,1-.17,0,7.53,7.53,0,0,0-2.27-1A.3.3,0,0,1,13,3V2.87a1.75,1.75,0,0,0-.51-1.29,1.66,1.66,0,0,0-1.2-.5,1.71,1.71,0,0,0-1.71,1.7,1.29,1.29,0,0,0,0,.23.31.31,0,0,1-.24.32,9.06,9.06,0,0,0-1.19.39,8.52,8.52,0,0,0-1.09.55.39.39,0,0,1-.2.06.3.3,0,0,1-.24-.12l-.07-.09a1.83,1.83,0,0,0-1.28-.56,1.72,1.72,0,0,0-1.21.5,1.74,1.74,0,0,0-.5,1.21,1.72,1.72,0,0,0,.5,1.21l.11.09A.35.35,0,0,1,4.28,7a6.5,6.5,0,0,0-.56,1.12A6.2,6.2,0,0,0,3.34,9.3.35.35,0,0,1,3,9.58H2.83a1.7,1.7,0,0,0-1.26,2.91,1.74,1.74,0,0,0,1.21.5A.69.69,0,0,0,3,13a.34.34,0,0,1,.32.25,8.31,8.31,0,0,0,.39,1.19,6.67,6.67,0,0,0,.56,1.1.34.34,0,0,1,0,.36l-.2-.23v.44a1.7,1.7,0,0,0-.51,1.2A1.71,1.71,0,0,0,5.26,19a1.74,1.74,0,0,0,1.21-.5l.11-.12A.35.35,0,0,1,6.86,18.21Zm4.41-2.91a4,4,0,0,1-4-4,4,4,0,1,1,4,4Zm0-7.08a3,3,0,0,0-3,3,3.06,3.06,0,0,0,3,3.05,3.06,3.06,0,0,0,3.05-3.05,3,3,0,0,0-3.05-3Z" style="fill:#b0b0b0"/></g></g></svg>