<svg xmlns="http://www.w3.org/2000/svg" viewBox="0 0 17.4 17.37"><title>Asset 5</title><g id="Layer_2" data-name="Layer 2"><g id="Layer_1-2" data-name="Layer 1"><path d="M.39,6.31A.39.39,0,0,1,0,5.92V.39A.4.4,0,0,1,.39,0H5.93a.39.39,0,0,1,.39.39V5.92a.38.38,0,0,1-.39.39Zm.4-.78H5.54V.78H.79Z" style="fill:#fff"/><path d="M11.47,6.31a.38.38,0,0,1-.39-.39V.39A.39.39,0,0,1,11.47,0H17a.4.4,0,0,1,.39.39V5.92a.39.39,0,0,1-.39.39Zm.39-.78h4.76V.78H11.86Z" style="fill:#fff"/><path d="M.39,17.37A.39.39,0,0,1,0,17V11.45a.4.4,0,0,1,.39-.39H5.93a.39.39,0,0,1,.39.39V17a.38.38,0,0,1-.39.39Zm.4-.78H5.54V11.84H.79Z" style="fill:#fff"/><path d="M8.7,6.31a.38.38,0,0,1-.39-.39V.39a.39.39,0,1,1,.78,0V5.92A.38.38,0,0,1,8.7,6.31Z" style="fill:#fff"/><path d="M8.7,11.84a.38.38,0,0,1-.39-.39V9.08H.39A.4.4,0,0,1,0,8.69.39.39,0,0,1,.39,8.3H8.7a.38.38,0,0,1,.39.39v2.76A.38.38,0,0,1,8.7,11.84Z" style="fill:#fff"/><path d="M8.7,17.37A.38.38,0,0,1,8.31,17V14.22a.39.39,0,0,1,.78,0v2.37h2V11.45a.39.39,0,0,1,.78,0V17a.38.38,0,0,1-.39.39Z" style="fill:#fff"/><path d="M14.24,11.84a.38.38,0,0,1-.39-.39V9.08H11.47a.39.39,0,0,1-.39-.39.38.38,0,0,1,.39-.39h2.77a.38.38,0,0,1,.39.39v2.76A.38.38,0,0,1,14.24,11.84Z" style="fill:#fff"/><path d="M17,14.61a.39.39,0,0,1-.39-.39V8.69A.38.38,0,0,1,17,8.3a.39.39,0,0,1,.39.39v5.53A.4.4,0,0,1,17,14.61Z" style="fill:#fff"/><path d="M14.24,17.37a.38.38,0,0,1-.39-.39V14.22a.39.39,0,0,1,.78,0v2.37H17a.4.4,0,0,1,.39.39.39.39,0,0,1-.39.39Z" style="fill:#fff"/></g></g></svg>