<svg xmlns="http://www.w3.org/2000/svg" viewBox="0 0 20.4 14.52"><title>Asset 4</title><g id="Layer_2" data-name="Layer 2"><g id="Layer_1-2" data-name="Layer 1"><path d="M16.68,14.52a.52.52,0,0,1-.52-.52V11.51a.52.52,0,1,1,1,0V14A.52.52,0,0,1,16.68,14.52Zm-12.84,0A.52.52,0,0,1,3.32,14V11.51A.53.53,0,0,1,3.84,11a.52.52,0,0,1,.52.52V14A.52.52,0,0,1,3.84,14.52Zm9.6-1a.52.52,0,0,1-.52-.52V11.51a.52.52,0,1,1,1,0V13A.52.52,0,0,1,13.44,13.47ZM7,13.47A.52.52,0,0,1,6.48,13V11.51a.52.52,0,1,1,1,0V13A.52.52,0,0,1,7,13.47Zm3.16-.05a.52.52,0,0,1-.52-.52V11.51a.52.52,0,0,1,1,0V12.9A.52.52,0,0,1,10.16,13.42ZM.52,9.16a.52.52,0,0,1,0-1h2.8V.52A.52.52,0,0,1,3.84,0a.52.52,0,0,1,.52.52v7.6H6.48V.52a.52.52,0,1,1,1,0v7.6H9.64V.52a.52.52,0,1,1,1,0v7.6h2.24V.52a.52.52,0,0,1,1,0v7.6h2.2V.52a.52.52,0,1,1,1,0v7.6h2.68a.52.52,0,0,1,0,1Z" style="fill:#fff"/></g></g></svg>