<svg xmlns="http://www.w3.org/2000/svg" viewBox="0 0 18.29 19.72"><title>Asset 1</title><g id="Layer_2" data-name="Layer 2"><g id="Layer_1-2" data-name="Layer 1"><path d="M15.83,16.09V19" style="fill:none;stroke:#a4a4a4;stroke-linecap:round;stroke-miterlimit:10;stroke-width:1.5px;fill-rule:evenodd"/><path d="M11.17,11.43a4.66,4.66,0,0,1,4.66,4.66" style="fill:none;stroke:#a4a4a4;stroke-linecap:round;stroke-miterlimit:10;stroke-width:1.5px;fill-rule:evenodd"/><path d="M5.41,11.43h5.76" style="fill:none;stroke:#a4a4a4;stroke-linecap:round;stroke-miterlimit:10;stroke-width:1.5px;fill-rule:evenodd"/><path d="M.75,16.09a4.66,4.66,0,0,1,4.66-4.66" style="fill:none;stroke:#a4a4a4;stroke-linecap:round;stroke-miterlimit:10;stroke-width:1.5px;fill-rule:evenodd"/><path d="M.75,19V16.09" style="fill:none;stroke:#a4a4a4;stroke-linecap:round;stroke-miterlimit:10;stroke-width:1.5px;fill-rule:evenodd"/><path d="M12.06,4.52a3.77,3.77,0,0,0-7.54,0" style="fill:none;stroke:#a4a4a4;stroke-linecap:round;stroke-miterlimit:10;stroke-width:1.5px;fill-rule:evenodd"/><path d="M8.29,8.29a3.77,3.77,0,0,0,3.77-3.77" style="fill:none;stroke:#a4a4a4;stroke-linecap:round;stroke-miterlimit:10;stroke-width:1.5px;fill-rule:evenodd"/><path d="M4.52,4.52A3.77,3.77,0,0,0,8.29,8.29" style="fill:none;stroke:#a4a4a4;stroke-linecap:round;stroke-miterlimit:10;stroke-width:1.5px;fill-rule:evenodd"/><path d="M17.66,3.42H15.2a.63.63,0,1,0,0,1.26h2.46a.63.63,0,0,0,.63-.63.63.63,0,0,0-.63-.63Z" style="fill:#a4a4a4"/><path d="M14.33,2.09a.61.61,0,0,0,.58.4.62.62,0,0,0,.23,0l2.38-.93A.64.64,0,0,0,17.88.7a.63.63,0,0,0-.82-.35l-2.38.93a.62.62,0,0,0-.35.81Z" style="fill:#a4a4a4"/><path d="M17.52,6.57l-2.38-.94a.62.62,0,0,0-.81.36.62.62,0,0,0,.35.81l2.38.93a.48.48,0,0,0,.23,0,.65.65,0,0,0,.59-.4.63.63,0,0,0-.36-.81Z" style="fill:#a4a4a4"/></g></g></svg>