<svg xmlns="http://www.w3.org/2000/svg" viewBox="0 0 15.77 15.08"><title>Asset 1</title><g id="Layer_2" data-name="Layer 2"><g id="Layer_1-2" data-name="Layer 1"><path d="M8.65.47l1.77,3.61a.87.87,0,0,0,.64.46l4,.58a.85.85,0,0,1,.47,1.45l-2.88,2.8a.85.85,0,0,0-.24.75l.68,4a.85.85,0,0,1-1.23.89L8.28,13.11a.85.85,0,0,0-.79,0L3.93,15a.85.85,0,0,1-1.23-.89l.68-4a.85.85,0,0,0-.24-.75L.26,6.57A.85.85,0,0,1,.73,5.12l4-.58a.87.87,0,0,0,.64-.46L7.12.47a.86.86,0,0,1,1.53,0Z" style="fill:#fff"/></g></g></svg>