<svg xmlns="http://www.w3.org/2000/svg" viewBox="0 0 17 16.26"><title>Asset 1</title><g id="Layer_2" data-name="Layer 2"><g id="Layer_1-2" data-name="Layer 1"><path d="M9.32.51,11.24,4.4a.92.92,0,0,0,.69.5l4.28.62a.91.91,0,0,1,.51,1.56l-3.1,3a.91.91,0,0,0-.26.81l.73,4.27a.92.92,0,0,1-1.33,1l-3.83-2a.93.93,0,0,0-.86,0l-3.83,2a.92.92,0,0,1-1.33-1l.73-4.27a.91.91,0,0,0-.26-.81l-3.1-3a.91.91,0,0,1,.5-1.56L5.07,4.9a.92.92,0,0,0,.69-.5L7.68.51a.91.91,0,0,1,1.64,0Z" style="fill:#e4e4e4"/></g></g></svg>