<svg xmlns="http://www.w3.org/2000/svg" viewBox="0 0 18 18"><title>Asset 1</title><g id="Layer_2" data-name="Layer 2"><g id="Layer_1-2" data-name="Layer 1"><circle cx="9" cy="9" r="8" style="fill:none;stroke:#a4a4a4;stroke-miterlimit:10;stroke-width:2px"/><path d="M9,12H9c-2.76,0-5,1.88-5,4.2H4C6,17.88,9,17,9,17a15.82,15.82,0,0,0,5-.84h0C14,13.88,11.76,12,9,12Z" style="fill:#a4a4a4"/><path d="M8.87,3.89,8.14,10A.87.87,0,0,0,9,11H9a.87.87,0,0,0,.86-1L9.13,3.89A.13.13,0,0,0,8.87,3.89Z" style="fill:#a4a4a4;fill-rule:evenodd"/></g></g></svg>