<svg xmlns="http://www.w3.org/2000/svg" viewBox="0 0 16 16"><title>Asset 1</title><g id="Layer_2" data-name="Layer 2"><g id="Layer_1-2" data-name="Layer 1"><path d="M1.77,9.75a6.39,6.39,0,0,0,.59,1.4L1.65,12a.75.75,0,0,0,.06,1l1.22,1.22a.72.72,0,0,0,1,0l.89-.7a6.37,6.37,0,0,0,1.45.61l.13,1.15A.74.74,0,0,0,7.1,16H8.83a.74.74,0,0,0,.73-.65l.12-1.1a7.08,7.08,0,0,0,1.56-.63l.86.68a.73.73,0,0,0,1-.06L14.29,13a.72.72,0,0,0,.06-1l-.67-.85a6,6,0,0,0,.64-1.53l1-.12A.74.74,0,0,0,16,8.82V7.1a.73.73,0,0,0-.65-.73l-1-.12a5.83,5.83,0,0,0-.61-1.51L14.35,4a.75.75,0,0,0-.06-1L13.07,1.75a.73.73,0,0,0-1-.05l-.77.61a6.54,6.54,0,0,0-1.59-.67l-.11-1A.74.74,0,0,0,8.9,0H7.17a.74.74,0,0,0-.73.65l-.11,1a6.71,6.71,0,0,0-1.63.69L3.9,1.7a.73.73,0,0,0-1,.05L1.71,3a.72.72,0,0,0-.06,1l.67.84a6.52,6.52,0,0,0-.61,1.53L.65,6.44A.74.74,0,0,0,0,7.17V8.9a.73.73,0,0,0,.65.72ZM8,5.08A2.86,2.86,0,1,1,5.18,7.93,2.86,2.86,0,0,1,8,5.08Z" style="fill:#bdbcbc"/></g></g></svg>