<svg xmlns="http://www.w3.org/2000/svg" viewBox="0 0 157.32 41.92"><title>Asset 1</title><g id="Layer_2" data-name="Layer 2"><g id="Layer_1-2" data-name="Layer 1"><g style="opacity:0.23"><line x1="1" y1="29.24" x2="2.28" y2="27.7" style="fill:none;stroke:#fff;stroke-linecap:round;stroke-miterlimit:10;stroke-width:2px"/><path d="M7.41,21.53,22.88,2.92A5.32,5.32,0,0,1,31,2.84L51.68,26.76A5.32,5.32,0,0,0,57,28.44l38.58-9.71a5.34,5.34,0,0,1,3.09.16l25.87,9.28a5.32,5.32,0,0,0,5.33-1l22-19.59" style="fill:none;stroke:#fff;stroke-linecap:round;stroke-miterlimit:10;stroke-width:2px;stroke-dasharray:4.0101542472839355,8.020308494567871"/><line x1="154.83" y1="4.88" x2="156.32" y2="3.55" style="fill:none;stroke:#fff;stroke-linecap:round;stroke-miterlimit:10;stroke-width:2px"/></g><path d="M1,40.92,22.4,15.18a6,6,0,0,1,9.08-.09L51.83,38.61a5.94,5.94,0,0,0,5,2l40.19-3.57a5.66,5.66,0,0,1,1.3,0l28.78,3.76a6.64,6.64,0,0,0,.77.05h27.64" style="fill:none;stroke:#fff;stroke-linecap:round;stroke-miterlimit:10;stroke-width:2px"/></g></g></svg>