<svg xmlns="http://www.w3.org/2000/svg" viewBox="0 0 41.17 42.6"><title>Asset 1</title><g id="Layer_2" data-name="Layer 2"><g id="Layer_1-2" data-name="Layer 1"><path d="M18.43,42.6a.52.52,0,0,1,0-1h5.74a.52.52,0,0,1,0,1Z" style="fill:#fff"/><path d="M18.43,39.73a.52.52,0,0,1,0-1h5.74a.52.52,0,0,1,0,1Z" style="fill:#fff"/><rect x="8.6" y="10.03" width="1.03" height="1.03" style="fill:#fff"/><rect x="8.6" y="12.9" width="1.03" height="1.03" style="fill:#fff"/><rect x="7.17" y="11.47" width="1.03" height="1.03" style="fill:#fff"/><rect x="10.03" y="11.47" width="1.03" height="1.03" style="fill:#fff"/><rect x="1.43" y="3.58" width="1.03" height="1.03" style="fill:#fff"/><rect x="1.43" y="6.45" width="1.03" height="1.03" style="fill:#fff"/><rect y="5.02" width="1.03" height="1.03" style="fill:#fff"/><rect x="2.87" y="5.02" width="1.03" height="1.03" style="fill:#fff"/><rect x="32.25" y="3.58" width="1.03" height="1.03" style="fill:#fff"/><rect x="32.25" y="6.45" width="1.03" height="1.03" style="fill:#fff"/><rect x="33.68" y="5.02" width="1.03" height="1.03" style="fill:#fff"/><rect x="30.82" y="5.02" width="1.03" height="1.03" style="fill:#fff"/><rect x="40.13" y="11.47" width="1.03" height="1.03" style="fill:#fff"/><rect x="38.7" y="12.9" width="1.03" height="1.03" style="fill:#fff"/><path d="M18.43,36.87a.51.51,0,0,1-.51-.52V34H12.7c-5.15,0-9.83-4.34-9.83-9.12V23.45c0-3.95,4.08-7.68,8.4-7.68a6.42,6.42,0,0,1,2.08.37l.27.09V4.1a.86.86,0,0,1,0-.18.79.79,0,0,1,.11-.19L17.35.15A.38.38,0,0,1,17.5.06.93.93,0,0,1,17.74,0H28.47A.51.51,0,0,1,29,.52V17.68l.27-.09a7.87,7.87,0,0,1,2.46-.4h.35c3.87.09,7.67,3.9,7.67,7.68,0,6-4.94,9.12-9.83,9.12H24.68v2.35a.51.51,0,0,1-.51.52Zm-.56-6.77h.52a.53.53,0,0,1,.56.52v5.21h4.7V30.62a.52.52,0,0,1,.52-.52h.52l-.35-.35L21.3,27ZM24.68,33H29.9c4.24,0,8.8-2.53,8.8-8.09,0-3.21-3.36-6.57-6.66-6.65h-.3a7.43,7.43,0,0,0-3.08.68.71.71,0,0,1-.2,0l-.27-.07-.12-.13A1.29,1.29,0,0,1,28,18.5c-.49-2.82-3.35-6-6.65-6a7.25,7.25,0,0,0-6.67,4.65l-.08.14a.88.88,0,0,1-.23.19l-.22,0a.77.77,0,0,1-.17-.05,6.46,6.46,0,0,0-2.66-.67c-3.72,0-7.37,3.3-7.37,6.65v1.43C3.9,29,8.18,33,12.7,33h5.22V31.13h-1.4a.51.51,0,0,1-.34-.9L21,25.93a.54.54,0,0,1,.7,0l4.77,4.3a.51.51,0,0,1-.34.9h-1.4ZM21.3,11.47a7.91,7.91,0,0,1,6.28,3.62l.37.58V1H18.33l.61,3.7a.49.49,0,0,1-.11.42.5.5,0,0,1-.4.18l-3.78-.62V14.83l.35-.4A8.57,8.57,0,0,1,21.3,11.47ZM15.21,3.75l2.59.44-.43-2.6Z" style="fill:#fff"/></g></g></svg>