<svg xmlns="http://www.w3.org/2000/svg" viewBox="0 0 65.63 67.91"><title>Asset 1</title><g id="Layer_2" data-name="Layer 2"><g id="Layer_1-2" data-name="Layer 1"><path d="M29.4,67.91a.94.94,0,0,1,0-1.88h9.11a.94.94,0,0,1,0,1.88Z" style="fill:#e4e4e4"/><path d="M29.4,63.36a.94.94,0,1,1,0-1.88h9.11a.94.94,0,1,1,0,1.88Z" style="fill:#e4e4e4"/><rect x="13.66" y="15.94" width="1.88" height="1.88" style="fill:#e4e4e4"/><rect x="13.66" y="20.49" width="1.88" height="1.88" style="fill:#e4e4e4"/><rect x="11.38" y="18.22" width="1.88" height="1.88" style="fill:#e4e4e4"/><rect x="15.94" y="18.22" width="1.88" height="1.88" style="fill:#e4e4e4"/><rect x="2.28" y="5.69" width="1.88" height="1.88" style="fill:#e4e4e4"/><rect x="2.28" y="10.25" width="1.88" height="1.88" style="fill:#e4e4e4"/><rect y="7.97" width="1.88" height="1.88" style="fill:#e4e4e4"/><rect x="4.55" y="7.97" width="1.88" height="1.88" style="fill:#e4e4e4"/><rect x="51.23" y="5.69" width="1.88" height="1.88" style="fill:#e4e4e4"/><rect x="51.23" y="10.25" width="1.88" height="1.88" style="fill:#e4e4e4"/><rect x="53.51" y="7.97" width="1.88" height="1.88" style="fill:#e4e4e4"/><rect x="48.96" y="7.97" width="1.88" height="1.88" style="fill:#e4e4e4"/><rect x="63.76" y="18.22" width="1.88" height="1.88" style="fill:#e4e4e4"/><rect x="61.48" y="20.49" width="1.88" height="1.88" style="fill:#e4e4e4"/><path d="M29.4,58.8a.94.94,0,0,1-.94-.93V54.25H20.29c-8.23,0-15.74-7-15.74-14.6V37.37C4.55,31,11.1,25.05,18,25.05a10.26,10.26,0,0,1,3.34.6l.27.09V6.63a2.34,2.34,0,0,1,.07-.32A.86.86,0,0,1,21.91,6L27.6.28A.87.87,0,0,1,27.86.1a2,2,0,0,1,.43-.1H45.34a.94.94,0,0,1,.94.94V28l.26-.09a12.68,12.68,0,0,1,4-.64l.55,0c6.21.14,12.31,6.25,12.31,12.32,0,9.58-7.92,14.6-15.74,14.6H39.45v3.62a.94.94,0,0,1-.94.93Zm-.59-11h.52a1,1,0,0,1,1,.94v8.17h7.23V48.76a.94.94,0,0,1,.94-.94H39l-.32-.35L34,43.19Zm10.64,4.55h8.17c6.67,0,13.86-4,13.86-12.72,0-5-5.28-10.32-10.47-10.45h-.47a11.6,11.6,0,0,0-4.85,1.08,1.45,1.45,0,0,1-.35.07,4.09,4.09,0,0,1-.48-.13c0-.05-.15-.13-.24-.23a.52.52,0,0,1-.07-.11,1.92,1.92,0,0,1-.14-.33c-.78-4.45-5.27-9.45-10.45-9.45-4.58,0-9.28,3.28-10.49,7.3l-.14.25a.73.73,0,0,1-.09.13,3.47,3.47,0,0,1-.32.22,1.72,1.72,0,0,1-.38.07.93.93,0,0,1-.35-.08A10.08,10.08,0,0,0,18,26.93c-5.85,0-11.59,5.17-11.59,10.44v2.28c0,6.54,6.74,12.72,13.86,12.72h8.17V49.7h-2.1a1,1,0,0,1-.87-.61.93.93,0,0,1,.25-1l7.59-6.83a.93.93,0,0,1,1.25,0l7.59,6.83a.93.93,0,0,1,.25,1,1,1,0,0,1-.88.61H39.45ZM34,18.22A12.68,12.68,0,0,1,44,24l.37.57V1.88h-15l1,5.74a.94.94,0,0,1-.93,1.09h-.15l-5.74-1V23.37l.35-.41A13.67,13.67,0,0,1,34,18.22ZM24.53,6l3.73.63-.62-3.74Z" style="fill:#e4e4e4"/></g></g></svg>