<svg xmlns="http://www.w3.org/2000/svg" viewBox="0 0 18 15"><title>Asset 2</title><g id="Layer_2" data-name="Layer 2"><g id="Layer_1-2" data-name="Layer 1"><path d="M15.14,1A1.87,1.87,0,0,1,17,2.86v9.28A1.87,1.87,0,0,1,15.14,14H2.86A1.87,1.87,0,0,1,1,12.14V2.86A1.87,1.87,0,0,1,2.86,1H15.14m0-1H2.86A2.86,2.86,0,0,0,0,2.86v9.28A2.86,2.86,0,0,0,2.86,15H15.14A2.86,2.86,0,0,0,18,12.14V2.86A2.86,2.86,0,0,0,15.14,0Z" style="fill:#fff"/><path d="M.5,11l4-3.46a1.38,1.38,0,0,1,1.68-.17l5,3.08a1.4,1.4,0,0,0,1.71-.19L17.5,6" style="fill:none;stroke:#fff;stroke-miterlimit:10"/><circle cx="12" cy="5" r="1.5" style="fill:none;stroke:#fff;stroke-miterlimit:10"/></g></g></svg>