<svg xmlns="http://www.w3.org/2000/svg" viewBox="0 0 21.5 19.37"><title>Asset 2</title><g id="Layer_2" data-name="Layer 2"><g id="Layer_1-2" data-name="Layer 1"><rect x="0.75" y="0.75" width="20" height="14" rx="3.71" ry="3.71" style="fill:none;stroke:#fff;stroke-miterlimit:10;stroke-width:1.5px"/><path d="M8.06,16.22h5.38a.39.39,0,0,1,.37.31l.36,1.8h2.29a.21.21,0,0,1,.21.21v.62a.21.21,0,0,1-.21.21H5a.21.21,0,0,1-.21-.21v-.62A.21.21,0,0,1,5,18.33H7.33l.36-1.8a.39.39,0,0,1,.37-.31Z" style="fill:#fff;fill-rule:evenodd"/></g></g></svg>