<svg xmlns="http://www.w3.org/2000/svg" viewBox="0 0 19.2 19.85"><title>Asset 2</title><g id="Layer_2" data-name="Layer 2"><g id="Layer_1-2" data-name="Layer 1"><path d="M4.81,19.85a1.16,1.16,0,0,1-1.17-1.16V15.61H1.75A1.76,1.76,0,0,1,0,13.85V6.61A1.76,1.76,0,0,1,1.75,4.85H3.64V1.16A1.16,1.16,0,0,1,4.81,0H14.4a1.16,1.16,0,0,1,1.16,1.16V4.85h1.89A1.76,1.76,0,0,1,19.2,6.61v7.24a1.75,1.75,0,0,1-1.75,1.75H15.56v3.09a1.16,1.16,0,0,1-1.16,1.16Zm-.17-1.16a.17.17,0,0,0,.17.17H14.4a.18.18,0,0,0,.17-.14v-8H4.64Zm12.81-4.08a.76.76,0,0,0,.76-.76V6.61a.76.76,0,0,0-.76-.76H1.75A.76.76,0,0,0,1,6.61v7.24a.76.76,0,0,0,.76.76H3.64V10.23a.51.51,0,0,1,.5-.5H15.06a.51.51,0,0,1,.5.5v4.38ZM14.56,4.85V1.16A.17.17,0,0,0,14.4,1H4.81a.17.17,0,0,0-.17.17V4.85Z" style="fill:#fff"/></g></g></svg>