<svg xmlns="http://www.w3.org/2000/svg" viewBox="0 0 18.2 20.7"><title>Asset 1</title><g id="Layer_2" data-name="Layer 2"><g id="Layer_1-2" data-name="Layer 1"><path d="M9.1,20.7a2.57,2.57,0,0,1-2.77-2.26v-.11l1,0v.1c0,.7.81,1.28,1.77,1.28s1.75-.58,1.77-1.28v-.1l1,0v.11A2.57,2.57,0,0,1,9.1,20.7Z" style="fill:#fff"/><path d="M9.1,18A47.36,47.36,0,0,1,3,17.72C1,17.43.11,17,0,16.22c-.06-.51.29-1,1-1.4a2.08,2.08,0,0,0,1-1.34,14.91,14.91,0,0,0,.22-2.24c0-.34,0-.69,0-1.05a12,12,0,0,1,.83-3.95A6.28,6.28,0,0,1,6.26,3,6.07,6.07,0,0,1,7.5,2.6l.12,0,0-.12a1.71,1.71,0,0,1-.18-.77,1.68,1.68,0,0,1,3.36,0,1.71,1.71,0,0,1-.18.77l-.06.11.13,0A6.46,6.46,0,0,1,11.91,3,6.28,6.28,0,0,1,15,6.24a12,12,0,0,1,.83,3.95c0,.28,0,.56,0,.83v.15a13.73,13.73,0,0,0,.22,2.31,2.08,2.08,0,0,0,1,1.34c.74.42,1.09.88,1,1.39-.1.77-1,1.22-3,1.51A47.07,47.07,0,0,1,9.1,18ZM9.1,3.4a5.76,5.76,0,0,0-1.37.16,5.59,5.59,0,0,0-1,.36C4,5.19,3.5,7.84,3.33,10.25c0,.36,0,.7-.05,1A15.62,15.62,0,0,1,3,13.69a3.08,3.08,0,0,1-1.52,2,1.67,1.67,0,0,0-.46.33L1,16.1l.09.07c.27.2,1.65.86,8,.87,6.19,0,7.67-.62,8-.87l.09-.07L17.13,16a1.53,1.53,0,0,0-.45-.33,3,3,0,0,1-1.52-2,15.36,15.36,0,0,1-.24-2.4c0-.41,0-.72-.05-1-.17-2.41-.7-5.06-3.36-6.32a5.6,5.6,0,0,0-1-.37A5.76,5.76,0,0,0,9.1,3.4ZM9.1,1a.7.7,0,1,0,.69.69A.69.69,0,0,0,9.1,1Z" style="fill:#fff"/></g></g></svg>