<?xml version="1.0" encoding="utf-8"?>
<!-- Generator: Adobe Illustrator 22.1.0, SVG Export Plug-In . SVG Version: 6.00 Build 0)  -->
<svg version="1.1" id="Layer_1" xmlns="http://www.w3.org/2000/svg" xmlns:xlink="http://www.w3.org/1999/xlink" x="0px" y="0px"
	 viewBox="0 0 64 30" style="enable-background:new 0 0 64 30;" xml:space="preserve">
<g>
	<polygon style="fill:#FFFFFF;" points="27,0.2 14.5,14.7 9,7 6.1,7 12.9,16.6 1.7,29.6 4.2,29.6 13.9,17.9 15.5,16 20.3,10.3 
		16.5,17.4 15.2,19.8 10,29.6 12,29.6 16.2,21.3 22.2,29.6 25.1,29.6 17.5,18.9 	"/>
	<g>
		<path style="fill:#FFFFFF;" d="M30.6,16.5v13.1H29V16.5h-3.5V15h8.7v1.5H30.6z"/>
		<path style="fill:#FFFFFF;" d="M42.6,25.4h-6.2l-1.7,4.1h-1.8l6.7-15.2l6.5,15.2h-1.8L42.6,25.4z M42,24l-2.4-5.8L37.1,24H42z"/>
		<path style="fill:#FFFFFF;" d="M55.7,22.3h6.1v0.3c0,0.8-0.1,1.6-0.3,2.4c-0.2,0.8-0.6,1.5-1,2.2c-0.1,0.1-0.3,0.4-0.6,0.7
			c-0.3,0.3-0.6,0.6-1,0.9c-0.4,0.3-1,0.5-1.6,0.8c-0.6,0.2-1.4,0.3-2.2,0.3c-1.1,0-2.1-0.2-3-0.6c-0.9-0.4-1.7-0.9-2.4-1.6
			c-0.7-0.7-1.2-1.5-1.6-2.4c-0.4-0.9-0.6-1.9-0.6-3c0-1.1,0.2-2,0.6-3c0.4-0.9,0.9-1.7,1.6-2.4c0.7-0.7,1.5-1.2,2.4-1.6
			c0.9-0.4,1.9-0.6,3-0.6c0.7,0,1.4,0.1,2.2,0.3c0.8,0.2,1.5,0.6,2.2,1.1c0.3,0.2,0.6,0.5,0.9,0.8s0.5,0.6,0.7,0.9L59.9,19
			c-0.4-0.6-0.9-1.1-1.4-1.5c-0.4-0.3-0.8-0.6-1.4-0.8c-0.6-0.3-1.3-0.4-2.2-0.4c-0.9,0-1.7,0.2-2.4,0.5c-0.7,0.3-1.4,0.7-1.9,1.3
			c-0.5,0.5-0.9,1.2-1.2,1.9c-0.3,0.7-0.4,1.5-0.4,2.4c0,1,0.2,1.9,0.5,2.6c0.4,0.8,0.8,1.4,1.4,1.9c0.6,0.5,1.2,0.9,1.9,1.1
			c0.7,0.2,1.4,0.4,2.1,0.4c1,0,1.9-0.2,2.6-0.7c0.8-0.5,1.4-1.1,1.8-1.8c0.1-0.2,0.3-0.5,0.4-0.9c0.1-0.3,0.2-0.8,0.2-1.2h-4.3
			V22.3z"/>
	</g>
</g>
</svg>
