<svg xmlns="http://www.w3.org/2000/svg" viewBox="0 0 14.2 14.2"><title>Asset 1</title><g id="Layer_2" data-name="Layer 2"><g id="Layer_1-2" data-name="Layer 1"><g id="miu"><g id="Artboard-1"><g id="editor-copy-2-duplicate-outline-stroke"><path d="M11.79,11.25v-.93h1.34a.13.13,0,0,0,.13-.13V1.07a.13.13,0,0,0-.13-.13H4a.13.13,0,0,0-.13.13V2.41H3V1a1,1,0,0,1,1-1h9.32a1,1,0,0,1,1,1v9.32a1,1,0,0,1-1,1Z" style="fill:#fff"/></g></g></g><path d="M1,14.2a1,1,0,0,1-1-1V3.91A1,1,0,0,1,1,3h9.32a1,1,0,0,1,1,1v9.32a1,1,0,0,1-1,1Zm.1-10.32A.13.13,0,0,0,.94,4v9.12a.13.13,0,0,0,.13.13h9.12a.13.13,0,0,0,.13-.13V4a.13.13,0,0,0-.13-.13Z" style="fill:#fff"/><path d="M1,14.2a1,1,0,0,1-1-1V3.91A1,1,0,0,1,1,3h9.32a1,1,0,0,1,1,1v9.32a1,1,0,0,1-1,1Zm.1-10.32A.13.13,0,0,0,.94,4v9.12a.13.13,0,0,0,.13.13h9.12a.13.13,0,0,0,.13-.13V4a.13.13,0,0,0-.13-.13Z" style="fill:#fff"/></g></g></svg>