<svg xmlns="http://www.w3.org/2000/svg" viewBox="0 0 18.8 20.8"><title>Asset 7</title><g id="Layer_2" data-name="Layer 2"><g id="Layer_1-2" data-name="Layer 1"><path d="M1.34,20.8A1.34,1.34,0,0,1,0,19.46V1.34A1.34,1.34,0,0,1,1.34,0H17.46A1.34,1.34,0,0,1,18.8,1.34V19.46a1.34,1.34,0,0,1-1.34,1.34Zm16-1.47v-8.2H1.47v8.2Zm0-9.66V1.47H1.47v8.2Z" style="fill:#fff"/><path d="M7.57,6.8A1.57,1.57,0,0,1,6,5.23v-.5a.74.74,0,0,1,1.47,0v.5a.09.09,0,0,0,.1.1h3.66a.09.09,0,0,0,.1-.1v-.5a.74.74,0,0,1,1.47,0v.5A1.57,1.57,0,0,1,11.23,6.8Z" style="fill:#fff"/><path d="M7.57,16.47A1.57,1.57,0,0,1,6,14.9v-.5a.74.74,0,0,1,1.47,0v.5a.1.1,0,0,0,.1.1h3.66a.1.1,0,0,0,.1-.1v-.5a.74.74,0,0,1,1.47,0v.5a1.57,1.57,0,0,1-1.57,1.57Z" style="fill:#fff"/></g></g></svg>