<svg xmlns="http://www.w3.org/2000/svg" viewBox="0 0 29 29"><title>Asset 2</title><g id="Layer_2" data-name="Layer 2"><g id="Layer_1-2" data-name="Layer 1"><path d="M13.72,10.25l-1.11,5.17h3l-1.11-5.17ZM27.86,8.86a14.58,14.58,0,0,0-7.72-7.72,14.52,14.52,0,0,0-11.28,0A14.58,14.58,0,0,0,1.14,8.86,14.28,14.28,0,0,0,0,14.5,14.46,14.46,0,0,0,2.09,22L.3,28.7,7,26.91A14.46,14.46,0,0,0,14.5,29a14.28,14.28,0,0,0,5.64-1.14,14.58,14.58,0,0,0,7.72-7.72,14.52,14.52,0,0,0,0-11.28ZM16.44,19.31l-.44-2H12.2l-.44,2H9.56L12,8.43h4.2l2.44,10.88Z" style="fill:#cacaca"/></g></g></svg>