<svg xmlns="http://www.w3.org/2000/svg" viewBox="0 0 29 29"><title>Asset 2</title><g id="Layer_2" data-name="Layer 2"><g id="Layer_1-2" data-name="Layer 1"><path d="M27.86,8.86a14.58,14.58,0,0,0-7.72-7.72,14.52,14.52,0,0,0-11.28,0A14.58,14.58,0,0,0,1.14,8.86,14.28,14.28,0,0,0,0,14.5,14.46,14.46,0,0,0,2.09,22L.3,28.7,7,26.91A14.46,14.46,0,0,0,14.5,29a14.28,14.28,0,0,0,5.64-1.14,14.58,14.58,0,0,0,7.72-7.72,14.52,14.52,0,0,0,0-11.28Zm-14,14.72a1.91,1.91,0,0,1,0-3.81,1.91,1.91,0,0,1,0,3.81Zm3-9.27a3.23,3.23,0,0,0-1.45,3.18c0,.48-.26,1-1.51,1-1,0-1.39-.39-1.38-1.71A4.64,4.64,0,0,1,14.22,13c.84-.71,2.28-1.49,2.29-2.87,0-1.17-1-1.74-2.28-1.75-2.6,0-2.06,1.95-3.43,1.94A1.46,1.46,0,0,1,9.28,8.81c0-1.38,1.6-3.4,5-3.38,3.26,0,5.42,1.85,5.4,4.24S17.53,13.78,16.83,14.31Z" style="fill:#fff"/></g></g></svg>