<svg xmlns="http://www.w3.org/2000/svg" viewBox="0 0 18.01 15.61"><title>Asset 3</title><g id="Layer_2" data-name="Layer 2"><g id="Layer_1-2" data-name="Layer 1"><path d="M17.31,3.1a2.36,2.36,0,0,0-1.7-.7h-2.1L13,1.13a1.82,1.82,0,0,0-.65-.8,1.69,1.69,0,0,0-1-.33H6.6a1.69,1.69,0,0,0-1,.33,1.82,1.82,0,0,0-.65.8L4.5,2.4H2.4a2.36,2.36,0,0,0-1.7.7A2.32,2.32,0,0,0,0,4.8v8.41a2.32,2.32,0,0,0,.7,1.7,2.36,2.36,0,0,0,1.7.7H15.61a2.39,2.39,0,0,0,2.4-2.4V4.8a2.36,2.36,0,0,0-.7-1.7ZM12,12a4,4,0,0,1-3,1.24A4,4,0,0,1,6,12,4,4,0,0,1,4.8,9,4,4,0,0,1,6,6,4,4,0,0,1,9,4.8,4,4,0,0,1,12,6a4,4,0,0,1,1.24,3A4,4,0,0,1,12,12Z" style="fill:#f1f1f1"/><path d="M9,6.5A2.53,2.53,0,0,0,6.5,9,2.51,2.51,0,0,0,9,11.5,2.49,2.49,0,0,0,11.5,9,2.51,2.51,0,0,0,9,6.5Z" style="fill:#f1f1f1"/></g></g></svg>