<svg xmlns="http://www.w3.org/2000/svg" viewBox="0 0 17 17.71"><title>Asset 4</title><g id="Layer_2" data-name="Layer 2"><g id="Layer_1-2" data-name="Layer 1"><path d="M15.84,17.71H1.16A1.15,1.15,0,0,1,0,16.55V1.17A1.15,1.15,0,0,1,1.16,0H2.55v5.8c0,.42.19.58.52.58h8.19a.84.84,0,0,0,.79-.72V0h1.46L17,3.78V16.55a1.15,1.15,0,0,1-1.16,1.16Zm-1.1-9a.59.59,0,0,0-.57-.59h-11a.58.58,0,0,0-.57.59v6.67a.58.58,0,0,0,.57.59H14.17a.59.59,0,0,0,.57-.59V8.72ZM12.46,14.4H4.55a.55.55,0,1,1,0-1.09h7.91a.55.55,0,0,1,0,1.09Zm0-2.73H4.55a.55.55,0,1,1,0-1.09h7.91a.55.55,0,0,1,0,1.09ZM9.1,4.36H5.65c-.43,0-.77-.23-.77-.51V.52c0-.29.34-.52.77-.52H9.1c.44,0,.78.23.78.52V3.85c0,.28-.34.51-.78.51Z" style="fill:#fff;fill-rule:evenodd"/></g></g></svg>