<?xml version="1.0" encoding="utf-8"?>
<!-- Generator: Adobe Illustrator 22.1.0, SVG Export Plug-In . SVG Version: 6.00 Build 0)  -->
<svg version="1.1" id="Layer_1" xmlns="http://www.w3.org/2000/svg" xmlns:xlink="http://www.w3.org/1999/xlink" x="0px" y="0px"
	 viewBox="0 0 41 42" style="enable-background:new 0 0 41 42;" xml:space="preserve">
<g style="opacity:0.51;">
	
		<image style="overflow:visible;opacity:0.3;" width="83" height="83" xlink:href="E5DD13C7.png"  transform="matrix(1 0 0 1 -14 -12)">
	</image>
	<g>
		<path style="fill:#FFFFFF;" d="M21.4,38L21.4,38c-7.9,0-14.2-6.4-14.2-14.2v0c0-7.9,6.4-14.2,14.2-14.2h0
			c7.9,0,14.2,6.4,14.2,14.2v0C35.7,31.6,29.3,38,21.4,38z"/>
	</g>
</g>
<linearGradient id="SVGID_1_" gradientUnits="userSpaceOnUse" x1="20.5" y1="7.347990e-08" x2="20.5" y2="41.75">
	<stop  offset="0" style="stop-color:#65A7DD"/>
	<stop  offset="1" style="stop-color:#487EEA"/>
</linearGradient>
<path style="fill:url(#SVGID_1_);" d="M20.5,41.8L20.5,41.8c11.5,0,20.9-9.4,20.9-20.9v0C41.4,9.4,32,0,20.5,0h0
	C9,0-0.4,9.4-0.4,20.9v0C-0.4,32.4,9,41.8,20.5,41.8z"/>
<path style="fill-rule:evenodd;clip-rule:evenodd;fill:#FFFFFF;" d="M29.5,14.8c-0.4-0.7-8.3,2.8-11.9,8.7c-0.5-1-0.8-1.5-1.2-2.2
	c-0.7-1.1-3-0.5-3,1.2c2.7,7.3,5.3,8,6.2,5.1"/>
</svg>
