<?xml version="1.0" encoding="utf-8"?>
<!-- Generator: Adobe Illustrator 22.1.0, SVG Export Plug-In . SVG Version: 6.00 Build 0)  -->
<svg version="1.1" id="Layer_1" xmlns="http://www.w3.org/2000/svg" xmlns:xlink="http://www.w3.org/1999/xlink" x="0px" y="0px"
	 viewBox="0 0 64 53" style="enable-background:new 0 0 64 53;" xml:space="preserve">
<g>
	<g>
		<g>
			<g>
				<linearGradient id="SVGID_1_" gradientUnits="userSpaceOnUse" x1="32.9551" y1="-2.125" x2="32.9551" y2="52.7852">
					<stop  offset="0" style="stop-color:#65A7DD"/>
					<stop  offset="1" style="stop-color:#487EEA"/>
				</linearGradient>
				<path style="fill:url(#SVGID_1_);" d="M40.9,10.4c0-0.5,0-1,0.1-1.4c-4.3-3.7-10-6-16.1-6C11.2,3,0,14.2,0,27.9v0
					c0,13.7,11.2,24.9,24.9,24.9s24.9-11.2,24.9-24.9v0c0-2-0.2-3.9-0.7-5.8C44.3,20.3,40.9,15.7,40.9,10.4z"/>
			</g>
		</g>
		<g>
			<path style="fill:#FFFFFF;" d="M20.9,28.5h8.9c0.8,0,1.4-0.6,1.4-1.4v-5.9c0-0.8-0.6-1.4-1.4-1.4h-8.9c-0.8,0-1.4,0.6-1.4,1.4
				v5.9C19.5,27.8,20.1,28.5,20.9,28.5z M33.2,25.9h-0.6c0,0,0,0.1,0,0.1v2.4c0,0.9-0.7,1.5-1.5,1.5H19.6c-0.9,0-1.5-0.7-1.5-1.5V26
				c0,0,0-0.1,0-0.1h-0.6c-1.2,0-2.1,1-2.1,2.1v6.3c0,1.2,1,2.1,2.1,2.1h1.4V35c0-0.9,0.7-1.5,1.5-1.5h9.9c0.9,0,1.5,0.7,1.5,1.5
				v1.5h1.4c1.2,0,2.1-1,2.1-2.1v-6.3C35.3,26.9,34.4,25.9,33.2,25.9z M28.9,34.7h-7.2c-0.6,0-1.1,0.4-1.1,0.8v0.8H30v-0.8
				C30,35.1,29.5,34.7,28.9,34.7z"/>
		</g>
		<g>
			<g style="opacity:0.51;">
				
					<image style="overflow:visible;opacity:0.3;" width="68" height="69" xlink:href="3CC4496D.png"  transform="matrix(1 0 0 1 26 -17)">
				</image>
				<g>
					<path style="fill:#FFFFFF;" d="M53.9,18.6L53.9,18.6c-3.8,0-6.8-3.1-6.8-6.8v0c0-3.8,3.1-6.8,6.8-6.8h0c3.8,0,6.8,3.1,6.8,6.8
						v0C60.7,15.5,57.6,18.6,53.9,18.6z"/>
				</g>
			</g>
			<linearGradient id="SVGID_2_" gradientUnits="userSpaceOnUse" x1="53.4102" y1="0.375" x2="53.4102" y2="20.375">
				<stop  offset="0" style="stop-color:#65A7DD"/>
				<stop  offset="1" style="stop-color:#487EEA"/>
			</linearGradient>
			<path style="fill:url(#SVGID_2_);" d="M53.4,20.4L53.4,20.4c5.5,0,10-4.5,10-10v0c0-5.5-4.5-10-10-10h0c-5.5,0-10,4.5-10,10v0
				C43.4,15.9,47.9,20.4,53.4,20.4z"/>
			<g>
				<path style="fill-rule:evenodd;clip-rule:evenodd;fill:#FFFFFF;" d="M57.7,7.5c-0.2-0.3-4,1.4-5.7,4.2c-0.3-0.5-0.4-0.7-0.6-1.1
					C51.1,10,50,10.3,50,11.2c1.3,3.5,2.5,3.9,3,2.4C54.6,9.2,57.9,7.8,57.7,7.5z"/>
			</g>
		</g>
	</g>
</g>
</svg>
