<svg xmlns="http://www.w3.org/2000/svg" viewBox="0 0 15.3 22.15"><title>Asset 1</title><g id="Layer_2" data-name="Layer 2"><g id="Layer_1-2" data-name="Layer 1"><path d="M0,0H8a7.63,7.63,0,0,1,5,1.36,5.22,5.22,0,0,1,1.65,4.27,6.19,6.19,0,0,1-.72,3.25,4.9,4.9,0,0,1-2.13,1.84q3.53,1.21,3.52,5.22,0,3.33-1.76,4.77a7.87,7.87,0,0,1-5.09,1.44H0ZM7.94,2.18H2.46V9.83h5.7a4,4,0,0,0,3-1,4.08,4.08,0,0,0,.95-2.94,3.59,3.59,0,0,0-1-2.85A4.68,4.68,0,0,0,7.94,2.18ZM8.19,12H2.46v8H8.35a5.19,5.19,0,0,0,3.32-.91,4,4,0,0,0,1.13-3.22,4.17,4.17,0,0,0-.46-2.05,2.74,2.74,0,0,0-1.23-1.18A6.93,6.93,0,0,0,8.19,12Z" style="fill:#fff"/></g></g></svg>