<svg xmlns="http://www.w3.org/2000/svg" viewBox="0 0 26 26.6"><title>Asset 1</title><g id="Layer_2" data-name="Layer 2"><g id="Layer_1-2" data-name="Layer 1"><path d="M25.05,24.85h-.46c-.3,0-.56-.36-.65-.64L19.32,10.28a4.46,4.46,0,0,0-.91-8.57L7.47.08A2.24,2.24,0,0,0,5.71.57a2.2,2.2,0,0,0-.79,1.62V9.93a2.22,2.22,0,0,0,2.53,2.13l5.22-.77S13.88,15,13.87,15a1.81,1.81,0,0,1,0,1l-.24.73A1.09,1.09,0,0,0,14,17.93l.63.44a1.79,1.79,0,0,1,.72,1.72v0a.86.86,0,0,1-.06.23l-.27.89a1.09,1.09,0,0,0,.44,1.09l.63.44a1.57,1.57,0,0,1,.68.85.69.69,0,0,1-.64.91,1,1,0,0,0,0,2.08h8.91a.88.88,0,1,0,0-1.75Z" style="fill:#fff"/><path d="M3,10.11a.59.59,0,0,1-.59-.6V2.42a.59.59,0,0,1,1.18,0V9.51a.59.59,0,0,1-.59.6Z" style="fill:#fff"/><path d="M.59,11.83A.58.58,0,0,1,0,11.24V.59a.59.59,0,0,1,1.18,0V11.24a.58.58,0,0,1-.59.59Z" style="fill:#fff"/></g></g></svg>