<svg xmlns="http://www.w3.org/2000/svg" viewBox="0 0 22.07 23.44"><title>Asset 1</title><g id="Layer_2" data-name="Layer 2"><g id="Layer_1-2" data-name="Layer 1"><path d="M21.49,19.45a.58.58,0,1,1,0,1.16h-15A2,2,0,0,1,5.06,20L1.64,16.6a3.49,3.49,0,0,1,0-4.91L13,.34a1.16,1.16,0,0,1,1.64,0l7.1,7.1a1.16,1.16,0,0,1,0,1.64L11.35,19.45Zm-9.25-2.51,8.67-8.68-7.1-7.1L5.13,9.83ZM9.72,19.45l1.7-1.7-7.1-7.1L2.46,12.51a2.32,2.32,0,0,0,0,3.27L5.88,19.2a.86.86,0,0,0,.61.25Z" style="fill:#fff"/><polygon points="20.91 8.26 12.24 16.94 5.13 9.83 13.81 1.16 20.91 8.26" style="fill:#fff"/><path d="M4.54,21.4a.56.56,0,0,1,0,.81l-1,1.06a.58.58,0,0,1-.82,0,.57.57,0,0,1,0-.82L3.73,21.4A.56.56,0,0,1,4.54,21.4Z" style="fill:#fff"/><path d="M2.07,19.16a.58.58,0,0,1,0,1.16H.58a.58.58,0,0,1,0-1.16Z" style="fill:#fff"/></g></g></svg>