<svg xmlns="http://www.w3.org/2000/svg" viewBox="0 0 28 23.06"><title>Asset 1</title><g id="Layer_2" data-name="Layer 2"><g id="Layer_1-2" data-name="Layer 1"><g id="cloud-server"><path d="M28,11a6.58,6.58,0,0,0-6.57-6.57A5.25,5.25,0,0,0,20,4.78l-.27.09A7.1,7.1,0,0,0,13.24,0,7.25,7.25,0,0,0,6,6.57a3.39,3.39,0,0,0-.44,0,5.52,5.52,0,1,0-.11,11H7.12A2.8,2.8,0,0,1,6.26,16H5.58a3.88,3.88,0,0,1,0-7.76h0a2.92,2.92,0,0,1,.51,0l1.47.19.08-1.48a5.62,5.62,0,0,1,5.61-5.3c2.66,0,4.37,2.16,5,4l.42,1.19,1.22-.32c.19,0,.39-.12.6-.19a5,5,0,0,1,.92-.24,4.92,4.92,0,0,1,.37,9.83,2.78,2.78,0,0,1-.87,1.66h.5A6.57,6.57,0,0,0,28,11Z" style="fill:#fff"/><path d="M9,13.18H19a1.69,1.69,0,1,0,0-3.37H9a1.69,1.69,0,0,0,0,3.37Zm.22-2.27a.58.58,0,1,1-.58.58.58.58,0,0,1,.58-.58Z" style="fill:#de912f"/><path d="M19,14.75H9a1.69,1.69,0,0,0-1.69,1.68h0a1.67,1.67,0,0,0,0,.39A1.69,1.69,0,0,0,9,18.12H19a1.69,1.69,0,1,0,0-3.37ZM9.23,17a.59.59,0,0,1-.59-.58.59.59,0,0,1,1.17,0,.55.55,0,0,1-.16.4A.57.57,0,0,1,9.23,17Z" style="fill:#de912f"/><path d="M19,19.69H9a1.69,1.69,0,1,0,0,3.37H19a1.69,1.69,0,1,0,0-3.37ZM9.23,22a.58.58,0,0,1,0-1.15.58.58,0,1,1,0,1.15Z" style="fill:#de912f"/></g></g></g></svg>