<svg xmlns="http://www.w3.org/2000/svg" viewBox="0 0 21 19.47"><title>Asset 1</title><g id="Layer_2" data-name="Layer 2"><g id="Layer_1-2" data-name="Layer 1"><path d="M12.82,12.41c.41,0,.56-.19.56-.59V5.17a.74.74,0,0,0-1.48,0v5.77H7.28a.74.74,0,1,0,0,1.47Z" style="fill:#fff"/><path d="M20.05,13.92A9.74,9.74,0,0,0,8,.56,9.69,9.69,0,0,0,2.5,5.48l-1.07-3A.74.74,0,0,0,.49,2,.76.76,0,0,0,0,3L1.76,7.8a.74.74,0,0,0,.7.49.67.67,0,0,0,.24,0L7.82,6.44A.74.74,0,1,0,7.32,5L3.74,6.31a8.26,8.26,0,1,1,15,7A8.18,8.18,0,0,1,14,17.52a8.26,8.26,0,0,1-8.81-2.16.74.74,0,0,0-1.08,1,9.73,9.73,0,0,0,7.13,3.11,9.75,9.75,0,0,0,8.79-5.55Z" style="fill:#fff"/></g></g></svg>