<?xml version="1.0" encoding="utf-8"?>
<!-- Generator: Adobe Illustrator 22.1.0, SVG Export Plug-In . SVG Version: 6.00 Build 0)  -->
<svg version="1.1" id="Layer_1" xmlns="http://www.w3.org/2000/svg" xmlns:xlink="http://www.w3.org/1999/xlink" x="0px" y="0px"
	 viewBox="0 0 58 59" style="enable-background:new 0 0 58 59;" xml:space="preserve">
<g>
	<g style="opacity:0.41;">
		
			<image style="overflow:visible;opacity:0.3;" width="135" height="135" xlink:href="5115C7D7.png"  transform="matrix(1 0 0 1 -27 -24)">
		</image>
		<g>
			<path style="fill:#FFFFFF;" d="M31.5,56.5L31.5,56.5c-12.2,0-22-9.8-22-22v0c0-12.2,9.8-22,22-22h0c12.2,0,22,9.8,22,22v0
				C53.5,46.7,43.7,56.5,31.5,56.5z"/>
		</g>
	</g>
	<circle style="fill:#5B9BEB;" cx="29" cy="29.5" r="28.5"/>
	<polygon style="fill:#FFFFFF;" points="40.1,14.9 29.1,27.8 24.3,21 21.7,21 27.7,29.4 17.9,40.9 20,40.9 28.6,30.7 30,29 
		34.2,23.9 30.9,30.2 29.7,32.3 25.1,40.9 26.9,40.9 30.7,33.6 35.9,40.9 38.5,40.9 31.8,31.5 	"/>
</g>
</svg>
