<svg xmlns="http://www.w3.org/2000/svg" viewBox="0 0 26.6 26.56"><title>Asset 2</title><g id="Layer_2" data-name="Layer 2"><g id="Layer_1-2" data-name="Layer 1"><path d="M.84,10A.85.85,0,0,1,0,9.13V.84A.85.85,0,0,1,.84,0H9.15A.84.84,0,0,1,10,.84V9.13a.84.84,0,0,1-.83.84ZM1.68,8.3H8.31V1.67H1.68Z" style="fill:#fff"/><path d="M17.45,10a.84.84,0,0,1-.83-.84V.84A.84.84,0,0,1,17.45,0h8.31a.85.85,0,0,1,.84.84V9.13a.85.85,0,0,1-.84.84Zm.84-1.67h6.63V1.67H18.29Z" style="fill:#fff"/><path d="M.84,26.56A.85.85,0,0,1,0,25.72V17.43a.85.85,0,0,1,.84-.84H9.15a.84.84,0,0,1,.83.84v8.29a.84.84,0,0,1-.83.84Zm.84-1.67H8.31V18.26H1.68Z" style="fill:#fff"/><path d="M13.3,10a.85.85,0,0,1-.84-.84V.84a.84.84,0,0,1,1.68,0V9.13A.85.85,0,0,1,13.3,10Z" style="fill:#fff"/><path d="M13.3,18.26a.84.84,0,0,1-.84-.83V14.12H.84a.84.84,0,0,1,0-1.68H13.3a.85.85,0,0,1,.84.84v4.15A.84.84,0,0,1,13.3,18.26Z" style="fill:#fff"/><path d="M13.3,26.56a.85.85,0,0,1-.84-.84V21.58a.84.84,0,1,1,1.68,0v3.31h2.48V17.43a.84.84,0,1,1,1.67,0v8.29a.84.84,0,0,1-.84.84Z" style="fill:#fff"/><path d="M21.61,18.26a.84.84,0,0,1-.84-.83V14.12H17.45a.84.84,0,0,1,0-1.68h4.16a.85.85,0,0,1,.84.84v4.15A.84.84,0,0,1,21.61,18.26Z" style="fill:#fff"/><path d="M25.76,22.41a.84.84,0,0,1-.84-.83v-8.3a.84.84,0,1,1,1.68,0v8.3A.84.84,0,0,1,25.76,22.41Z" style="fill:#fff"/><path d="M21.61,26.56a.85.85,0,0,1-.84-.84V21.58a.84.84,0,0,1,1.68,0v3.31h3.31a.84.84,0,0,1,.84.83.85.85,0,0,1-.84.84Z" style="fill:#fff"/></g></g></svg>