<svg xmlns="http://www.w3.org/2000/svg" viewBox="0 0 21.91 26.21"><title>Asset 1</title><g id="Layer_2" data-name="Layer 2"><g id="Layer_1-2" data-name="Layer 1"><path d="M11,0h0a1,1,0,0,0-1,1V4.3h2V1A1,1,0,0,0,11,0Z" style="fill:#fff"/><path d="M17.27,4.3H12v8l2.69-2.7L16.05,11,10.94,16.1,5.66,10.82,7.07,9.41,10,12.29v-8H4.64A4.64,4.64,0,0,0,0,8.94V21.57a4.64,4.64,0,0,0,4.64,4.64H17.27a4.64,4.64,0,0,0,4.64-4.64V8.94A4.64,4.64,0,0,0,17.27,4.3Z" style="fill:#fff"/><rect x="4.78" y="18.35" width="12.35" height="2" rx="1" ry="1" style="fill:#447ced"/></g></g></svg>