<svg xmlns="http://www.w3.org/2000/svg" xmlns:xlink="http://www.w3.org/1999/xlink" viewBox="0 0 294.66 238.57"><defs><linearGradient id="linear-gradient" x1="191.16" y1="29.9" x2="209.04" y2="29.9" gradientUnits="userSpaceOnUse"><stop offset="0" stop-color="#ff503e"/><stop offset="1" stop-color="#ff1a1a"/></linearGradient><linearGradient id="linear-gradient-2" x1="33.56" y1="114.33" x2="233.98" y2="114.33" xlink:href="#linear-gradient"/><linearGradient id="linear-gradient-3" x1="35.55" y1="235.82" x2="41.04" y2="235.82" xlink:href="#linear-gradient"/><linearGradient id="linear-gradient-4" x1="46.75" y1="224.62" x2="52.24" y2="224.62" xlink:href="#linear-gradient"/><linearGradient id="linear-gradient-5" x1="46.75" y1="235.82" x2="52.24" y2="235.82" xlink:href="#linear-gradient"/><linearGradient id="linear-gradient-6" x1="35.55" y1="224.62" x2="41.04" y2="224.62" xlink:href="#linear-gradient"/></defs><title>Asset 1</title><g id="Layer_2" data-name="Layer 2"><g id="Layer_1-2" data-name="Layer 1"><path d="M294.66,157.88H282.75" style="fill:#fff"/><path d="M206.05,32.88H194.14a3,3,0,1,1,0-6h11.91a3,3,0,1,1,0,6" style="fill:url(#linear-gradient)"/><path d="M42.36,79.88H3a3,3,0,1,1,0-6H42.36a3,3,0,1,1,0,6" style="fill:#fff"/><path d="M230.64,167.47,186.43,90.9,175.74,72.38l-20.67-35.8A24.35,24.35,0,0,0,135,24.31q-.62,0-1.23,0a25.15,25.15,0,0,0-6,.72,24.29,24.29,0,0,0-15.33,11.58L76.85,98.26,66.16,116.78,36.89,167.47a24.57,24.57,0,0,0,21.31,36.9H209.34a24.33,24.33,0,0,0,20.8-11.47,25.34,25.34,0,0,0,2.58-5.44A24.27,24.27,0,0,0,230.64,167.47Z" style="fill:url(#linear-gradient-2)"/><path d="M101.83,214.89l-2.81.36a2.46,2.46,0,0,0-.47.1,2.62,2.62,0,0,0,1.13,5.09l2.81-.36a2.62,2.62,0,1,0-.66-5.19Z" style="fill:#fff"/><path d="M113.47,213.39l-2.81.36a2.47,2.47,0,0,0-.47.11,2.62,2.62,0,0,0,1.14,5.09l2.81-.36a2.62,2.62,0,0,0-.67-5.2Z" style="fill:#fff"/><path d="M125.12,211.9l-2.81.36a2.47,2.47,0,0,0-.47.11,2.62,2.62,0,0,0,1.13,5.09l2.81-.36a2.62,2.62,0,1,0-.66-5.2Z" style="fill:#fff"/><path d="M67.48,219.1l-2.81.36a2.46,2.46,0,0,0-.47.1,2.62,2.62,0,0,0,1.14,5.1l2.8-.36a2.62,2.62,0,1,0-.66-5.2Z" style="fill:#fff"/><path d="M79.12,217.61l-2.8.36a2.56,2.56,0,0,0-.48.1A2.62,2.62,0,0,0,77,223.16l2.81-.35a2.62,2.62,0,1,0-.67-5.2Z" style="fill:#fff"/><path d="M90.77,216.12l-2.81.35a3.57,3.57,0,0,0-.47.11,2.62,2.62,0,0,0,1.14,5.09l2.8-.36a2.62,2.62,0,1,0-.66-5.19Z" style="fill:#fff"/><path d="M209.29,93.52,213,89.78a2,2,0,1,0-2.86-2.85l-3.73,3.74a2,2,0,0,0,2.85,2.85Z" style="fill:#fff"/><path d="M225.14,77.67l3.74-3.74A2,2,0,0,0,226,71.08l-3.74,3.74a2,2,0,1,0,2.85,2.85Z" style="fill:#fff"/><path d="M226,93.52a2,2,0,0,0,2.85-2.85l-3.74-3.74a2,2,0,1,0-2.85,2.85Z" style="fill:#fff"/><path d="M210.17,77.67A2,2,0,1,0,213,74.82l-3.74-3.74a2,2,0,0,0-2.85,2.85Z" style="fill:#fff"/><path d="M249.15,197.33,246.51,200a1.42,1.42,0,1,0,2,2l2.64-2.64a1.42,1.42,0,0,0-2-2Z" style="fill:#fff"/><path d="M259.72,190.79l2.64-2.64a1.42,1.42,0,1,0-2-2l-2.64,2.65a1.42,1.42,0,0,0,2,2Z" style="fill:#fff"/><path d="M259.72,197.33a1.42,1.42,0,0,0-2,2l2.64,2.64a1.42,1.42,0,1,0,2-2Z" style="fill:#fff"/><path d="M248.52,186.13a1.42,1.42,0,1,0-2,2l2.64,2.64a1.42,1.42,0,0,0,2-2Z" style="fill:#fff"/><path d="M26,132.28l-2.64,2.64a1.42,1.42,0,1,0,2,2l2.65-2.64a1.43,1.43,0,0,0-2-2Z" style="fill:#fff"/><path d="M36.61,125.74l2.65-2.64a1.43,1.43,0,0,0-2-2l-2.64,2.64a1.42,1.42,0,0,0,2,2Z" style="fill:#fff"/><path d="M37.24,136.94a1.42,1.42,0,0,0,2,0,1.44,1.44,0,0,0,0-2l-2.65-2.64a1.42,1.42,0,0,0-2,2Z" style="fill:#fff"/><path d="M25.41,121.08a1.42,1.42,0,0,0-2,2L26,125.74a1.42,1.42,0,0,0,2,0,1.44,1.44,0,0,0,0-2Z" style="fill:#fff"/><path d="M79.76,16.27l2.64-2.64a1.42,1.42,0,1,0-2-2l-2.65,2.64a1.42,1.42,0,1,0,2,2Z" style="fill:#fff"/><path d="M91,5.07,93.6,2.43a1.42,1.42,0,0,0-2-2L88.94,3.06a1.42,1.42,0,1,0,2,2Z" style="fill:#fff"/><path d="M91.59,16.27a1.42,1.42,0,1,0,2-2L91,11.62a1.42,1.42,0,1,0-2,2Z" style="fill:#fff"/><path d="M80.39,5.07a1.42,1.42,0,1,0,2-2L79.76.42a1.42,1.42,0,0,0-2,2Z" style="fill:#fff"/><path d="M38.61,233.49,36,236.14a1.42,1.42,0,0,0,2,2l2.64-2.64a1.42,1.42,0,0,0-2-2Z" style="fill:url(#linear-gradient-3)"/><path d="M49.81,222.29l-2.64,2.65a1.42,1.42,0,1,0,2,2l2.64-2.64a1.42,1.42,0,0,0-2-2Z" style="fill:url(#linear-gradient-4)"/><path d="M49.18,233.49a1.42,1.42,0,1,0-2,2l2.64,2.64a1.42,1.42,0,0,0,2-2Z" style="fill:url(#linear-gradient-5)"/><path d="M38,222.29a1.42,1.42,0,0,0-2,2L38.61,227a1.42,1.42,0,0,0,2-2Z" style="fill:url(#linear-gradient-6)"/><path d="M169.23,8.92a17.82,17.82,0,0,0-26.8,13.92L137,90.56l-2.5,30.85a7.57,7.57,0,0,0,6.18,8.05,7.44,7.44,0,0,0,2.66,0,7.56,7.56,0,0,0,6-5.32l9.08-30.74,10.54-35.71,8.39-28.39A17.83,17.83,0,0,0,169.23,8.92Z" style="fill:#fff"/><path d="M141.7,141.55a15.9,15.9,0,0,0-2.86-.8,16.33,16.33,0,0,0-19,13.12l0,.13a16.34,16.34,0,0,0,32.14,5.89l0-.13A16.32,16.32,0,0,0,141.7,141.55Z" style="fill:#fff"/></g></g></svg>