<svg xmlns="http://www.w3.org/2000/svg" xmlns:xlink="http://www.w3.org/1999/xlink" viewBox="0 0 1895.55 275.31"><defs><clipPath id="clip-path" transform="translate(0 -289.69)"><rect x="100.02" width="1695" height="516.57" style="fill:none"/></clipPath></defs><title>Asset 1</title><g style="isolation:isolate"><g id="Layer_2" data-name="Layer 2"><g id="Layer_1-2" data-name="Layer 1"><g style="opacity:0.45"><g style="clip-path:url(#clip-path)"><g style="mix-blend-mode:overlay"><polygon points="1441.79 112.93 1510.92 112.93 1470.17 95.57 1406.04 95.57 1441.79 112.93" style="fill:none"/><polygon points="1598.15 188.88 1689.17 188.88 1620.13 159.46 1537.59 159.46 1598.15 188.88" style="fill:none"/><polygon points="1484.82 133.83 1559.98 133.83 1512.13 113.44 1442.85 113.44 1484.82 133.83" style="fill:none"/><polygon points="1672.89 226.14 1598.22 189.77 1506.95 189.77 1571.14 226.14 1672.89 226.14" style="fill:none"/><polygon points="1536.07 158.72 1618.4 158.72 1561.42 134.44 1486.09 134.44 1536.07 158.72" style="fill:none"/><polygon points="1361.7 226.14 1319.08 189.77 1227.81 189.77 1259.95 226.14 1361.7 226.14" style="fill:none"/><polygon points="1248.79 19.18 1290.91 19.18 1275.35 12.55 1235.14 12.55 1248.79 19.18" style="fill:none"/><polygon points="1065.66 6.33 1071 12.38 1111.16 12.38 1104.08 6.33 1065.66 6.33" style="fill:none"/><polygon points="1264.25 26.69 1308.53 26.69 1291.37 19.38 1249.19 19.38 1264.25 26.69" style="fill:none"/><polygon points="1405.13 95.12 1469.13 95.12 1434.02 80.16 1374.33 80.16 1405.13 95.12" style="fill:none"/><polygon points="1300.46 44.28 1349.81 44.28 1328.61 35.25 1281.86 35.25 1300.46 44.28" style="fill:none"/><polygon points="1257.97 226.14 1226.03 189.77 1134.76 189.77 1156.23 226.14 1257.97 226.14" style="fill:none"/><polygon points="1281.37 35.01 1328.06 35.01 1309.03 26.9 1264.68 26.9 1281.37 35.01" style="fill:none"/><polygon points="1373.54 79.78 1433.12 79.78 1402.56 66.75 1346.73 66.75 1373.54 79.78" style="fill:none"/><polygon points="1321.87 54.68 1374.22 54.68 1350.43 44.55 1301 44.55 1321.87 54.68" style="fill:none"/><polygon points="1346.03 66.42 1401.77 66.42 1374.91 54.97 1322.47 54.97 1346.03 66.42" style="fill:none"/><polygon points="1569.16 226.14 1505.18 189.77 1413.91 189.77 1467.41 226.14 1569.16 226.14" style="fill:none"/><polygon points="1042.51 35.01 1037.77 26.9 993.41 26.9 995.82 35.01 1042.51 35.01" style="fill:none"/><polygon points="1037.64 26.69 1033.37 19.38 991.18 19.38 993.35 26.69 1037.64 26.69" style="fill:none"/><polygon points="1047.93 44.28 1042.65 35.25 995.89 35.25 998.57 44.28 1047.93 44.28" style="fill:none"/><polygon points="1033.26 19.18 1029.38 12.55 989.16 12.55 991.12 19.18 1033.26 19.18" style="fill:none"/><polygon points="1026.49 6.33 1030.06 12.38 1070.22 12.38 1064.91 6.33 1026.49 6.33" style="fill:none"/><polygon points="1054.01 54.68 1048.08 44.55 998.64 44.55 1001.65 54.68 1054.01 54.68" style="fill:none"/><polygon points="987.31 6.33 989.11 12.38 1029.28 12.38 1025.74 6.33 987.31 6.33" style="fill:none"/><polygon points="1154.25 226.14 1132.99 189.77 1041.7 189.77 1052.48 226.14 1154.25 226.14" style="fill:none"/><polygon points="1114.84 158.72 1100.64 134.44 1025.3 134.44 1032.5 158.72 1114.84 158.72" style="fill:none"/><polygon points="1060.87 66.42 1054.18 54.97 1001.74 54.97 1005.13 66.42 1060.87 66.42" style="fill:none"/><polygon points="1132.47 188.88 1115.27 159.46 1032.71 159.46 1041.44 188.88 1132.47 188.88" style="fill:none"/><polygon points="1100.28 133.83 1088.36 113.44 1019.07 113.44 1025.12 133.83 1100.28 133.83" style="fill:none"/><polygon points="1088.06 112.93 1077.91 95.57 1013.77 95.57 1018.92 112.93 1088.06 112.93" style="fill:none"/><polygon points="1068.68 79.78 1061.07 66.75 1005.23 66.75 1009.09 79.78 1068.68 79.78" style="fill:none"/><polygon points="1077.65 95.12 1068.9 80.16 1009.2 80.16 1013.64 95.12 1077.65 95.12" style="fill:none"/><polygon points="1465.44 226.14 1412.14 189.77 1320.85 189.77 1363.67 226.14 1465.44 226.14" style="fill:none"/><polygon points="751.01 95.57 686.88 95.57 666.54 112.93 735.67 112.93 751.01 95.57" style="fill:none"/><polygon points="776.48 66.75 720.65 66.75 705.39 79.78 764.97 79.78 776.48 66.75" style="fill:none"/><polygon points="764.63 80.16 704.94 80.16 687.41 95.12 751.41 95.12 764.63 80.16" style="fill:none"/><polygon points="735.21 113.44 665.93 113.44 642.04 133.83 717.19 133.83 735.21 113.44" style="fill:none"/><polygon points="565.42 133.83 640.58 133.83 664.59 113.44 595.31 113.44 565.42 133.83" style="fill:none"/><polygon points="528.93 158.72 611.26 158.72 639.85 134.44 564.52 134.44 528.93 158.72" style="fill:none"/><polygon points="716.65 134.44 641.32 134.44 612.86 158.72 695.19 158.72 716.65 134.44" style="fill:none"/><polygon points="796.11 44.55 746.68 44.55 734.81 54.68 787.16 54.68 796.11 44.55" style="fill:none"/><polygon points="818.36 19.38 776.18 19.38 767.61 26.69 811.89 26.69 818.36 19.38" style="fill:none"/><polygon points="824.39 12.55 784.18 12.55 776.41 19.18 818.53 19.18 824.39 12.55" style="fill:none"/><polygon points="733.47 19.18 775.59 19.18 783.4 12.55 743.18 12.55 733.47 19.18" style="fill:none"/><polygon points="804.33 35.25 757.58 35.25 746.99 44.28 796.35 44.28 804.33 35.25" style="fill:none"/><polygon points="811.71 26.9 767.36 26.9 757.86 35.01 804.54 35.01 811.71 26.9" style="fill:none"/><polygon points="690.52 19.18 732.65 19.18 742.4 12.55 702.18 12.55 690.52 19.18" style="fill:none"/><polygon points="786.89 54.97 734.46 54.97 721.05 66.42 776.78 66.42 786.89 54.97" style="fill:none"/><polygon points="1260.38 6.17 1247.41 0.65 1210.63 0.65 1222.01 6.17 1260.38 6.17" style="fill:none"/><polygon points="1025.65 6.17 1022.42 0.65 985.63 0.65 987.27 6.17 1025.65 6.17" style="fill:none"/><polygon points="1103.89 6.17 1097.41 0.65 1060.63 0.65 1065.52 6.17 1103.89 6.17" style="fill:none"/><polygon points="1064.77 6.17 1059.92 0.65 1023.13 0.65 1026.39 6.17 1064.77 6.17" style="fill:none"/><polygon points="1143.02 6.17 1134.92 0.65 1098.13 0.65 1104.64 6.17 1143.02 6.17" style="fill:none"/><polygon points="1234.78 12.38 1274.94 12.38 1260.76 6.33 1222.34 6.33 1234.78 12.38" style="fill:none"/><polygon points="1221.26 6.17 1209.91 0.65 1173.13 0.65 1182.89 6.17 1221.26 6.17" style="fill:none"/><polygon points="1182.14 6.17 1172.42 0.65 1135.63 0.65 1143.77 6.17 1182.14 6.17" style="fill:none"/><polygon points="664.23 66.42 719.97 66.42 733.44 54.97 681.01 54.97 664.23 66.42" style="fill:none"/><polygon points="908.28 6.17 909.92 0.65 873.13 0.65 869.9 6.17 908.28 6.17" style="fill:none"/><polygon points="681.44 54.68 733.79 54.68 745.72 44.55 696.29 44.55 681.44 54.68" style="fill:none"/><polygon points="644.65 79.78 704.23 79.78 719.57 66.75 663.74 66.75 644.65 79.78" style="fill:none"/><polygon points="622.16 95.12 686.16 95.12 703.78 80.16 644.09 80.16 622.16 95.12" style="fill:none"/><polygon points="710.27 35.01 756.95 35.01 766.5 26.9 722.15 26.9 710.27 35.01" style="fill:none"/><polygon points="775.36 19.38 733.18 19.38 722.46 26.69 766.75 26.69 775.36 19.38" style="fill:none"/><polygon points="696.68 44.28 746.03 44.28 756.67 35.25 709.92 35.25 696.68 44.28" style="fill:none"/><polygon points="596.06 112.93 665.2 112.93 685.64 95.57 621.51 95.57 596.06 112.93" style="fill:none"/><polygon points="1253.51 133.83 1229.61 113.44 1160.33 113.44 1178.36 133.83 1253.51 133.83" style="fill:none"/><polygon points="1366.63 158.72 1331.04 134.44 1255.69 134.44 1284.29 158.72 1366.63 158.72" style="fill:none"/><polygon points="1282.69 158.72 1254.23 134.44 1178.9 134.44 1200.36 158.72 1282.69 158.72" style="fill:none"/><polygon points="1450.55 158.72 1407.83 134.44 1332.5 134.44 1368.22 158.72 1450.55 158.72" style="fill:none"/><polygon points="1190.16 79.78 1174.89 66.75 1119.07 66.75 1130.58 79.78 1190.16 79.78" style="fill:none"/><polygon points="1229.01 112.93 1208.66 95.57 1144.53 95.57 1159.88 112.93 1229.01 112.93" style="fill:none"/><polygon points="1174.5 66.42 1161.09 54.97 1108.65 54.97 1118.77 66.42 1174.5 66.42" style="fill:none"/><polygon points="1208.14 95.12 1190.61 80.16 1130.91 80.16 1144.14 95.12 1208.14 95.12" style="fill:none"/><polygon points="1153.15 12.55 1162.91 19.18 1205.03 19.18 1193.36 12.55 1153.15 12.55" style="fill:none"/><polygon points="1186.54 35.25 1199.83 44.28 1249.19 44.28 1233.29 35.25 1186.54 35.25" style="fill:none"/><polygon points="1174.26 26.9 1186.19 35.01 1232.88 35.01 1218.61 26.9 1174.26 26.9" style="fill:none"/><polygon points="1163.19 19.38 1173.95 26.69 1218.24 26.69 1205.37 19.38 1163.19 19.38" style="fill:none"/><polygon points="1200.22 44.55 1215.13 54.68 1267.48 54.68 1249.65 44.55 1200.22 44.55" style="fill:none"/><polygon points="1232.9 66.75 1252.06 79.78 1311.64 79.78 1288.73 66.75 1232.9 66.75" style="fill:none"/><polygon points="1252.63 80.16 1274.64 95.12 1338.64 95.12 1312.32 80.16 1252.63 80.16" style="fill:none"/><polygon points="1215.57 54.97 1232.4 66.42 1288.14 66.42 1268 54.97 1215.57 54.97" style="fill:none"/><polygon points="1275.29 95.57 1300.84 112.93 1369.97 112.93 1339.42 95.57 1275.29 95.57" style="fill:none"/><polygon points="1160.74 54.68 1148.86 44.55 1099.43 44.55 1108.39 54.68 1160.74 54.68" style="fill:none"/><polygon points="1330.14 133.83 1300.25 113.44 1230.96 113.44 1254.97 133.83 1330.14 133.83" style="fill:none"/><polygon points="1162.1 54.97 1175.58 66.42 1231.32 66.42 1214.55 54.97 1162.1 54.97" style="fill:none"/><polygon points="1175.98 66.75 1191.31 79.78 1250.91 79.78 1231.82 66.75 1175.98 66.75" style="fill:none"/><polygon points="1209.91 95.57 1230.35 112.93 1299.5 112.93 1274.05 95.57 1209.91 95.57" style="fill:none"/><polygon points="1674.86 226.14 1776.61 226.14 1691.27 189.77 1599.99 189.77 1674.86 226.14" style="fill:none"/><polygon points="1191.77 80.16 1209.38 95.12 1273.39 95.12 1251.47 80.16 1191.77 80.16" style="fill:none"/><polygon points="1077.18 19.38 1083.65 26.69 1127.94 26.69 1119.37 19.38 1077.18 19.38" style="fill:none"/><polygon points="1137.69 35.01 1128.19 26.9 1083.84 26.9 1091 35.01 1137.69 35.01" style="fill:none"/><polygon points="1148.55 44.28 1137.97 35.25 1091.21 35.25 1099.2 44.28 1148.55 44.28" style="fill:none"/><polygon points="1120.18 19.38 1128.8 26.69 1173.09 26.69 1162.37 19.38 1120.18 19.38" style="fill:none"/><polygon points="1149.82 44.55 1161.76 54.68 1214.12 54.68 1199.26 44.55 1149.82 44.55" style="fill:none"/><polygon points="1138.87 35.25 1149.51 44.28 1198.88 44.28 1185.63 35.25 1138.87 35.25" style="fill:none"/><polygon points="1129.05 26.9 1138.59 35.01 1185.29 35.01 1173.4 26.9 1129.05 26.9" style="fill:none"/><polygon points="1313.48 80.16 1339.88 95.12 1403.88 95.12 1373.17 80.16 1313.48 80.16" style="fill:none"/><polygon points="1269.02 54.97 1289.22 66.42 1344.95 66.42 1321.46 54.97 1269.02 54.97" style="fill:none"/><polygon points="1104.82 6.33 1111.94 12.38 1152.11 12.38 1143.25 6.33 1104.82 6.33" style="fill:none"/><polygon points="1289.82 66.75 1312.8 79.78 1372.38 79.78 1345.64 66.75 1289.82 66.75" style="fill:none"/><polygon points="1340.67 95.57 1371.31 112.93 1440.44 112.93 1404.8 95.57 1340.67 95.57" style="fill:none"/><polygon points="1372.22 113.44 1408.21 133.83 1483.36 133.83 1441.5 113.44 1372.22 113.44" style="fill:none"/><polygon points="1596.39 188.88 1535.99 159.46 1453.45 159.46 1505.37 188.88 1596.39 188.88" style="fill:none"/><polygon points="1409.29 134.44 1452.15 158.72 1534.47 158.72 1484.63 134.44 1409.29 134.44" style="fill:none"/><polygon points="1234.2 35.25 1250.14 44.28 1299.5 44.28 1280.95 35.25 1234.2 35.25" style="fill:none"/><polygon points="1183.17 6.33 1193.83 12.38 1234 12.38 1221.59 6.33 1183.17 6.33" style="fill:none"/><polygon points="1144 6.33 1152.89 12.38 1193.05 12.38 1182.42 6.33 1144 6.33" style="fill:none"/><polygon points="1194.14 12.55 1205.85 19.18 1247.97 19.18 1234.36 12.55 1194.14 12.55" style="fill:none"/><polygon points="1250.61 44.55 1268.5 54.68 1320.85 54.68 1300.04 44.55 1250.61 44.55" style="fill:none"/><polygon points="1206.19 19.38 1219.1 26.69 1263.39 26.69 1248.37 19.38 1206.19 19.38" style="fill:none"/><polygon points="1503.61 188.88 1451.85 159.46 1369.31 159.46 1412.59 188.88 1503.61 188.88" style="fill:none"/><polygon points="1219.47 26.9 1233.78 35.01 1280.47 35.01 1263.82 26.9 1219.47 26.9" style="fill:none"/><polygon points="1176.9 133.83 1158.99 113.44 1089.71 113.44 1101.74 133.83 1176.9 133.83" style="fill:none"/><polygon points="1098.24 44.28 1090.31 35.25 1043.55 35.25 1048.89 44.28 1098.24 44.28" style="fill:none"/><polygon points="1090.1 35.01 1082.98 26.9 1038.63 26.9 1043.41 35.01 1090.1 35.01" style="fill:none"/><polygon points="1107.37 54.68 1098.47 44.55 1049.04 44.55 1055.02 54.68 1107.37 54.68" style="fill:none"/><polygon points="1082.79 26.69 1076.37 19.38 1034.19 19.38 1038.5 26.69 1082.79 26.69" style="fill:none"/><polygon points="1117.68 66.42 1107.63 54.97 1055.2 54.97 1061.95 66.42 1117.68 66.42" style="fill:none"/><polygon points="1071.15 12.55 1077.02 19.18 1119.14 19.18 1111.37 12.55 1071.15 12.55" style="fill:none"/><polygon points="1030.16 12.55 1034.07 19.18 1076.2 19.18 1070.37 12.55 1030.16 12.55" style="fill:none"/><polygon points="1158.54 112.93 1143.29 95.57 1079.16 95.57 1089.4 112.93 1158.54 112.93" style="fill:none"/><polygon points="1225.25 188.88 1199.41 159.46 1116.87 159.46 1134.23 188.88 1225.25 188.88" style="fill:none"/><polygon points="1318.03 188.88 1283.55 159.46 1201.01 159.46 1227.02 188.88 1318.03 188.88" style="fill:none"/><polygon points="1198.76 158.72 1177.44 134.44 1102.11 134.44 1116.43 158.72 1198.76 158.72" style="fill:none"/><polygon points="1410.83 188.88 1367.71 159.46 1285.15 159.46 1319.8 188.88 1410.83 188.88" style="fill:none"/><polygon points="1142.9 95.12 1129.76 80.16 1070.06 80.16 1078.89 95.12 1142.9 95.12" style="fill:none"/><polygon points="1129.42 79.78 1117.98 66.75 1062.15 66.75 1069.84 79.78 1129.42 79.78" style="fill:none"/><polygon points="1112.15 12.55 1119.96 19.18 1162.09 19.18 1152.37 12.55 1112.15 12.55" style="fill:none"/><polygon points="1301.6 113.44 1331.6 133.83 1406.75 133.83 1370.88 113.44 1301.6 113.44" style="fill:none"/><polygon points="831.3 273.36 946.65 273.36 946.78 227.27 844.71 227.27 831.3 273.36" style="fill:none"/><polygon points="636.58 227.27 596.09 273.36 711.47 273.36 738.67 227.27 636.58 227.27" style="fill:none"/><polygon points="532.52 227.27 478.5 273.36 593.85 273.36 634.6 227.27 532.52 227.27" style="fill:none"/><polygon points="740.63 227.27 713.68 273.36 829.06 273.36 842.73 227.27 740.63 227.27" style="fill:none"/><polygon points="428.47 227.27 360.9 273.36 476.26 273.36 530.54 227.27 428.47 227.27" style="fill:none"/><polygon points="295.55 189.77 204.28 189.77 118.93 226.14 220.68 226.14 295.55 189.77" style="fill:none"/><polygon points="324.4 227.27 243.29 273.36 358.67 273.36 426.49 227.27 324.4 227.27" style="fill:none"/><polygon points="220.34 227.27 125.7 273.36 241.05 273.36 322.42 227.27 220.34 227.27" style="fill:none"/><polygon points="116.29 227.27 8.11 273.36 123.46 273.36 218.36 227.27 116.29 227.27" style="fill:none"/><polygon points="883.15 95.12 947.15 95.12 947.19 80.16 887.5 80.16 883.15 95.12" style="fill:none"/><polygon points="891.5 66.42 947.23 66.42 947.26 54.97 894.83 54.97 891.5 66.42" style="fill:none"/><polygon points="877.97 112.93 947.1 112.93 947.15 95.57 883.02 95.57 877.97 112.93" style="fill:none"/><polygon points="871.89 133.83 947.04 133.83 947.1 113.44 877.82 113.44 871.89 133.83" style="fill:none"/><polygon points="855.88 188.88 946.89 188.88 946.97 159.46 864.43 159.46 855.88 188.88" style="fill:none"/><polygon points="845.04 226.14 946.79 226.14 946.89 189.77 855.62 189.77 845.04 226.14" style="fill:none"/><polygon points="864.65 158.72 946.97 158.72 947.04 134.44 871.71 134.44 864.65 158.72" style="fill:none"/><polygon points="673.21 6.33 634.79 6.33 620.61 12.38 660.77 12.38 673.21 6.33" style="fill:none"/><polygon points="613.69 35.25 566.93 35.25 545.73 44.28 595.09 44.28 613.69 35.25" style="fill:none"/><polygon points="630.86 26.9 586.52 26.9 567.49 35.01 614.17 35.01 630.86 26.9" style="fill:none"/><polygon points="660.41 12.55 620.2 12.55 604.63 19.18 646.76 19.18 660.41 12.55" style="fill:none"/><polygon points="646.36 19.38 604.18 19.38 587.01 26.69 631.3 26.69 646.36 19.38" style="fill:none"/><polygon points="712.66 6.17 722.42 0.65 685.63 0.65 674.28 6.17 712.66 6.17" style="fill:none"/><polygon points="684.92 0.65 648.13 0.65 635.16 6.17 673.54 6.17 684.92 0.65" style="fill:none"/><polygon points="894.91 54.68 947.26 54.68 947.29 44.55 897.86 44.55 894.91 54.68" style="fill:none"/><polygon points="521.22 80.16 461.53 80.16 426.42 95.12 490.42 95.12 521.22 80.16" style="fill:none"/><polygon points="594.54 44.55 545.11 44.55 521.33 54.68 573.68 54.68 594.54 44.55" style="fill:none"/><polygon points="452.7 113.44 383.42 113.44 335.57 133.83 410.72 133.83 452.7 113.44" style="fill:none"/><polygon points="409.46 134.44 334.13 134.44 277.15 158.72 359.47 158.72 409.46 134.44" style="fill:none"/><polygon points="489.5 95.57 425.37 95.57 384.63 112.93 453.76 112.93 489.5 95.57" style="fill:none"/><polygon points="573.07 54.97 520.64 54.97 493.78 66.42 549.51 66.42 573.07 54.97" style="fill:none"/><polygon points="357.95 159.46 275.41 159.46 206.38 188.88 297.39 188.88 357.95 159.46" style="fill:none"/><polygon points="548.82 66.75 492.99 66.75 462.43 79.78 522.01 79.78 548.82 66.75" style="fill:none"/><polygon points="897.94 44.28 947.29 44.28 947.32 35.25 900.57 35.25 897.94 44.28" style="fill:none"/><polygon points="948.76 227.27 948.89 273.36 1064.27 273.36 1050.86 227.27 948.76 227.27" style="fill:none"/><polygon points="1156.89 227.27 1184.1 273.36 1299.45 273.36 1258.97 227.27 1156.89 227.27" style="fill:none"/><polygon points="1012.54 95.57 948.39 95.57 948.44 112.93 1017.59 112.93 1012.54 95.57" style="fill:none"/><polygon points="1052.82 227.27 1066.49 273.36 1181.86 273.36 1154.91 227.27 1052.82 227.27" style="fill:none"/><polygon points="1031.13 159.46 948.57 159.46 948.66 188.88 1039.69 188.88 1031.13 159.46" style="fill:none"/><polygon points="1017.74 113.44 948.45 113.44 948.5 133.83 1023.67 133.83 1017.74 113.44" style="fill:none"/><polygon points="1023.85 134.44 948.5 134.44 948.57 158.72 1030.91 158.72 1023.85 134.44" style="fill:none"/><polygon points="1039.95 189.77 948.66 189.77 948.76 226.14 1050.53 226.14 1039.95 189.77" style="fill:none"/><polygon points="677.31 26.69 721.6 26.69 732.36 19.38 690.18 19.38 677.31 26.69" style="fill:none"/><polygon points="1779.26 227.27 1677.18 227.27 1772.09 273.36 1887.44 273.36 1779.26 227.27" style="fill:none"/><polygon points="1573.13 227.27 1654.49 273.36 1769.85 273.36 1675.2 227.27 1573.13 227.27" style="fill:none"/><polygon points="1365 227.27 1419.29 273.36 1534.66 273.36 1467.1 227.27 1365 227.27" style="fill:none"/><polygon points="1260.95 227.27 1301.69 273.36 1417.05 273.36 1363.02 227.27 1260.95 227.27" style="fill:none"/><polygon points="1469.08 227.27 1536.9 273.36 1652.26 273.36 1571.15 227.27 1469.08 227.27" style="fill:none"/><polygon points="997.69 44.55 948.25 44.55 948.28 54.68 1000.64 54.68 997.69 44.55" style="fill:none"/><polygon points="1008.05 80.16 948.35 80.16 948.39 95.12 1012.41 95.12 1008.05 80.16" style="fill:none"/><polygon points="984.92 0.65 948.13 0.65 948.14 6.17 986.53 6.17 984.92 0.65" style="fill:none"/><polygon points="986.58 6.33 948.15 6.33 948.16 12.38 988.33 12.38 986.58 6.33" style="fill:none"/><polygon points="907.22 12.38 947.38 12.38 947.4 6.33 908.98 6.33 907.22 12.38" style="fill:none"/><polygon points="900.64 35.01 947.32 35.01 947.34 26.9 902.99 26.9 900.64 35.01" style="fill:none"/><polygon points="903.06 26.69 947.34 26.69 947.36 19.38 905.18 19.38 903.06 26.69" style="fill:none"/><polygon points="905.24 19.18 947.36 19.18 947.38 12.55 907.17 12.55 905.24 19.18" style="fill:none"/><polygon points="909.02 6.17 947.4 6.17 947.42 0.65 910.63 0.65 909.02 6.17" style="fill:none"/><polygon points="1000.73 54.97 948.28 54.97 948.31 66.42 1004.06 66.42 1000.73 54.97" style="fill:none"/><polygon points="1004.15 66.75 948.32 66.75 948.35 79.78 1007.94 79.78 1004.15 66.75" style="fill:none"/><polygon points="988.38 12.55 948.16 12.55 948.18 19.18 990.31 19.18 988.38 12.55" style="fill:none"/><polygon points="751.79 6.17 759.92 0.65 723.13 0.65 713.4 6.17 751.79 6.17" style="fill:none"/><polygon points="994.99 35.25 948.23 35.25 948.25 44.28 997.62 44.28 994.99 35.25" style="fill:none"/><polygon points="990.37 19.38 948.18 19.38 948.2 26.69 992.5 26.69 990.37 19.38" style="fill:none"/><polygon points="992.56 26.9 948.2 26.9 948.23 35.01 994.92 35.01 992.56 26.9" style="fill:none"/><polygon points="887.61 79.78 947.2 79.78 947.23 66.75 891.4 66.75 887.61 79.78" style="fill:none"/><polygon points="846.51 44.55 797.07 44.55 788.17 54.68 840.53 54.68 846.51 44.55" style="fill:none"/><polygon points="856.92 26.9 812.57 26.9 805.45 35.01 852.14 35.01 856.92 26.9" style="fill:none"/><polygon points="852 35.25 805.24 35.25 797.3 44.28 846.67 44.28 852 35.25" style="fill:none"/><polygon points="865.39 12.55 825.17 12.55 819.35 19.18 861.48 19.18 865.39 12.55" style="fill:none"/><polygon points="861.37 19.38 819.18 19.38 812.75 26.69 857.05 26.69 861.37 19.38" style="fill:none"/><polygon points="825.49 80.16 765.79 80.16 752.65 95.12 816.66 95.12 825.49 80.16" style="fill:none"/><polygon points="840.36 54.97 787.91 54.97 777.86 66.42 833.6 66.42 840.36 54.97" style="fill:none"/><polygon points="833.4 66.75 777.57 66.75 766.13 79.78 825.72 79.78 833.4 66.75" style="fill:none"/><polygon points="702.49 12.38 742.66 12.38 751.55 6.33 713.13 6.33 702.49 12.38" style="fill:none"/><polygon points="661.55 12.38 701.71 12.38 712.38 6.33 673.96 6.33 661.55 12.38" style="fill:none"/><polygon points="647.57 19.18 689.7 19.18 701.4 12.55 661.19 12.55 647.57 19.18" style="fill:none"/><polygon points="632.16 26.69 676.45 26.69 689.36 19.38 647.18 19.38 632.16 26.69" style="fill:none"/><polygon points="743.44 12.38 783.61 12.38 790.72 6.33 752.3 6.33 743.44 12.38" style="fill:none"/><polygon points="816.4 95.57 752.26 95.57 737.01 112.93 806.15 112.93 816.4 95.57" style="fill:none"/><polygon points="784.38 12.38 824.55 12.38 829.89 6.33 791.47 6.33 784.38 12.38" style="fill:none"/><polygon points="615.08 35.01 661.76 35.01 676.07 26.9 631.73 26.9 615.08 35.01" style="fill:none"/><polygon points="869.06 6.33 830.63 6.33 825.33 12.38 865.5 12.38 869.06 6.33" style="fill:none"/><polygon points="525.58 112.93 594.72 112.93 620.26 95.57 556.12 95.57 525.58 112.93" style="fill:none"/><polygon points="583.9 79.78 643.49 79.78 662.65 66.75 606.82 66.75 583.9 79.78" style="fill:none"/><polygon points="556.91 95.12 620.92 95.12 642.93 80.16 583.23 80.16 556.91 95.12" style="fill:none"/><polygon points="607.41 66.42 663.15 66.42 679.99 54.97 627.54 54.97 607.41 66.42" style="fill:none"/><polygon points="628.06 54.68 680.42 54.68 695.33 44.55 645.89 44.55 628.06 54.68" style="fill:none"/><polygon points="790.91 6.17 797.42 0.65 760.63 0.65 752.53 6.17 790.91 6.17" style="fill:none"/><polygon points="662.67 35.01 709.36 35.01 721.29 26.9 676.93 26.9 662.67 35.01" style="fill:none"/><polygon points="805.85 113.44 736.56 113.44 718.65 133.83 793.82 133.83 805.85 113.44" style="fill:none"/><polygon points="488.8 133.83 563.96 133.83 593.96 113.44 524.67 113.44 488.8 133.83" style="fill:none"/><polygon points="778.69 159.46 696.13 159.46 670.3 188.88 761.33 188.88 778.69 159.46" style="fill:none"/><polygon points="793.45 134.44 718.11 134.44 696.78 158.72 779.13 158.72 793.45 134.44" style="fill:none"/><polygon points="694.53 159.46 611.99 159.46 577.52 188.88 668.53 188.88 694.53 159.46" style="fill:none"/><polygon points="445 158.72 527.34 158.72 563.06 134.44 487.71 134.44 445 158.72" style="fill:none"/><polygon points="391.94 188.88 482.97 188.88 526.25 159.46 443.7 159.46 391.94 188.88" style="fill:none"/><polygon points="610.39 159.46 527.85 159.46 484.74 188.88 575.75 188.88 610.39 159.46" style="fill:none"/><polygon points="646.36 44.28 695.72 44.28 709.01 35.25 662.25 35.25 646.36 44.28" style="fill:none"/><polygon points="881.78 95.57 817.63 95.57 807.48 112.93 876.63 112.93 881.78 95.57" style="fill:none"/><polygon points="890.32 66.75 834.48 66.75 826.86 79.78 886.46 79.78 890.32 66.75" style="fill:none"/><polygon points="886.34 80.16 826.64 80.16 817.89 95.12 881.91 95.12 886.34 80.16" style="fill:none"/><polygon points="853.84 189.77 762.56 189.77 741.29 226.14 843.06 226.14 853.84 189.77" style="fill:none"/><polygon points="876.48 113.44 807.18 113.44 795.26 133.83 870.43 133.83 876.48 113.44" style="fill:none"/><polygon points="862.83 159.46 780.28 159.46 763.08 188.88 854.11 188.88 862.83 159.46" style="fill:none"/><polygon points="896.9 44.55 847.46 44.55 841.54 54.68 893.9 54.68 896.9 44.55" style="fill:none"/><polygon points="870.25 134.44 794.9 134.44 780.71 158.72 863.05 158.72 870.25 134.44" style="fill:none"/><polygon points="893.81 54.97 841.37 54.97 834.68 66.42 890.42 66.42 893.81 54.97" style="fill:none"/><polygon points="596.05 44.28 645.4 44.28 661.35 35.25 614.59 35.25 596.05 44.28" style="fill:none"/><polygon points="908.23 6.33 869.8 6.33 866.27 12.38 906.44 12.38 908.23 6.33" style="fill:none"/><polygon points="869.16 6.17 872.42 0.65 835.63 0.65 830.77 6.17 869.16 6.17" style="fill:none"/><polygon points="899.66 35.25 852.9 35.25 847.62 44.28 896.98 44.28 899.66 35.25" style="fill:none"/><polygon points="902.13 26.9 857.78 26.9 853.04 35.01 899.73 35.01 902.13 26.9" style="fill:none"/><polygon points="906.39 12.55 866.17 12.55 862.29 19.18 904.42 19.18 906.39 12.55" style="fill:none"/><polygon points="904.37 19.38 862.18 19.38 857.9 26.69 902.2 26.69 904.37 19.38" style="fill:none"/><polygon points="760.8 189.77 669.51 189.77 637.57 226.14 739.34 226.14 760.8 189.77" style="fill:none"/><polygon points="491.66 95.12 555.66 95.12 582.07 80.16 522.38 80.16 491.66 95.12" style="fill:none"/><polygon points="523.16 79.78 582.75 79.78 605.73 66.75 549.9 66.75 523.16 79.78" style="fill:none"/><polygon points="455.1 112.93 524.24 112.93 554.88 95.57 490.75 95.57 455.1 112.93" style="fill:none"/><polygon points="830.03 6.17 834.92 0.65 798.13 0.65 791.65 6.17 830.03 6.17" style="fill:none"/><polygon points="412.18 133.83 487.34 133.83 523.33 113.44 454.04 113.44 412.18 133.83" style="fill:none"/><polygon points="574.7 54.68 627.05 54.68 644.93 44.55 595.5 44.55 574.7 54.68" style="fill:none"/><polygon points="550.6 66.42 606.33 66.42 626.53 54.97 574.09 54.97 550.6 66.42" style="fill:none"/><polygon points="222.66 226.14 324.41 226.14 388.6 189.77 297.32 189.77 222.66 226.14" style="fill:none"/><polygon points="481.65 189.77 390.37 189.77 326.38 226.14 428.15 226.14 481.65 189.77" style="fill:none"/><polygon points="667.74 189.77 576.47 189.77 533.85 226.14 635.6 226.14 667.74 189.77" style="fill:none"/><polygon points="299.16 188.88 390.17 188.88 442.1 159.46 359.56 159.46 299.16 188.88" style="fill:none"/><polygon points="361.07 158.72 443.4 158.72 486.25 134.44 410.92 134.44 361.07 158.72" style="fill:none"/><polygon points="574.7 189.77 483.43 189.77 430.12 226.14 531.87 226.14 574.7 189.77" style="fill:none"/><path d="M1247.78,290.19h-600L2.45,564.5H1893.09Zm528.83,225.64H1674.86L1600,479.46h91.28ZM1230.35,402.61l-20.44-17.36h64.14l25.45,17.36Zm69.9.52,29.89,20.39H1255l-24-20.39Zm-90.87-18.32-17.62-15h59.71l21.93,15Zm-18.07-15.35-15.33-13h55.84l19.09,13Zm-15.73-13.36-13.48-11.44h52.45l16.77,11.44Zm-13.82-11.74-11.94-10.13h49.44l14.86,10.13ZM1149.51,334l-10.64-9h46.76l13.24,9Zm-10.92-9.27-9.54-8.11h44.35l11.89,8.11Zm-9.79-8.32-8.62-7.32h42.19l10.72,7.32Zm-.86,0h-44.29l-6.46-7.32h42.18Zm.25.21,9.5,8.11H1091l-7.16-8.11Zm9.78,8.34,10.58,9H1099.2l-8-9Zm10.89,9.3,11.88,10.13h-52.35l-9-10.13Zm12.23,10.43,13.41,11.44h-55.73l-10.12-11.44Zm13.8,11.78,15.27,13h-59.58l-11.52-13Zm15.72,13.41,17.53,15h-64l-13.23-15Zm18.05,15.4L1229,402.61h-69.13l-15.35-17.36Zm20.95,17.88,23.9,20.39h-75.15l-18-20.39Zm24.62,21,28.46,24.28h-82.33l-21.46-24.28Zm1.46,0H1331l35.59,24.28h-82.35Zm76.81,0h75.33l42.72,24.28h-82.33Zm-.9-.61-30-20.39h69.28l35.87,20.39Zm-30.76-20.91-25.55-17.36h64.13L1370,402.61Zm-26.2-17.8-22-15h59.69l26.32,15Zm-22.58-15.35-19.16-13h55.83l22.91,13ZM1232.4,356.1l-16.83-11.44H1268l20.14,11.44Zm-17.27-11.74-14.91-10.13h49.43l17.83,10.13ZM1199.83,334l-13.29-9h46.75l15.9,9Zm-13.64-9.27-11.93-8.11h44.35l14.27,8.11ZM1174,316.38l-10.76-7.32h42.18l12.87,7.32Zm-11-7.51-9.76-6.63h40.21l11.67,6.63Zm-.82,0H1120l-7.81-6.63h40.22Zm-42.95,0H1077l-5.86-6.63h40.22Zm-42.94,0h-42.13l-3.91-6.63h40.21Zm.17.19,6.42,7.32H1038.5l-4.31-7.32Zm6.61,7.53,7.12,8.11h-46.69l-4.78-8.11Zm7.33,8.34,7.93,9h-49.35l-5.34-9Zm8.16,9.3,8.9,10.13H1055l-6-10.13Zm9.16,10.43,10,11.44H1062l-6.75-11.44ZM1118,356.44l11.44,13h-59.58l-7.69-13Zm11.78,13.41,13.14,15h-64l-8.83-15Zm13.53,15.4,15.25,17.36H1089.4l-10.24-17.36Zm15.7,17.88,17.91,20.39h-75.16l-12-20.39Zm18.45,21,21.32,24.28h-82.32l-14.34-24.28Zm22,25,25.84,29.42h-91l-17.36-29.42Zm1.6,0h82.54L1318,478.57h-91Zm84.14,0h82.56l43.12,29.42h-91Zm84.16,0h82.54l51.76,29.42h-91Zm84.14,0H1536l60.4,29.42h-91Zm-1.3-.74-42.86-24.28h75.34l49.85,24.28Zm-43.94-24.89-36-20.39h69.28l41.86,20.39Zm-36.9-20.91-30.64-17.36h64.13l35.64,17.36Zm-31.43-17.8-26.4-15h59.69l30.71,15Zm-27.08-15.35-23-13h55.84l26.73,13Zm-23.58-13.36L1269,344.66h52.44L1345,356.1Zm-20.72-11.74-17.89-10.13H1300l20.81,10.13ZM1250.15,334l-16-9H1281l18.55,9Zm-16.37-9.27-14.31-8.11h44.35l16.65,8.11Zm-14.68-8.32-12.91-7.32h42.18l15,7.32Zm-13.25-7.51-11.71-6.63h40.22l13.61,6.63Zm-12-6.81-10.66-6h38.42l12.41,6Zm-.78,0h-40.16l-8.89-6h38.42Zm-40.94,0h-40.17l-7.12-6h38.43Zm-40.95,0H1071l-5.34-6h38.42Zm-40.94,0h-40.16l-3.57-6h38.42Zm-40.94,0H989.11l-1.8-6h38.43Zm.1.18,3.88,6.63H991.12l-2-6.63Zm4,6.82,4.27,7.32H993.35l-2.17-7.32Zm4.4,7.53,4.74,8.11H995.82l-2.41-8.11Zm4.88,8.34,5.28,9H998.56l-2.67-9Zm5.43,9.3,5.93,10.13h-52.36l-3-10.13Zm6.1,10.43,6.69,11.44h-55.74l-3.39-11.44Zm6.89,11.78,7.61,13h-59.59l-3.86-13Zm7.84,13.41,8.74,15h-64l-4.44-15Zm9,15.4,10.15,17.36h-69.14l-5.15-17.36Zm10.45,17.88,11.92,20.39h-75.16l-6-20.39Zm12.28,21,14.2,24.28H1032.5l-7.2-24.28Zm14.63,25,17.2,29.42h-91l-8.72-29.42ZM1133,479.46l21.26,36.37H1052.48l-10.78-36.37Zm1.77,0H1226l32,36.37H1156.23Zm93,0h91.28l42.62,36.37H1260Zm93,0h91.29l53.3,36.37H1363.67Zm93.06,0h91.27l64,36.37H1467.42Zm93,0h91.27l74.67,36.37H1571.14Zm182.22-.89h-91l-60.56-29.42h82.54Zm-70.77-30.16h-82.33l-50-24.28h75.33ZM1560,423.52h-75.16l-42-20.39h69.28Zm-49.06-20.91h-69.14L1406,385.25h64.13Zm-41.79-17.8h-64l-30.8-15H1434Zm-36-15.35h-59.58l-26.81-13h55.83Zm-31.35-13.36H1346l-23.56-11.44h52.44Zm-27.55-11.74h-52.36L1301,334.23h49.43ZM1349.81,334h-49.35l-18.6-9h46.75Zm-21.75-9.27h-46.69l-16.69-8.11H1309Zm-19.53-8.32h-44.28l-15.06-7.32h42.18Zm-17.62-7.51h-42.12l-13.65-6.63h40.21Zm-16-6.81h-40.16l-12.45-6h38.43Zm-27.53-11.73,13,5.53H1222l-11.38-5.53Zm-37.5,0,11.35,5.53h-38.37l-9.76-5.53Zm-37.49,0,9.72,5.53h-38.37l-8.14-5.53Zm-37.5,0,8.1,5.53h-38.38l-6.51-5.53Zm-37.51,0,6.48,5.53h-38.37l-4.89-5.53Zm-37.49,0,4.85,5.53h-38.38l-3.26-5.53Zm-37.5,0,3.23,5.53H987.27l-1.64-5.53Zm-112.5,0-1.64,5.53H869.9l3.23-5.53ZM766.5,316.59,757,324.7H710.27l11.88-8.11Zm-44-.21,10.72-7.32h42.18l-8.61,7.32Zm34.21,8.55L746,334H696.68l13.24-9Zm-10.95,9.3-11.93,10.13H681.44l14.85-10.13Zm-12.28,10.43L720,356.1H664.23L681,344.66Zm-13.87,11.78-15.34,13H644.65l19.09-13Zm-15.79,13.41-17.62,15h-64l21.93-15Zm-18.14,15.4-20.45,17.36H596.06l25.45-17.36Zm-21,17.88-24,20.39H565.42l29.89-20.39Zm-24.74,21-28.59,24.28H528.93l35.59-24.28Zm1.47,0h75.33l-21.46,24.28H612.86Zm.72-.61,23.89-20.39h69.28l-18,20.39Zm24.5-20.91,20.34-17.36H751l-15.34,17.36Zm20.87-17.8,17.53-15h59.69l-13.22,15Zm18-15.35,15.26-13h55.83l-11.51,13Zm15.66-13.36,13.41-11.44H786.9L776.78,356.1Zm13.76-11.74,11.87-10.13h49.43l-9,10.13ZM747,334l10.59-9h46.75l-8,9Zm10.87-9.27,9.5-8.11h44.35l-7.17,8.11Zm9.75-8.32,8.57-7.32h42.18l-6.47,7.32Zm8.8-7.51,7.77-6.63h40.21l-5.86,6.63Zm-.82,0H733.46l9.73-6.63H783.4Zm-42.94,0H690.52l11.66-6.63H742.4Zm-.29.19-10.76,7.32H677.31l12.87-7.32Zm-11.07,7.53-11.93,8.11H662.67l14.26-8.11ZM709,324.93l-13.29,9H646.36l15.89-9Zm-13.68,9.3-14.91,10.13H628.06l17.83-10.13ZM680,344.66,663.15,356.1H607.41l20.13-11.44Zm-17.34,11.78-19.16,13H583.9l22.91-13Zm-19.72,13.41-22,15h-64l26.32-15Zm-22.67,15.4-25.54,17.36H525.58l30.54-17.36ZM594,403.13l-30,20.39H488.8l35.87-20.39Zm-30.9,21-35.72,24.28H445l42.71-24.28Zm-36.81,25L483,478.57h-91l51.76-29.42Zm1.6,0h82.54l-34.64,29.42h-91Zm84.14,0h82.54l-26,29.42h-91Zm84.15,0h82.55l-17.36,29.42h-91Zm.64-.74,21.33-24.28h75.34l-14.32,24.28Zm21.87-24.89,17.91-20.39h69.29l-12,20.39ZM737,402.61l15.25-17.36H816.4l-10.25,17.36Zm15.64-17.8,13.14-15h59.7l-8.83,15Zm13.48-15.35,11.43-13H833.4l-7.68,13Zm11.73-13.36,10-11.44h52.45L833.6,356.1Zm10.31-11.74,8.9-10.13h49.44l-6,10.13ZM797.31,334l7.93-9H852l-5.33,9Zm8.14-9.27,7.12-8.11h44.35l-4.78,8.11Zm7.3-8.32,6.43-7.32h42.19l-4.32,7.32Zm6.6-7.51,5.82-6.63h40.22l-3.91,6.63Zm6-6.81,5.31-6h38.42l-3.56,6Zm-.78,0H784.39l7.08-6h38.42Zm-40.94,0H743.44l8.86-6h38.42Zm-41,0H702.49l10.63-6h38.43Zm-40.95,0H661.55L674,296h38.42Zm-.31.18-11.7,6.63H647.57l13.62-6.63Zm-12,6.82-12.91,7.32H632.16l15-7.32Zm-13.29,7.53-14.31,8.11H615.08l16.64-8.11Zm-14.72,8.34-16,9H596.05l18.54-9Zm-16.42,9.3-17.88,10.13H574.7l20.8-10.13Zm-18.4,10.43-20.2,11.44H550.59l23.5-11.44Zm-20.8,11.78-23,13H523.16l26.74-13Zm-23.66,13.41-26.41,15h-64l30.72-15Zm-27.19,15.4-30.64,17.36H455.1l35.65-17.36Zm-31.55,17.88-36,20.39H412.18L454,403.13Zm-37.08,21L443.4,448.41H361.07l49.85-24.28Zm-44.15,25-51.93,29.42h-91l60.4-29.42Zm-53.51,30.31-64.18,36.37H222.66l74.66-36.37Zm1.78,0h91.28l-53.5,36.37H326.38Zm93.06,0H574.7l-42.83,36.37H430.12Zm93,0h91.27L635.6,515.83H533.85Zm93,0H760.8l-21.46,36.37H637.57Zm93,0h91.28l-10.78,36.37H741.29Zm.52-.89,17.2-29.42h82.55l-8.72,29.42Zm17.63-30.16,14.19-24.28h75.35l-7.2,24.28Zm14.55-24.89,11.92-20.39h69.3l-6.05,20.39Zm12.22-20.91,10.15-17.36h64.15l-5.15,17.36Zm10.41-17.8,8.75-15h59.7l-4.43,15Zm9-15.35,7.62-13h55.84l-3.86,13Zm7.82-13.36,6.69-11.44h52.44l-3.39,11.44Zm6.86-11.74,5.92-10.13H896.9l-3,10.13ZM847.62,334l5.28-9h46.76L897,334ZM853,324.7l4.74-8.11h44.35l-2.4,8.11Zm4.86-8.32,4.28-7.32h42.19l-2.17,7.32Zm4.39-7.51,3.88-6.63h40.22l-2,6.63Zm4-6.81,3.53-6h38.43l-1.79,6Zm6.15-11.73-3.26,5.53H830.77l4.86-5.53Zm-37.5,0L830,295.86H791.65l6.48-5.53Zm-37.5,0-6.51,5.53H752.53l8.1-5.53Zm-37.5,0-8.13,5.53H713.4l9.73-5.53Zm-37.5,0-9.76,5.53H674.28l11.35-5.53Zm-74.29,0h36.79l-11.38,5.53H635.16ZM634.79,296h38.42l-12.44,6H620.61Zm-14.59,6.22h40.21l-13.65,6.63H604.63Zm-16,6.82h42.18l-15.06,7.32H587Zm-17.66,7.53h44.34l-16.69,8.11H567.49Zm-19.59,8.34h46.76l-18.6,9H545.73Zm-21.82,9.3h49.43l-20.86,10.13H521.33Zm-24.47,10.43h52.43L549.51,356.1H493.78ZM493,356.44h55.83l-26.81,13H462.43Zm-31.46,13.41h59.69l-30.8,15h-64Zm-36.16,15.4H489.5l-35.74,17.36H384.63Zm-41.95,17.88H452.7l-42,20.39H335.57Zm-49.29,21h75.33l-50,24.28H277.15Zm-58.72,25H358l-60.56,29.42h-91Zm-71.13,30.31h91.27l-74.87,36.37H118.93ZM8.1,563.05,116.29,517H218.36l-94.9,46.1Zm117.6,0L220.34,517H322.42l-81.37,46.1Zm117.59,0L324.4,517H426.49l-67.82,46.1Zm117.61,0L428.47,517H530.54l-54.28,46.1Zm117.6,0,54-46.1H634.6l-40.75,46.1Zm117.59,0L636.58,517H738.67l-27.2,46.1Zm117.6,0L740.64,517H842.73l-13.67,46.1Zm233,0H831.3L844.71,517H946.78Zm.14-47.22H845l10.58-36.37h91.27Zm.1-37.26h-91l8.55-29.42H947Zm.08-30.16H864.65l7.06-24.28H947Zm.07-24.89H871.89l5.93-20.39H947.1Zm.06-20.91H878l5-17.36h64.13Zm0-17.8h-64l4.35-15h59.69Zm.05-15.35H887.61l3.79-13h55.83Zm0-13.36H891.5l3.33-11.44h52.43Zm0-11.74H894.91l3-10.13h49.43Zm0-10.39H897.94l2.63-9h46.75Zm0-9.27H900.64l2.35-8.11h44.35Zm0-8.32H903.06l2.12-7.32h42.18Zm0-7.51H905.24l1.93-6.63h40.21Zm0-6.81H907.22l1.76-6H947.4Zm0-6.2H909l1.61-5.53h36.79Zm.73-5.53h36.79l1.61,5.53H948.15Zm0,5.69h38.42l1.76,6H948.16Zm0,6.22h40.22l1.93,6.63H948.18Zm0,6.82h42.19l2.13,7.32H948.2Zm0,7.53h44.36l2.36,8.11H948.23Zm0,8.34H995l2.63,9H948.25Zm0,9.3h49.44l2.95,10.13H948.28Zm0,10.43h52.45l3.33,11.44H948.31Zm0,11.78h55.84l3.79,13H948.35Zm0,13.41h59.7l4.36,15h-64Zm0,15.4h64.14l5.05,17.36H948.44Zm.05,17.88h69.29l5.93,20.39H948.5Zm0,21h75.35l7.06,24.28H948.57Zm.07,25h82.56l8.56,29.42h-91Zm.09,30.31H1040l10.58,36.37H948.76Zm.23,83.59-.13-46.1h102.1l13.41,46.1Zm117.6,0L1052.82,517h102.09l26.95,46.1Zm117.61,0L1156.89,517H1259l40.48,46.1Zm117.59,0L1261,517H1363l54,46.1Zm117.6,0L1365,517h102.09l67.57,46.1Zm117.61,0L1469.07,517h102.08l81.1,46.1Zm117.59,0L1573.13,517H1675.2l94.65,46.1Zm22.7-46.1h102.07l108.18,46.1H1772.09Z" transform="translate(0 -289.69)" style="fill:#fff"/></g><g style="mix-blend-mode:overlay"><polygon points="1441.79 112.93 1510.92 112.93 1470.17 95.57 1406.04 95.57 1441.79 112.93" style="fill:none;stroke:#b3b3b3;stroke-miterlimit:10"/><polygon points="1598.15 188.88 1689.17 188.88 1620.13 159.46 1537.59 159.46 1598.15 188.88" style="fill:none;stroke:#b3b3b3;stroke-miterlimit:10"/><polygon points="1484.82 133.83 1559.98 133.83 1512.13 113.44 1442.85 113.44 1484.82 133.83" style="fill:none;stroke:#b3b3b3;stroke-miterlimit:10"/><polygon points="1672.89 226.14 1598.22 189.77 1506.95 189.77 1571.14 226.14 1672.89 226.14" style="fill:none;stroke:#b3b3b3;stroke-miterlimit:10"/><polygon points="1536.07 158.72 1618.4 158.72 1561.42 134.44 1486.09 134.44 1536.07 158.72" style="fill:none;stroke:#b3b3b3;stroke-miterlimit:10"/><polygon points="1361.7 226.14 1319.08 189.77 1227.81 189.77 1259.95 226.14 1361.7 226.14" style="fill:none;stroke:#b3b3b3;stroke-miterlimit:10"/><polygon points="1248.79 19.18 1290.91 19.18 1275.35 12.55 1235.14 12.55 1248.79 19.18" style="fill:none;stroke:#b3b3b3;stroke-miterlimit:10"/><polygon points="1065.66 6.33 1071 12.38 1111.16 12.38 1104.08 6.33 1065.66 6.33" style="fill:none;stroke:#b3b3b3;stroke-miterlimit:10"/><polygon points="1264.25 26.69 1308.53 26.69 1291.37 19.38 1249.19 19.38 1264.25 26.69" style="fill:none;stroke:#b3b3b3;stroke-miterlimit:10"/><polygon points="1405.13 95.12 1469.13 95.12 1434.02 80.16 1374.33 80.16 1405.13 95.12" style="fill:none;stroke:#b3b3b3;stroke-miterlimit:10"/><polygon points="1300.46 44.28 1349.81 44.28 1328.61 35.25 1281.86 35.25 1300.46 44.28" style="fill:none;stroke:#b3b3b3;stroke-miterlimit:10"/><polygon points="1257.97 226.14 1226.03 189.77 1134.76 189.77 1156.23 226.14 1257.97 226.14" style="fill:none;stroke:#b3b3b3;stroke-miterlimit:10"/><polygon points="1281.37 35.01 1328.06 35.01 1309.03 26.9 1264.68 26.9 1281.37 35.01" style="fill:none;stroke:#b3b3b3;stroke-miterlimit:10"/><polygon points="1373.54 79.78 1433.12 79.78 1402.56 66.75 1346.73 66.75 1373.54 79.78" style="fill:none;stroke:#b3b3b3;stroke-miterlimit:10"/><polygon points="1321.87 54.68 1374.22 54.68 1350.43 44.55 1301 44.55 1321.87 54.68" style="fill:none;stroke:#b3b3b3;stroke-miterlimit:10"/><polygon points="1346.03 66.42 1401.77 66.42 1374.91 54.97 1322.47 54.97 1346.03 66.42" style="fill:none;stroke:#b3b3b3;stroke-miterlimit:10"/><polygon points="1569.16 226.14 1505.18 189.77 1413.91 189.77 1467.41 226.14 1569.16 226.14" style="fill:none;stroke:#b3b3b3;stroke-miterlimit:10"/><polygon points="1042.51 35.01 1037.77 26.9 993.41 26.9 995.82 35.01 1042.51 35.01" style="fill:none;stroke:#b3b3b3;stroke-miterlimit:10"/><polygon points="1037.64 26.69 1033.37 19.38 991.18 19.38 993.35 26.69 1037.64 26.69" style="fill:none;stroke:#b3b3b3;stroke-miterlimit:10"/><polygon points="1047.93 44.28 1042.65 35.25 995.89 35.25 998.57 44.28 1047.93 44.28" style="fill:none;stroke:#b3b3b3;stroke-miterlimit:10"/><polygon points="1033.26 19.18 1029.38 12.55 989.16 12.55 991.12 19.18 1033.26 19.18" style="fill:none;stroke:#b3b3b3;stroke-miterlimit:10"/><polygon points="1026.49 6.33 1030.06 12.38 1070.22 12.38 1064.91 6.33 1026.49 6.33" style="fill:none;stroke:#b3b3b3;stroke-miterlimit:10"/><polygon points="1054.01 54.68 1048.08 44.55 998.64 44.55 1001.65 54.68 1054.01 54.68" style="fill:none;stroke:#b3b3b3;stroke-miterlimit:10"/><polygon points="987.31 6.33 989.11 12.38 1029.28 12.38 1025.74 6.33 987.31 6.33" style="fill:none;stroke:#b3b3b3;stroke-miterlimit:10"/><polygon points="1154.25 226.14 1132.99 189.77 1041.7 189.77 1052.48 226.14 1154.25 226.14" style="fill:none;stroke:#b3b3b3;stroke-miterlimit:10"/><polygon points="1114.84 158.72 1100.64 134.44 1025.3 134.44 1032.5 158.72 1114.84 158.72" style="fill:none;stroke:#b3b3b3;stroke-miterlimit:10"/><polygon points="1060.87 66.42 1054.18 54.97 1001.74 54.97 1005.13 66.42 1060.87 66.42" style="fill:none;stroke:#b3b3b3;stroke-miterlimit:10"/><polygon points="1132.47 188.88 1115.27 159.46 1032.71 159.46 1041.44 188.88 1132.47 188.88" style="fill:none;stroke:#b3b3b3;stroke-miterlimit:10"/><polygon points="1100.28 133.83 1088.36 113.44 1019.07 113.44 1025.12 133.83 1100.28 133.83" style="fill:none;stroke:#b3b3b3;stroke-miterlimit:10"/><polygon points="1088.06 112.93 1077.91 95.57 1013.77 95.57 1018.92 112.93 1088.06 112.93" style="fill:none;stroke:#b3b3b3;stroke-miterlimit:10"/><polygon points="1068.68 79.78 1061.07 66.75 1005.23 66.75 1009.09 79.78 1068.68 79.78" style="fill:none;stroke:#b3b3b3;stroke-miterlimit:10"/><polygon points="1077.65 95.12 1068.9 80.16 1009.2 80.16 1013.64 95.12 1077.65 95.12" style="fill:none;stroke:#b3b3b3;stroke-miterlimit:10"/><polygon points="1465.44 226.14 1412.14 189.77 1320.85 189.77 1363.67 226.14 1465.44 226.14" style="fill:none;stroke:#b3b3b3;stroke-miterlimit:10"/><polygon points="751.01 95.57 686.88 95.57 666.54 112.93 735.67 112.93 751.01 95.57" style="fill:none;stroke:#b3b3b3;stroke-miterlimit:10"/><polygon points="776.48 66.75 720.65 66.75 705.39 79.78 764.97 79.78 776.48 66.75" style="fill:none;stroke:#b3b3b3;stroke-miterlimit:10"/><polygon points="764.63 80.16 704.94 80.16 687.41 95.12 751.41 95.12 764.63 80.16" style="fill:none;stroke:#b3b3b3;stroke-miterlimit:10"/><polygon points="735.21 113.44 665.93 113.44 642.04 133.83 717.19 133.83 735.21 113.44" style="fill:none;stroke:#b3b3b3;stroke-miterlimit:10"/><polygon points="565.42 133.83 640.58 133.83 664.59 113.44 595.31 113.44 565.42 133.83" style="fill:none;stroke:#b3b3b3;stroke-miterlimit:10"/><polygon points="528.93 158.72 611.26 158.72 639.85 134.44 564.52 134.44 528.93 158.72" style="fill:none;stroke:#b3b3b3;stroke-miterlimit:10"/><polygon points="716.65 134.44 641.32 134.44 612.86 158.72 695.19 158.72 716.65 134.44" style="fill:none;stroke:#b3b3b3;stroke-miterlimit:10"/><polygon points="796.11 44.55 746.68 44.55 734.81 54.68 787.16 54.68 796.11 44.55" style="fill:none;stroke:#b3b3b3;stroke-miterlimit:10"/><polygon points="818.36 19.38 776.18 19.38 767.61 26.69 811.89 26.69 818.36 19.38" style="fill:none;stroke:#b3b3b3;stroke-miterlimit:10"/><polygon points="824.39 12.55 784.18 12.55 776.41 19.18 818.53 19.18 824.39 12.55" style="fill:none;stroke:#b3b3b3;stroke-miterlimit:10"/><polygon points="733.47 19.18 775.59 19.18 783.4 12.55 743.18 12.55 733.47 19.18" style="fill:none;stroke:#b3b3b3;stroke-miterlimit:10"/><polygon points="804.33 35.25 757.58 35.25 746.99 44.28 796.35 44.28 804.33 35.25" style="fill:none;stroke:#b3b3b3;stroke-miterlimit:10"/><polygon points="811.71 26.9 767.36 26.9 757.86 35.01 804.54 35.01 811.71 26.9" style="fill:none;stroke:#b3b3b3;stroke-miterlimit:10"/><polygon points="690.52 19.18 732.65 19.18 742.4 12.55 702.18 12.55 690.52 19.18" style="fill:none;stroke:#b3b3b3;stroke-miterlimit:10"/><polygon points="786.89 54.97 734.46 54.97 721.05 66.42 776.78 66.42 786.89 54.97" style="fill:none;stroke:#b3b3b3;stroke-miterlimit:10"/><polygon points="1260.38 6.17 1247.41 0.65 1210.63 0.65 1222.01 6.17 1260.38 6.17" style="fill:none;stroke:#b3b3b3;stroke-miterlimit:10"/><polygon points="1025.65 6.17 1022.42 0.65 985.63 0.65 987.27 6.17 1025.65 6.17" style="fill:none;stroke:#b3b3b3;stroke-miterlimit:10"/><polygon points="1103.89 6.17 1097.41 0.65 1060.63 0.65 1065.52 6.17 1103.89 6.17" style="fill:none;stroke:#b3b3b3;stroke-miterlimit:10"/><polygon points="1064.77 6.17 1059.92 0.65 1023.13 0.65 1026.39 6.17 1064.77 6.17" style="fill:none;stroke:#b3b3b3;stroke-miterlimit:10"/><polygon points="1143.02 6.17 1134.92 0.65 1098.13 0.65 1104.64 6.17 1143.02 6.17" style="fill:none;stroke:#b3b3b3;stroke-miterlimit:10"/><polygon points="1234.78 12.38 1274.94 12.38 1260.76 6.33 1222.34 6.33 1234.78 12.38" style="fill:none;stroke:#b3b3b3;stroke-miterlimit:10"/><polygon points="1221.26 6.17 1209.91 0.65 1173.13 0.65 1182.89 6.17 1221.26 6.17" style="fill:none;stroke:#b3b3b3;stroke-miterlimit:10"/><polygon points="1182.14 6.17 1172.42 0.65 1135.63 0.65 1143.77 6.17 1182.14 6.17" style="fill:none;stroke:#b3b3b3;stroke-miterlimit:10"/><polygon points="664.23 66.42 719.97 66.42 733.44 54.97 681.01 54.97 664.23 66.42" style="fill:none;stroke:#b3b3b3;stroke-miterlimit:10"/><polygon points="908.28 6.17 909.92 0.65 873.13 0.65 869.9 6.17 908.28 6.17" style="fill:none;stroke:#b3b3b3;stroke-miterlimit:10"/><polygon points="681.44 54.68 733.79 54.68 745.72 44.55 696.29 44.55 681.44 54.68" style="fill:none;stroke:#b3b3b3;stroke-miterlimit:10"/><polygon points="644.65 79.78 704.23 79.78 719.57 66.75 663.74 66.75 644.65 79.78" style="fill:none;stroke:#b3b3b3;stroke-miterlimit:10"/><polygon points="622.16 95.12 686.16 95.12 703.78 80.16 644.09 80.16 622.16 95.12" style="fill:none;stroke:#b3b3b3;stroke-miterlimit:10"/><polygon points="710.27 35.01 756.95 35.01 766.5 26.9 722.15 26.9 710.27 35.01" style="fill:none;stroke:#b3b3b3;stroke-miterlimit:10"/><polygon points="775.36 19.38 733.18 19.38 722.46 26.69 766.75 26.69 775.36 19.38" style="fill:none;stroke:#b3b3b3;stroke-miterlimit:10"/><polygon points="696.68 44.28 746.03 44.28 756.67 35.25 709.92 35.25 696.68 44.28" style="fill:none;stroke:#b3b3b3;stroke-miterlimit:10"/><polygon points="596.06 112.93 665.2 112.93 685.64 95.57 621.51 95.57 596.06 112.93" style="fill:none;stroke:#b3b3b3;stroke-miterlimit:10"/><polygon points="1253.51 133.83 1229.61 113.44 1160.33 113.44 1178.36 133.83 1253.51 133.83" style="fill:none;stroke:#b3b3b3;stroke-miterlimit:10"/><polygon points="1366.63 158.72 1331.04 134.44 1255.69 134.44 1284.29 158.72 1366.63 158.72" style="fill:none;stroke:#b3b3b3;stroke-miterlimit:10"/><polygon points="1282.69 158.72 1254.23 134.44 1178.9 134.44 1200.36 158.72 1282.69 158.72" style="fill:none;stroke:#b3b3b3;stroke-miterlimit:10"/><polygon points="1450.55 158.72 1407.83 134.44 1332.5 134.44 1368.22 158.72 1450.55 158.72" style="fill:none;stroke:#b3b3b3;stroke-miterlimit:10"/><polygon points="1190.16 79.78 1174.89 66.75 1119.07 66.75 1130.58 79.78 1190.16 79.78" style="fill:none;stroke:#b3b3b3;stroke-miterlimit:10"/><polygon points="1229.01 112.93 1208.66 95.57 1144.53 95.57 1159.88 112.93 1229.01 112.93" style="fill:none;stroke:#b3b3b3;stroke-miterlimit:10"/><polygon points="1174.5 66.42 1161.09 54.97 1108.65 54.97 1118.77 66.42 1174.5 66.42" style="fill:none;stroke:#b3b3b3;stroke-miterlimit:10"/><polygon points="1208.14 95.12 1190.61 80.16 1130.91 80.16 1144.14 95.12 1208.14 95.12" style="fill:none;stroke:#b3b3b3;stroke-miterlimit:10"/><polygon points="1153.15 12.55 1162.91 19.18 1205.03 19.18 1193.36 12.55 1153.15 12.55" style="fill:none;stroke:#b3b3b3;stroke-miterlimit:10"/><polygon points="1186.54 35.25 1199.83 44.28 1249.19 44.28 1233.29 35.25 1186.54 35.25" style="fill:none;stroke:#b3b3b3;stroke-miterlimit:10"/><polygon points="1174.26 26.9 1186.19 35.01 1232.88 35.01 1218.61 26.9 1174.26 26.9" style="fill:none;stroke:#b3b3b3;stroke-miterlimit:10"/><polygon points="1163.19 19.38 1173.95 26.69 1218.24 26.69 1205.37 19.38 1163.19 19.38" style="fill:none;stroke:#b3b3b3;stroke-miterlimit:10"/><polygon points="1200.22 44.55 1215.13 54.68 1267.48 54.68 1249.65 44.55 1200.22 44.55" style="fill:none;stroke:#b3b3b3;stroke-miterlimit:10"/><polygon points="1232.9 66.75 1252.06 79.78 1311.64 79.78 1288.73 66.75 1232.9 66.75" style="fill:none;stroke:#b3b3b3;stroke-miterlimit:10"/><polygon points="1252.63 80.16 1274.64 95.12 1338.64 95.12 1312.32 80.16 1252.63 80.16" style="fill:none;stroke:#b3b3b3;stroke-miterlimit:10"/><polygon points="1215.57 54.97 1232.4 66.42 1288.14 66.42 1268 54.97 1215.57 54.97" style="fill:none;stroke:#b3b3b3;stroke-miterlimit:10"/><polygon points="1275.29 95.57 1300.84 112.93 1369.97 112.93 1339.42 95.57 1275.29 95.57" style="fill:none;stroke:#b3b3b3;stroke-miterlimit:10"/><polygon points="1160.74 54.68 1148.86 44.55 1099.43 44.55 1108.39 54.68 1160.74 54.68" style="fill:none;stroke:#b3b3b3;stroke-miterlimit:10"/><polygon points="1330.14 133.83 1300.25 113.44 1230.96 113.44 1254.97 133.83 1330.14 133.83" style="fill:none;stroke:#b3b3b3;stroke-miterlimit:10"/><polygon points="1162.1 54.97 1175.58 66.42 1231.32 66.42 1214.55 54.97 1162.1 54.97" style="fill:none;stroke:#b3b3b3;stroke-miterlimit:10"/><polygon points="1175.98 66.75 1191.31 79.78 1250.91 79.78 1231.82 66.75 1175.98 66.75" style="fill:none;stroke:#b3b3b3;stroke-miterlimit:10"/><polygon points="1209.91 95.57 1230.35 112.93 1299.5 112.93 1274.05 95.57 1209.91 95.57" style="fill:none;stroke:#b3b3b3;stroke-miterlimit:10"/><polygon points="1674.86 226.14 1776.61 226.14 1691.27 189.77 1599.99 189.77 1674.86 226.14" style="fill:none;stroke:#b3b3b3;stroke-miterlimit:10"/><polygon points="1191.77 80.16 1209.38 95.12 1273.39 95.12 1251.47 80.16 1191.77 80.16" style="fill:none;stroke:#b3b3b3;stroke-miterlimit:10"/><polygon points="1077.18 19.38 1083.65 26.69 1127.94 26.69 1119.37 19.38 1077.18 19.38" style="fill:none;stroke:#b3b3b3;stroke-miterlimit:10"/><polygon points="1137.69 35.01 1128.19 26.9 1083.84 26.9 1091 35.01 1137.69 35.01" style="fill:none;stroke:#b3b3b3;stroke-miterlimit:10"/><polygon points="1148.55 44.28 1137.97 35.25 1091.21 35.25 1099.2 44.28 1148.55 44.28" style="fill:none;stroke:#b3b3b3;stroke-miterlimit:10"/><polygon points="1120.18 19.38 1128.8 26.69 1173.09 26.69 1162.37 19.38 1120.18 19.38" style="fill:none;stroke:#b3b3b3;stroke-miterlimit:10"/><polygon points="1149.82 44.55 1161.76 54.68 1214.12 54.68 1199.26 44.55 1149.82 44.55" style="fill:none;stroke:#b3b3b3;stroke-miterlimit:10"/><polygon points="1138.87 35.25 1149.51 44.28 1198.88 44.28 1185.63 35.25 1138.87 35.25" style="fill:none;stroke:#b3b3b3;stroke-miterlimit:10"/><polygon points="1129.05 26.9 1138.59 35.01 1185.29 35.01 1173.4 26.9 1129.05 26.9" style="fill:none;stroke:#b3b3b3;stroke-miterlimit:10"/><polygon points="1313.48 80.16 1339.88 95.12 1403.88 95.12 1373.17 80.16 1313.48 80.16" style="fill:none;stroke:#b3b3b3;stroke-miterlimit:10"/><polygon points="1269.02 54.97 1289.22 66.42 1344.95 66.42 1321.46 54.97 1269.02 54.97" style="fill:none;stroke:#b3b3b3;stroke-miterlimit:10"/><polygon points="1104.82 6.33 1111.94 12.38 1152.11 12.38 1143.25 6.33 1104.82 6.33" style="fill:none;stroke:#b3b3b3;stroke-miterlimit:10"/><polygon points="1289.82 66.75 1312.8 79.78 1372.38 79.78 1345.64 66.75 1289.82 66.75" style="fill:none;stroke:#b3b3b3;stroke-miterlimit:10"/><polygon points="1340.67 95.57 1371.31 112.93 1440.44 112.93 1404.8 95.57 1340.67 95.57" style="fill:none;stroke:#b3b3b3;stroke-miterlimit:10"/><polygon points="1372.22 113.44 1408.21 133.83 1483.36 133.83 1441.5 113.44 1372.22 113.44" style="fill:none;stroke:#b3b3b3;stroke-miterlimit:10"/><polygon points="1596.39 188.88 1535.99 159.46 1453.45 159.46 1505.37 188.88 1596.39 188.88" style="fill:none;stroke:#b3b3b3;stroke-miterlimit:10"/><polygon points="1409.29 134.44 1452.15 158.72 1534.47 158.72 1484.63 134.44 1409.29 134.44" style="fill:none;stroke:#b3b3b3;stroke-miterlimit:10"/><polygon points="1234.2 35.25 1250.14 44.28 1299.5 44.28 1280.95 35.25 1234.2 35.25" style="fill:none;stroke:#b3b3b3;stroke-miterlimit:10"/><polygon points="1183.17 6.33 1193.83 12.38 1234 12.38 1221.59 6.33 1183.17 6.33" style="fill:none;stroke:#b3b3b3;stroke-miterlimit:10"/><polygon points="1144 6.33 1152.89 12.38 1193.05 12.38 1182.42 6.33 1144 6.33" style="fill:none;stroke:#b3b3b3;stroke-miterlimit:10"/><polygon points="1194.14 12.55 1205.85 19.18 1247.97 19.18 1234.36 12.55 1194.14 12.55" style="fill:none;stroke:#b3b3b3;stroke-miterlimit:10"/><polygon points="1250.61 44.55 1268.5 54.68 1320.85 54.68 1300.04 44.55 1250.61 44.55" style="fill:none;stroke:#b3b3b3;stroke-miterlimit:10"/><polygon points="1206.19 19.38 1219.1 26.69 1263.39 26.69 1248.37 19.38 1206.19 19.38" style="fill:none;stroke:#b3b3b3;stroke-miterlimit:10"/><polygon points="1503.61 188.88 1451.85 159.46 1369.31 159.46 1412.59 188.88 1503.61 188.88" style="fill:none;stroke:#b3b3b3;stroke-miterlimit:10"/><polygon points="1219.47 26.9 1233.78 35.01 1280.47 35.01 1263.82 26.9 1219.47 26.9" style="fill:none;stroke:#b3b3b3;stroke-miterlimit:10"/><polygon points="1176.9 133.83 1158.99 113.44 1089.71 113.44 1101.74 133.83 1176.9 133.83" style="fill:none;stroke:#b3b3b3;stroke-miterlimit:10"/><polygon points="1098.24 44.28 1090.31 35.25 1043.55 35.25 1048.89 44.28 1098.24 44.28" style="fill:none;stroke:#b3b3b3;stroke-miterlimit:10"/><polygon points="1090.1 35.01 1082.98 26.9 1038.63 26.9 1043.41 35.01 1090.1 35.01" style="fill:none;stroke:#b3b3b3;stroke-miterlimit:10"/><polygon points="1107.37 54.68 1098.47 44.55 1049.04 44.55 1055.02 54.68 1107.37 54.68" style="fill:none;stroke:#b3b3b3;stroke-miterlimit:10"/><polygon points="1082.79 26.69 1076.37 19.38 1034.19 19.38 1038.5 26.69 1082.79 26.69" style="fill:none;stroke:#b3b3b3;stroke-miterlimit:10"/><polygon points="1117.68 66.42 1107.63 54.97 1055.2 54.97 1061.95 66.42 1117.68 66.42" style="fill:none;stroke:#b3b3b3;stroke-miterlimit:10"/><polygon points="1071.15 12.55 1077.02 19.18 1119.14 19.18 1111.37 12.55 1071.15 12.55" style="fill:none;stroke:#b3b3b3;stroke-miterlimit:10"/><polygon points="1030.16 12.55 1034.07 19.18 1076.2 19.18 1070.37 12.55 1030.16 12.55" style="fill:none;stroke:#b3b3b3;stroke-miterlimit:10"/><polygon points="1158.54 112.93 1143.29 95.57 1079.16 95.57 1089.4 112.93 1158.54 112.93" style="fill:none;stroke:#b3b3b3;stroke-miterlimit:10"/><polygon points="1225.25 188.88 1199.41 159.46 1116.87 159.46 1134.23 188.88 1225.25 188.88" style="fill:none;stroke:#b3b3b3;stroke-miterlimit:10"/><polygon points="1318.03 188.88 1283.55 159.46 1201.01 159.46 1227.02 188.88 1318.03 188.88" style="fill:none;stroke:#b3b3b3;stroke-miterlimit:10"/><polygon points="1198.76 158.72 1177.44 134.44 1102.11 134.44 1116.43 158.72 1198.76 158.72" style="fill:none;stroke:#b3b3b3;stroke-miterlimit:10"/><polygon points="1410.83 188.88 1367.71 159.46 1285.15 159.46 1319.8 188.88 1410.83 188.88" style="fill:none;stroke:#b3b3b3;stroke-miterlimit:10"/><polygon points="1142.9 95.12 1129.76 80.16 1070.06 80.16 1078.89 95.12 1142.9 95.12" style="fill:none;stroke:#b3b3b3;stroke-miterlimit:10"/><polygon points="1129.42 79.78 1117.98 66.75 1062.15 66.75 1069.84 79.78 1129.42 79.78" style="fill:none;stroke:#b3b3b3;stroke-miterlimit:10"/><polygon points="1112.15 12.55 1119.96 19.18 1162.09 19.18 1152.37 12.55 1112.15 12.55" style="fill:none;stroke:#b3b3b3;stroke-miterlimit:10"/><polygon points="1301.6 113.44 1331.6 133.83 1406.75 133.83 1370.88 113.44 1301.6 113.44" style="fill:none;stroke:#b3b3b3;stroke-miterlimit:10"/><polygon points="831.3 273.36 946.65 273.36 946.78 227.27 844.71 227.27 831.3 273.36" style="fill:none;stroke:#b3b3b3;stroke-miterlimit:10"/><polygon points="636.58 227.27 596.09 273.36 711.47 273.36 738.67 227.27 636.58 227.27" style="fill:none;stroke:#b3b3b3;stroke-miterlimit:10"/><polygon points="532.52 227.27 478.5 273.36 593.85 273.36 634.6 227.27 532.52 227.27" style="fill:none;stroke:#b3b3b3;stroke-miterlimit:10"/><polygon points="740.63 227.27 713.68 273.36 829.06 273.36 842.73 227.27 740.63 227.27" style="fill:none;stroke:#b3b3b3;stroke-miterlimit:10"/><polygon points="428.47 227.27 360.9 273.36 476.26 273.36 530.54 227.27 428.47 227.27" style="fill:none;stroke:#b3b3b3;stroke-miterlimit:10"/><polygon points="295.55 189.77 204.28 189.77 118.93 226.14 220.68 226.14 295.55 189.77" style="fill:none;stroke:#b3b3b3;stroke-miterlimit:10"/><polygon points="324.4 227.27 243.29 273.36 358.67 273.36 426.49 227.27 324.4 227.27" style="fill:none;stroke:#b3b3b3;stroke-miterlimit:10"/><polygon points="220.34 227.27 125.7 273.36 241.05 273.36 322.42 227.27 220.34 227.27" style="fill:none;stroke:#b3b3b3;stroke-miterlimit:10"/><polygon points="116.29 227.27 8.11 273.36 123.46 273.36 218.36 227.27 116.29 227.27" style="fill:none;stroke:#b3b3b3;stroke-miterlimit:10"/><polygon points="883.15 95.12 947.15 95.12 947.19 80.16 887.5 80.16 883.15 95.12" style="fill:none;stroke:#b3b3b3;stroke-miterlimit:10"/><polygon points="891.5 66.42 947.23 66.42 947.26 54.97 894.83 54.97 891.5 66.42" style="fill:none;stroke:#b3b3b3;stroke-miterlimit:10"/><polygon points="877.97 112.93 947.1 112.93 947.15 95.57 883.02 95.57 877.97 112.93" style="fill:none;stroke:#b3b3b3;stroke-miterlimit:10"/><polygon points="871.89 133.83 947.04 133.83 947.1 113.44 877.82 113.44 871.89 133.83" style="fill:none;stroke:#b3b3b3;stroke-miterlimit:10"/><polygon points="855.88 188.88 946.89 188.88 946.97 159.46 864.43 159.46 855.88 188.88" style="fill:none;stroke:#b3b3b3;stroke-miterlimit:10"/><polygon points="845.04 226.14 946.79 226.14 946.89 189.77 855.62 189.77 845.04 226.14" style="fill:none;stroke:#b3b3b3;stroke-miterlimit:10"/><polygon points="864.65 158.72 946.97 158.72 947.04 134.44 871.71 134.44 864.65 158.72" style="fill:none;stroke:#b3b3b3;stroke-miterlimit:10"/><polygon points="673.21 6.33 634.79 6.33 620.61 12.38 660.77 12.38 673.21 6.33" style="fill:none;stroke:#b3b3b3;stroke-miterlimit:10"/><polygon points="613.69 35.25 566.93 35.25 545.73 44.28 595.09 44.28 613.69 35.25" style="fill:none;stroke:#b3b3b3;stroke-miterlimit:10"/><polygon points="630.86 26.9 586.52 26.9 567.49 35.01 614.17 35.01 630.86 26.9" style="fill:none;stroke:#b3b3b3;stroke-miterlimit:10"/><polygon points="660.41 12.55 620.2 12.55 604.63 19.18 646.76 19.18 660.41 12.55" style="fill:none;stroke:#b3b3b3;stroke-miterlimit:10"/><polygon points="646.36 19.38 604.18 19.38 587.01 26.69 631.3 26.69 646.36 19.38" style="fill:none;stroke:#b3b3b3;stroke-miterlimit:10"/><polygon points="712.66 6.17 722.42 0.65 685.63 0.65 674.28 6.17 712.66 6.17" style="fill:none;stroke:#b3b3b3;stroke-miterlimit:10"/><polygon points="684.92 0.65 648.13 0.65 635.16 6.17 673.54 6.17 684.92 0.65" style="fill:none;stroke:#b3b3b3;stroke-miterlimit:10"/><polygon points="894.91 54.68 947.26 54.68 947.29 44.55 897.86 44.55 894.91 54.68" style="fill:none;stroke:#b3b3b3;stroke-miterlimit:10"/><polygon points="521.22 80.16 461.53 80.16 426.42 95.12 490.42 95.12 521.22 80.16" style="fill:none;stroke:#b3b3b3;stroke-miterlimit:10"/><polygon points="594.54 44.55 545.11 44.55 521.33 54.68 573.68 54.68 594.54 44.55" style="fill:none;stroke:#b3b3b3;stroke-miterlimit:10"/><polygon points="452.7 113.44 383.42 113.44 335.57 133.83 410.72 133.83 452.7 113.44" style="fill:none;stroke:#b3b3b3;stroke-miterlimit:10"/><polygon points="409.46 134.44 334.13 134.44 277.15 158.72 359.47 158.72 409.46 134.44" style="fill:none;stroke:#b3b3b3;stroke-miterlimit:10"/><polygon points="489.5 95.57 425.37 95.57 384.63 112.93 453.76 112.93 489.5 95.57" style="fill:none;stroke:#b3b3b3;stroke-miterlimit:10"/><polygon points="573.07 54.97 520.64 54.97 493.78 66.42 549.51 66.42 573.07 54.97" style="fill:none;stroke:#b3b3b3;stroke-miterlimit:10"/><polygon points="357.95 159.46 275.41 159.46 206.38 188.88 297.39 188.88 357.95 159.46" style="fill:none;stroke:#b3b3b3;stroke-miterlimit:10"/><polygon points="548.82 66.75 492.99 66.75 462.43 79.78 522.01 79.78 548.82 66.75" style="fill:none;stroke:#b3b3b3;stroke-miterlimit:10"/><polygon points="897.94 44.28 947.29 44.28 947.32 35.25 900.57 35.25 897.94 44.28" style="fill:none;stroke:#b3b3b3;stroke-miterlimit:10"/><polygon points="948.76 227.27 948.89 273.36 1064.27 273.36 1050.86 227.27 948.76 227.27" style="fill:none;stroke:#b3b3b3;stroke-miterlimit:10"/><polygon points="1156.89 227.27 1184.1 273.36 1299.45 273.36 1258.97 227.27 1156.89 227.27" style="fill:none;stroke:#b3b3b3;stroke-miterlimit:10"/><polygon points="1012.54 95.57 948.39 95.57 948.44 112.93 1017.59 112.93 1012.54 95.57" style="fill:none;stroke:#b3b3b3;stroke-miterlimit:10"/><polygon points="1052.82 227.27 1066.49 273.36 1181.86 273.36 1154.91 227.27 1052.82 227.27" style="fill:none;stroke:#b3b3b3;stroke-miterlimit:10"/><polygon points="1031.13 159.46 948.57 159.46 948.66 188.88 1039.69 188.88 1031.13 159.46" style="fill:none;stroke:#b3b3b3;stroke-miterlimit:10"/><polygon points="1017.74 113.44 948.45 113.44 948.5 133.83 1023.67 133.83 1017.74 113.44" style="fill:none;stroke:#b3b3b3;stroke-miterlimit:10"/><polygon points="1023.85 134.44 948.5 134.44 948.57 158.72 1030.91 158.72 1023.85 134.44" style="fill:none;stroke:#b3b3b3;stroke-miterlimit:10"/><polygon points="1039.95 189.77 948.66 189.77 948.76 226.14 1050.53 226.14 1039.95 189.77" style="fill:none;stroke:#b3b3b3;stroke-miterlimit:10"/><polygon points="677.31 26.69 721.6 26.69 732.36 19.38 690.18 19.38 677.31 26.69" style="fill:none;stroke:#b3b3b3;stroke-miterlimit:10"/><polygon points="1779.26 227.27 1677.18 227.27 1772.09 273.36 1887.44 273.36 1779.26 227.27" style="fill:none;stroke:#b3b3b3;stroke-miterlimit:10"/><polygon points="1573.13 227.27 1654.49 273.36 1769.85 273.36 1675.2 227.27 1573.13 227.27" style="fill:none;stroke:#b3b3b3;stroke-miterlimit:10"/><polygon points="1365 227.27 1419.29 273.36 1534.66 273.36 1467.1 227.27 1365 227.27" style="fill:none;stroke:#b3b3b3;stroke-miterlimit:10"/><polygon points="1260.95 227.27 1301.69 273.36 1417.05 273.36 1363.02 227.27 1260.95 227.27" style="fill:none;stroke:#b3b3b3;stroke-miterlimit:10"/><polygon points="1469.08 227.27 1536.9 273.36 1652.26 273.36 1571.15 227.27 1469.08 227.27" style="fill:none;stroke:#b3b3b3;stroke-miterlimit:10"/><polygon points="997.69 44.55 948.25 44.55 948.28 54.68 1000.64 54.68 997.69 44.55" style="fill:none;stroke:#b3b3b3;stroke-miterlimit:10"/><polygon points="1008.05 80.16 948.35 80.16 948.39 95.12 1012.41 95.12 1008.05 80.16" style="fill:none;stroke:#b3b3b3;stroke-miterlimit:10"/><polygon points="984.92 0.65 948.13 0.65 948.14 6.17 986.53 6.17 984.92 0.65" style="fill:none;stroke:#b3b3b3;stroke-miterlimit:10"/><polygon points="986.58 6.33 948.15 6.33 948.16 12.38 988.33 12.38 986.58 6.33" style="fill:none;stroke:#b3b3b3;stroke-miterlimit:10"/><polygon points="907.22 12.38 947.38 12.38 947.4 6.33 908.98 6.33 907.22 12.38" style="fill:none;stroke:#b3b3b3;stroke-miterlimit:10"/><polygon points="900.64 35.01 947.32 35.01 947.34 26.9 902.99 26.9 900.64 35.01" style="fill:none;stroke:#b3b3b3;stroke-miterlimit:10"/><polygon points="903.06 26.69 947.34 26.69 947.36 19.38 905.18 19.38 903.06 26.69" style="fill:none;stroke:#b3b3b3;stroke-miterlimit:10"/><polygon points="905.24 19.18 947.36 19.18 947.38 12.55 907.17 12.55 905.24 19.18" style="fill:none;stroke:#b3b3b3;stroke-miterlimit:10"/><polygon points="909.02 6.17 947.4 6.17 947.42 0.65 910.63 0.65 909.02 6.17" style="fill:none;stroke:#b3b3b3;stroke-miterlimit:10"/><polygon points="1000.73 54.97 948.28 54.97 948.31 66.42 1004.06 66.42 1000.73 54.97" style="fill:none;stroke:#b3b3b3;stroke-miterlimit:10"/><polygon points="1004.15 66.75 948.32 66.75 948.35 79.78 1007.94 79.78 1004.15 66.75" style="fill:none;stroke:#b3b3b3;stroke-miterlimit:10"/><polygon points="988.38 12.55 948.16 12.55 948.18 19.18 990.31 19.18 988.38 12.55" style="fill:none;stroke:#b3b3b3;stroke-miterlimit:10"/><polygon points="751.79 6.17 759.92 0.65 723.13 0.65 713.4 6.17 751.79 6.17" style="fill:none;stroke:#b3b3b3;stroke-miterlimit:10"/><polygon points="994.99 35.25 948.23 35.25 948.25 44.28 997.62 44.28 994.99 35.25" style="fill:none;stroke:#b3b3b3;stroke-miterlimit:10"/><polygon points="990.37 19.38 948.18 19.38 948.2 26.69 992.5 26.69 990.37 19.38" style="fill:none;stroke:#b3b3b3;stroke-miterlimit:10"/><polygon points="992.56 26.9 948.2 26.9 948.23 35.01 994.92 35.01 992.56 26.9" style="fill:none;stroke:#b3b3b3;stroke-miterlimit:10"/><polygon points="887.61 79.78 947.2 79.78 947.23 66.75 891.4 66.75 887.61 79.78" style="fill:none;stroke:#b3b3b3;stroke-miterlimit:10"/><polygon points="846.51 44.55 797.07 44.55 788.17 54.68 840.53 54.68 846.51 44.55" style="fill:none;stroke:#b3b3b3;stroke-miterlimit:10"/><polygon points="856.92 26.9 812.57 26.9 805.45 35.01 852.14 35.01 856.92 26.9" style="fill:none;stroke:#b3b3b3;stroke-miterlimit:10"/><polygon points="852 35.25 805.24 35.25 797.3 44.28 846.67 44.28 852 35.25" style="fill:none;stroke:#b3b3b3;stroke-miterlimit:10"/><polygon points="865.39 12.55 825.17 12.55 819.35 19.18 861.48 19.18 865.39 12.55" style="fill:none;stroke:#b3b3b3;stroke-miterlimit:10"/><polygon points="861.37 19.38 819.18 19.38 812.75 26.69 857.05 26.69 861.37 19.38" style="fill:none;stroke:#b3b3b3;stroke-miterlimit:10"/><polygon points="825.49 80.16 765.79 80.16 752.65 95.12 816.66 95.12 825.49 80.16" style="fill:none;stroke:#b3b3b3;stroke-miterlimit:10"/><polygon points="840.36 54.97 787.91 54.97 777.86 66.42 833.6 66.42 840.36 54.97" style="fill:none;stroke:#b3b3b3;stroke-miterlimit:10"/><polygon points="833.4 66.75 777.57 66.75 766.13 79.78 825.72 79.78 833.4 66.75" style="fill:none;stroke:#b3b3b3;stroke-miterlimit:10"/><polygon points="702.49 12.38 742.66 12.38 751.55 6.33 713.13 6.33 702.49 12.38" style="fill:none;stroke:#b3b3b3;stroke-miterlimit:10"/><polygon points="661.55 12.38 701.71 12.38 712.38 6.33 673.96 6.33 661.55 12.38" style="fill:none;stroke:#b3b3b3;stroke-miterlimit:10"/><polygon points="647.57 19.18 689.7 19.18 701.4 12.55 661.19 12.55 647.57 19.18" style="fill:none;stroke:#b3b3b3;stroke-miterlimit:10"/><polygon points="632.16 26.69 676.45 26.69 689.36 19.38 647.18 19.38 632.16 26.69" style="fill:none;stroke:#b3b3b3;stroke-miterlimit:10"/><polygon points="743.44 12.38 783.61 12.38 790.72 6.33 752.3 6.33 743.44 12.38" style="fill:none;stroke:#b3b3b3;stroke-miterlimit:10"/><polygon points="816.4 95.57 752.26 95.57 737.01 112.93 806.15 112.93 816.4 95.57" style="fill:none;stroke:#b3b3b3;stroke-miterlimit:10"/><polygon points="784.38 12.38 824.55 12.38 829.89 6.33 791.47 6.33 784.38 12.38" style="fill:none;stroke:#b3b3b3;stroke-miterlimit:10"/><polygon points="615.08 35.01 661.76 35.01 676.07 26.9 631.73 26.9 615.08 35.01" style="fill:none;stroke:#b3b3b3;stroke-miterlimit:10"/><polygon points="869.06 6.33 830.63 6.33 825.33 12.38 865.5 12.38 869.06 6.33" style="fill:none;stroke:#b3b3b3;stroke-miterlimit:10"/><polygon points="525.58 112.93 594.72 112.93 620.26 95.57 556.12 95.57 525.58 112.93" style="fill:none;stroke:#b3b3b3;stroke-miterlimit:10"/><polygon points="583.9 79.78 643.49 79.78 662.65 66.75 606.82 66.75 583.9 79.78" style="fill:none;stroke:#b3b3b3;stroke-miterlimit:10"/><polygon points="556.91 95.12 620.92 95.12 642.93 80.16 583.23 80.16 556.91 95.12" style="fill:none;stroke:#b3b3b3;stroke-miterlimit:10"/><polygon points="607.41 66.42 663.15 66.42 679.99 54.97 627.54 54.97 607.41 66.42" style="fill:none;stroke:#b3b3b3;stroke-miterlimit:10"/><polygon points="628.06 54.68 680.42 54.68 695.33 44.55 645.89 44.55 628.06 54.68" style="fill:none;stroke:#b3b3b3;stroke-miterlimit:10"/><polygon points="790.91 6.17 797.42 0.65 760.63 0.65 752.53 6.17 790.91 6.17" style="fill:none;stroke:#b3b3b3;stroke-miterlimit:10"/><polygon points="662.67 35.01 709.36 35.01 721.29 26.9 676.93 26.9 662.67 35.01" style="fill:none;stroke:#b3b3b3;stroke-miterlimit:10"/><polygon points="805.85 113.44 736.56 113.44 718.65 133.83 793.82 133.83 805.85 113.44" style="fill:none;stroke:#b3b3b3;stroke-miterlimit:10"/><polygon points="488.8 133.83 563.96 133.83 593.96 113.44 524.67 113.44 488.8 133.83" style="fill:none;stroke:#b3b3b3;stroke-miterlimit:10"/><polygon points="778.69 159.46 696.13 159.46 670.3 188.88 761.33 188.88 778.69 159.46" style="fill:none;stroke:#b3b3b3;stroke-miterlimit:10"/><polygon points="793.45 134.44 718.11 134.44 696.78 158.72 779.13 158.72 793.45 134.44" style="fill:none;stroke:#b3b3b3;stroke-miterlimit:10"/><polygon points="694.53 159.46 611.99 159.46 577.52 188.88 668.53 188.88 694.53 159.46" style="fill:none;stroke:#b3b3b3;stroke-miterlimit:10"/><polygon points="445 158.72 527.34 158.72 563.06 134.44 487.71 134.44 445 158.72" style="fill:none;stroke:#b3b3b3;stroke-miterlimit:10"/><polygon points="391.94 188.88 482.97 188.88 526.25 159.46 443.7 159.46 391.94 188.88" style="fill:none;stroke:#b3b3b3;stroke-miterlimit:10"/><polygon points="610.39 159.46 527.85 159.46 484.74 188.88 575.75 188.88 610.39 159.46" style="fill:none;stroke:#b3b3b3;stroke-miterlimit:10"/><polygon points="646.36 44.28 695.72 44.28 709.01 35.25 662.25 35.25 646.36 44.28" style="fill:none;stroke:#b3b3b3;stroke-miterlimit:10"/><polygon points="881.78 95.57 817.63 95.57 807.48 112.93 876.63 112.93 881.78 95.57" style="fill:none;stroke:#b3b3b3;stroke-miterlimit:10"/><polygon points="890.32 66.75 834.48 66.75 826.86 79.78 886.46 79.78 890.32 66.75" style="fill:none;stroke:#b3b3b3;stroke-miterlimit:10"/><polygon points="886.34 80.16 826.64 80.16 817.89 95.12 881.91 95.12 886.34 80.16" style="fill:none;stroke:#b3b3b3;stroke-miterlimit:10"/><polygon points="853.84 189.77 762.56 189.77 741.29 226.14 843.06 226.14 853.84 189.77" style="fill:none;stroke:#b3b3b3;stroke-miterlimit:10"/><polygon points="876.48 113.44 807.18 113.44 795.26 133.83 870.43 133.83 876.48 113.44" style="fill:none;stroke:#b3b3b3;stroke-miterlimit:10"/><polygon points="862.83 159.46 780.28 159.46 763.08 188.88 854.11 188.88 862.83 159.46" style="fill:none;stroke:#b3b3b3;stroke-miterlimit:10"/><polygon points="896.9 44.55 847.46 44.55 841.54 54.68 893.9 54.68 896.9 44.55" style="fill:none;stroke:#b3b3b3;stroke-miterlimit:10"/><polygon points="870.25 134.44 794.9 134.44 780.71 158.72 863.05 158.72 870.25 134.44" style="fill:none;stroke:#b3b3b3;stroke-miterlimit:10"/><polygon points="893.81 54.97 841.37 54.97 834.68 66.42 890.42 66.42 893.81 54.97" style="fill:none;stroke:#b3b3b3;stroke-miterlimit:10"/><polygon points="596.05 44.28 645.4 44.28 661.35 35.25 614.59 35.25 596.05 44.28" style="fill:none;stroke:#b3b3b3;stroke-miterlimit:10"/><polygon points="908.23 6.33 869.8 6.33 866.27 12.38 906.44 12.38 908.23 6.33" style="fill:none;stroke:#b3b3b3;stroke-miterlimit:10"/><polygon points="869.16 6.17 872.42 0.65 835.63 0.65 830.77 6.17 869.16 6.17" style="fill:none;stroke:#b3b3b3;stroke-miterlimit:10"/><polygon points="899.66 35.25 852.9 35.25 847.62 44.28 896.98 44.28 899.66 35.25" style="fill:none;stroke:#b3b3b3;stroke-miterlimit:10"/><polygon points="902.13 26.9 857.78 26.9 853.04 35.01 899.73 35.01 902.13 26.9" style="fill:none;stroke:#b3b3b3;stroke-miterlimit:10"/><polygon points="906.39 12.55 866.17 12.55 862.29 19.18 904.42 19.18 906.39 12.55" style="fill:none;stroke:#b3b3b3;stroke-miterlimit:10"/><polygon points="904.37 19.38 862.18 19.38 857.9 26.69 902.2 26.69 904.37 19.38" style="fill:none;stroke:#b3b3b3;stroke-miterlimit:10"/><polygon points="760.8 189.77 669.51 189.77 637.57 226.14 739.34 226.14 760.8 189.77" style="fill:none;stroke:#b3b3b3;stroke-miterlimit:10"/><polygon points="491.66 95.12 555.66 95.12 582.07 80.16 522.38 80.16 491.66 95.12" style="fill:none;stroke:#b3b3b3;stroke-miterlimit:10"/><polygon points="523.16 79.78 582.75 79.78 605.73 66.75 549.9 66.75 523.16 79.78" style="fill:none;stroke:#b3b3b3;stroke-miterlimit:10"/><polygon points="455.1 112.93 524.24 112.93 554.88 95.57 490.75 95.57 455.1 112.93" style="fill:none;stroke:#b3b3b3;stroke-miterlimit:10"/><polygon points="830.03 6.17 834.92 0.65 798.13 0.65 791.65 6.17 830.03 6.17" style="fill:none;stroke:#b3b3b3;stroke-miterlimit:10"/><polygon points="412.18 133.83 487.34 133.83 523.33 113.44 454.04 113.44 412.18 133.83" style="fill:none;stroke:#b3b3b3;stroke-miterlimit:10"/><polygon points="574.7 54.68 627.05 54.68 644.93 44.55 595.5 44.55 574.7 54.68" style="fill:none;stroke:#b3b3b3;stroke-miterlimit:10"/><polygon points="550.6 66.42 606.33 66.42 626.53 54.97 574.09 54.97 550.6 66.42" style="fill:none;stroke:#b3b3b3;stroke-miterlimit:10"/><polygon points="222.66 226.14 324.41 226.14 388.6 189.77 297.32 189.77 222.66 226.14" style="fill:none;stroke:#b3b3b3;stroke-miterlimit:10"/><polygon points="481.65 189.77 390.37 189.77 326.38 226.14 428.15 226.14 481.65 189.77" style="fill:none;stroke:#b3b3b3;stroke-miterlimit:10"/><polygon points="667.74 189.77 576.47 189.77 533.85 226.14 635.6 226.14 667.74 189.77" style="fill:none;stroke:#b3b3b3;stroke-miterlimit:10"/><polygon points="299.16 188.88 390.17 188.88 442.1 159.46 359.56 159.46 299.16 188.88" style="fill:none;stroke:#b3b3b3;stroke-miterlimit:10"/><polygon points="361.07 158.72 443.4 158.72 486.25 134.44 410.92 134.44 361.07 158.72" style="fill:none;stroke:#b3b3b3;stroke-miterlimit:10"/><polygon points="574.7 189.77 483.43 189.77 430.12 226.14 531.87 226.14 574.7 189.77" style="fill:none;stroke:#b3b3b3;stroke-miterlimit:10"/><path d="M1247.78,290.19h-600L2.45,564.5H1893.09Zm528.83,225.64H1674.86L1600,479.46h91.28ZM1230.35,402.61l-20.44-17.36h64.14l25.45,17.36Zm69.9.52,29.89,20.39H1255l-24-20.39Zm-90.87-18.32-17.62-15h59.71l21.93,15Zm-18.07-15.35-15.33-13h55.84l19.09,13Zm-15.73-13.36-13.48-11.44h52.45l16.77,11.44Zm-13.82-11.74-11.94-10.13h49.44l14.86,10.13ZM1149.51,334l-10.64-9h46.76l13.24,9Zm-10.92-9.27-9.54-8.11h44.35l11.89,8.11Zm-9.79-8.32-8.62-7.32h42.19l10.72,7.32Zm-.86,0h-44.29l-6.46-7.32h42.18Zm.25.21,9.5,8.11H1091l-7.16-8.11Zm9.78,8.34,10.58,9H1099.2l-8-9Zm10.89,9.3,11.88,10.13h-52.35l-9-10.13Zm12.23,10.43,13.41,11.44h-55.73l-10.12-11.44Zm13.8,11.78,15.27,13h-59.58l-11.52-13Zm15.72,13.41,17.53,15h-64l-13.23-15Zm18.05,15.4L1229,402.61h-69.13l-15.35-17.36Zm20.95,17.88,23.9,20.39h-75.15l-18-20.39Zm24.62,21,28.46,24.28h-82.33l-21.46-24.28Zm1.46,0H1331l35.59,24.28h-82.35Zm76.81,0h75.33l42.72,24.28h-82.33Zm-.9-.61-30-20.39h69.28l35.87,20.39Zm-30.76-20.91-25.55-17.36h64.13L1370,402.61Zm-26.2-17.8-22-15h59.69l26.32,15Zm-22.58-15.35-19.16-13h55.83l22.91,13ZM1232.4,356.1l-16.83-11.44H1268l20.14,11.44Zm-17.27-11.74-14.91-10.13h49.43l17.83,10.13ZM1199.83,334l-13.29-9h46.75l15.9,9Zm-13.64-9.27-11.93-8.11h44.35l14.27,8.11ZM1174,316.38l-10.76-7.32h42.18l12.87,7.32Zm-11-7.51-9.76-6.63h40.21l11.67,6.63Zm-.82,0H1120l-7.81-6.63h40.22Zm-42.95,0H1077l-5.86-6.63h40.22Zm-42.94,0h-42.13l-3.91-6.63h40.21Zm.17.19,6.42,7.32H1038.5l-4.31-7.32Zm6.61,7.53,7.12,8.11h-46.69l-4.78-8.11Zm7.33,8.34,7.93,9h-49.35l-5.34-9Zm8.16,9.3,8.9,10.13H1055l-6-10.13Zm9.16,10.43,10,11.44H1062l-6.75-11.44ZM1118,356.44l11.44,13h-59.58l-7.69-13Zm11.78,13.41,13.14,15h-64l-8.83-15Zm13.53,15.4,15.25,17.36H1089.4l-10.24-17.36Zm15.7,17.88,17.91,20.39h-75.16l-12-20.39Zm18.45,21,21.32,24.28h-82.32l-14.34-24.28Zm22,25,25.84,29.42h-91l-17.36-29.42Zm1.6,0h82.54L1318,478.57h-91Zm84.14,0h82.56l43.12,29.42h-91Zm84.16,0h82.54l51.76,29.42h-91Zm84.14,0H1536l60.4,29.42h-91Zm-1.3-.74-42.86-24.28h75.34l49.85,24.28Zm-43.94-24.89-36-20.39h69.28l41.86,20.39Zm-36.9-20.91-30.64-17.36h64.13l35.64,17.36Zm-31.43-17.8-26.4-15h59.69l30.71,15Zm-27.08-15.35-23-13h55.84l26.73,13Zm-23.58-13.36L1269,344.66h52.44L1345,356.1Zm-20.72-11.74-17.89-10.13H1300l20.81,10.13ZM1250.15,334l-16-9H1281l18.55,9Zm-16.37-9.27-14.31-8.11h44.35l16.65,8.11Zm-14.68-8.32-12.91-7.32h42.18l15,7.32Zm-13.25-7.51-11.71-6.63h40.22l13.61,6.63Zm-12-6.81-10.66-6h38.42l12.41,6Zm-.78,0h-40.16l-8.89-6h38.42Zm-40.94,0h-40.17l-7.12-6h38.43Zm-40.95,0H1071l-5.34-6h38.42Zm-40.94,0h-40.16l-3.57-6h38.42Zm-40.94,0H989.11l-1.8-6h38.43Zm.1.18,3.88,6.63H991.12l-2-6.63Zm4,6.82,4.27,7.32H993.35l-2.17-7.32Zm4.4,7.53,4.74,8.11H995.82l-2.41-8.11Zm4.88,8.34,5.28,9H998.56l-2.67-9Zm5.43,9.3,5.93,10.13h-52.36l-3-10.13Zm6.1,10.43,6.69,11.44h-55.74l-3.39-11.44Zm6.89,11.78,7.61,13h-59.59l-3.86-13Zm7.84,13.41,8.74,15h-64l-4.44-15Zm9,15.4,10.15,17.36h-69.14l-5.15-17.36Zm10.45,17.88,11.92,20.39h-75.16l-6-20.39Zm12.28,21,14.2,24.28H1032.5l-7.2-24.28Zm14.63,25,17.2,29.42h-91l-8.72-29.42ZM1133,479.46l21.26,36.37H1052.48l-10.78-36.37Zm1.77,0H1226l32,36.37H1156.23Zm93,0h91.28l42.62,36.37H1260Zm93,0h91.29l53.3,36.37H1363.67Zm93.06,0h91.27l64,36.37H1467.42Zm93,0h91.27l74.67,36.37H1571.14Zm182.22-.89h-91l-60.56-29.42h82.54Zm-70.77-30.16h-82.33l-50-24.28h75.33ZM1560,423.52h-75.16l-42-20.39h69.28Zm-49.06-20.91h-69.14L1406,385.25h64.13Zm-41.79-17.8h-64l-30.8-15H1434Zm-36-15.35h-59.58l-26.81-13h55.83Zm-31.35-13.36H1346l-23.56-11.44h52.44Zm-27.55-11.74h-52.36L1301,334.23h49.43ZM1349.81,334h-49.35l-18.6-9h46.75Zm-21.75-9.27h-46.69l-16.69-8.11H1309Zm-19.53-8.32h-44.28l-15.06-7.32h42.18Zm-17.62-7.51h-42.12l-13.65-6.63h40.21Zm-16-6.81h-40.16l-12.45-6h38.43Zm-27.53-11.73,13,5.53H1222l-11.38-5.53Zm-37.5,0,11.35,5.53h-38.37l-9.76-5.53Zm-37.49,0,9.72,5.53h-38.37l-8.14-5.53Zm-37.5,0,8.1,5.53h-38.38l-6.51-5.53Zm-37.51,0,6.48,5.53h-38.37l-4.89-5.53Zm-37.49,0,4.85,5.53h-38.38l-3.26-5.53Zm-37.5,0,3.23,5.53H987.27l-1.64-5.53Zm-112.5,0-1.64,5.53H869.9l3.23-5.53ZM766.5,316.59,757,324.7H710.27l11.88-8.11Zm-44-.21,10.72-7.32h42.18l-8.61,7.32Zm34.21,8.55L746,334H696.68l13.24-9Zm-10.95,9.3-11.93,10.13H681.44l14.85-10.13Zm-12.28,10.43L720,356.1H664.23L681,344.66Zm-13.87,11.78-15.34,13H644.65l19.09-13Zm-15.79,13.41-17.62,15h-64l21.93-15Zm-18.14,15.4-20.45,17.36H596.06l25.45-17.36Zm-21,17.88-24,20.39H565.42l29.89-20.39Zm-24.74,21-28.59,24.28H528.93l35.59-24.28Zm1.47,0h75.33l-21.46,24.28H612.86Zm.72-.61,23.89-20.39h69.28l-18,20.39Zm24.5-20.91,20.34-17.36H751l-15.34,17.36Zm20.87-17.8,17.53-15h59.69l-13.22,15Zm18-15.35,15.26-13h55.83l-11.51,13Zm15.66-13.36,13.41-11.44H786.9L776.78,356.1Zm13.76-11.74,11.87-10.13h49.43l-9,10.13ZM747,334l10.59-9h46.75l-8,9Zm10.87-9.27,9.5-8.11h44.35l-7.17,8.11Zm9.75-8.32,8.57-7.32h42.18l-6.47,7.32Zm8.8-7.51,7.77-6.63h40.21l-5.86,6.63Zm-.82,0H733.46l9.73-6.63H783.4Zm-42.94,0H690.52l11.66-6.63H742.4Zm-.29.19-10.76,7.32H677.31l12.87-7.32Zm-11.07,7.53-11.93,8.11H662.67l14.26-8.11ZM709,324.93l-13.29,9H646.36l15.89-9Zm-13.68,9.3-14.91,10.13H628.06l17.83-10.13ZM680,344.66,663.15,356.1H607.41l20.13-11.44Zm-17.34,11.78-19.16,13H583.9l22.91-13Zm-19.72,13.41-22,15h-64l26.32-15Zm-22.67,15.4-25.54,17.36H525.58l30.54-17.36ZM594,403.13l-30,20.39H488.8l35.87-20.39Zm-30.9,21-35.72,24.28H445l42.71-24.28Zm-36.81,25L483,478.57h-91l51.76-29.42Zm1.6,0h82.54l-34.64,29.42h-91Zm84.14,0h82.54l-26,29.42h-91Zm84.15,0h82.55l-17.36,29.42h-91Zm.64-.74,21.33-24.28h75.34l-14.32,24.28Zm21.87-24.89,17.91-20.39h69.29l-12,20.39ZM737,402.61l15.25-17.36H816.4l-10.25,17.36Zm15.64-17.8,13.14-15h59.7l-8.83,15Zm13.48-15.35,11.43-13H833.4l-7.68,13Zm11.73-13.36,10-11.44h52.45L833.6,356.1Zm10.31-11.74,8.9-10.13h49.44l-6,10.13ZM797.31,334l7.93-9H852l-5.33,9Zm8.14-9.27,7.12-8.11h44.35l-4.78,8.11Zm7.3-8.32,6.43-7.32h42.19l-4.32,7.32Zm6.6-7.51,5.82-6.63h40.22l-3.91,6.63Zm6-6.81,5.31-6h38.42l-3.56,6Zm-.78,0H784.39l7.08-6h38.42Zm-40.94,0H743.44l8.86-6h38.42Zm-41,0H702.49l10.63-6h38.43Zm-40.95,0H661.55L674,296h38.42Zm-.31.18-11.7,6.63H647.57l13.62-6.63Zm-12,6.82-12.91,7.32H632.16l15-7.32Zm-13.29,7.53-14.31,8.11H615.08l16.64-8.11Zm-14.72,8.34-16,9H596.05l18.54-9Zm-16.42,9.3-17.88,10.13H574.7l20.8-10.13Zm-18.4,10.43-20.2,11.44H550.59l23.5-11.44Zm-20.8,11.78-23,13H523.16l26.74-13Zm-23.66,13.41-26.41,15h-64l30.72-15Zm-27.19,15.4-30.64,17.36H455.1l35.65-17.36Zm-31.55,17.88-36,20.39H412.18L454,403.13Zm-37.08,21L443.4,448.41H361.07l49.85-24.28Zm-44.15,25-51.93,29.42h-91l60.4-29.42Zm-53.51,30.31-64.18,36.37H222.66l74.66-36.37Zm1.78,0h91.28l-53.5,36.37H326.38Zm93.06,0H574.7l-42.83,36.37H430.12Zm93,0h91.27L635.6,515.83H533.85Zm93,0H760.8l-21.46,36.37H637.57Zm93,0h91.28l-10.78,36.37H741.29Zm.52-.89,17.2-29.42h82.55l-8.72,29.42Zm17.63-30.16,14.19-24.28h75.35l-7.2,24.28Zm14.55-24.89,11.92-20.39h69.3l-6.05,20.39Zm12.22-20.91,10.15-17.36h64.15l-5.15,17.36Zm10.41-17.8,8.75-15h59.7l-4.43,15Zm9-15.35,7.62-13h55.84l-3.86,13Zm7.82-13.36,6.69-11.44h52.44l-3.39,11.44Zm6.86-11.74,5.92-10.13H896.9l-3,10.13ZM847.62,334l5.28-9h46.76L897,334ZM853,324.7l4.74-8.11h44.35l-2.4,8.11Zm4.86-8.32,4.28-7.32h42.19l-2.17,7.32Zm4.39-7.51,3.88-6.63h40.22l-2,6.63Zm4-6.81,3.53-6h38.43l-1.79,6Zm6.15-11.73-3.26,5.53H830.77l4.86-5.53Zm-37.5,0L830,295.86H791.65l6.48-5.53Zm-37.5,0-6.51,5.53H752.53l8.1-5.53Zm-37.5,0-8.13,5.53H713.4l9.73-5.53Zm-37.5,0-9.76,5.53H674.28l11.35-5.53Zm-74.29,0h36.79l-11.38,5.53H635.16ZM634.79,296h38.42l-12.44,6H620.61Zm-14.59,6.22h40.21l-13.65,6.63H604.63Zm-16,6.82h42.18l-15.06,7.32H587Zm-17.66,7.53h44.34l-16.69,8.11H567.49Zm-19.59,8.34h46.76l-18.6,9H545.73Zm-21.82,9.3h49.43l-20.86,10.13H521.33Zm-24.47,10.43h52.43L549.51,356.1H493.78ZM493,356.44h55.83l-26.81,13H462.43Zm-31.46,13.41h59.69l-30.8,15h-64Zm-36.16,15.4H489.5l-35.74,17.36H384.63Zm-41.95,17.88H452.7l-42,20.39H335.57Zm-49.29,21h75.33l-50,24.28H277.15Zm-58.72,25H358l-60.56,29.42h-91Zm-71.13,30.31h91.27l-74.87,36.37H118.93ZM8.1,563.05,116.29,517H218.36l-94.9,46.1Zm117.6,0L220.34,517H322.42l-81.37,46.1Zm117.59,0L324.4,517H426.49l-67.82,46.1Zm117.61,0L428.47,517H530.54l-54.28,46.1Zm117.6,0,54-46.1H634.6l-40.75,46.1Zm117.59,0L636.58,517H738.67l-27.2,46.1Zm117.6,0L740.64,517H842.73l-13.67,46.1Zm233,0H831.3L844.71,517H946.78Zm.14-47.22H845l10.58-36.37h91.27Zm.1-37.26h-91l8.55-29.42H947Zm.08-30.16H864.65l7.06-24.28H947Zm.07-24.89H871.89l5.93-20.39H947.1Zm.06-20.91H878l5-17.36h64.13Zm0-17.8h-64l4.35-15h59.69Zm.05-15.35H887.61l3.79-13h55.83Zm0-13.36H891.5l3.33-11.44h52.43Zm0-11.74H894.91l3-10.13h49.43Zm0-10.39H897.94l2.63-9h46.75Zm0-9.27H900.64l2.35-8.11h44.35Zm0-8.32H903.06l2.12-7.32h42.18Zm0-7.51H905.24l1.93-6.63h40.21Zm0-6.81H907.22l1.76-6H947.4Zm0-6.2H909l1.61-5.53h36.79Zm.73-5.53h36.79l1.61,5.53H948.15Zm0,5.69h38.42l1.76,6H948.16Zm0,6.22h40.22l1.93,6.63H948.18Zm0,6.82h42.19l2.13,7.32H948.2Zm0,7.53h44.36l2.36,8.11H948.23Zm0,8.34H995l2.63,9H948.25Zm0,9.3h49.44l2.95,10.13H948.28Zm0,10.43h52.45l3.33,11.44H948.31Zm0,11.78h55.84l3.79,13H948.35Zm0,13.41h59.7l4.36,15h-64Zm0,15.4h64.14l5.05,17.36H948.44Zm.05,17.88h69.29l5.93,20.39H948.5Zm0,21h75.35l7.06,24.28H948.57Zm.07,25h82.56l8.56,29.42h-91Zm.09,30.31H1040l10.58,36.37H948.76Zm.23,83.59-.13-46.1h102.1l13.41,46.1Zm117.6,0L1052.82,517h102.09l26.95,46.1Zm117.61,0L1156.89,517H1259l40.48,46.1Zm117.59,0L1261,517H1363l54,46.1Zm117.6,0L1365,517h102.09l67.57,46.1Zm117.61,0L1469.07,517h102.08l81.1,46.1Zm117.59,0L1573.13,517H1675.2l94.65,46.1Zm22.7-46.1h102.07l108.18,46.1H1772.09Z" transform="translate(0 -289.69)" style="fill:#fff;stroke:#b3b3b3;stroke-miterlimit:10"/></g></g></g></g></g></g></svg>