<svg xmlns="http://www.w3.org/2000/svg" viewBox="0 0 14 15.67"><title>Asset 3</title><g id="Layer_2" data-name="Layer 2"><g id="Layer_1-2" data-name="Layer 1"><path d="M12.24,12.15H1.76a1.76,1.76,0,0,0,0,3.52H12.24a1.76,1.76,0,1,0,0-3.52ZM2,14.51A.61.61,0,0,1,2,13.3a.61.61,0,0,1,.6.61A.6.6,0,0,1,2,14.51Z" style="fill:#d23f58"/><path d="M1.76,3.52H12.24a1.76,1.76,0,0,0,0-3.52H1.76a1.76,1.76,0,0,0,0,3.52ZM2,1.16a.6.6,0,1,1-.6.6.6.6,0,0,1,.6-.6Z" style="fill:#d23f58"/><path d="M12.24,6.07H1.76A1.76,1.76,0,0,0,0,7.83H0a1.84,1.84,0,0,0,.05.41A1.76,1.76,0,0,0,1.76,9.6H12.24a1.77,1.77,0,0,0,0-3.53ZM2,8.44a.63.63,0,0,1-.62-.61.62.62,0,1,1,1.23,0,.61.61,0,0,1-.17.42A.57.57,0,0,1,2,8.44Z" style="fill:#d23f58"/></g></g></svg>