<svg xmlns="http://www.w3.org/2000/svg" viewBox="0 0 20.6 22.18"><title>Asset 2</title><g id="Layer_2" data-name="Layer 2"><g id="Layer_1-2" data-name="Layer 1"><path d="M15.75,15.94a.93.93,0,0,1-.65-.27.91.91,0,0,1,0-1.29L17.47,12H7.65a.92.92,0,0,1,0-1.84h9.82L15.1,7.81a.94.94,0,0,1,0-1.3,1,1,0,0,1,.65-.27.91.91,0,0,1,.65.27l3.93,3.93a.91.91,0,0,1,.27.64.94.94,0,0,1-.27.66L16.4,15.67A.91.91,0,0,1,15.75,15.94Z" style="fill:#fff"/><path d="M4.31,22.18A4.32,4.32,0,0,1,0,17.87V4.31A4.31,4.31,0,0,1,4.31,0H10a.92.92,0,0,1,0,1.84H4.31A2.46,2.46,0,0,0,1.84,4.31V17.87a2.47,2.47,0,0,0,2.47,2.47H9.93a.92.92,0,1,1,0,1.84Z" style="fill:#fff"/></g></g></svg>