<svg xmlns="http://www.w3.org/2000/svg" viewBox="0 0 195 96.45"><title>Asset 1</title><g id="Layer_2" data-name="Layer 2"><g id="Layer_1-2" data-name="Layer 1"><polygon points="82.02 0 41.52 47.21 23.78 22.26 14.24 22.26 36.31 53.29 0 95.6 7.87 95.6 39.49 57.77 44.65 51.61 60.25 32.95 47.86 56.12 43.77 63.78 26.75 95.6 33.44 95.6 47.17 68.57 66.4 95.6 75.94 95.6 51.15 60.75 82.02 0" style="fill:#fff"/><path d="M93.9,53.16V95.6H88.66V53.16H77.18V48.35h28.2v4.81Z" style="fill:#fff"/><path d="M133,82.14H112.85L107.19,95.6h-5.81l21.75-49.52L144.31,95.6H138.5Zm-2.05-4.82L123,58.41l-8.07,18.91Z" style="fill:#fff"/><path d="M175.23,71.87H195V73a29,29,0,0,1-1.13,7.94,21.67,21.67,0,0,1-3.4,7c-.38.47-1,1.18-1.85,2.13a17.55,17.55,0,0,1-3.4,2.83,22.49,22.49,0,0,1-5.2,2.48,21.81,21.81,0,0,1-7.12,1.06,25,25,0,0,1-9.74-1.87,24.07,24.07,0,0,1-7.8-5.18,23.64,23.64,0,0,1-5.14-7.75A25.19,25.19,0,0,1,148.38,72a24.66,24.66,0,0,1,1.88-9.64,23.66,23.66,0,0,1,13-12.92A25.07,25.07,0,0,1,173,47.57a28.47,28.47,0,0,1,7.19,1,20.13,20.13,0,0,1,7.26,3.68,23.57,23.57,0,0,1,3,2.7,27,27,0,0,1,2.41,2.9l-3.9,3.54a25.13,25.13,0,0,0-4.47-5,20.6,20.6,0,0,0-4.49-2.74,16.71,16.71,0,0,0-7-1.29,19.82,19.82,0,0,0-7.86,1.53A18.51,18.51,0,0,0,159,58.1a18.78,18.78,0,0,0-4,6.24,20.84,20.84,0,0,0-1.42,7.74,19.72,19.72,0,0,0,1.74,8.53,19,19,0,0,0,4.51,6.14,18.65,18.65,0,0,0,6.23,3.67,20.35,20.35,0,0,0,6.79,1.22,17,17,0,0,0,8.61-2.21,15.29,15.29,0,0,0,5.9-5.88,17.05,17.05,0,0,0,1.21-2.85,15.56,15.56,0,0,0,.71-4h-14.1Z" style="fill:#fff"/></g></g></svg>