<svg xmlns="http://www.w3.org/2000/svg" viewBox="0 0 65 79.03"><title>Asset 1</title><g id="Layer_2" data-name="Layer 2"><g id="Layer_1-2" data-name="Layer 1"><path d="M32.08,18.49l-1.29,0a3,3,0,0,1-3-2.84c-.08-4.15,0-8.39,0-12.49V2.92c0-1.31.89-2,2.25-2.92h5c1.74,1,2.4,2.41,2.27,4.92-.11,2.18-.09,4.39-.07,6.53,0,1.18,0,2.37,0,3.56,0,2.28-1.2,3.45-3.51,3.47Z" style="fill:#487fea"/><path d="M65,26.43c0-5.44-3.61-10-8.54-10.85a33.33,33.33,0,0,0-7-.62c-1,0,2.89,0,1.84-.06,0,.07-2.51.14-2.51.2C48.55,21,42.15,27.32,36.3,27.45l-3.72,0c-.68,0-3.87,0-4.55,0-5.09-.23-11.57-6.75-11.75-11.84l0-.49c-.87,0,.76,0-.11,0-1.22,0-2.44,0-3.64,0a8.85,8.85,0,0,0-1.87.14A11.24,11.24,0,0,0,0,26.28C0,40.79,0,55.35,0,67.86a10.93,10.93,0,0,0,3.27,7.71C4.93,77.29,7.06,78.21,9.74,79H55.21a6.42,6.42,0,0,1,.8-.29,11.32,11.32,0,0,0,9-11.19Q65,47,65,26.43ZM32.45,37a8,8,0,0,1,8.07,8,8.13,8.13,0,0,1-2.31,5.8,8,8,0,0,1-5.72,2.34h0a8.06,8.06,0,0,1,0-16.12ZM47,68.2a5.38,5.38,0,0,1-3.52,2.49,12.29,12.29,0,0,1-3,.55c-5.73,0-11.46-.1-17.18-.2a6.75,6.75,0,0,1-1.58-.31A5.57,5.57,0,0,1,18,68.22a5.55,5.55,0,0,1-.17-4.37c.8-2.53,2.87-7.67,5.4-9.42a15.86,15.86,0,0,0,9.23,3.13,15.94,15.94,0,0,0,9.27-3.17c2.77,2.06,4.48,6.8,5.36,9.43A5.47,5.47,0,0,1,47,68.2Z" style="fill:#487fea"/></g></g></svg>