<svg xmlns="http://www.w3.org/2000/svg" viewBox="0 0 28.36 37.29"><title>Asset 1</title><g id="Layer_2" data-name="Layer 2"><g id="Layer_1-2" data-name="Layer 1"><path d="M14.18,18.24c4.15,0,7.51-4.08,7.51-9.12S20.59,0,14.18,0,6.67,4.08,6.67,9.12s3.36,9.12,7.51,9.12Z" style="fill:#afafaf"/><path d="M28.35,31.8C28.21,23,27.06,20.52,18.29,18.94a5.25,5.25,0,0,1-4.11,1.57,5.25,5.25,0,0,1-4.11-1.57C1.4,20.5.18,23,0,31.51c0,.7,0,.73,0,.65v.93s2.09,4.2,14.18,4.2,14.18-4.2,14.18-4.2V32.4a5,5,0,0,1,0-.6Z" style="fill:#afafaf"/></g></g></svg>