<svg xmlns="http://www.w3.org/2000/svg" viewBox="0 0 64.07 65.55"><title>Asset 1</title><g id="Layer_2" data-name="Layer 2"><g id="Layer_1-2" data-name="Layer 1"><path d="M61.72,61.23H60.59c-.73,0-1.38-.87-1.6-1.56L47.61,25.34A11,11,0,0,0,45.36,4.21L18.41.19a5.5,5.5,0,0,0-4.34,1.22,5.34,5.34,0,0,0-1.94,4V24.48a5.46,5.46,0,0,0,6.23,5.24l12.87-1.9s3,9.14,2.95,9.15a4.4,4.4,0,0,1-.07,2.41l-.59,1.79a2.68,2.68,0,0,0,1,3l1.55,1.09a4.37,4.37,0,0,1,1.78,4.23s0,0,0,0a2.89,2.89,0,0,1-.14.58L37,52.31A2.68,2.68,0,0,0,38.12,55l1.55,1.09a3.79,3.79,0,0,1,1.68,2.09,1.69,1.69,0,0,1-1.58,2.24,2.57,2.57,0,0,0,0,5.13H61.72a2.17,2.17,0,1,0,0-4.32Z" style="fill:#fff"/><path d="M7.28,24.9a1.46,1.46,0,0,1-1.46-1.46V6A1.46,1.46,0,0,1,8.73,6V23.44A1.45,1.45,0,0,1,7.28,24.9Z" style="fill:#fff"/><path d="M1.46,29.15A1.46,1.46,0,0,1,0,27.69V1.46a1.46,1.46,0,1,1,2.91,0V27.69a1.45,1.45,0,0,1-1.45,1.46Z" style="fill:#fff"/></g></g></svg>