<svg xmlns="http://www.w3.org/2000/svg" xmlns:xlink="http://www.w3.org/1999/xlink" viewBox="0 0 10.6 7.31"><defs><linearGradient id="New_Gradient_Swatch_2" x1="5.3" y1="7.31" x2="5.3" gradientUnits="userSpaceOnUse"><stop offset="0" stop-color="#d25a2c"/><stop offset="1" stop-color="#de912f"/></linearGradient></defs><title>Asset 2</title><g id="Layer_2" data-name="Layer 2"><g id="Layer_1-2" data-name="Layer 1"><path d="M7,7.31A1.23,1.23,0,0,1,6.1,7a1.18,1.18,0,0,1-.34-.84,1.16,1.16,0,0,1,.35-.84l.44-.44H1.19a1.19,1.19,0,1,1,0-2.37H6.55L6.11,2a1.15,1.15,0,0,1-.35-.84A1.15,1.15,0,0,1,6.11.35a1.17,1.17,0,0,1,1.67,0l2.47,2.46a1.2,1.2,0,0,1,0,1.69L7.78,7A1.16,1.16,0,0,1,7,7.31Z" style="fill:url(#New_Gradient_Swatch_2)"/></g></g></svg>