<svg xmlns="http://www.w3.org/2000/svg" viewBox="0 0 14.2 17.38"><title>Asset 1</title><g id="Layer_2" data-name="Layer 2"><g id="Layer_1-2" data-name="Layer 1"><path d="M2.4,17.38A2.4,2.4,0,0,1,0,15V8.76A2.39,2.39,0,0,1,1.91,6.42V4.71A5,5,0,0,1,7.1,0a5,5,0,0,1,5.19,4.71V6.42A2.39,2.39,0,0,1,14.2,8.76V15a2.4,2.4,0,0,1-2.4,2.4ZM2.4,7.2A1.56,1.56,0,0,0,.84,8.76V15A1.56,1.56,0,0,0,2.4,16.55h9.4A1.56,1.56,0,0,0,13.36,15V8.76A1.56,1.56,0,0,0,11.8,7.2Zm9.06-.84V4.71A4.15,4.15,0,0,0,7.1.84,4.15,4.15,0,0,0,2.74,4.71V6.36Z" style="fill:#979797"/><path d="M7.1,13.56a1.37,1.37,0,0,1-1.37-1.37V10.28a1.37,1.37,0,0,1,2.74,0v1.91A1.37,1.37,0,0,1,7.1,13.56Zm0-3.81a.54.54,0,0,0-.54.53v1.91a.54.54,0,0,0,1.08,0V10.28A.54.54,0,0,0,7.1,9.75Z" style="fill:#979797"/></g></g></svg>