<svg xmlns="http://www.w3.org/2000/svg" viewBox="0 0 20 16.76"><title>Asset 1</title><g id="Layer_2" data-name="Layer 2"><g id="Layer_1-2" data-name="Layer 1"><path d="M5.57,8.73h8.86a1.4,1.4,0,0,0,1.39-1.4V1.4A1.39,1.39,0,0,0,14.43,0H5.57A1.39,1.39,0,0,0,4.18,1.4V7.33A1.4,1.4,0,0,0,5.57,8.73ZM17.87,6.2h-.63V8.72a1.54,1.54,0,0,1-1.54,1.55H4.3A1.54,1.54,0,0,1,2.76,8.72V6.2H2.13A2.13,2.13,0,0,0,0,8.33v6.3a2.13,2.13,0,0,0,2.13,2.13H3.51V15.3a1.55,1.55,0,0,1,1.55-1.55h9.88a1.55,1.55,0,0,1,1.55,1.55v1.46h1.38A2.13,2.13,0,0,0,20,14.63V8.33A2.13,2.13,0,0,0,17.87,6.2ZM13.6,15H6.4c-.63,0-1.13.37-1.13.83v.77h9.46v-.77C14.73,15.38,14.22,15,13.6,15Z" style="fill:#fff"/></g></g></svg>