<svg xmlns="http://www.w3.org/2000/svg" viewBox="0 0 49 49"><title>Asset 1</title><g id="Layer_2" data-name="Layer 2"><g id="Layer_1-2" data-name="Layer 1"><rect width="49" height="49" rx="24.5" ry="24.5" style="fill:#b0b0b0"/><path d="M38.36,18.55a14.58,14.58,0,0,0-7.72-7.72,14.52,14.52,0,0,0-11.28,0,14.58,14.58,0,0,0-7.72,7.72,14.28,14.28,0,0,0-1.14,5.64,14.46,14.46,0,0,0,2.09,7.51L10.8,38.39l6.69-1.79A14.46,14.46,0,0,0,25,38.69a14.45,14.45,0,0,0,10.25-4.25,14.43,14.43,0,0,0,3.11-4.61,14.52,14.52,0,0,0,0-11.28Zm-14,14.72a1.91,1.91,0,0,1,0-3.81,1.91,1.91,0,1,1,0,3.81Zm3-9.27a3.23,3.23,0,0,0-1.45,3.18c0,.48-.26,1-1.51,1-1,0-1.39-.39-1.38-1.71a4.65,4.65,0,0,1,1.73-3.86c.84-.71,2.28-1.49,2.29-2.87C27,18.6,26,18,24.73,18,22.13,18,22.67,20,21.3,20a1.46,1.46,0,0,1-1.52-1.46c0-1.38,1.6-3.4,5-3.38,3.26,0,5.42,1.85,5.4,4.24S28,23.47,27.33,24Z" style="fill:#fff"/></g></g></svg>