<svg xmlns="http://www.w3.org/2000/svg" viewBox="0 0 13 23.99"><title>Asset 1</title><g id="Layer_2" data-name="Layer 2"><g id="Layer_1-2" data-name="Layer 1"><path d="M6.31,0a7.88,7.88,0,0,1,5,1.35A4.91,4.91,0,0,1,13,5.41a10.48,10.48,0,0,1-.54,3.93,6.78,6.78,0,0,1-2.27,2.53,9.94,9.94,0,0,0-2.18,2,2.73,2.73,0,0,0-.45,1.52v1.08H3.85a4.5,4.5,0,0,1-1.08-3.16c0-.83.74-1.84,2.2-3A19.09,19.09,0,0,0,7.68,7.85a2.71,2.71,0,0,0,.5-1.64c0-1.37-1-2-2.95-2A22.6,22.6,0,0,0,1,4.58l-.73.13L0,1.21A16.56,16.56,0,0,1,6.31,0ZM3.09,24V18.41h5V24Z" style="fill:#fff"/></g></g></svg>