<svg xmlns="http://www.w3.org/2000/svg" viewBox="0 0 32.55 30.31"><title>Asset 1</title><g id="Layer_2" data-name="Layer 2"><g id="Layer_1-2" data-name="Layer 1"><path d="M5.92,21.64l0,.3L7.25,29a1.82,1.82,0,0,0,.94,1.18,1.71,1.71,0,0,0,1.48-.12,46.89,46.89,0,0,0,4.11-2.82Zm-4.61-10A2.08,2.08,0,0,0,0,13.26a2.06,2.06,0,0,0,.82,1.93L7.48,20,31.08,1.46,10.22,22l9.06,6.61a2.41,2.41,0,0,0,2,.34,2.36,2.36,0,0,0,1.48-1.4L32.5,1a.72.72,0,0,0-.16-.78.7.7,0,0,0-.78-.15Z" style="fill:#487fea;fill-rule:evenodd"/></g></g></svg>