<svg xmlns="http://www.w3.org/2000/svg" viewBox="0 0 29 29"><title>Asset 1</title><g id="Layer_2" data-name="Layer 2"><g id="Layer_1-2" data-name="Layer 1"><path d="M14.5,10.16a1.83,1.83,0,0,0-1.76.89,6.45,6.45,0,0,0-.48,2.88,6.14,6.14,0,0,0,.47,2.82,1.87,1.87,0,0,0,1.77.83,1.87,1.87,0,0,0,1.77-.83,6.14,6.14,0,0,0,.47-2.82,6.45,6.45,0,0,0-.48-2.88A1.83,1.83,0,0,0,14.5,10.16ZM29,14.5a14.28,14.28,0,0,0-1.14-5.64,14.58,14.58,0,0,0-7.72-7.72,14.52,14.52,0,0,0-11.28,0A14.58,14.58,0,0,0,1.14,8.86a14.52,14.52,0,0,0,0,11.28,14.58,14.58,0,0,0,7.72,7.72A14.28,14.28,0,0,0,14.5,29,14.46,14.46,0,0,0,22,26.91L28.7,28.7,26.91,22A14.46,14.46,0,0,0,29,14.5ZM18.66,20.86l-2,.95L15.2,19.45a2.61,2.61,0,0,1-.7.05A4.12,4.12,0,0,1,11,18.16a7,7,0,0,1-1-4.23,7.38,7.38,0,0,1,1-4.29,4,4,0,0,1,3.5-1.4A4,4,0,0,1,18,9.64a7.38,7.38,0,0,1,1,4.29q0,3.56-1.68,4.79Z" style="fill:#cacaca"/></g></g></svg>