<svg xmlns="http://www.w3.org/2000/svg" viewBox="0 0 18.5 12.6"><title>Asset 2</title><g id="Layer_2" data-name="Layer 2"><g id="Layer_1-2" data-name="Layer 1"><path d="M14,.08C13.66-.54,6.77,2.53,3.67,7.66c-.46-.87-.68-1.34-1-1.94C2,4.73,0,5.26,0,6.77c2.33,6.34,4.59,7,5.42,4.41C8.43,3.29,14.32.7,14,.08Z" transform="translate(0 0)" style="fill:#487fea;fill-rule:evenodd"/><path d="M10.18,7.62c-.24-.45-.39-.76-.55-1.06A17.2,17.2,0,0,0,8.16,9.09c1.52,3,2.87,3.1,3.43,1.37C14,4.1,18.76,2,18.49,1.52S12.68,3.49,10.18,7.62Z" transform="translate(0 0)" style="fill:#487fea;fill-rule:evenodd;opacity:0.5"/></g></g></svg>