<svg xmlns="http://www.w3.org/2000/svg" viewBox="0 0 28.6 23.96"><title>Asset 1</title><g id="Layer_2" data-name="Layer 2"><g id="Layer_1-2" data-name="Layer 1"><path d="M8,12.48H20.63a2,2,0,0,0,2-2V2a2,2,0,0,0-2-2H8A2,2,0,0,0,6,2v8.48A2,2,0,0,0,8,12.48ZM25.55,8.87h-.89v3.6a2.22,2.22,0,0,1-2.21,2.22H6.16a2.22,2.22,0,0,1-2.22-2.22V8.87H3.05a3,3,0,0,0-3,3.05v9a3,3,0,0,0,3.05,3H5V21.89a2.21,2.21,0,0,1,2.22-2.22H21.36a2.21,2.21,0,0,1,2.22,2.22V24h2a3,3,0,0,0,3.05-3v-9A3,3,0,0,0,25.55,8.87Zm-6.1,12.59H9.15c-.89,0-1.61.53-1.61,1.19v1.1H21.07v-1.1C21.07,22,20.34,21.46,19.45,21.46Z" style="fill:#fff"/></g></g></svg>