<svg xmlns="http://www.w3.org/2000/svg" viewBox="0 0 20 20"><title>Asset 1</title><g id="Layer_2" data-name="Layer 2"><g id="Layer_1-2" data-name="Layer 1"><path d="M2.22,12.19A7.9,7.9,0,0,0,3,13.94l-.89,1.12a.92.92,0,0,0,.07,1.21L3.66,17.8a.92.92,0,0,0,1.22.07L6,17a8.5,8.5,0,0,0,1.81.77L8,19.19a.91.91,0,0,0,.91.81H11a.93.93,0,0,0,.91-.81l.15-1.38a8.31,8.31,0,0,0,2-.79l1.07.85a.92.92,0,0,0,1.22-.07l1.53-1.52a.92.92,0,0,0,.07-1.22L17.1,14a7.81,7.81,0,0,0,.8-1.91l1.29-.15A.93.93,0,0,0,20,11V8.87A.92.92,0,0,0,19.19,8l-1.27-.15a8.62,8.62,0,0,0-.77-1.89l.78-1a.91.91,0,0,0-.07-1.21L16.34,2.19a.93.93,0,0,0-1.22-.07l-1,.77a7.87,7.87,0,0,0-2-.84L12,.81A.91.91,0,0,0,11.12,0H9a.93.93,0,0,0-.91.81L7.91,2.05a8,8,0,0,0-2,.86l-1-.79a.94.94,0,0,0-1.22.07L2.13,3.72a.92.92,0,0,0-.07,1.22L2.9,6A7.7,7.7,0,0,0,2.14,7.9L.81,8.05A.93.93,0,0,0,0,9v2.16A.93.93,0,0,0,.81,12Zm7.83-5.84A3.57,3.57,0,1,1,6.47,9.92a3.58,3.58,0,0,1,3.58-3.57Z" style="fill:#fff"/></g></g></svg>