<svg xmlns="http://www.w3.org/2000/svg" viewBox="0 0 24 29.18"><title>Asset 4</title><g id="Layer_2" data-name="Layer 2"><g id="Layer_1-2" data-name="Layer 1"><path d="M11.85,6.83h-.48a1.1,1.1,0,0,1-1.12-1.05c0-1.53,0-3.1,0-4.61V1.08c0-.49.32-.76.83-1.08h1.86a1.7,1.7,0,0,1,.84,1.82c0,.8,0,1.62,0,2.41,0,.43,0,.87,0,1.31a1.15,1.15,0,0,1-1.29,1.28Z" style="fill:#fff"/><path d="M24,9.76a4,4,0,0,0-3.15-4,12.23,12.23,0,0,0-2.6-.22c-.39,0,1.07,0,.68,0,0,0-.93,0-.93.08a5.25,5.25,0,0,1-4.59,4.56H10.35C8.47,10,6.08,7.64,6,5.76V5.58c-.32,0,.28,0,0,0l-1.35,0a3,3,0,0,0-.69.06A4.14,4.14,0,0,0,0,9.7c0,5.36,0,10.74,0,15.36A4,4,0,0,0,1.22,27.9,5.11,5.11,0,0,0,3.6,29.18H20.39a1.45,1.45,0,0,1,.29-.11A4.19,4.19,0,0,0,24,24.94Q24,17.35,24,9.76ZM12,13.64a3,3,0,0,1,3,2.95,2.92,2.92,0,0,1-3,3h0a3,3,0,0,1,0-5.95Zm5.37,11.54a2,2,0,0,1-1.3.92,4.56,4.56,0,0,1-1.12.2c-2.11,0-4.22,0-6.34-.07A2.78,2.78,0,0,1,8,26.12a2.06,2.06,0,0,1-1.35-.93,2,2,0,0,1-.06-1.62c.29-.93,1.05-2.83,2-3.47A5.9,5.9,0,0,0,12,21.25a5.86,5.86,0,0,0,3.42-1.17,7.72,7.72,0,0,1,2,3.48A2,2,0,0,1,17.35,25.18Z" style="fill:#fff"/></g></g></svg>