<svg xmlns="http://www.w3.org/2000/svg" viewBox="0 0 44.23 46.77"><title>Asset 3</title><g id="Layer_2" data-name="Layer 2"><g id="Layer_1-2" data-name="Layer 1"><path d="M21.34,46.77a2.12,2.12,0,1,1,2.23-2.12A2.18,2.18,0,0,1,21.34,46.77Zm10-2.25a1.71,1.71,0,1,1,1.81-1.7A1.76,1.76,0,0,1,31.33,44.52Zm-19.72-.16A2.27,2.27,0,1,1,14,42.09,2.34,2.34,0,0,1,11.61,44.36ZM4.85,38.29A21,21,0,0,1,0,24.88C0,13,10.06,3.27,22.44,3.27A22.8,22.8,0,0,1,32.78,5.71l.64.32,6.14-6,4.67,18.69L24.78,14.52l5.9-5.79-1.46-.56a19.06,19.06,0,0,0-6.78-1.25c-10.25,0-18.58,8.06-18.58,18a17.43,17.43,0,0,0,2.95,9.7C6.09,35.89,5.44,37.12,4.85,38.29Zm35.53-2.06a.77.77,0,1,1,.84-.76A.8.8,0,0,1,40.38,36.23Z" style="fill:#fff"/></g></g></svg>