<svg xmlns="http://www.w3.org/2000/svg" viewBox="0 0 29.47 29.47"><title>Asset 3</title><g id="Layer_2" data-name="Layer 2"><g id="Layer_1-2" data-name="Layer 1"><path d="M26.24,13.47a7.49,7.49,0,0,1-7.06-10A13,13,0,0,0,17.94,3l-.21-1.83A1.35,1.35,0,0,0,16.39,0H13.21a1.34,1.34,0,0,0-1.34,1.19L11.65,3a12.19,12.19,0,0,0-3,1.27L7.19,3.13a1.36,1.36,0,0,0-1.8.1L3.14,5.48A1.36,1.36,0,0,0,3,7.28L4.27,8.83a11.35,11.35,0,0,0-1.11,2.81l-2,.22A1.35,1.35,0,0,0,0,13.2v3.19a1.33,1.33,0,0,0,1.19,1.33L3.26,18a12.64,12.64,0,0,0,1.09,2.57L3,22.18a1.36,1.36,0,0,0,.1,1.8l2.25,2.25a1.36,1.36,0,0,0,1.8.1L8.82,25a11.58,11.58,0,0,0,2.67,1.13l.25,2.11a1.36,1.36,0,0,0,1.34,1.2h3.18a1.35,1.35,0,0,0,1.34-1.2l.24-2a11.84,11.84,0,0,0,2.86-1.16l1.59,1.25a1.35,1.35,0,0,0,1.79-.1L26.33,24a1.35,1.35,0,0,0,.1-1.79L25.2,20.63a12,12,0,0,0,1.18-2.82l1.9-.22a1.34,1.34,0,0,0,1.19-1.34V13.07a1.2,1.2,0,0,0-.06-.32A7.48,7.48,0,0,1,26.24,13.47ZM14.8,19.88a5.27,5.27,0,1,1,5.27-5.26A5.27,5.27,0,0,1,14.8,19.88Z" style="fill:#fff"/></g></g></svg>