<?xml version="1.0" encoding="utf-8"?>
<!-- Generator: Adobe Illustrator 22.1.0, SVG Export Plug-In . SVG Version: 6.00 Build 0)  -->
<svg version="1.1" id="Layer_1" xmlns="http://www.w3.org/2000/svg" xmlns:xlink="http://www.w3.org/1999/xlink" x="0px" y="0px"
	 viewBox="0 0 342 156" style="enable-background:new 0 0 342 156;" xml:space="preserve">
<g style="display:none;">
	<defs>
		<path id="SVGID_1_" d="M1.4,454h338.1c9.9,0,17.9-8,17.9-17.9V-290h-374v726.1C-16.5,446-8.5,454,1.4,454z"/>
	</defs>
	<use xlink:href="#SVGID_1_"  style="display:inline;overflow:visible;fill:#2A2A2A;"/>
	<clipPath id="SVGID_2_" style="display:inline;">
		<use xlink:href="#SVGID_1_"  style="overflow:visible;"/>
	</clipPath>
</g>
<radialGradient id="SVGID_3_" cx="170.5" cy="-21.8188" r="119.7326" gradientTransform="matrix(1 0 0 -1 0 111.2803)" gradientUnits="userSpaceOnUse">
	<stop  offset="0" style="stop-color:#E3E3E3"/>
	<stop  offset="5.571397e-03" style="stop-color:#DEDEDE"/>
	<stop  offset="5.483459e-02" style="stop-color:#B7B7B7"/>
	<stop  offset="0.1092" style="stop-color:#949494"/>
	<stop  offset="0.1681" style="stop-color:#777777"/>
	<stop  offset="0.233" style="stop-color:#5F5F5F"/>
	<stop  offset="0.3067" style="stop-color:#4C4C4C"/>
	<stop  offset="0.3941" style="stop-color:#404040"/>
	<stop  offset="0.5086" style="stop-color:#383838"/>
	<stop  offset="0.7534" style="stop-color:#363636"/>
	<stop  offset="0.9327" style="stop-color:#363636"/>
	<stop  offset="0.9631" style="stop-color:#363636"/>
</radialGradient>
<polygon style="opacity:0.19;fill:url(#SVGID_3_);" points="230.9,110.2 110.1,110.2 2.7,156 338.3,156 "/>
<g style="opacity:0.45;">
	<defs>
		<rect id="SVGID_4_" x="-0.5" y="51.7" style="opacity:0.45;" width="342" height="104.2"/>
	</defs>
	<clipPath id="SVGID_5_">
		<use xlink:href="#SVGID_4_"  style="overflow:visible;"/>
	</clipPath>
	<g style="clip-path:url(#SVGID_5_);">
		<polygon style="fill:none;" points="270.2,132.9 284.2,132.9 276,129.4 263,129.4 		"/>
		<polygon style="fill:none;" points="301.8,148.2 320.1,148.2 306.2,142.3 289.6,142.3 		"/>
		<polygon style="fill:none;" points="278.9,137.1 294.1,137.1 284.4,133 270.4,133 		"/>
		<polygon style="fill:none;" points="316.9,155.8 301.8,148.4 283.4,148.4 296.3,155.8 		"/>
		<polygon style="fill:none;" points="289.3,142.2 305.9,142.2 294.4,137.3 279.2,137.3 		"/>
		<polygon style="fill:none;" points="254.1,155.8 245.5,148.4 227.1,148.4 233.5,155.8 		"/>
		<polygon style="fill:none;" points="231.3,114 239.8,114 236.6,112.7 228.5,112.7 		"/>
		<polygon style="fill:none;" points="194.3,111.4 195.4,112.6 203.5,112.6 202.1,111.4 		"/>
		<polygon style="fill:none;" points="234.4,115.5 243.3,115.5 239.9,114 231.4,114 		"/>
		<polygon style="fill:none;" points="262.8,129.3 275.7,129.3 268.7,126.3 256.6,126.3 		"/>
		<polygon style="fill:none;" points="241.7,119.1 251.7,119.1 247.4,117.2 238,117.2 		"/>
		<polygon style="fill:none;" points="233.1,155.8 226.7,148.4 208.3,148.4 212.6,155.8 		"/>
		<polygon style="fill:none;" points="237.9,117.2 247.3,117.2 243.4,115.6 234.5,115.6 		"/>
		<polygon style="fill:none;" points="256.5,126.2 268.5,126.2 262.3,123.6 251,123.6 		"/>
		<polygon style="fill:none;" points="246,121.2 256.6,121.2 251.8,119.1 241.8,119.1 		"/>
		<polygon style="fill:none;" points="250.9,123.5 262.2,123.5 256.7,121.2 246.2,121.2 		"/>
		<polygon style="fill:none;" points="295.9,155.8 283,148.4 264.6,148.4 275.4,155.8 		"/>
		<polygon style="fill:none;" points="189.7,117.2 188.7,115.6 179.8,115.6 180.2,117.2 		"/>
		<polygon style="fill:none;" points="188.7,115.5 187.8,114 179.3,114 179.7,115.5 		"/>
		<polygon style="fill:none;" points="190.8,119.1 189.7,117.2 180.3,117.2 180.8,119.1 		"/>
		<polygon style="fill:none;" points="187.8,114 187,112.7 178.9,112.7 179.3,114 		"/>
		<polygon style="fill:none;" points="186.4,111.4 187.2,112.6 195.3,112.6 194.2,111.4 		"/>
		<polygon style="fill:none;" points="192,121.2 190.8,119.1 180.8,119.1 181.4,121.2 		"/>
		<polygon style="fill:none;" points="178.5,111.4 178.9,112.6 187,112.6 186.3,111.4 		"/>
		<polygon style="fill:none;" points="212.2,155.8 207.9,148.4 189.5,148.4 191.7,155.8 		"/>
		<polygon style="fill:none;" points="204.3,142.2 201.4,137.3 186.2,137.3 187.6,142.2 		"/>
		<polygon style="fill:none;" points="193.4,123.5 192,121.2 181.4,121.2 182.1,123.5 		"/>
		<polygon style="fill:none;" points="207.8,148.2 204.3,142.3 187.7,142.3 189.4,148.2 		"/>
		<polygon style="fill:none;" points="201.3,137.1 198.9,133 184.9,133 186.2,137.1 		"/>
		<polygon style="fill:none;" points="198.9,132.9 196.8,129.4 183.9,129.4 184.9,132.9 		"/>
		<polygon style="fill:none;" points="194.9,126.2 193.4,123.6 182.1,123.6 182.9,126.2 		"/>
		<polygon style="fill:none;" points="196.8,129.3 195,126.3 182.9,126.3 183.8,129.3 		"/>
		<polygon style="fill:none;" points="275,155.8 264.2,148.4 245.8,148.4 254.5,155.8 		"/>
		<polygon style="fill:none;" points="130.9,129.4 117.9,129.4 113.8,132.9 127.8,132.9 		"/>
		<polygon style="fill:none;" points="136,123.6 124.7,123.6 121.6,126.2 133.7,126.2 		"/>
		<polygon style="fill:none;" points="133.6,126.3 121.6,126.3 118,129.3 130.9,129.3 		"/>
		<polygon style="fill:none;" points="127.7,133 113.7,133 108.9,137.1 124,137.1 		"/>
		<polygon style="fill:none;" points="93.4,137.1 108.6,137.1 113.4,133 99.4,133 		"/>
		<polygon style="fill:none;" points="86,142.2 102.7,142.2 108.4,137.3 93.2,137.3 		"/>
		<polygon style="fill:none;" points="123.9,137.3 108.7,137.3 103,142.2 119.6,142.2 		"/>
		<polygon style="fill:none;" points="140,119.1 130,119.1 127.6,121.2 138.1,121.2 		"/>
		<polygon style="fill:none;" points="144.4,114 135.9,114 134.2,115.5 143.1,115.5 		"/>
		<polygon style="fill:none;" points="145.7,112.7 137.5,112.7 136,114 144.5,114 		"/>
		<polygon style="fill:none;" points="127.3,114 135.8,114 137.4,112.7 129.3,112.7 		"/>
		<polygon style="fill:none;" points="141.6,117.2 132.2,117.2 130,119.1 140,119.1 		"/>
		<polygon style="fill:none;" points="143.1,115.6 134.1,115.6 132.2,117.2 141.7,117.2 		"/>
		<polygon style="fill:none;" points="118.6,114 127.1,114 129.1,112.7 121,112.7 		"/>
		<polygon style="fill:none;" points="138.1,121.2 127.5,121.2 124.8,123.5 136.1,123.5 		"/>
		<polygon style="fill:none;" points="233.6,111.4 231,110.3 223.6,110.3 225.9,111.4 		"/>
		<polygon style="fill:none;" points="186.3,111.4 185.6,110.3 178.2,110.3 178.5,111.4 		"/>
		<polygon style="fill:none;" points="202.1,111.4 200.7,110.3 193.3,110.3 194.3,111.4 		"/>
		<polygon style="fill:none;" points="194.2,111.4 193.2,110.3 185.8,110.3 186.4,111.4 		"/>
		<polygon style="fill:none;" points="209.9,111.4 208.3,110.3 200.9,110.3 202.2,111.4 		"/>
		<polygon style="fill:none;" points="228.5,112.6 236.6,112.6 233.7,111.4 225.9,111.4 		"/>
		<polygon style="fill:none;" points="225.7,111.4 223.4,110.3 216,110.3 218,111.4 		"/>
		<polygon style="fill:none;" points="217.8,111.4 215.9,110.3 208.5,110.3 210.1,111.4 		"/>
		<polygon style="fill:none;" points="113.3,123.5 124.6,123.5 127.3,121.2 116.7,121.2 		"/>
		<polygon style="fill:none;" points="162.6,111.4 162.9,110.3 155.5,110.3 154.8,111.4 		"/>
		<polygon style="fill:none;" points="116.8,121.2 127.4,121.2 129.8,119.1 119.8,119.1 		"/>
		<polygon style="fill:none;" points="109.4,126.2 121.4,126.2 124.5,123.6 113.2,123.6 		"/>
		<polygon style="fill:none;" points="104.9,129.3 117.8,129.3 121.3,126.3 109.3,126.3 		"/>
		<polygon style="fill:none;" points="122.6,117.2 132,117.2 134,115.6 125,115.6 		"/>
		<polygon style="fill:none;" points="135.8,114 127.3,114 125.1,115.5 134,115.5 		"/>
		<polygon style="fill:none;" points="119.9,119.1 129.8,119.1 132,117.2 122.6,117.2 		"/>
		<polygon style="fill:none;" points="99.6,132.9 113.5,132.9 117.7,129.4 104.7,129.4 		"/>
		<polygon style="fill:none;" points="232.2,137.1 227.4,133 213.4,133 217.1,137.1 		"/>
		<polygon style="fill:none;" points="255.1,142.2 247.9,137.3 232.7,137.3 238.4,142.2 		"/>
		<polygon style="fill:none;" points="238.1,142.2 232.4,137.3 217.2,137.3 221.5,142.2 		"/>
		<polygon style="fill:none;" points="272,142.2 263.4,137.3 248.2,137.3 255.4,142.2 		"/>
		<polygon style="fill:none;" points="219.5,126.2 216.4,123.6 205.1,123.6 207.4,126.2 		"/>
		<polygon style="fill:none;" points="227.3,132.9 223.2,129.4 210.3,129.4 213.3,132.9 		"/>
		<polygon style="fill:none;" points="216.3,123.5 213.6,121.2 203,121.2 205.1,123.5 		"/>
		<polygon style="fill:none;" points="223.1,129.3 219.5,126.3 207.5,126.3 210.2,129.3 		"/>
		<polygon style="fill:none;" points="212,112.7 214,114 222.5,114 220.1,112.7 		"/>
		<polygon style="fill:none;" points="218.7,117.2 221.4,119.1 231.4,119.1 228.2,117.2 		"/>
		<polygon style="fill:none;" points="216.3,115.6 218.7,117.2 228.1,117.2 225.2,115.6 		"/>
		<polygon style="fill:none;" points="214,114 216.2,115.5 225.1,115.5 222.5,114 		"/>
		<polygon style="fill:none;" points="221.5,119.1 224.5,121.2 235.1,121.2 231.5,119.1 		"/>
		<polygon style="fill:none;" points="228.1,123.6 231.9,126.2 244,126.2 239.3,123.6 		"/>
		<polygon style="fill:none;" points="232.1,126.3 236.5,129.3 249.4,129.3 244.1,126.3 		"/>
		<polygon style="fill:none;" points="224.6,121.2 228,123.5 239.2,123.5 235.2,121.2 		"/>
		<polygon style="fill:none;" points="236.6,129.4 241.8,132.9 255.7,132.9 249.6,129.4 		"/>
		<polygon style="fill:none;" points="213.5,121.2 211.1,119.1 201.2,119.1 203,121.2 		"/>
		<polygon style="fill:none;" points="247.7,137.1 241.7,133 227.7,133 232.5,137.1 		"/>
		<polygon style="fill:none;" points="213.8,121.2 216.5,123.5 227.8,123.5 224.4,121.2 		"/>
		<polygon style="fill:none;" points="216.6,123.6 219.7,126.2 231.7,126.2 227.9,123.6 		"/>
		<polygon style="fill:none;" points="223.4,129.4 227.6,132.9 241.5,132.9 236.4,129.4 		"/>
		<polygon style="fill:none;" points="317.3,155.8 337.8,155.8 320.6,148.4 302.2,148.4 		"/>
		<polygon style="fill:none;" points="219.8,126.3 223.3,129.3 236.3,129.3 231.8,126.3 		"/>
		<polygon style="fill:none;" points="196.7,114 198,115.5 206.9,115.5 205.2,114 		"/>
		<polygon style="fill:none;" points="208.9,117.2 207,115.6 198,115.6 199.5,117.2 		"/>
		<polygon style="fill:none;" points="211.1,119.1 208.9,117.2 199.5,117.2 201.1,119.1 		"/>
		<polygon style="fill:none;" points="205.3,114 207.1,115.5 216,115.5 213.9,114 		"/>
		<polygon style="fill:none;" points="211.3,119.1 213.7,121.2 224.3,121.2 221.3,119.1 		"/>
		<polygon style="fill:none;" points="209.1,117.2 211.3,119.1 221.2,119.1 218.5,117.2 		"/>
		<polygon style="fill:none;" points="207.1,115.6 209.1,117.2 218.5,117.2 216.1,115.6 		"/>
		<polygon style="fill:none;" points="244.3,126.3 249.7,129.3 262.6,129.3 256.4,126.3 		"/>
		<polygon style="fill:none;" points="235.4,121.2 239.4,123.5 250.7,123.5 245.9,121.2 		"/>
		<polygon style="fill:none;" points="202.2,111.4 203.7,112.6 211.8,112.6 210,111.4 		"/>
		<polygon style="fill:none;" points="239.6,123.6 244.2,126.2 256.2,126.2 250.8,123.6 		"/>
		<polygon style="fill:none;" points="249.8,129.4 256,132.9 270,132.9 262.8,129.4 		"/>
		<polygon style="fill:none;" points="256.2,133 263.5,137.1 278.6,137.1 270.2,133 		"/>
		<polygon style="fill:none;" points="301.4,148.2 289.2,142.3 272.6,142.3 283.1,148.2 		"/>
		<polygon style="fill:none;" points="263.7,137.3 272.3,142.2 288.9,142.2 278.9,137.3 		"/>
		<polygon style="fill:none;" points="228.3,117.2 231.6,119.1 241.5,119.1 237.8,117.2 		"/>
		<polygon style="fill:none;" points="218,111.4 220.2,112.6 228.3,112.6 225.8,111.4 		"/>
		<polygon style="fill:none;" points="210.1,111.4 211.9,112.6 220,112.6 217.9,111.4 		"/>
		<polygon style="fill:none;" points="220.3,112.7 222.6,114 231.1,114 228.4,112.7 		"/>
		<polygon style="fill:none;" points="231.7,119.1 235.3,121.2 245.8,121.2 241.6,119.1 		"/>
		<polygon style="fill:none;" points="222.7,114 225.3,115.5 234.2,115.5 231.2,114 		"/>
		<polygon style="fill:none;" points="282.7,148.2 272.3,142.3 255.6,142.3 264.3,148.2 		"/>
		<polygon style="fill:none;" points="225.4,115.6 228.3,117.2 237.7,117.2 234.3,115.6 		"/>
		<polygon style="fill:none;" points="216.8,137.1 213.2,133 199.2,133 201.6,137.1 		"/>
		<polygon style="fill:none;" points="200.9,119.1 199.3,117.2 189.9,117.2 191,119.1 		"/>
		<polygon style="fill:none;" points="199.3,117.2 197.8,115.6 188.9,115.6 189.8,117.2 		"/>
		<polygon style="fill:none;" points="202.8,121.2 201,119.1 191,119.1 192.2,121.2 		"/>
		<polygon style="fill:none;" points="197.8,115.5 196.5,114 188,114 188.9,115.5 		"/>
		<polygon style="fill:none;" points="204.8,123.5 202.8,121.2 192.2,121.2 193.6,123.5 		"/>
		<polygon style="fill:none;" points="195.4,112.7 196.6,114 205.1,114 203.6,112.7 		"/>
		<polygon style="fill:none;" points="187.2,112.7 188,114 196.5,114 195.3,112.7 		"/>
		<polygon style="fill:none;" points="213.1,132.9 210,129.4 197.1,129.4 199.1,132.9 		"/>
		<polygon style="fill:none;" points="226.5,148.2 221.3,142.3 204.7,142.3 208.2,148.2 		"/>
		<polygon style="fill:none;" points="245.3,148.2 238.3,142.3 221.6,142.3 226.9,148.2 		"/>
		<polygon style="fill:none;" points="221.2,142.2 216.9,137.3 201.7,137.3 204.6,142.2 		"/>
		<polygon style="fill:none;" points="264,148.2 255.3,142.3 238.6,142.3 245.6,148.2 		"/>
		<polygon style="fill:none;" points="209.9,129.3 207.3,126.3 195.2,126.3 197,129.3 		"/>
		<polygon style="fill:none;" points="207.2,126.2 204.9,123.6 193.6,123.6 195.2,126.2 		"/>
		<polygon style="fill:none;" points="203.7,112.7 205.3,114 213.8,114 211.8,112.7 		"/>
		<polygon style="fill:none;" points="241.9,133 248,137.1 263.2,137.1 255.9,133 		"/>
		<polygon style="fill:none;" points="147.1,165.3 170.3,165.3 170.4,156 149.8,156 		"/>
		<polygon style="fill:none;" points="107.8,156 99.6,165.3 122.9,165.3 128.4,156 		"/>
		<polygon style="fill:none;" points="86.8,156 75.9,165.3 99.1,165.3 107.4,156 		"/>
		<polygon style="fill:none;" points="128.8,156 123.3,165.3 146.6,165.3 149.4,156 		"/>
		<polygon style="fill:none;" points="65.8,156 52.1,165.3 75.4,165.3 86.4,156 		"/>
		<polygon style="fill:none;" points="39,148.4 20.5,148.4 3.3,155.8 23.8,155.8 		"/>
		<polygon style="fill:none;" points="44.8,156 28.4,165.3 51.7,165.3 65.4,156 		"/>
		<polygon style="fill:none;" points="23.8,156 4.7,165.3 28,165.3 44.4,156 		"/>
		<polygon style="fill:none;" points="2.8,156 -19,165.3 4.2,165.3 23.4,156 		"/>
		<polygon style="fill:none;" points="157.5,129.3 170.4,129.3 170.4,126.3 158.4,126.3 		"/>
		<polygon style="fill:none;" points="159.2,123.5 170.4,123.5 170.4,121.2 159.9,121.2 		"/>
		<polygon style="fill:none;" points="156.5,132.9 170.4,132.9 170.4,129.4 157.5,129.4 		"/>
		<polygon style="fill:none;" points="155.2,137.1 170.4,137.1 170.4,133 156.4,133 		"/>
		<polygon style="fill:none;" points="152,148.2 170.4,148.2 170.4,142.3 153.7,142.3 		"/>
		<polygon style="fill:none;" points="149.8,155.8 170.4,155.8 170.4,148.4 152,148.4 		"/>
		<polygon style="fill:none;" points="153.8,142.2 170.4,142.2 170.4,137.3 155.2,137.3 		"/>
		<polygon style="fill:none;" points="115.2,111.4 107.4,111.4 104.5,112.6 112.6,112.6 		"/>
		<polygon style="fill:none;" points="103.1,117.2 93.7,117.2 89.4,119.1 99.4,119.1 		"/>
		<polygon style="fill:none;" points="106.6,115.6 97.7,115.6 93.8,117.2 103.2,117.2 		"/>
		<polygon style="fill:none;" points="112.6,112.7 104.5,112.7 101.3,114 109.8,114 		"/>
		<polygon style="fill:none;" points="109.7,114 101.2,114 97.8,115.5 106.7,115.5 		"/>
		<polygon style="fill:none;" points="123.1,111.4 125.1,110.3 117.7,110.3 115.4,111.4 		"/>
		<polygon style="fill:none;" points="117.5,110.3 110.1,110.3 107.5,111.4 115.2,111.4 		"/>
		<polygon style="fill:none;" points="159.9,121.2 170.4,121.2 170.5,119.1 160.5,119.1 		"/>
		<polygon style="fill:none;" points="84.5,126.3 72.4,126.3 65.4,129.3 78.3,129.3 		"/>
		<polygon style="fill:none;" points="99.3,119.1 89.3,119.1 84.5,121.2 95.1,121.2 		"/>
		<polygon style="fill:none;" points="70.7,133 56.7,133 47,137.1 62.2,137.1 		"/>
		<polygon style="fill:none;" points="61.9,137.3 46.7,137.3 35.2,142.2 51.9,142.2 		"/>
		<polygon style="fill:none;" points="78.1,129.4 65.1,129.4 56.9,132.9 70.9,132.9 		"/>
		<polygon style="fill:none;" points="94.9,121.2 84.4,121.2 78.9,123.5 90.2,123.5 		"/>
		<polygon style="fill:none;" points="51.5,142.3 34.9,142.3 21,148.2 39.3,148.2 		"/>
		<polygon style="fill:none;" points="90.1,123.6 78.8,123.6 72.6,126.2 84.6,126.2 		"/>
		<polygon style="fill:none;" points="160.5,119.1 170.5,119.1 170.5,117.2 161,117.2 		"/>
		<polygon style="fill:none;" points="170.8,156 170.8,165.3 194.1,165.3 191.4,156 		"/>
		<polygon style="fill:none;" points="212.7,156 218.2,165.3 241.5,165.3 233.3,156 		"/>
		<polygon style="fill:none;" points="183.6,129.4 170.7,129.4 170.7,132.9 184.6,132.9 		"/>
		<polygon style="fill:none;" points="191.7,156 194.5,165.3 217.8,165.3 212.3,156 		"/>
		<polygon style="fill:none;" points="187.4,142.3 170.7,142.3 170.7,148.2 189.1,148.2 		"/>
		<polygon style="fill:none;" points="184.7,133 170.7,133 170.7,137.1 185.9,137.1 		"/>
		<polygon style="fill:none;" points="185.9,137.3 170.7,137.3 170.7,142.2 187.3,142.2 		"/>
		<polygon style="fill:none;" points="189.1,148.4 170.7,148.4 170.8,155.8 191.3,155.8 		"/>
		<polygon style="fill:none;" points="116,115.5 124.9,115.5 127.1,114 118.6,114 		"/>
		<polygon style="fill:none;" points="338.3,156 317.7,156 336.9,165.3 360.1,165.3 		"/>
		<polygon style="fill:none;" points="296.7,156 313.1,165.3 336.4,165.3 317.3,156 		"/>
		<polygon style="fill:none;" points="254.7,156 265.7,165.3 289,165.3 275.3,156 		"/>
		<polygon style="fill:none;" points="233.7,156 242,165.3 265.2,165.3 254.3,156 		"/>
		<polygon style="fill:none;" points="275.7,156 289.4,165.3 312.7,165.3 296.3,156 		"/>
		<polygon style="fill:none;" points="180.6,119.1 170.6,119.1 170.7,121.2 181.2,121.2 		"/>
		<polygon style="fill:none;" points="182.7,126.3 170.7,126.3 170.7,129.3 183.6,129.3 		"/>
		<polygon style="fill:none;" points="178,110.3 170.6,110.3 170.6,111.4 178.4,111.4 		"/>
		<polygon style="fill:none;" points="178.4,111.4 170.6,111.4 170.6,112.6 178.7,112.6 		"/>
		<polygon style="fill:none;" points="162.4,112.6 170.5,112.6 170.5,111.4 162.7,111.4 		"/>
		<polygon style="fill:none;" points="161,117.2 170.5,117.2 170.5,115.6 161.5,115.6 		"/>
		<polygon style="fill:none;" points="161.5,115.5 170.5,115.5 170.5,114 162,114 		"/>
		<polygon style="fill:none;" points="162,114 170.5,114 170.5,112.7 162.4,112.7 		"/>
		<polygon style="fill:none;" points="162.7,111.4 170.5,111.4 170.5,110.3 163.1,110.3 		"/>
		<polygon style="fill:none;" points="181.2,121.2 170.7,121.2 170.7,123.5 181.9,123.5 		"/>
		<polygon style="fill:none;" points="181.9,123.6 170.7,123.6 170.7,126.2 182.7,126.2 		"/>
		<polygon style="fill:none;" points="178.7,112.7 170.6,112.7 170.6,114 179.1,114 		"/>
		<polygon style="fill:none;" points="131,111.4 132.6,110.3 125.2,110.3 123.3,111.4 		"/>
		<polygon style="fill:none;" points="180.1,117.2 170.6,117.2 170.6,119.1 180.6,119.1 		"/>
		<polygon style="fill:none;" points="179.1,114 170.6,114 170.6,115.5 179.6,115.5 		"/>
		<polygon style="fill:none;" points="179.6,115.6 170.6,115.6 170.6,117.2 180.1,117.2 		"/>
		<polygon style="fill:none;" points="158.4,126.2 170.4,126.2 170.4,123.6 159.2,123.6 		"/>
		<polygon style="fill:none;" points="150.1,119.1 140.1,119.1 138.3,121.2 148.9,121.2 		"/>
		<polygon style="fill:none;" points="152.2,115.6 143.3,115.6 141.8,117.2 151.3,117.2 		"/>
		<polygon style="fill:none;" points="151.2,117.2 141.8,117.2 140.2,119.1 150.2,119.1 		"/>
		<polygon style="fill:none;" points="153.9,112.7 145.8,112.7 144.6,114 153.1,114 		"/>
		<polygon style="fill:none;" points="153.1,114 144.6,114 143.3,115.5 152.2,115.5 		"/>
		<polygon style="fill:none;" points="145.9,126.3 133.8,126.3 131.2,129.3 144.1,129.3 		"/>
		<polygon style="fill:none;" points="148.9,121.2 138.3,121.2 136.3,123.5 147.5,123.5 		"/>
		<polygon style="fill:none;" points="147.5,123.6 136.2,123.6 133.9,126.2 145.9,126.2 		"/>
		<polygon style="fill:none;" points="121.1,112.6 129.2,112.6 131,111.4 123.2,111.4 		"/>
		<polygon style="fill:none;" points="112.8,112.6 120.9,112.6 123.1,111.4 115.3,111.4 		"/>
		<polygon style="fill:none;" points="110,114 118.5,114 120.8,112.7 112.7,112.7 		"/>
		<polygon style="fill:none;" points="106.9,115.5 115.8,115.5 118.4,114 109.9,114 		"/>
		<polygon style="fill:none;" points="129.3,112.6 137.4,112.6 138.9,111.4 131.1,111.4 		"/>
		<polygon style="fill:none;" points="144,129.4 131.1,129.4 128,132.9 142,132.9 		"/>
		<polygon style="fill:none;" points="137.6,112.6 145.7,112.6 146.8,111.4 139,111.4 		"/>
		<polygon style="fill:none;" points="103.4,117.2 112.8,117.2 115.7,115.6 106.8,115.6 		"/>
		<polygon style="fill:none;" points="154.7,111.4 146.9,111.4 145.8,112.6 154,112.6 		"/>
		<polygon style="fill:none;" points="85.4,132.9 99.3,132.9 104.5,129.4 91.5,129.4 		"/>
		<polygon style="fill:none;" points="97.1,126.2 109.2,126.2 113,123.6 101.8,123.6 		"/>
		<polygon style="fill:none;" points="91.7,129.3 104.6,129.3 109,126.3 97,126.3 		"/>
		<polygon style="fill:none;" points="101.9,123.5 113.1,123.5 116.5,121.2 105.9,121.2 		"/>
		<polygon style="fill:none;" points="106,121.2 116.6,121.2 119.6,119.1 109.6,119.1 		"/>
		<polygon style="fill:none;" points="138.9,111.4 140.2,110.3 132.8,110.3 131.2,111.4 		"/>
		<polygon style="fill:none;" points="113,117.2 122.4,117.2 124.9,115.6 115.9,115.6 		"/>
		<polygon style="fill:none;" points="141.9,133 127.9,133 124.3,137.1 139.5,137.1 		"/>
		<polygon style="fill:none;" points="77.9,137.1 93.1,137.1 99.2,133 85.2,133 		"/>
		<polygon style="fill:none;" points="136.4,142.3 119.8,142.3 114.6,148.2 132.9,148.2 		"/>
		<polygon style="fill:none;" points="139.4,137.3 124.2,137.3 119.9,142.2 136.5,142.2 		"/>
		<polygon style="fill:none;" points="119.5,142.3 102.8,142.3 95.8,148.2 114.2,148.2 		"/>
		<polygon style="fill:none;" points="69.1,142.2 85.7,142.2 92.9,137.3 77.7,137.3 		"/>
		<polygon style="fill:none;" points="58.4,148.2 76.8,148.2 85.5,142.3 68.8,142.3 		"/>
		<polygon style="fill:none;" points="102.5,142.3 85.8,142.3 77.1,148.2 95.5,148.2 		"/>
		<polygon style="fill:none;" points="109.7,119.1 119.7,119.1 122.4,117.2 112.9,117.2 		"/>
		<polygon style="fill:none;" points="157.2,129.4 144.3,129.4 142.2,132.9 156.2,132.9 		"/>
		<polygon style="fill:none;" points="159,123.6 147.7,123.6 146.2,126.2 158.2,126.2 		"/>
		<polygon style="fill:none;" points="158.2,126.3 146.1,126.3 144.3,129.3 157.3,129.3 		"/>
		<polygon style="fill:none;" points="151.6,148.4 133.2,148.4 128.9,155.8 149.4,155.8 		"/>
		<polygon style="fill:none;" points="156.2,133 142.2,133 139.8,137.1 154.9,137.1 		"/>
		<polygon style="fill:none;" points="153.4,142.3 136.8,142.3 133.3,148.2 151.7,148.2 		"/>
		<polygon style="fill:none;" points="160.3,119.1 150.3,119.1 149.1,121.2 159.7,121.2 		"/>
		<polygon style="fill:none;" points="154.9,137.3 139.7,137.3 136.8,142.2 153.5,142.2 		"/>
		<polygon style="fill:none;" points="159.7,121.2 149.1,121.2 147.7,123.5 159,123.5 		"/>
		<polygon style="fill:none;" points="99.6,119.1 109.5,119.1 112.8,117.2 103.3,117.2 		"/>
		<polygon style="fill:none;" points="162.6,111.4 154.8,111.4 154.1,112.6 162.2,112.6 		"/>
		<polygon style="fill:none;" points="154.7,111.4 155.3,110.3 147.9,110.3 146.9,111.4 		"/>
		<polygon style="fill:none;" points="160.8,117.2 151.4,117.2 150.3,119.1 160.3,119.1 		"/>
		<polygon style="fill:none;" points="161.3,115.6 152.4,115.6 151.4,117.2 160.9,117.2 		"/>
		<polygon style="fill:none;" points="162.2,112.7 154.1,112.7 153.3,114 161.8,114 		"/>
		<polygon style="fill:none;" points="161.8,114 153.3,114 152.4,115.5 161.4,115.5 		"/>
		<polygon style="fill:none;" points="132.8,148.4 114.4,148.4 108,155.8 128.5,155.8 		"/>
		<polygon style="fill:none;" points="78.5,129.3 91.4,129.3 96.8,126.3 84.7,126.3 		"/>
		<polygon style="fill:none;" points="84.9,126.2 96.9,126.2 101.5,123.6 90.3,123.6 		"/>
		<polygon style="fill:none;" points="71.1,132.9 85.1,132.9 91.3,129.4 78.3,129.4 		"/>
		<polygon style="fill:none;" points="146.8,111.4 147.8,110.3 140.4,110.3 139.1,111.4 		"/>
		<polygon style="fill:none;" points="62.5,137.1 77.6,137.1 84.9,133 70.9,133 		"/>
		<polygon style="fill:none;" points="95.3,121.2 105.8,121.2 109.4,119.1 99.5,119.1 		"/>
		<polygon style="fill:none;" points="90.4,123.5 101.7,123.5 105.7,121.2 95.2,121.2 		"/>
		<polygon style="fill:none;" points="24.2,155.8 44.8,155.8 57.7,148.4 39.3,148.4 		"/>
		<polygon style="fill:none;" points="76.5,148.4 58.1,148.4 45.2,155.8 65.7,155.8 		"/>
		<polygon style="fill:none;" points="114,148.4 95.6,148.4 87,155.8 107.6,155.8 		"/>
		<polygon style="fill:none;" points="39.7,148.2 58,148.2 68.5,142.3 51.9,142.3 		"/>
		<polygon style="fill:none;" points="52.2,142.2 68.8,142.2 77.4,137.3 62.2,137.3 		"/>
		<polygon style="fill:none;" points="95.3,148.4 76.9,148.4 66.1,155.8 86.6,155.8 		"/>
		<path style="fill:#FFFFFF;" d="M231.1,110.2H110l-130.2,55.3h381.5L231.1,110.2z M337.8,155.8h-20.5l-15.1-7.3h18.4L337.8,155.8z
			 M227.6,132.9l-4.1-3.5h12.9l5.1,3.5H227.6z M241.7,133l6,4.1h-15.2l-4.8-4.1H241.7z M223.3,129.3l-3.6-3h12l4.4,3H223.3z
			 M219.7,126.2l-3.1-2.6h11.3l3.9,2.6H219.7z M216.5,123.5l-2.7-2.3h10.6l3.4,2.3H216.5z M213.7,121.2l-2.4-2h10l3,2H213.7z
			 M211.3,119.1l-2.1-1.8h9.4l2.7,1.8H211.3z M209.1,117.2l-1.9-1.6h8.9l2.4,1.6H209.1z M207.1,115.5l-1.7-1.5h8.5l2.2,1.5H207.1z
			 M206.9,115.5H198l-1.3-1.5h8.5L206.9,115.5z M207,115.6l1.9,1.6h-9.4l-1.4-1.6H207z M208.9,117.2l2.1,1.8h-10l-1.6-1.8H208.9z
			 M211.1,119.1l2.4,2H203l-1.8-2H211.1z M213.6,121.2l2.7,2.3h-11.2l-2-2.3H213.6z M216.4,123.6l3.1,2.6h-12l-2.3-2.6H216.4z
			 M219.5,126.3l3.5,3h-12.9l-2.7-3H219.5z M223.2,129.4l4.1,3.5h-13.9l-3.1-3.5H223.2z M227.4,133l4.8,4.1h-15.2l-3.6-4.1H227.4z
			 M232.4,137.3l5.7,4.9h-16.6l-4.3-4.9H232.4z M232.7,137.3h15.2l7.2,4.9h-16.6L232.7,137.3z M248.2,137.3h15.2l8.6,4.9h-16.6
			L248.2,137.3z M248,137.1l-6.1-4.1h14l7.2,4.1H248z M241.8,132.9l-5.2-3.5h12.9l6.2,3.5H241.8z M236.5,129.3l-4.4-3h12l5.3,3
			H236.5z M231.9,126.2l-3.9-2.6h11.3l4.6,2.6H231.9z M228,123.5l-3.4-2.3h10.6l4.1,2.3H228z M224.5,121.2l-3-2h10l3.6,2H224.5z
			 M221.4,119.1l-2.7-1.8h9.4l3.2,1.8H221.4z M218.7,117.2l-2.4-1.6h8.9l2.9,1.6H218.7z M216.2,115.5L214,114h8.5l2.6,1.5H216.2z
			 M214,114l-2-1.3h8.1l2.4,1.3H214z M213.8,114h-8.5l-1.6-1.3h8.1L213.8,114z M205.1,114h-8.5l-1.2-1.3h8.1L205.1,114z M196.5,114
			H188l-0.8-1.3h8.1L196.5,114z M196.5,114l1.3,1.5h-8.9L188,114H196.5z M197.8,115.6l1.4,1.6h-9.4l-1-1.6H197.8z M199.3,117.2
			l1.6,1.8h-10l-1.1-1.8H199.3z M201,119.1l1.8,2h-10.6l-1.2-2H201z M202.8,121.2l2,2.3h-11.2l-1.4-2.3H202.8z M204.9,123.6l2.3,2.6
			h-12l-1.6-2.6H204.9z M207.3,126.3l2.7,3H197l-1.8-3H207.3z M210,129.4l3.1,3.5h-13.9l-2.1-3.5H210z M213.2,133l3.6,4.1h-15.2
			l-2.4-4.1H213.2z M216.9,137.3l4.3,4.9h-16.6l-2.9-4.9H216.9z M221.3,142.3l5.2,5.9h-18.4l-3.5-5.9H221.3z M221.6,142.3h16.7
			l7,5.9h-18.4L221.6,142.3z M238.6,142.3h16.7l8.7,5.9h-18.4L238.6,142.3z M255.6,142.3h16.7l10.4,5.9h-18.4L255.6,142.3z
			 M272.6,142.3h16.7l12.2,5.9h-18.4L272.6,142.3z M272.3,142.2l-8.6-4.9h15.2l10.1,4.9H272.3z M263.5,137.1l-7.3-4.1h14l8.4,4.1
			H263.5z M256,132.9l-6.2-3.5h12.9l7.2,3.5H256z M249.7,129.3l-5.3-3h12l6.2,3H249.7z M244.2,126.2l-4.6-2.6h11.3l5.4,2.6H244.2z
			 M239.4,123.5l-4.1-2.3h10.6l4.7,2.3H239.4z M235.3,121.2l-3.6-2h10l4.2,2H235.3z M231.6,119.1l-3.2-1.8h9.4l3.7,1.8H231.6z
			 M228.3,117.2l-2.9-1.6h8.9l3.4,1.6H228.3z M225.3,115.5l-2.6-1.5h8.5l3,1.5H225.3z M222.6,114l-2.4-1.3h8.1l2.7,1.3H222.6z
			 M220.2,112.6l-2.2-1.2h7.8l2.5,1.2H220.2z M220,112.6h-8.1l-1.8-1.2h7.8L220,112.6z M211.8,112.6h-8.1l-1.4-1.2h7.8L211.8,112.6z
			 M203.5,112.6h-8.1l-1.1-1.2h7.8L203.5,112.6z M195.3,112.6h-8.1l-0.7-1.2h7.8L195.3,112.6z M187,112.6h-8.1l-0.4-1.2h7.8
			L187,112.6z M187,112.7l0.8,1.3h-8.5l-0.4-1.3H187z M187.8,114l0.9,1.5h-8.9l-0.4-1.5H187.8z M188.7,115.6l1,1.6h-9.4l-0.5-1.6
			H188.7z M189.7,117.2l1.1,1.8h-10l-0.5-1.8H189.7z M190.8,119.1l1.2,2h-10.6l-0.6-2H190.8z M192,121.2l1.3,2.3h-11.2l-0.7-2.3H192
			z M193.4,123.6l1.5,2.6h-12l-0.8-2.6H193.4z M195,126.3l1.8,3h-12.9l-0.9-3H195z M196.8,129.4l2,3.5h-14l-1-3.5H196.8z M198.9,133
			l2.4,4.1h-15.2l-1.2-4.1H198.9z M201.4,137.3l2.9,4.9h-16.6l-1.5-4.9H201.4z M204.3,142.3l3.5,5.9h-18.4l-1.8-5.9H204.3z
			 M207.9,148.4l4.3,7.3h-20.5l-2.2-7.3H207.9z M208.3,148.4h18.4l6.4,7.3h-20.5L208.3,148.4z M227.1,148.4h18.4l8.6,7.3h-20.5
			L227.1,148.4z M245.8,148.4h18.4l10.8,7.3h-20.5L245.8,148.4z M264.6,148.4H283l12.9,7.3h-20.5L264.6,148.4z M283.4,148.4h18.4
			l15.1,7.3h-20.5L283.4,148.4z M320.1,148.2h-18.4l-12.2-5.9h16.7L320.1,148.2z M305.9,142.2h-16.6l-10.1-4.9h15.2L305.9,142.2z
			 M294.1,137.1h-15.2l-8.5-4.1h14L294.1,137.1z M284.2,132.9h-13.9l-7.2-3.5H276L284.2,132.9z M275.7,129.3h-12.9l-6.2-3h12
			L275.7,129.3z M268.5,126.2h-12l-5.4-2.6h11.3L268.5,126.2z M262.2,123.5h-11.2l-4.8-2.3h10.6L262.2,123.5z M256.6,121.2H246
			l-4.2-2h10L256.6,121.2z M251.7,119.1h-10l-3.8-1.8h9.4L251.7,119.1z M247.3,117.2h-9.4l-3.4-1.6h8.9L247.3,117.2z M243.3,115.5
			h-8.9l-3-1.5h8.5L243.3,115.5z M239.8,114h-8.5l-2.8-1.3h8.1L239.8,114z M236.6,112.6h-8.1l-2.5-1.2h7.8L236.6,112.6z M231,110.3
			l2.6,1.1h-7.7l-2.3-1.1H231z M223.4,110.3l2.3,1.1H218l-2-1.1H223.4z M215.9,110.3l2,1.1h-7.7l-1.6-1.1H215.9z M208.3,110.3
			l1.6,1.1h-7.7l-1.3-1.1H208.3z M200.7,110.3l1.3,1.1h-7.7l-1-1.1H200.7z M193.2,110.3l1,1.1h-7.7l-0.7-1.1H193.2z M185.6,110.3
			l0.7,1.1h-7.7l-0.3-1.1H185.6z M162.9,110.3l-0.3,1.1h-7.7l0.7-1.1H162.9z M134,115.6l-1.9,1.6h-9.4l2.4-1.6H134z M125.1,115.5
			l2.2-1.5h8.5l-1.7,1.5H125.1z M132,117.2l-2.1,1.8h-10l2.7-1.8H132z M129.8,119.1l-2.4,2h-10.6l3-2H129.8z M127.3,121.2l-2.7,2.3
			h-11.2l3.4-2.3H127.3z M124.5,123.6l-3.1,2.6h-12l3.9-2.6H124.5z M121.3,126.3l-3.6,3h-12.9l4.4-3H121.3z M117.7,129.4l-4.1,3.5
			H99.6l5.1-3.5H117.7z M113.4,133l-4.8,4.1H93.4l6-4.1H113.4z M108.4,137.3l-5.8,4.9H86l7.2-4.9H108.4z M108.7,137.3h15.2l-4.3,4.9
			H103L108.7,137.3z M108.9,137.1l4.8-4.1h14l-3.6,4.1H108.9z M113.8,132.9l4.1-3.5h12.9l-3.1,3.5H113.8z M118,129.3l3.5-3h12
			l-2.7,3H118z M121.6,126.2l3.1-2.6H136l-2.3,2.6H121.6z M124.8,123.5l2.7-2.3h10.6l-2,2.3H124.8z M127.6,121.2l2.4-2h10l-1.8,2
			H127.6z M130,119.1l2.1-1.8h9.4l-1.6,1.8H130z M132.2,117.2l1.9-1.6h8.9l-1.4,1.6H132.2z M134.2,115.5l1.7-1.5h8.5l-1.3,1.5H134.2
			z M136,114l1.6-1.3h8.1l-1.2,1.3H136z M135.8,114h-8.5l2-1.3h8.1L135.8,114z M127.1,114h-8.5l2.4-1.3h8.1L127.1,114z M127.1,114
			l-2.2,1.5H116l2.6-1.5H127.1z M124.9,115.6l-2.4,1.6H113l2.9-1.6H124.9z M122.4,117.2l-2.7,1.8h-10l3.2-1.8H122.4z M119.6,119.1
			l-3,2H106l3.6-2H119.6z M116.5,121.2l-3.4,2.3h-11.2l4.1-2.3H116.5z M113,123.6l-3.9,2.6h-12l4.6-2.6H113z M109,126.3l-4.4,3H91.7
			l5.3-3H109z M104.5,129.4l-5.2,3.5h-14l6.2-3.5H104.5z M99.2,133l-6.1,4.1H77.9l7.2-4.1H99.2z M92.9,137.3l-7.2,4.9H69.1l8.6-4.9
			H92.9z M85.5,142.3l-8.7,5.9H58.4l10.4-5.9H85.5z M85.8,142.3h16.7l-7,5.9H77.1L85.8,142.3z M102.8,142.3h16.7l-5.2,5.9H95.8
			L102.8,142.3z M119.8,142.3h16.7l-3.5,5.9h-18.4L119.8,142.3z M119.9,142.2l4.3-4.9h15.2l-2.9,4.9H119.9z M124.3,137.1l3.6-4.1h14
			l-2.4,4.1H124.3z M128,132.9l3.1-3.5H144l-2.1,3.5H128z M131.2,129.3l2.7-3h12l-1.8,3H131.2z M133.9,126.2l2.3-2.6h11.3l-1.6,2.6
			H133.9z M136.3,123.5l2-2.3h10.6l-1.4,2.3H136.3z M138.3,121.2l1.8-2h10l-1.2,2H138.3z M140.2,119.1l1.6-1.8h9.4l-1.1,1.8H140.2z
			 M141.8,117.2l1.4-1.6h8.9l-1,1.6H141.8z M143.3,115.5l1.3-1.5h8.5l-0.9,1.5H143.3z M144.6,114l1.2-1.3h8.1l-0.8,1.3H144.6z
			 M145.8,112.6l1.1-1.2h7.8l-0.7,1.2H145.8z M145.7,112.6h-8.1l1.4-1.2h7.8L145.7,112.6z M137.4,112.6h-8.1l1.8-1.2h7.8
			L137.4,112.6z M129.2,112.6h-8.1l2.1-1.2h7.8L129.2,112.6z M120.9,112.6h-8.1l2.5-1.2h7.8L120.9,112.6z M120.8,112.7l-2.4,1.3H110
			l2.7-1.3H120.8z M118.4,114l-2.6,1.5h-8.9l3-1.5H118.4z M115.7,115.6l-2.9,1.6h-9.4l3.4-1.6H115.7z M112.8,117.2l-3.2,1.8h-10
			l3.7-1.8H112.8z M109.4,119.1l-3.6,2H95.3l4.2-2H109.4z M105.7,121.2l-4.1,2.3H90.4l4.7-2.3H105.7z M101.5,123.6l-4.6,2.6h-12
			l5.4-2.6H101.5z M96.8,126.3l-5.3,3H78.5l6.2-3H96.8z M91.3,129.4l-6.2,3.5H71.1l7.2-3.5H91.3z M84.9,133l-7.3,4.1H62.5l8.4-4.1
			H84.9z M77.4,137.3l-8.6,4.9H52.2l10.1-4.9H77.4z M68.5,142.3L58,148.2H39.7l12.2-5.9H68.5z M57.7,148.4l-13,7.3H24.2l15.1-7.3
			H57.7z M58.1,148.4h18.4l-10.8,7.3H45.2L58.1,148.4z M76.9,148.4h18.4l-8.6,7.3H66.1L76.9,148.4z M95.6,148.4H114l-6.5,7.3H87
			L95.6,148.4z M114.4,148.4h18.4l-4.3,7.3H108L114.4,148.4z M133.2,148.4h18.4l-2.2,7.3h-20.5L133.2,148.4z M133.3,148.2l3.5-5.9
			h16.7l-1.8,5.9H133.3z M136.8,142.2l2.9-4.9h15.2l-1.5,4.9H136.8z M139.8,137.1l2.4-4.1h14l-1.2,4.1H139.8z M142.2,132.9l2-3.5
			h12.9l-1,3.5H142.2z M144.3,129.3l1.8-3h12l-0.9,3H144.3z M146.2,126.2l1.5-2.6H159l-0.8,2.6H146.2z M147.7,123.5l1.3-2.3h10.6
			l-0.7,2.3H147.7z M149.1,121.2l1.2-2h10l-0.6,2H149.1z M150.3,119.1l1.1-1.8h9.4l-0.5,1.8H150.3z M151.4,117.2l1-1.6h8.9l-0.5,1.6
			H151.4z M152.4,115.5l0.9-1.5h8.5l-0.4,1.5H152.4z M153.3,114l0.8-1.3h8.1l-0.4,1.3H153.3z M154.1,112.6l0.7-1.2h7.8l-0.4,1.2
			H154.1z M155.3,110.3l-0.7,1.1h-7.7l1-1.1H155.3z M147.8,110.3l-1,1.1h-7.7l1.3-1.1H147.8z M140.2,110.3l-1.3,1.1h-7.7l1.6-1.1
			H140.2z M132.6,110.3l-1.6,1.1h-7.7l2-1.1H132.6z M125.1,110.3l-2,1.1h-7.7l2.3-1.1H125.1z M110.1,110.3h7.4l-2.3,1.1h-7.7
			L110.1,110.3z M107.4,111.4h7.8l-2.5,1.2h-8.1L107.4,111.4z M104.5,112.7h8.1l-2.8,1.3h-8.5L104.5,112.7z M101.2,114h8.5l-3,1.5
			h-8.9L101.2,114z M97.7,115.6h8.9l-3.4,1.6h-9.4L97.7,115.6z M93.7,117.2h9.4l-3.8,1.8h-10L93.7,117.2z M89.3,119.1h10l-4.2,2
			H84.5L89.3,119.1z M84.4,121.2h10.6l-4.8,2.3H78.9L84.4,121.2z M78.8,123.6h11.3l-5.4,2.6h-12L78.8,123.6z M72.4,126.3h12l-6.2,3
			H65.4L72.4,126.3z M65.1,129.4h12.9l-7.2,3.5H56.9L65.1,129.4z M56.7,133h14l-8.5,4.1H47L56.7,133z M46.7,137.3h15.2l-10.1,4.9
			H35.2L46.7,137.3z M34.9,142.3h16.7l-12.2,5.9H21L34.9,142.3z M20.5,148.4H39l-15.1,7.3H3.3L20.5,148.4z M-19,165.3L2.8,156h20.6
			l-19.1,9.3H-19z M4.7,165.3l19.1-9.3h20.6L28,165.3H4.7z M28.4,165.3l16.4-9.3h20.6l-13.7,9.3H28.4z M52.1,165.3l13.6-9.3h20.6
			l-11,9.3H52.1z M75.9,165.3l10.9-9.3h20.6l-8.2,9.3H75.9z M99.6,165.3l8.2-9.3h20.6l-5.5,9.3H99.6z M123.3,165.3l5.4-9.3h20.6
			l-2.8,9.3H123.3z M170.3,165.3h-23.3l2.7-9.3h20.6L170.3,165.3z M170.4,155.8h-20.5l2.1-7.3h18.4L170.4,155.8z M170.4,148.2H152
			l1.7-5.9h16.7L170.4,148.2z M170.4,142.2h-16.6l1.4-4.9h15.2L170.4,142.2z M170.4,137.1h-15.2l1.2-4.1h14L170.4,137.1z
			 M170.4,132.9h-13.9l1-3.5h12.9L170.4,132.9z M170.4,129.3h-12.9l0.9-3h12L170.4,129.3z M170.4,126.2h-12l0.8-2.6h11.3
			L170.4,126.2z M170.4,123.5h-11.2l0.7-2.3h10.6L170.4,123.5z M170.4,121.2h-10.6l0.6-2h10L170.4,121.2z M170.5,119.1h-10l0.5-1.8
			h9.4L170.5,119.1z M170.5,117.2H161l0.5-1.6h8.9L170.5,117.2z M170.5,115.5h-8.9l0.4-1.5h8.5L170.5,115.5z M170.5,114H162l0.4-1.3
			h8.1L170.5,114z M170.5,112.6h-8.1l0.4-1.2h7.8L170.5,112.6z M170.5,111.4h-7.7l0.3-1.1h7.4L170.5,111.4z M170.6,110.3h7.4
			l0.3,1.1h-7.7L170.6,110.3z M170.6,111.4h7.8l0.4,1.2h-8.1L170.6,111.4z M170.6,112.7h8.1l0.4,1.3h-8.5L170.6,112.7z M170.6,114
			h8.5l0.4,1.5h-8.9L170.6,114z M170.6,115.6h8.9l0.5,1.6h-9.4L170.6,115.6z M170.6,117.2h9.4l0.5,1.8h-10L170.6,117.2z
			 M170.6,119.1h10l0.6,2h-10.6L170.6,119.1z M170.7,121.2h10.6l0.7,2.3h-11.2L170.7,121.2z M170.7,123.6h11.3l0.8,2.6h-12
			L170.7,123.6z M170.7,126.3h12l0.9,3h-12.9L170.7,126.3z M170.7,129.4h12.9l1,3.5h-14L170.7,129.4z M170.7,133h14l1.2,4.1h-15.2
			L170.7,133z M170.7,137.3h15.2l1.4,4.9h-16.6L170.7,137.3z M170.7,142.3h16.7l1.7,5.9h-18.4L170.7,142.3z M170.7,148.4h18.4
			l2.1,7.3h-20.5L170.7,148.4z M170.8,165.3l0-9.3h20.6l2.7,9.3H170.8z M194.5,165.3l-2.8-9.3h20.6l5.4,9.3H194.5z M218.2,165.3
			l-5.5-9.3h20.6l8.2,9.3H218.2z M242,165.3l-8.2-9.3h20.6l10.9,9.3H242z M265.7,165.3l-11-9.3h20.6l13.6,9.3H265.7z M289.4,165.3
			l-13.7-9.3h20.6l16.4,9.3H289.4z M313.1,165.3l-16.4-9.3h20.6l19.1,9.3H313.1z M317.7,156h20.6l21.8,9.3h-23.3L317.7,156z"/>
	</g>
	<g style="clip-path:url(#SVGID_5_);">
		<polygon style="fill:none;" points="270.2,132.9 284.2,132.9 276,129.4 263,129.4 		"/>
		<polygon style="fill:none;" points="301.8,148.2 320.1,148.2 306.2,142.3 289.6,142.3 		"/>
		<polygon style="fill:none;" points="278.9,137.1 294.1,137.1 284.4,133 270.4,133 		"/>
		<polygon style="fill:none;" points="316.9,155.8 301.8,148.4 283.4,148.4 296.3,155.8 		"/>
		<polygon style="fill:none;" points="289.3,142.2 305.9,142.2 294.4,137.3 279.2,137.3 		"/>
		<polygon style="fill:none;" points="254.1,155.8 245.5,148.4 227.1,148.4 233.5,155.8 		"/>
		<polygon style="fill:none;" points="231.3,114 239.8,114 236.6,112.7 228.5,112.7 		"/>
		<polygon style="fill:none;" points="194.3,111.4 195.4,112.6 203.5,112.6 202.1,111.4 		"/>
		<polygon style="fill:none;" points="234.4,115.5 243.3,115.5 239.9,114 231.4,114 		"/>
		<polygon style="fill:none;" points="262.8,129.3 275.7,129.3 268.7,126.3 256.6,126.3 		"/>
		<polygon style="fill:none;" points="241.7,119.1 251.7,119.1 247.4,117.2 238,117.2 		"/>
		<polygon style="fill:none;" points="233.1,155.8 226.7,148.4 208.3,148.4 212.6,155.8 		"/>
		<polygon style="fill:none;" points="237.9,117.2 247.3,117.2 243.4,115.6 234.5,115.6 		"/>
		<polygon style="fill:none;" points="256.5,126.2 268.5,126.2 262.3,123.6 251,123.6 		"/>
		<polygon style="fill:none;" points="246,121.2 256.6,121.2 251.8,119.1 241.8,119.1 		"/>
		<polygon style="fill:none;" points="250.9,123.5 262.2,123.5 256.7,121.2 246.2,121.2 		"/>
		<polygon style="fill:none;" points="295.9,155.8 283,148.4 264.6,148.4 275.4,155.8 		"/>
		<polygon style="fill:none;" points="189.7,117.2 188.7,115.6 179.8,115.6 180.2,117.2 		"/>
		<polygon style="fill:none;" points="188.7,115.5 187.8,114 179.3,114 179.7,115.5 		"/>
		<polygon style="fill:none;" points="190.8,119.1 189.7,117.2 180.3,117.2 180.8,119.1 		"/>
		<polygon style="fill:none;" points="187.8,114 187,112.7 178.9,112.7 179.3,114 		"/>
		<polygon style="fill:none;" points="186.4,111.4 187.2,112.6 195.3,112.6 194.2,111.4 		"/>
		<polygon style="fill:none;" points="192,121.2 190.8,119.1 180.8,119.1 181.4,121.2 		"/>
		<polygon style="fill:none;" points="178.5,111.4 178.9,112.6 187,112.6 186.3,111.4 		"/>
		<polygon style="fill:none;" points="212.2,155.8 207.9,148.4 189.5,148.4 191.7,155.8 		"/>
		<polygon style="fill:none;" points="204.3,142.2 201.4,137.3 186.2,137.3 187.6,142.2 		"/>
		<polygon style="fill:none;" points="193.4,123.5 192,121.2 181.4,121.2 182.1,123.5 		"/>
		<polygon style="fill:none;" points="207.8,148.2 204.3,142.3 187.7,142.3 189.4,148.2 		"/>
		<polygon style="fill:none;" points="201.3,137.1 198.9,133 184.9,133 186.2,137.1 		"/>
		<polygon style="fill:none;" points="198.9,132.9 196.8,129.4 183.9,129.4 184.9,132.9 		"/>
		<polygon style="fill:none;" points="194.9,126.2 193.4,123.6 182.1,123.6 182.9,126.2 		"/>
		<polygon style="fill:none;" points="196.8,129.3 195,126.3 182.9,126.3 183.8,129.3 		"/>
		<polygon style="fill:none;" points="275,155.8 264.2,148.4 245.8,148.4 254.5,155.8 		"/>
		<polygon style="fill:none;" points="130.9,129.4 117.9,129.4 113.8,132.9 127.8,132.9 		"/>
		<polygon style="fill:none;" points="136,123.6 124.7,123.6 121.6,126.2 133.7,126.2 		"/>
		<polygon style="fill:none;" points="133.6,126.3 121.6,126.3 118,129.3 130.9,129.3 		"/>
		<polygon style="fill:none;" points="127.7,133 113.7,133 108.9,137.1 124,137.1 		"/>
		<polygon style="fill:none;" points="93.4,137.1 108.6,137.1 113.4,133 99.4,133 		"/>
		<polygon style="fill:none;" points="86,142.2 102.7,142.2 108.4,137.3 93.2,137.3 		"/>
		<polygon style="fill:none;" points="123.9,137.3 108.7,137.3 103,142.2 119.6,142.2 		"/>
		<polygon style="fill:none;" points="140,119.1 130,119.1 127.6,121.2 138.1,121.2 		"/>
		<polygon style="fill:none;" points="144.4,114 135.9,114 134.2,115.5 143.1,115.5 		"/>
		<polygon style="fill:none;" points="145.7,112.7 137.5,112.7 136,114 144.5,114 		"/>
		<polygon style="fill:none;" points="127.3,114 135.8,114 137.4,112.7 129.3,112.7 		"/>
		<polygon style="fill:none;" points="141.6,117.2 132.2,117.2 130,119.1 140,119.1 		"/>
		<polygon style="fill:none;" points="143.1,115.6 134.1,115.6 132.2,117.2 141.7,117.2 		"/>
		<polygon style="fill:none;" points="118.6,114 127.1,114 129.1,112.7 121,112.7 		"/>
		<polygon style="fill:none;" points="138.1,121.2 127.5,121.2 124.8,123.5 136.1,123.5 		"/>
		<polygon style="fill:none;" points="233.6,111.4 231,110.3 223.6,110.3 225.9,111.4 		"/>
		<polygon style="fill:none;" points="186.3,111.4 185.6,110.3 178.2,110.3 178.5,111.4 		"/>
		<polygon style="fill:none;" points="202.1,111.4 200.7,110.3 193.3,110.3 194.3,111.4 		"/>
		<polygon style="fill:none;" points="194.2,111.4 193.2,110.3 185.8,110.3 186.4,111.4 		"/>
		<polygon style="fill:none;" points="209.9,111.4 208.3,110.3 200.9,110.3 202.2,111.4 		"/>
		<polygon style="fill:none;" points="228.5,112.6 236.6,112.6 233.7,111.4 225.9,111.4 		"/>
		<polygon style="fill:none;" points="225.7,111.4 223.4,110.3 216,110.3 218,111.4 		"/>
		<polygon style="fill:none;" points="217.8,111.4 215.9,110.3 208.5,110.3 210.1,111.4 		"/>
		<polygon style="fill:none;" points="113.3,123.5 124.6,123.5 127.3,121.2 116.7,121.2 		"/>
		<polygon style="fill:none;" points="162.6,111.4 162.9,110.3 155.5,110.3 154.8,111.4 		"/>
		<polygon style="fill:none;" points="116.8,121.2 127.4,121.2 129.8,119.1 119.8,119.1 		"/>
		<polygon style="fill:none;" points="109.4,126.2 121.4,126.2 124.5,123.6 113.2,123.6 		"/>
		<polygon style="fill:none;" points="104.9,129.3 117.8,129.3 121.3,126.3 109.3,126.3 		"/>
		<polygon style="fill:none;" points="122.6,117.2 132,117.2 134,115.6 125,115.6 		"/>
		<polygon style="fill:none;" points="135.8,114 127.3,114 125.1,115.5 134,115.5 		"/>
		<polygon style="fill:none;" points="119.9,119.1 129.8,119.1 132,117.2 122.6,117.2 		"/>
		<polygon style="fill:none;" points="99.6,132.9 113.5,132.9 117.7,129.4 104.7,129.4 		"/>
		<polygon style="fill:none;" points="232.2,137.1 227.4,133 213.4,133 217.1,137.1 		"/>
		<polygon style="fill:none;" points="255.1,142.2 247.9,137.3 232.7,137.3 238.4,142.2 		"/>
		<polygon style="fill:none;" points="238.1,142.2 232.4,137.3 217.2,137.3 221.5,142.2 		"/>
		<polygon style="fill:none;" points="272,142.2 263.4,137.3 248.2,137.3 255.4,142.2 		"/>
		<polygon style="fill:none;" points="219.5,126.2 216.4,123.6 205.1,123.6 207.4,126.2 		"/>
		<polygon style="fill:none;" points="227.3,132.9 223.2,129.4 210.3,129.4 213.3,132.9 		"/>
		<polygon style="fill:none;" points="216.3,123.5 213.6,121.2 203,121.2 205.1,123.5 		"/>
		<polygon style="fill:none;" points="223.1,129.3 219.5,126.3 207.5,126.3 210.2,129.3 		"/>
		<polygon style="fill:none;" points="212,112.7 214,114 222.5,114 220.1,112.7 		"/>
		<polygon style="fill:none;" points="218.7,117.2 221.4,119.1 231.4,119.1 228.2,117.2 		"/>
		<polygon style="fill:none;" points="216.3,115.6 218.7,117.2 228.1,117.2 225.2,115.6 		"/>
		<polygon style="fill:none;" points="214,114 216.2,115.5 225.1,115.5 222.5,114 		"/>
		<polygon style="fill:none;" points="221.5,119.1 224.5,121.2 235.1,121.2 231.5,119.1 		"/>
		<polygon style="fill:none;" points="228.1,123.6 231.9,126.2 244,126.2 239.3,123.6 		"/>
		<polygon style="fill:none;" points="232.1,126.3 236.5,129.3 249.4,129.3 244.1,126.3 		"/>
		<polygon style="fill:none;" points="224.6,121.2 228,123.5 239.2,123.5 235.2,121.2 		"/>
		<polygon style="fill:none;" points="236.6,129.4 241.8,132.9 255.7,132.9 249.6,129.4 		"/>
		<polygon style="fill:none;" points="213.5,121.2 211.1,119.1 201.2,119.1 203,121.2 		"/>
		<polygon style="fill:none;" points="247.7,137.1 241.7,133 227.7,133 232.5,137.1 		"/>
		<polygon style="fill:none;" points="213.8,121.2 216.5,123.5 227.8,123.5 224.4,121.2 		"/>
		<polygon style="fill:none;" points="216.6,123.6 219.7,126.2 231.7,126.2 227.9,123.6 		"/>
		<polygon style="fill:none;" points="223.4,129.4 227.6,132.9 241.5,132.9 236.4,129.4 		"/>
		<polygon style="fill:none;" points="317.3,155.8 337.8,155.8 320.6,148.4 302.2,148.4 		"/>
		<polygon style="fill:none;" points="219.8,126.3 223.3,129.3 236.3,129.3 231.8,126.3 		"/>
		<polygon style="fill:none;" points="196.7,114 198,115.5 206.9,115.5 205.2,114 		"/>
		<polygon style="fill:none;" points="208.9,117.2 207,115.6 198,115.6 199.5,117.2 		"/>
		<polygon style="fill:none;" points="211.1,119.1 208.9,117.2 199.5,117.2 201.1,119.1 		"/>
		<polygon style="fill:none;" points="205.3,114 207.1,115.5 216,115.5 213.9,114 		"/>
		<polygon style="fill:none;" points="211.3,119.1 213.7,121.2 224.3,121.2 221.3,119.1 		"/>
		<polygon style="fill:none;" points="209.1,117.2 211.3,119.1 221.2,119.1 218.5,117.2 		"/>
		<polygon style="fill:none;" points="207.1,115.6 209.1,117.2 218.5,117.2 216.1,115.6 		"/>
		<polygon style="fill:none;" points="244.3,126.3 249.7,129.3 262.6,129.3 256.4,126.3 		"/>
		<polygon style="fill:none;" points="235.4,121.2 239.4,123.5 250.7,123.5 245.9,121.2 		"/>
		<polygon style="fill:none;" points="202.2,111.4 203.7,112.6 211.8,112.6 210,111.4 		"/>
		<polygon style="fill:none;" points="239.6,123.6 244.2,126.2 256.2,126.2 250.8,123.6 		"/>
		<polygon style="fill:none;" points="249.8,129.4 256,132.9 270,132.9 262.8,129.4 		"/>
		<polygon style="fill:none;" points="256.2,133 263.5,137.1 278.6,137.1 270.2,133 		"/>
		<polygon style="fill:none;" points="301.4,148.2 289.2,142.3 272.6,142.3 283.1,148.2 		"/>
		<polygon style="fill:none;" points="263.7,137.3 272.3,142.2 288.9,142.2 278.9,137.3 		"/>
		<polygon style="fill:none;" points="228.3,117.2 231.6,119.1 241.5,119.1 237.8,117.2 		"/>
		<polygon style="fill:none;" points="218,111.4 220.2,112.6 228.3,112.6 225.8,111.4 		"/>
		<polygon style="fill:none;" points="210.1,111.4 211.9,112.6 220,112.6 217.9,111.4 		"/>
		<polygon style="fill:none;" points="220.3,112.7 222.6,114 231.1,114 228.4,112.7 		"/>
		<polygon style="fill:none;" points="231.7,119.1 235.3,121.2 245.8,121.2 241.6,119.1 		"/>
		<polygon style="fill:none;" points="222.7,114 225.3,115.5 234.2,115.5 231.2,114 		"/>
		<polygon style="fill:none;" points="282.7,148.2 272.3,142.3 255.6,142.3 264.3,148.2 		"/>
		<polygon style="fill:none;" points="225.4,115.6 228.3,117.2 237.7,117.2 234.3,115.6 		"/>
		<polygon style="fill:none;" points="216.8,137.1 213.2,133 199.2,133 201.6,137.1 		"/>
		<polygon style="fill:none;" points="200.9,119.1 199.3,117.2 189.9,117.2 191,119.1 		"/>
		<polygon style="fill:none;" points="199.3,117.2 197.8,115.6 188.9,115.6 189.8,117.2 		"/>
		<polygon style="fill:none;" points="202.8,121.2 201,119.1 191,119.1 192.2,121.2 		"/>
		<polygon style="fill:none;" points="197.8,115.5 196.5,114 188,114 188.9,115.5 		"/>
		<polygon style="fill:none;" points="204.8,123.5 202.8,121.2 192.2,121.2 193.6,123.5 		"/>
		<polygon style="fill:none;" points="195.4,112.7 196.6,114 205.1,114 203.6,112.7 		"/>
		<polygon style="fill:none;" points="187.2,112.7 188,114 196.5,114 195.3,112.7 		"/>
		<polygon style="fill:none;" points="213.1,132.9 210,129.4 197.1,129.4 199.1,132.9 		"/>
		<polygon style="fill:none;" points="226.5,148.2 221.3,142.3 204.7,142.3 208.2,148.2 		"/>
		<polygon style="fill:none;" points="245.3,148.2 238.3,142.3 221.6,142.3 226.9,148.2 		"/>
		<polygon style="fill:none;" points="221.2,142.2 216.9,137.3 201.7,137.3 204.6,142.2 		"/>
		<polygon style="fill:none;" points="264,148.2 255.3,142.3 238.6,142.3 245.6,148.2 		"/>
		<polygon style="fill:none;" points="209.9,129.3 207.3,126.3 195.2,126.3 197,129.3 		"/>
		<polygon style="fill:none;" points="207.2,126.2 204.9,123.6 193.6,123.6 195.2,126.2 		"/>
		<polygon style="fill:none;" points="203.7,112.7 205.3,114 213.8,114 211.8,112.7 		"/>
		<polygon style="fill:none;" points="241.9,133 248,137.1 263.2,137.1 255.9,133 		"/>
		<polygon style="fill:none;" points="147.1,165.3 170.3,165.3 170.4,156 149.8,156 		"/>
		<polygon style="fill:none;" points="107.8,156 99.6,165.3 122.9,165.3 128.4,156 		"/>
		<polygon style="fill:none;" points="86.8,156 75.9,165.3 99.1,165.3 107.4,156 		"/>
		<polygon style="fill:none;" points="128.8,156 123.3,165.3 146.6,165.3 149.4,156 		"/>
		<polygon style="fill:none;" points="65.8,156 52.1,165.3 75.4,165.3 86.4,156 		"/>
		<polygon style="fill:none;" points="39,148.4 20.5,148.4 3.3,155.8 23.8,155.8 		"/>
		<polygon style="fill:none;" points="44.8,156 28.4,165.3 51.7,165.3 65.4,156 		"/>
		<polygon style="fill:none;" points="23.8,156 4.7,165.3 28,165.3 44.4,156 		"/>
		<polygon style="fill:none;" points="2.8,156 -19,165.3 4.2,165.3 23.4,156 		"/>
		<polygon style="fill:none;" points="157.5,129.3 170.4,129.3 170.4,126.3 158.4,126.3 		"/>
		<polygon style="fill:none;" points="159.2,123.5 170.4,123.5 170.4,121.2 159.9,121.2 		"/>
		<polygon style="fill:none;" points="156.5,132.9 170.4,132.9 170.4,129.4 157.5,129.4 		"/>
		<polygon style="fill:none;" points="155.2,137.1 170.4,137.1 170.4,133 156.4,133 		"/>
		<polygon style="fill:none;" points="152,148.2 170.4,148.2 170.4,142.3 153.7,142.3 		"/>
		<polygon style="fill:none;" points="149.8,155.8 170.4,155.8 170.4,148.4 152,148.4 		"/>
		<polygon style="fill:none;" points="153.8,142.2 170.4,142.2 170.4,137.3 155.2,137.3 		"/>
		<polygon style="fill:none;" points="115.2,111.4 107.4,111.4 104.5,112.6 112.6,112.6 		"/>
		<polygon style="fill:none;" points="103.1,117.2 93.7,117.2 89.4,119.1 99.4,119.1 		"/>
		<polygon style="fill:none;" points="106.6,115.6 97.7,115.6 93.8,117.2 103.2,117.2 		"/>
		<polygon style="fill:none;" points="112.6,112.7 104.5,112.7 101.3,114 109.8,114 		"/>
		<polygon style="fill:none;" points="109.7,114 101.2,114 97.8,115.5 106.7,115.5 		"/>
		<polygon style="fill:none;" points="123.1,111.4 125.1,110.3 117.7,110.3 115.4,111.4 		"/>
		<polygon style="fill:none;" points="117.5,110.3 110.1,110.3 107.5,111.4 115.2,111.4 		"/>
		<polygon style="fill:none;" points="159.9,121.2 170.4,121.2 170.5,119.1 160.5,119.1 		"/>
		<polygon style="fill:none;" points="84.5,126.3 72.4,126.3 65.4,129.3 78.3,129.3 		"/>
		<polygon style="fill:none;" points="99.3,119.1 89.3,119.1 84.5,121.2 95.1,121.2 		"/>
		<polygon style="fill:none;" points="70.7,133 56.7,133 47,137.1 62.2,137.1 		"/>
		<polygon style="fill:none;" points="61.9,137.3 46.7,137.3 35.2,142.2 51.9,142.2 		"/>
		<polygon style="fill:none;" points="78.1,129.4 65.1,129.4 56.9,132.9 70.9,132.9 		"/>
		<polygon style="fill:none;" points="94.9,121.2 84.4,121.2 78.9,123.5 90.2,123.5 		"/>
		<polygon style="fill:none;" points="51.5,142.3 34.9,142.3 21,148.2 39.3,148.2 		"/>
		<polygon style="fill:none;" points="90.1,123.6 78.8,123.6 72.6,126.2 84.6,126.2 		"/>
		<polygon style="fill:none;" points="160.5,119.1 170.5,119.1 170.5,117.2 161,117.2 		"/>
		<polygon style="fill:none;" points="170.8,156 170.8,165.3 194.1,165.3 191.4,156 		"/>
		<polygon style="fill:none;" points="212.7,156 218.2,165.3 241.5,165.3 233.3,156 		"/>
		<polygon style="fill:none;" points="183.6,129.4 170.7,129.4 170.7,132.9 184.6,132.9 		"/>
		<polygon style="fill:none;" points="191.7,156 194.5,165.3 217.8,165.3 212.3,156 		"/>
		<polygon style="fill:none;" points="187.4,142.3 170.7,142.3 170.7,148.2 189.1,148.2 		"/>
		<polygon style="fill:none;" points="184.7,133 170.7,133 170.7,137.1 185.9,137.1 		"/>
		<polygon style="fill:none;" points="185.9,137.3 170.7,137.3 170.7,142.2 187.3,142.2 		"/>
		<polygon style="fill:none;" points="189.1,148.4 170.7,148.4 170.8,155.8 191.3,155.8 		"/>
		<polygon style="fill:none;" points="116,115.5 124.9,115.5 127.1,114 118.6,114 		"/>
		<polygon style="fill:none;" points="338.3,156 317.7,156 336.9,165.3 360.1,165.3 		"/>
		<polygon style="fill:none;" points="296.7,156 313.1,165.3 336.4,165.3 317.3,156 		"/>
		<polygon style="fill:none;" points="254.7,156 265.7,165.3 289,165.3 275.3,156 		"/>
		<polygon style="fill:none;" points="233.7,156 242,165.3 265.2,165.3 254.3,156 		"/>
		<polygon style="fill:none;" points="275.7,156 289.4,165.3 312.7,165.3 296.3,156 		"/>
		<polygon style="fill:none;" points="180.6,119.1 170.6,119.1 170.7,121.2 181.2,121.2 		"/>
		<polygon style="fill:none;" points="182.7,126.3 170.7,126.3 170.7,129.3 183.6,129.3 		"/>
		<polygon style="fill:none;" points="178,110.3 170.6,110.3 170.6,111.4 178.4,111.4 		"/>
		<polygon style="fill:none;" points="178.4,111.4 170.6,111.4 170.6,112.6 178.7,112.6 		"/>
		<polygon style="fill:none;" points="162.4,112.6 170.5,112.6 170.5,111.4 162.7,111.4 		"/>
		<polygon style="fill:none;" points="161,117.2 170.5,117.2 170.5,115.6 161.5,115.6 		"/>
		<polygon style="fill:none;" points="161.5,115.5 170.5,115.5 170.5,114 162,114 		"/>
		<polygon style="fill:none;" points="162,114 170.5,114 170.5,112.7 162.4,112.7 		"/>
		<polygon style="fill:none;" points="162.7,111.4 170.5,111.4 170.5,110.3 163.1,110.3 		"/>
		<polygon style="fill:none;" points="181.2,121.2 170.7,121.2 170.7,123.5 181.9,123.5 		"/>
		<polygon style="fill:none;" points="181.9,123.6 170.7,123.6 170.7,126.2 182.7,126.2 		"/>
		<polygon style="fill:none;" points="178.7,112.7 170.6,112.7 170.6,114 179.1,114 		"/>
		<polygon style="fill:none;" points="131,111.4 132.6,110.3 125.2,110.3 123.3,111.4 		"/>
		<polygon style="fill:none;" points="180.1,117.2 170.6,117.2 170.6,119.1 180.6,119.1 		"/>
		<polygon style="fill:none;" points="179.1,114 170.6,114 170.6,115.5 179.6,115.5 		"/>
		<polygon style="fill:none;" points="179.6,115.6 170.6,115.6 170.6,117.2 180.1,117.2 		"/>
		<polygon style="fill:none;" points="158.4,126.2 170.4,126.2 170.4,123.6 159.2,123.6 		"/>
		<polygon style="fill:none;" points="150.1,119.1 140.1,119.1 138.3,121.2 148.9,121.2 		"/>
		<polygon style="fill:none;" points="152.2,115.6 143.3,115.6 141.8,117.2 151.3,117.2 		"/>
		<polygon style="fill:none;" points="151.2,117.2 141.8,117.2 140.2,119.1 150.2,119.1 		"/>
		<polygon style="fill:none;" points="153.9,112.7 145.8,112.7 144.6,114 153.1,114 		"/>
		<polygon style="fill:none;" points="153.1,114 144.6,114 143.3,115.5 152.2,115.5 		"/>
		<polygon style="fill:none;" points="145.9,126.3 133.8,126.3 131.2,129.3 144.1,129.3 		"/>
		<polygon style="fill:none;" points="148.9,121.2 138.3,121.2 136.3,123.5 147.5,123.5 		"/>
		<polygon style="fill:none;" points="147.5,123.6 136.2,123.6 133.9,126.2 145.9,126.2 		"/>
		<polygon style="fill:none;" points="121.1,112.6 129.2,112.6 131,111.4 123.2,111.4 		"/>
		<polygon style="fill:none;" points="112.8,112.6 120.9,112.6 123.1,111.4 115.3,111.4 		"/>
		<polygon style="fill:none;" points="110,114 118.5,114 120.8,112.7 112.7,112.7 		"/>
		<polygon style="fill:none;" points="106.9,115.5 115.8,115.5 118.4,114 109.9,114 		"/>
		<polygon style="fill:none;" points="129.3,112.6 137.4,112.6 138.9,111.4 131.1,111.4 		"/>
		<polygon style="fill:none;" points="144,129.4 131.1,129.4 128,132.9 142,132.9 		"/>
		<polygon style="fill:none;" points="137.6,112.6 145.7,112.6 146.8,111.4 139,111.4 		"/>
		<polygon style="fill:none;" points="103.4,117.2 112.8,117.2 115.7,115.6 106.8,115.6 		"/>
		<polygon style="fill:none;" points="154.7,111.4 146.9,111.4 145.8,112.6 154,112.6 		"/>
		<polygon style="fill:none;" points="85.4,132.9 99.3,132.9 104.5,129.4 91.5,129.4 		"/>
		<polygon style="fill:none;" points="97.1,126.2 109.2,126.2 113,123.6 101.8,123.6 		"/>
		<polygon style="fill:none;" points="91.7,129.3 104.6,129.3 109,126.3 97,126.3 		"/>
		<polygon style="fill:none;" points="101.9,123.5 113.1,123.5 116.5,121.2 105.9,121.2 		"/>
		<polygon style="fill:none;" points="106,121.2 116.6,121.2 119.6,119.1 109.6,119.1 		"/>
		<polygon style="fill:none;" points="138.9,111.4 140.2,110.3 132.8,110.3 131.2,111.4 		"/>
		<polygon style="fill:none;" points="113,117.2 122.4,117.2 124.9,115.6 115.9,115.6 		"/>
		<polygon style="fill:none;" points="141.9,133 127.9,133 124.3,137.1 139.5,137.1 		"/>
		<polygon style="fill:none;" points="77.9,137.1 93.1,137.1 99.2,133 85.2,133 		"/>
		<polygon style="fill:none;" points="136.4,142.3 119.8,142.3 114.6,148.2 132.9,148.2 		"/>
		<polygon style="fill:none;" points="139.4,137.3 124.2,137.3 119.9,142.2 136.5,142.2 		"/>
		<polygon style="fill:none;" points="119.5,142.3 102.8,142.3 95.8,148.2 114.2,148.2 		"/>
		<polygon style="fill:none;" points="69.1,142.2 85.7,142.2 92.9,137.3 77.7,137.3 		"/>
		<polygon style="fill:none;" points="58.4,148.2 76.8,148.2 85.5,142.3 68.8,142.3 		"/>
		<polygon style="fill:none;" points="102.5,142.3 85.8,142.3 77.1,148.2 95.5,148.2 		"/>
		<polygon style="fill:none;" points="109.7,119.1 119.7,119.1 122.4,117.2 112.9,117.2 		"/>
		<polygon style="fill:none;" points="157.2,129.4 144.3,129.4 142.2,132.9 156.2,132.9 		"/>
		<polygon style="fill:none;" points="159,123.6 147.7,123.6 146.2,126.2 158.2,126.2 		"/>
		<polygon style="fill:none;" points="158.2,126.3 146.1,126.3 144.3,129.3 157.3,129.3 		"/>
		<polygon style="fill:none;" points="151.6,148.4 133.2,148.4 128.9,155.8 149.4,155.8 		"/>
		<polygon style="fill:none;" points="156.2,133 142.2,133 139.8,137.1 154.9,137.1 		"/>
		<polygon style="fill:none;" points="153.4,142.3 136.8,142.3 133.3,148.2 151.7,148.2 		"/>
		<polygon style="fill:none;" points="160.3,119.1 150.3,119.1 149.1,121.2 159.7,121.2 		"/>
		<polygon style="fill:none;" points="154.9,137.3 139.7,137.3 136.8,142.2 153.5,142.2 		"/>
		<polygon style="fill:none;" points="159.7,121.2 149.1,121.2 147.7,123.5 159,123.5 		"/>
		<polygon style="fill:none;" points="99.6,119.1 109.5,119.1 112.8,117.2 103.3,117.2 		"/>
		<polygon style="fill:none;" points="162.6,111.4 154.8,111.4 154.1,112.6 162.2,112.6 		"/>
		<polygon style="fill:none;" points="154.7,111.4 155.3,110.3 147.9,110.3 146.9,111.4 		"/>
		<polygon style="fill:none;" points="160.8,117.2 151.4,117.2 150.3,119.1 160.3,119.1 		"/>
		<polygon style="fill:none;" points="161.3,115.6 152.4,115.6 151.4,117.2 160.9,117.2 		"/>
		<polygon style="fill:none;" points="162.2,112.7 154.1,112.7 153.3,114 161.8,114 		"/>
		<polygon style="fill:none;" points="161.8,114 153.3,114 152.4,115.5 161.4,115.5 		"/>
		<polygon style="fill:none;" points="132.8,148.4 114.4,148.4 108,155.8 128.5,155.8 		"/>
		<polygon style="fill:none;" points="78.5,129.3 91.4,129.3 96.8,126.3 84.7,126.3 		"/>
		<polygon style="fill:none;" points="84.9,126.2 96.9,126.2 101.5,123.6 90.3,123.6 		"/>
		<polygon style="fill:none;" points="71.1,132.9 85.1,132.9 91.3,129.4 78.3,129.4 		"/>
		<polygon style="fill:none;" points="146.8,111.4 147.8,110.3 140.4,110.3 139.1,111.4 		"/>
		<polygon style="fill:none;" points="62.5,137.1 77.6,137.1 84.9,133 70.9,133 		"/>
		<polygon style="fill:none;" points="95.3,121.2 105.8,121.2 109.4,119.1 99.5,119.1 		"/>
		<polygon style="fill:none;" points="90.4,123.5 101.7,123.5 105.7,121.2 95.2,121.2 		"/>
		<polygon style="fill:none;" points="24.2,155.8 44.8,155.8 57.7,148.4 39.3,148.4 		"/>
		<polygon style="fill:none;" points="76.5,148.4 58.1,148.4 45.2,155.8 65.7,155.8 		"/>
		<polygon style="fill:none;" points="114,148.4 95.6,148.4 87,155.8 107.6,155.8 		"/>
		<polygon style="fill:none;" points="39.7,148.2 58,148.2 68.5,142.3 51.9,142.3 		"/>
		<polygon style="fill:none;" points="52.2,142.2 68.8,142.2 77.4,137.3 62.2,137.3 		"/>
		<polygon style="fill:none;" points="95.3,148.4 76.9,148.4 66.1,155.8 86.6,155.8 		"/>
		<path style="fill:#FFFFFF;" d="M231.1,110.2H110l-130.2,55.3h381.5L231.1,110.2z M337.8,155.8h-20.5l-15.1-7.3h18.4L337.8,155.8z
			 M227.6,132.9l-4.1-3.5h12.9l5.1,3.5H227.6z M241.7,133l6,4.1h-15.2l-4.8-4.1H241.7z M223.3,129.3l-3.6-3h12l4.4,3H223.3z
			 M219.7,126.2l-3.1-2.6h11.3l3.9,2.6H219.7z M216.5,123.5l-2.7-2.3h10.6l3.4,2.3H216.5z M213.7,121.2l-2.4-2h10l3,2H213.7z
			 M211.3,119.1l-2.1-1.8h9.4l2.7,1.8H211.3z M209.1,117.2l-1.9-1.6h8.9l2.4,1.6H209.1z M207.1,115.5l-1.7-1.5h8.5l2.2,1.5H207.1z
			 M206.9,115.5H198l-1.3-1.5h8.5L206.9,115.5z M207,115.6l1.9,1.6h-9.4l-1.4-1.6H207z M208.9,117.2l2.1,1.8h-10l-1.6-1.8H208.9z
			 M211.1,119.1l2.4,2H203l-1.8-2H211.1z M213.6,121.2l2.7,2.3h-11.2l-2-2.3H213.6z M216.4,123.6l3.1,2.6h-12l-2.3-2.6H216.4z
			 M219.5,126.3l3.5,3h-12.9l-2.7-3H219.5z M223.2,129.4l4.1,3.5h-13.9l-3.1-3.5H223.2z M227.4,133l4.8,4.1h-15.2l-3.6-4.1H227.4z
			 M232.4,137.3l5.7,4.9h-16.6l-4.3-4.9H232.4z M232.7,137.3h15.2l7.2,4.9h-16.6L232.7,137.3z M248.2,137.3h15.2l8.6,4.9h-16.6
			L248.2,137.3z M248,137.1l-6.1-4.1h14l7.2,4.1H248z M241.8,132.9l-5.2-3.5h12.9l6.2,3.5H241.8z M236.5,129.3l-4.4-3h12l5.3,3
			H236.5z M231.9,126.2l-3.9-2.6h11.3l4.6,2.6H231.9z M228,123.5l-3.4-2.3h10.6l4.1,2.3H228z M224.5,121.2l-3-2h10l3.6,2H224.5z
			 M221.4,119.1l-2.7-1.8h9.4l3.2,1.8H221.4z M218.7,117.2l-2.4-1.6h8.9l2.9,1.6H218.7z M216.2,115.5L214,114h8.5l2.6,1.5H216.2z
			 M214,114l-2-1.3h8.1l2.4,1.3H214z M213.8,114h-8.5l-1.6-1.3h8.1L213.8,114z M205.1,114h-8.5l-1.2-1.3h8.1L205.1,114z M196.5,114
			H188l-0.8-1.3h8.1L196.5,114z M196.5,114l1.3,1.5h-8.9L188,114H196.5z M197.8,115.6l1.4,1.6h-9.4l-1-1.6H197.8z M199.3,117.2
			l1.6,1.8h-10l-1.1-1.8H199.3z M201,119.1l1.8,2h-10.6l-1.2-2H201z M202.8,121.2l2,2.3h-11.2l-1.4-2.3H202.8z M204.9,123.6l2.3,2.6
			h-12l-1.6-2.6H204.9z M207.3,126.3l2.7,3H197l-1.8-3H207.3z M210,129.4l3.1,3.5h-13.9l-2.1-3.5H210z M213.2,133l3.6,4.1h-15.2
			l-2.4-4.1H213.2z M216.9,137.3l4.3,4.9h-16.6l-2.9-4.9H216.9z M221.3,142.3l5.2,5.9h-18.4l-3.5-5.9H221.3z M221.6,142.3h16.7
			l7,5.9h-18.4L221.6,142.3z M238.6,142.3h16.7l8.7,5.9h-18.4L238.6,142.3z M255.6,142.3h16.7l10.4,5.9h-18.4L255.6,142.3z
			 M272.6,142.3h16.7l12.2,5.9h-18.4L272.6,142.3z M272.3,142.2l-8.6-4.9h15.2l10.1,4.9H272.3z M263.5,137.1l-7.3-4.1h14l8.4,4.1
			H263.5z M256,132.9l-6.2-3.5h12.9l7.2,3.5H256z M249.7,129.3l-5.3-3h12l6.2,3H249.7z M244.2,126.2l-4.6-2.6h11.3l5.4,2.6H244.2z
			 M239.4,123.5l-4.1-2.3h10.6l4.7,2.3H239.4z M235.3,121.2l-3.6-2h10l4.2,2H235.3z M231.6,119.1l-3.2-1.8h9.4l3.7,1.8H231.6z
			 M228.3,117.2l-2.9-1.6h8.9l3.4,1.6H228.3z M225.3,115.5l-2.6-1.5h8.5l3,1.5H225.3z M222.6,114l-2.4-1.3h8.1l2.7,1.3H222.6z
			 M220.2,112.6l-2.2-1.2h7.8l2.5,1.2H220.2z M220,112.6h-8.1l-1.8-1.2h7.8L220,112.6z M211.8,112.6h-8.1l-1.4-1.2h7.8L211.8,112.6z
			 M203.5,112.6h-8.1l-1.1-1.2h7.8L203.5,112.6z M195.3,112.6h-8.1l-0.7-1.2h7.8L195.3,112.6z M187,112.6h-8.1l-0.4-1.2h7.8
			L187,112.6z M187,112.7l0.8,1.3h-8.5l-0.4-1.3H187z M187.8,114l0.9,1.5h-8.9l-0.4-1.5H187.8z M188.7,115.6l1,1.6h-9.4l-0.5-1.6
			H188.7z M189.7,117.2l1.1,1.8h-10l-0.5-1.8H189.7z M190.8,119.1l1.2,2h-10.6l-0.6-2H190.8z M192,121.2l1.3,2.3h-11.2l-0.7-2.3H192
			z M193.4,123.6l1.5,2.6h-12l-0.8-2.6H193.4z M195,126.3l1.8,3h-12.9l-0.9-3H195z M196.8,129.4l2,3.5h-14l-1-3.5H196.8z M198.9,133
			l2.4,4.1h-15.2l-1.2-4.1H198.9z M201.4,137.3l2.9,4.9h-16.6l-1.5-4.9H201.4z M204.3,142.3l3.5,5.9h-18.4l-1.8-5.9H204.3z
			 M207.9,148.4l4.3,7.3h-20.5l-2.2-7.3H207.9z M208.3,148.4h18.4l6.4,7.3h-20.5L208.3,148.4z M227.1,148.4h18.4l8.6,7.3h-20.5
			L227.1,148.4z M245.8,148.4h18.4l10.8,7.3h-20.5L245.8,148.4z M264.6,148.4H283l12.9,7.3h-20.5L264.6,148.4z M283.4,148.4h18.4
			l15.1,7.3h-20.5L283.4,148.4z M320.1,148.2h-18.4l-12.2-5.9h16.7L320.1,148.2z M305.9,142.2h-16.6l-10.1-4.9h15.2L305.9,142.2z
			 M294.1,137.1h-15.2l-8.5-4.1h14L294.1,137.1z M284.2,132.9h-13.9l-7.2-3.5H276L284.2,132.9z M275.7,129.3h-12.9l-6.2-3h12
			L275.7,129.3z M268.5,126.2h-12l-5.4-2.6h11.3L268.5,126.2z M262.2,123.5h-11.2l-4.8-2.3h10.6L262.2,123.5z M256.6,121.2H246
			l-4.2-2h10L256.6,121.2z M251.7,119.1h-10l-3.8-1.8h9.4L251.7,119.1z M247.3,117.2h-9.4l-3.4-1.6h8.9L247.3,117.2z M243.3,115.5
			h-8.9l-3-1.5h8.5L243.3,115.5z M239.8,114h-8.5l-2.8-1.3h8.1L239.8,114z M236.6,112.6h-8.1l-2.5-1.2h7.8L236.6,112.6z M231,110.3
			l2.6,1.1h-7.7l-2.3-1.1H231z M223.4,110.3l2.3,1.1H218l-2-1.1H223.4z M215.9,110.3l2,1.1h-7.7l-1.6-1.1H215.9z M208.3,110.3
			l1.6,1.1h-7.7l-1.3-1.1H208.3z M200.7,110.3l1.3,1.1h-7.7l-1-1.1H200.7z M193.2,110.3l1,1.1h-7.7l-0.7-1.1H193.2z M185.6,110.3
			l0.7,1.1h-7.7l-0.3-1.1H185.6z M162.9,110.3l-0.3,1.1h-7.7l0.7-1.1H162.9z M134,115.6l-1.9,1.6h-9.4l2.4-1.6H134z M125.1,115.5
			l2.2-1.5h8.5l-1.7,1.5H125.1z M132,117.2l-2.1,1.8h-10l2.7-1.8H132z M129.8,119.1l-2.4,2h-10.6l3-2H129.8z M127.3,121.2l-2.7,2.3
			h-11.2l3.4-2.3H127.3z M124.5,123.6l-3.1,2.6h-12l3.9-2.6H124.5z M121.3,126.3l-3.6,3h-12.9l4.4-3H121.3z M117.7,129.4l-4.1,3.5
			H99.6l5.1-3.5H117.7z M113.4,133l-4.8,4.1H93.4l6-4.1H113.4z M108.4,137.3l-5.8,4.9H86l7.2-4.9H108.4z M108.7,137.3h15.2l-4.3,4.9
			H103L108.7,137.3z M108.9,137.1l4.8-4.1h14l-3.6,4.1H108.9z M113.8,132.9l4.1-3.5h12.9l-3.1,3.5H113.8z M118,129.3l3.5-3h12
			l-2.7,3H118z M121.6,126.2l3.1-2.6H136l-2.3,2.6H121.6z M124.8,123.5l2.7-2.3h10.6l-2,2.3H124.8z M127.6,121.2l2.4-2h10l-1.8,2
			H127.6z M130,119.1l2.1-1.8h9.4l-1.6,1.8H130z M132.2,117.2l1.9-1.6h8.9l-1.4,1.6H132.2z M134.2,115.5l1.7-1.5h8.5l-1.3,1.5H134.2
			z M136,114l1.6-1.3h8.1l-1.2,1.3H136z M135.8,114h-8.5l2-1.3h8.1L135.8,114z M127.1,114h-8.5l2.4-1.3h8.1L127.1,114z M127.1,114
			l-2.2,1.5H116l2.6-1.5H127.1z M124.9,115.6l-2.4,1.6H113l2.9-1.6H124.9z M122.4,117.2l-2.7,1.8h-10l3.2-1.8H122.4z M119.6,119.1
			l-3,2H106l3.6-2H119.6z M116.5,121.2l-3.4,2.3h-11.2l4.1-2.3H116.5z M113,123.6l-3.9,2.6h-12l4.6-2.6H113z M109,126.3l-4.4,3H91.7
			l5.3-3H109z M104.5,129.4l-5.2,3.5h-14l6.2-3.5H104.5z M99.2,133l-6.1,4.1H77.9l7.2-4.1H99.2z M92.9,137.3l-7.2,4.9H69.1l8.6-4.9
			H92.9z M85.5,142.3l-8.7,5.9H58.4l10.4-5.9H85.5z M85.8,142.3h16.7l-7,5.9H77.1L85.8,142.3z M102.8,142.3h16.7l-5.2,5.9H95.8
			L102.8,142.3z M119.8,142.3h16.7l-3.5,5.9h-18.4L119.8,142.3z M119.9,142.2l4.3-4.9h15.2l-2.9,4.9H119.9z M124.3,137.1l3.6-4.1h14
			l-2.4,4.1H124.3z M128,132.9l3.1-3.5H144l-2.1,3.5H128z M131.2,129.3l2.7-3h12l-1.8,3H131.2z M133.9,126.2l2.3-2.6h11.3l-1.6,2.6
			H133.9z M136.3,123.5l2-2.3h10.6l-1.4,2.3H136.3z M138.3,121.2l1.8-2h10l-1.2,2H138.3z M140.2,119.1l1.6-1.8h9.4l-1.1,1.8H140.2z
			 M141.8,117.2l1.4-1.6h8.9l-1,1.6H141.8z M143.3,115.5l1.3-1.5h8.5l-0.9,1.5H143.3z M144.6,114l1.2-1.3h8.1l-0.8,1.3H144.6z
			 M145.8,112.6l1.1-1.2h7.8l-0.7,1.2H145.8z M145.7,112.6h-8.1l1.4-1.2h7.8L145.7,112.6z M137.4,112.6h-8.1l1.8-1.2h7.8
			L137.4,112.6z M129.2,112.6h-8.1l2.1-1.2h7.8L129.2,112.6z M120.9,112.6h-8.1l2.5-1.2h7.8L120.9,112.6z M120.8,112.7l-2.4,1.3H110
			l2.7-1.3H120.8z M118.4,114l-2.6,1.5h-8.9l3-1.5H118.4z M115.7,115.6l-2.9,1.6h-9.4l3.4-1.6H115.7z M112.8,117.2l-3.2,1.8h-10
			l3.7-1.8H112.8z M109.4,119.1l-3.6,2H95.3l4.2-2H109.4z M105.7,121.2l-4.1,2.3H90.4l4.7-2.3H105.7z M101.5,123.6l-4.6,2.6h-12
			l5.4-2.6H101.5z M96.8,126.3l-5.3,3H78.5l6.2-3H96.8z M91.3,129.4l-6.2,3.5H71.1l7.2-3.5H91.3z M84.9,133l-7.3,4.1H62.5l8.4-4.1
			H84.9z M77.4,137.3l-8.6,4.9H52.2l10.1-4.9H77.4z M68.5,142.3L58,148.2H39.7l12.2-5.9H68.5z M57.7,148.4l-13,7.3H24.2l15.1-7.3
			H57.7z M58.1,148.4h18.4l-10.8,7.3H45.2L58.1,148.4z M76.9,148.4h18.4l-8.6,7.3H66.1L76.9,148.4z M95.6,148.4H114l-6.5,7.3H87
			L95.6,148.4z M114.4,148.4h18.4l-4.3,7.3H108L114.4,148.4z M133.2,148.4h18.4l-2.2,7.3h-20.5L133.2,148.4z M133.3,148.2l3.5-5.9
			h16.7l-1.8,5.9H133.3z M136.8,142.2l2.9-4.9h15.2l-1.5,4.9H136.8z M139.8,137.1l2.4-4.1h14l-1.2,4.1H139.8z M142.2,132.9l2-3.5
			h12.9l-1,3.5H142.2z M144.3,129.3l1.8-3h12l-0.9,3H144.3z M146.2,126.2l1.5-2.6H159l-0.8,2.6H146.2z M147.7,123.5l1.3-2.3h10.6
			l-0.7,2.3H147.7z M149.1,121.2l1.2-2h10l-0.6,2H149.1z M150.3,119.1l1.1-1.8h9.4l-0.5,1.8H150.3z M151.4,117.2l1-1.6h8.9l-0.5,1.6
			H151.4z M152.4,115.5l0.9-1.5h8.5l-0.4,1.5H152.4z M153.3,114l0.8-1.3h8.1l-0.4,1.3H153.3z M154.1,112.6l0.7-1.2h7.8l-0.4,1.2
			H154.1z M155.3,110.3l-0.7,1.1h-7.7l1-1.1H155.3z M147.8,110.3l-1,1.1h-7.7l1.3-1.1H147.8z M140.2,110.3l-1.3,1.1h-7.7l1.6-1.1
			H140.2z M132.6,110.3l-1.6,1.1h-7.7l2-1.1H132.6z M125.1,110.3l-2,1.1h-7.7l2.3-1.1H125.1z M110.1,110.3h7.4l-2.3,1.1h-7.7
			L110.1,110.3z M107.4,111.4h7.8l-2.5,1.2h-8.1L107.4,111.4z M104.5,112.7h8.1l-2.8,1.3h-8.5L104.5,112.7z M101.2,114h8.5l-3,1.5
			h-8.9L101.2,114z M97.7,115.6h8.9l-3.4,1.6h-9.4L97.7,115.6z M93.7,117.2h9.4l-3.8,1.8h-10L93.7,117.2z M89.3,119.1h10l-4.2,2
			H84.5L89.3,119.1z M84.4,121.2h10.6l-4.8,2.3H78.9L84.4,121.2z M78.8,123.6h11.3l-5.4,2.6h-12L78.8,123.6z M72.4,126.3h12l-6.2,3
			H65.4L72.4,126.3z M65.1,129.4h12.9l-7.2,3.5H56.9L65.1,129.4z M56.7,133h14l-8.5,4.1H47L56.7,133z M46.7,137.3h15.2l-10.1,4.9
			H35.2L46.7,137.3z M34.9,142.3h16.7l-12.2,5.9H21L34.9,142.3z M20.5,148.4H39l-15.1,7.3H3.3L20.5,148.4z M-19,165.3L2.8,156h20.6
			l-19.1,9.3H-19z M4.7,165.3l19.1-9.3h20.6L28,165.3H4.7z M28.4,165.3l16.4-9.3h20.6l-13.7,9.3H28.4z M52.1,165.3l13.6-9.3h20.6
			l-11,9.3H52.1z M75.9,165.3l10.9-9.3h20.6l-8.2,9.3H75.9z M99.6,165.3l8.2-9.3h20.6l-5.5,9.3H99.6z M123.3,165.3l5.4-9.3h20.6
			l-2.8,9.3H123.3z M170.3,165.3h-23.3l2.7-9.3h20.6L170.3,165.3z M170.4,155.8h-20.5l2.1-7.3h18.4L170.4,155.8z M170.4,148.2H152
			l1.7-5.9h16.7L170.4,148.2z M170.4,142.2h-16.6l1.4-4.9h15.2L170.4,142.2z M170.4,137.1h-15.2l1.2-4.1h14L170.4,137.1z
			 M170.4,132.9h-13.9l1-3.5h12.9L170.4,132.9z M170.4,129.3h-12.9l0.9-3h12L170.4,129.3z M170.4,126.2h-12l0.8-2.6h11.3
			L170.4,126.2z M170.4,123.5h-11.2l0.7-2.3h10.6L170.4,123.5z M170.4,121.2h-10.6l0.6-2h10L170.4,121.2z M170.5,119.1h-10l0.5-1.8
			h9.4L170.5,119.1z M170.5,117.2H161l0.5-1.6h8.9L170.5,117.2z M170.5,115.5h-8.9l0.4-1.5h8.5L170.5,115.5z M170.5,114H162l0.4-1.3
			h8.1L170.5,114z M170.5,112.6h-8.1l0.4-1.2h7.8L170.5,112.6z M170.5,111.4h-7.7l0.3-1.1h7.4L170.5,111.4z M170.6,110.3h7.4
			l0.3,1.1h-7.7L170.6,110.3z M170.6,111.4h7.8l0.4,1.2h-8.1L170.6,111.4z M170.6,112.7h8.1l0.4,1.3h-8.5L170.6,112.7z M170.6,114
			h8.5l0.4,1.5h-8.9L170.6,114z M170.6,115.6h8.9l0.5,1.6h-9.4L170.6,115.6z M170.6,117.2h9.4l0.5,1.8h-10L170.6,117.2z
			 M170.6,119.1h10l0.6,2h-10.6L170.6,119.1z M170.7,121.2h10.6l0.7,2.3h-11.2L170.7,121.2z M170.7,123.6h11.3l0.8,2.6h-12
			L170.7,123.6z M170.7,126.3h12l0.9,3h-12.9L170.7,126.3z M170.7,129.4h12.9l1,3.5h-14L170.7,129.4z M170.7,133h14l1.2,4.1h-15.2
			L170.7,133z M170.7,137.3h15.2l1.4,4.9h-16.6L170.7,137.3z M170.7,142.3h16.7l1.7,5.9h-18.4L170.7,142.3z M170.7,148.4h18.4
			l2.1,7.3h-20.5L170.7,148.4z M170.8,165.3l0-9.3h20.6l2.7,9.3H170.8z M194.5,165.3l-2.8-9.3h20.6l5.4,9.3H194.5z M218.2,165.3
			l-5.5-9.3h20.6l8.2,9.3H218.2z M242,165.3l-8.2-9.3h20.6l10.9,9.3H242z M265.7,165.3l-11-9.3h20.6l13.6,9.3H265.7z M289.4,165.3
			l-13.7-9.3h20.6l16.4,9.3H289.4z M313.1,165.3l-16.4-9.3h20.6l19.1,9.3H313.1z M317.7,156h20.6l21.8,9.3h-23.3L317.7,156z"/>
	</g>
</g>
<g>
	
		<radialGradient id="SVGID_6_" cx="-430.9579" cy="41912.5078" r="97.3282" fx="-507.1432" fy="41923.8906" gradientTransform="matrix(0.8189 -6.047490e-02 5.028189e-03 6.808350e-02 374.5636 -2754.8015)" gradientUnits="userSpaceOnUse">
		<stop  offset="0" style="stop-color:#000000"/>
		<stop  offset="0.1471" style="stop-color:#000000;stop-opacity:0.8529"/>
		<stop  offset="1" style="stop-color:#000000;stop-opacity:0"/>
	</radialGradient>
	<path style="opacity:0.47;fill:url(#SVGID_6_);" d="M150.2,126c0.3,4,4.6,11.8,14,11.3c48.7-2.6,89-10,87.5-13.8
		c-8.5-22.1-41.6-9.9-88.5-0.8C149.9,125.3,149.9,122,150.2,126z"/>
	
		<radialGradient id="SVGID_7_" cx="-430.9579" cy="41912.5078" r="97.3282" fx="-507.1432" fy="41923.8906" gradientTransform="matrix(0.8189 -6.047490e-02 5.028189e-03 6.808350e-02 374.5636 -2754.8015)" gradientUnits="userSpaceOnUse">
		<stop  offset="0" style="stop-color:#000000"/>
		<stop  offset="0.1471" style="stop-color:#000000;stop-opacity:0.8529"/>
		<stop  offset="1" style="stop-color:#000000;stop-opacity:0"/>
	</radialGradient>
	<path style="opacity:0.47;fill:url(#SVGID_7_);" d="M150.2,126c0.3,4,4.6,11.8,14,11.3c48.7-2.6,89-10,87.5-13.8
		c-8.5-22.1-41.6-9.9-88.5-0.8C149.9,125.3,149.9,122,150.2,126z"/>
	
		<radialGradient id="SVGID_8_" cx="-704.3602" cy="7189.8286" r="96.8291" fx="-780.1548" fy="7201.1538" gradientTransform="matrix(0.9099 -0.2749 6.859169e-02 0.227 405.5549 -1719.8619)" gradientUnits="userSpaceOnUse">
		<stop  offset="0" style="stop-color:#000000"/>
		<stop  offset="0.1471" style="stop-color:#000000;stop-opacity:0.8529"/>
		<stop  offset="1" style="stop-color:#000000;stop-opacity:0"/>
	</radialGradient>
	<path style="opacity:0.47;fill:url(#SVGID_8_);" d="M186.1,154.7c55-13.1,95.7-41.2,90.4-53.9c-30.4-73-58.2-29.5-105.2,5.2"/>
	
		<radialGradient id="SVGID_9_" cx="-704.9691" cy="7189.0908" r="96.8291" fx="-780.7637" fy="7200.416" gradientTransform="matrix(0.9099 -0.2749 6.859169e-02 0.227 405.5549 -1719.8619)" gradientUnits="userSpaceOnUse">
		<stop  offset="0" style="stop-color:#000000"/>
		<stop  offset="0.1471" style="stop-color:#000000;stop-opacity:0.8529"/>
		<stop  offset="1" style="stop-color:#000000;stop-opacity:0"/>
	</radialGradient>
	<path style="opacity:0.47;fill:url(#SVGID_9_);" d="M185.5,154.7c55-13.1,95.7-41.2,90.4-53.9c-30.4-73-58.2-29.5-105.2,5.2"/>
	<g>
		<path style="fill:#4A7EDC;" d="M107.6,64.4c0,35.6,28,64.5,62.6,64.5s62.6-28.9,62.6-64.5s-28-63.6-62.6-63.6
			S107.6,28.7,107.6,64.4z"/>
		<g style="opacity:0.41;">
			
				<image style="overflow:visible;opacity:0.3;" width="199" height="199" xlink:href="90B7EEA7.png"  transform="matrix(1 0 0 1 78 -17)">
			</image>
			<g>
				<path style="fill:#FFFFFF;" d="M168.1,127.4L168.1,127.4c-29.8,0-53.9-24.2-53.9-53.9v0c0-29.8,24.2-53.9,53.9-53.9h0
					c29.8,0,53.9,24.2,53.9,53.9v0C222.1,103.3,197.9,127.4,168.1,127.4z"/>
			</g>
		</g>
		<linearGradient id="SVGID_10_" gradientUnits="userSpaceOnUse" x1="166.4892" y1="0.7682" x2="166.4892" y2="128.8925">
			<stop  offset="0" style="stop-color:#6AA5F0"/>
			<stop  offset="0.2434" style="stop-color:#5992ED"/>
			<stop  offset="0.5146" style="stop-color:#4C83EB"/>
			<stop  offset="0.7413" style="stop-color:#487EEA"/>
			<stop  offset="1" style="stop-color:#3964AA"/>
		</linearGradient>
		<ellipse style="fill:url(#SVGID_10_);" cx="166.5" cy="64.8" rx="59.8" ry="64.1"/>
		<polygon style="fill:#FFFFFF;" points="183,32.1 162,61 152.8,45.7 147.9,45.7 159.3,64.7 140.5,90.5 144.6,90.5 160.9,67.4 
			163.6,63.6 171.7,52.2 165.3,66.4 163.2,71.1 154.3,90.5 157.8,90.5 164.9,74 174.9,90.5 179.8,90.5 167,69.2 		"/>
	</g>
	<g>
		
			<radialGradient id="SVGID_11_" cx="-424.9936" cy="53266.2305" r="97.9983" fx="-501.7035" fy="53277.6914" gradientTransform="matrix(0.8215 -6.066809e-02 4.006203e-03 5.424555e-02 366.5676 -2789.9768)" gradientUnits="userSpaceOnUse">
			<stop  offset="0" style="stop-color:#000000"/>
			<stop  offset="0.1471" style="stop-color:#000000;stop-opacity:0.8529"/>
			<stop  offset="1" style="stop-color:#000000;stop-opacity:0"/>
		</radialGradient>
		<path style="opacity:0.23;fill:url(#SVGID_11_);" d="M133.6,126c0.2,3.2,20,10.8,29.4,10.2c48.8-2.8,89.3-9.3,87.9-12.4
			c-8.2-17.5-41.5-7.3-88.7,0.7C148.9,126.7,133.3,122.7,133.6,126z"/>
		
			<radialGradient id="SVGID_12_" cx="-749.2942" cy="49332.2383" r="97.9983" fx="-826.004" fy="49343.6992" gradientTransform="matrix(0.8123 -0.1367 9.027539e-03 5.363892e-02 402.4153 -2629.3022)" gradientUnits="userSpaceOnUse">
			<stop  offset="0" style="stop-color:#000000"/>
			<stop  offset="0.1471" style="stop-color:#000000;stop-opacity:0.8529"/>
			<stop  offset="1" style="stop-color:#000000;stop-opacity:0"/>
		</radialGradient>
		<path style="opacity:0.28;fill:url(#SVGID_12_);" d="M142.3,129c0.5,3.2,20.9,8.9,30.2,7.4c48.3-7.4,88-17.6,86.3-20.5
			c-9.8-16.6-42-3.4-88.3,8.9C157.7,128.3,141.8,125.8,142.3,129z"/>
	</g>
</g>
</svg>
