<?xml version="1.0" encoding="utf-8"?>
<!-- Generator: Adobe Illustrator 22.1.0, SVG Export Plug-In . SVG Version: 6.00 Build 0)  -->
<svg version="1.1" id="Layer_1" xmlns="http://www.w3.org/2000/svg" xmlns:xlink="http://www.w3.org/1999/xlink" x="0px" y="0px"
	 viewBox="0 0 342 120" style="enable-background:new 0 0 342 120;" xml:space="preserve">
<g style="display:none;">
	<defs>
		<path id="SVGID_1_" d="M2.4,418h338.1c9.9,0,17.9-8,17.9-17.9V-326h-374v726.1C-15.5,410-7.5,418,2.4,418z"/>
	</defs>
	<use xlink:href="#SVGID_1_"  style="display:inline;overflow:visible;fill:#2A2A2A;"/>
	<clipPath id="SVGID_2_" style="display:inline;">
		<use xlink:href="#SVGID_1_"  style="overflow:visible;"/>
	</clipPath>
</g>
<radialGradient id="SVGID_3_" cx="171.5" cy="68.1812" r="119.7326" gradientTransform="matrix(1 0 0 -1 0 165.2803)" gradientUnits="userSpaceOnUse">
	<stop  offset="0" style="stop-color:#E3E3E3"/>
	<stop  offset="5.571397e-03" style="stop-color:#DEDEDE"/>
	<stop  offset="5.483459e-02" style="stop-color:#B7B7B7"/>
	<stop  offset="0.1092" style="stop-color:#949494"/>
	<stop  offset="0.1681" style="stop-color:#777777"/>
	<stop  offset="0.233" style="stop-color:#5F5F5F"/>
	<stop  offset="0.3067" style="stop-color:#4C4C4C"/>
	<stop  offset="0.3941" style="stop-color:#404040"/>
	<stop  offset="0.5086" style="stop-color:#383838"/>
	<stop  offset="0.7534" style="stop-color:#363636"/>
	<stop  offset="0.9327" style="stop-color:#363636"/>
	<stop  offset="0.9631" style="stop-color:#363636"/>
</radialGradient>
<polygon style="opacity:0.19;fill:url(#SVGID_3_);" points="231.9,74.2 111.1,74.2 3.7,120 339.3,120 "/>
<g style="opacity:0.45;">
	<defs>
		<rect id="SVGID_4_" x="0.5" y="15.7" style="opacity:0.45;" width="342" height="104.2"/>
	</defs>
	<clipPath id="SVGID_5_">
		<use xlink:href="#SVGID_4_"  style="overflow:visible;"/>
	</clipPath>
	<g style="clip-path:url(#SVGID_5_);">
		<polygon style="fill:none;" points="271.2,96.9 285.2,96.9 277,93.4 264,93.4 		"/>
		<polygon style="fill:none;" points="302.8,112.2 321.1,112.2 307.2,106.3 290.6,106.3 		"/>
		<polygon style="fill:none;" points="279.9,101.1 295.1,101.1 285.4,97 271.4,97 		"/>
		<polygon style="fill:none;" points="317.9,119.8 302.8,112.4 284.4,112.4 297.3,119.8 		"/>
		<polygon style="fill:none;" points="290.3,106.2 306.9,106.2 295.4,101.3 280.2,101.3 		"/>
		<polygon style="fill:none;" points="255.1,119.8 246.5,112.4 228.1,112.4 234.5,119.8 		"/>
		<polygon style="fill:none;" points="232.3,78 240.8,78 237.6,76.7 229.5,76.7 		"/>
		<polygon style="fill:none;" points="195.3,75.4 196.4,76.6 204.5,76.6 203.1,75.4 		"/>
		<polygon style="fill:none;" points="235.4,79.5 244.3,79.5 240.9,78 232.4,78 		"/>
		<polygon style="fill:none;" points="263.8,93.3 276.7,93.3 269.7,90.3 257.6,90.3 		"/>
		<polygon style="fill:none;" points="242.7,83.1 252.7,83.1 248.4,81.2 239,81.2 		"/>
		<polygon style="fill:none;" points="234.1,119.8 227.7,112.4 209.3,112.4 213.6,119.8 		"/>
		<polygon style="fill:none;" points="238.9,81.2 248.3,81.2 244.4,79.6 235.5,79.6 		"/>
		<polygon style="fill:none;" points="257.5,90.2 269.5,90.2 263.3,87.6 252,87.6 		"/>
		<polygon style="fill:none;" points="247,85.2 257.6,85.2 252.8,83.1 242.8,83.1 		"/>
		<polygon style="fill:none;" points="251.9,87.5 263.2,87.5 257.7,85.2 247.2,85.2 		"/>
		<polygon style="fill:none;" points="296.9,119.8 284,112.4 265.6,112.4 276.4,119.8 		"/>
		<polygon style="fill:none;" points="190.7,81.2 189.7,79.6 180.8,79.6 181.2,81.2 		"/>
		<polygon style="fill:none;" points="189.7,79.5 188.8,78 180.3,78 180.7,79.5 		"/>
		<polygon style="fill:none;" points="191.8,83.1 190.7,81.2 181.3,81.2 181.8,83.1 		"/>
		<polygon style="fill:none;" points="188.8,78 188,76.7 179.9,76.7 180.3,78 		"/>
		<polygon style="fill:none;" points="187.4,75.4 188.2,76.6 196.3,76.6 195.2,75.4 		"/>
		<polygon style="fill:none;" points="193,85.2 191.8,83.1 181.8,83.1 182.4,85.2 		"/>
		<polygon style="fill:none;" points="179.5,75.4 179.9,76.6 188,76.6 187.3,75.4 		"/>
		<polygon style="fill:none;" points="213.2,119.8 208.9,112.4 190.5,112.4 192.7,119.8 		"/>
		<polygon style="fill:none;" points="205.3,106.2 202.4,101.3 187.2,101.3 188.6,106.2 		"/>
		<polygon style="fill:none;" points="194.4,87.5 193,85.2 182.4,85.2 183.1,87.5 		"/>
		<polygon style="fill:none;" points="208.8,112.2 205.3,106.3 188.7,106.3 190.4,112.2 		"/>
		<polygon style="fill:none;" points="202.3,101.1 199.9,97 185.9,97 187.2,101.1 		"/>
		<polygon style="fill:none;" points="199.9,96.9 197.8,93.4 184.9,93.4 185.9,96.9 		"/>
		<polygon style="fill:none;" points="195.9,90.2 194.4,87.6 183.1,87.6 183.9,90.2 		"/>
		<polygon style="fill:none;" points="197.8,93.3 196,90.3 183.9,90.3 184.8,93.3 		"/>
		<polygon style="fill:none;" points="276,119.8 265.2,112.4 246.8,112.4 255.5,119.8 		"/>
		<polygon style="fill:none;" points="131.9,93.4 118.9,93.4 114.8,96.9 128.8,96.9 		"/>
		<polygon style="fill:none;" points="137,87.6 125.7,87.6 122.6,90.2 134.7,90.2 		"/>
		<polygon style="fill:none;" points="134.6,90.3 122.6,90.3 119,93.3 131.9,93.3 		"/>
		<polygon style="fill:none;" points="128.7,97 114.7,97 109.9,101.1 125,101.1 		"/>
		<polygon style="fill:none;" points="94.4,101.1 109.6,101.1 114.4,97 100.4,97 		"/>
		<polygon style="fill:none;" points="87,106.2 103.7,106.2 109.4,101.3 94.2,101.3 		"/>
		<polygon style="fill:none;" points="124.9,101.3 109.7,101.3 104,106.2 120.6,106.2 		"/>
		<polygon style="fill:none;" points="141,83.1 131,83.1 128.6,85.2 139.1,85.2 		"/>
		<polygon style="fill:none;" points="145.4,78 136.9,78 135.2,79.5 144.1,79.5 		"/>
		<polygon style="fill:none;" points="146.7,76.7 138.5,76.7 137,78 145.5,78 		"/>
		<polygon style="fill:none;" points="128.3,78 136.8,78 138.4,76.7 130.3,76.7 		"/>
		<polygon style="fill:none;" points="142.6,81.2 133.2,81.2 131,83.1 141,83.1 		"/>
		<polygon style="fill:none;" points="144.1,79.6 135.1,79.6 133.2,81.2 142.7,81.2 		"/>
		<polygon style="fill:none;" points="119.6,78 128.1,78 130.1,76.7 122,76.7 		"/>
		<polygon style="fill:none;" points="139.1,85.2 128.5,85.2 125.8,87.5 137.1,87.5 		"/>
		<polygon style="fill:none;" points="234.6,75.4 232,74.3 224.6,74.3 226.9,75.4 		"/>
		<polygon style="fill:none;" points="187.3,75.4 186.6,74.3 179.2,74.3 179.5,75.4 		"/>
		<polygon style="fill:none;" points="203.1,75.4 201.7,74.3 194.3,74.3 195.3,75.4 		"/>
		<polygon style="fill:none;" points="195.2,75.4 194.2,74.3 186.8,74.3 187.4,75.4 		"/>
		<polygon style="fill:none;" points="210.9,75.4 209.3,74.3 201.9,74.3 203.2,75.4 		"/>
		<polygon style="fill:none;" points="229.5,76.6 237.6,76.6 234.7,75.4 226.9,75.4 		"/>
		<polygon style="fill:none;" points="226.7,75.4 224.4,74.3 217,74.3 219,75.4 		"/>
		<polygon style="fill:none;" points="218.8,75.4 216.9,74.3 209.5,74.3 211.1,75.4 		"/>
		<polygon style="fill:none;" points="114.3,87.5 125.6,87.5 128.3,85.2 117.7,85.2 		"/>
		<polygon style="fill:none;" points="163.6,75.4 163.9,74.3 156.5,74.3 155.8,75.4 		"/>
		<polygon style="fill:none;" points="117.8,85.2 128.4,85.2 130.8,83.1 120.8,83.1 		"/>
		<polygon style="fill:none;" points="110.4,90.2 122.4,90.2 125.5,87.6 114.2,87.6 		"/>
		<polygon style="fill:none;" points="105.9,93.3 118.8,93.3 122.3,90.3 110.3,90.3 		"/>
		<polygon style="fill:none;" points="123.6,81.2 133,81.2 135,79.6 126,79.6 		"/>
		<polygon style="fill:none;" points="136.8,78 128.3,78 126.1,79.5 135,79.5 		"/>
		<polygon style="fill:none;" points="120.9,83.1 130.8,83.1 133,81.2 123.6,81.2 		"/>
		<polygon style="fill:none;" points="100.6,96.9 114.5,96.9 118.7,93.4 105.7,93.4 		"/>
		<polygon style="fill:none;" points="233.2,101.1 228.4,97 214.4,97 218.1,101.1 		"/>
		<polygon style="fill:none;" points="256.1,106.2 248.9,101.3 233.7,101.3 239.4,106.2 		"/>
		<polygon style="fill:none;" points="239.1,106.2 233.4,101.3 218.2,101.3 222.5,106.2 		"/>
		<polygon style="fill:none;" points="273,106.2 264.4,101.3 249.2,101.3 256.4,106.2 		"/>
		<polygon style="fill:none;" points="220.5,90.2 217.4,87.6 206.1,87.6 208.4,90.2 		"/>
		<polygon style="fill:none;" points="228.3,96.9 224.2,93.4 211.3,93.4 214.3,96.9 		"/>
		<polygon style="fill:none;" points="217.3,87.5 214.6,85.2 204,85.2 206.1,87.5 		"/>
		<polygon style="fill:none;" points="224.1,93.3 220.5,90.3 208.5,90.3 211.2,93.3 		"/>
		<polygon style="fill:none;" points="213,76.7 215,78 223.5,78 221.1,76.7 		"/>
		<polygon style="fill:none;" points="219.7,81.2 222.4,83.1 232.4,83.1 229.2,81.2 		"/>
		<polygon style="fill:none;" points="217.3,79.6 219.7,81.2 229.1,81.2 226.2,79.6 		"/>
		<polygon style="fill:none;" points="215,78 217.2,79.5 226.1,79.5 223.5,78 		"/>
		<polygon style="fill:none;" points="222.5,83.1 225.5,85.2 236.1,85.2 232.5,83.1 		"/>
		<polygon style="fill:none;" points="229.1,87.6 232.9,90.2 245,90.2 240.3,87.6 		"/>
		<polygon style="fill:none;" points="233.1,90.3 237.5,93.3 250.4,93.3 245.1,90.3 		"/>
		<polygon style="fill:none;" points="225.6,85.2 229,87.5 240.2,87.5 236.2,85.2 		"/>
		<polygon style="fill:none;" points="237.6,93.4 242.8,96.9 256.7,96.9 250.6,93.4 		"/>
		<polygon style="fill:none;" points="214.5,85.2 212.1,83.1 202.2,83.1 204,85.2 		"/>
		<polygon style="fill:none;" points="248.7,101.1 242.7,97 228.7,97 233.5,101.1 		"/>
		<polygon style="fill:none;" points="214.8,85.2 217.5,87.5 228.8,87.5 225.4,85.2 		"/>
		<polygon style="fill:none;" points="217.6,87.6 220.7,90.2 232.7,90.2 228.9,87.6 		"/>
		<polygon style="fill:none;" points="224.4,93.4 228.6,96.9 242.5,96.9 237.4,93.4 		"/>
		<polygon style="fill:none;" points="318.3,119.8 338.8,119.8 321.6,112.4 303.2,112.4 		"/>
		<polygon style="fill:none;" points="220.8,90.3 224.3,93.3 237.3,93.3 232.8,90.3 		"/>
		<polygon style="fill:none;" points="197.7,78 199,79.5 207.9,79.5 206.2,78 		"/>
		<polygon style="fill:none;" points="209.9,81.2 208,79.6 199,79.6 200.5,81.2 		"/>
		<polygon style="fill:none;" points="212.1,83.1 209.9,81.2 200.5,81.2 202.1,83.1 		"/>
		<polygon style="fill:none;" points="206.3,78 208.1,79.5 217,79.5 214.9,78 		"/>
		<polygon style="fill:none;" points="212.3,83.1 214.7,85.2 225.3,85.2 222.3,83.1 		"/>
		<polygon style="fill:none;" points="210.1,81.2 212.3,83.1 222.2,83.1 219.5,81.2 		"/>
		<polygon style="fill:none;" points="208.1,79.6 210.1,81.2 219.5,81.2 217.1,79.6 		"/>
		<polygon style="fill:none;" points="245.3,90.3 250.7,93.3 263.6,93.3 257.4,90.3 		"/>
		<polygon style="fill:none;" points="236.4,85.2 240.4,87.5 251.7,87.5 246.9,85.2 		"/>
		<polygon style="fill:none;" points="203.2,75.4 204.7,76.6 212.8,76.6 211,75.4 		"/>
		<polygon style="fill:none;" points="240.6,87.6 245.2,90.2 257.2,90.2 251.8,87.6 		"/>
		<polygon style="fill:none;" points="250.8,93.4 257,96.9 271,96.9 263.8,93.4 		"/>
		<polygon style="fill:none;" points="257.2,97 264.5,101.1 279.6,101.1 271.2,97 		"/>
		<polygon style="fill:none;" points="302.4,112.2 290.2,106.3 273.6,106.3 284.1,112.2 		"/>
		<polygon style="fill:none;" points="264.7,101.3 273.3,106.2 289.9,106.2 279.9,101.3 		"/>
		<polygon style="fill:none;" points="229.3,81.2 232.6,83.1 242.5,83.1 238.8,81.2 		"/>
		<polygon style="fill:none;" points="219,75.4 221.2,76.6 229.3,76.6 226.8,75.4 		"/>
		<polygon style="fill:none;" points="211.1,75.4 212.9,76.6 221,76.6 218.9,75.4 		"/>
		<polygon style="fill:none;" points="221.3,76.7 223.6,78 232.1,78 229.4,76.7 		"/>
		<polygon style="fill:none;" points="232.7,83.1 236.3,85.2 246.8,85.2 242.6,83.1 		"/>
		<polygon style="fill:none;" points="223.7,78 226.3,79.5 235.2,79.5 232.2,78 		"/>
		<polygon style="fill:none;" points="283.7,112.2 273.3,106.3 256.6,106.3 265.3,112.2 		"/>
		<polygon style="fill:none;" points="226.4,79.6 229.3,81.2 238.7,81.2 235.3,79.6 		"/>
		<polygon style="fill:none;" points="217.8,101.1 214.2,97 200.2,97 202.6,101.1 		"/>
		<polygon style="fill:none;" points="201.9,83.1 200.3,81.2 190.9,81.2 192,83.1 		"/>
		<polygon style="fill:none;" points="200.3,81.2 198.8,79.6 189.9,79.6 190.8,81.2 		"/>
		<polygon style="fill:none;" points="203.8,85.2 202,83.1 192,83.1 193.2,85.2 		"/>
		<polygon style="fill:none;" points="198.8,79.5 197.5,78 189,78 189.9,79.5 		"/>
		<polygon style="fill:none;" points="205.8,87.5 203.8,85.2 193.2,85.2 194.6,87.5 		"/>
		<polygon style="fill:none;" points="196.4,76.7 197.6,78 206.1,78 204.6,76.7 		"/>
		<polygon style="fill:none;" points="188.2,76.7 189,78 197.5,78 196.3,76.7 		"/>
		<polygon style="fill:none;" points="214.1,96.9 211,93.4 198.1,93.4 200.1,96.9 		"/>
		<polygon style="fill:none;" points="227.5,112.2 222.3,106.3 205.7,106.3 209.2,112.2 		"/>
		<polygon style="fill:none;" points="246.3,112.2 239.3,106.3 222.6,106.3 227.9,112.2 		"/>
		<polygon style="fill:none;" points="222.2,106.2 217.9,101.3 202.7,101.3 205.6,106.2 		"/>
		<polygon style="fill:none;" points="265,112.2 256.3,106.3 239.6,106.3 246.6,112.2 		"/>
		<polygon style="fill:none;" points="210.9,93.3 208.3,90.3 196.2,90.3 198,93.3 		"/>
		<polygon style="fill:none;" points="208.2,90.2 205.9,87.6 194.6,87.6 196.2,90.2 		"/>
		<polygon style="fill:none;" points="204.7,76.7 206.3,78 214.8,78 212.8,76.7 		"/>
		<polygon style="fill:none;" points="242.9,97 249,101.1 264.2,101.1 256.9,97 		"/>
		<polygon style="fill:none;" points="148.1,129.3 171.3,129.3 171.4,120 150.8,120 		"/>
		<polygon style="fill:none;" points="108.8,120 100.6,129.3 123.9,129.3 129.4,120 		"/>
		<polygon style="fill:none;" points="87.8,120 76.9,129.3 100.1,129.3 108.4,120 		"/>
		<polygon style="fill:none;" points="129.8,120 124.3,129.3 147.6,129.3 150.4,120 		"/>
		<polygon style="fill:none;" points="66.8,120 53.1,129.3 76.4,129.3 87.4,120 		"/>
		<polygon style="fill:none;" points="40,112.4 21.5,112.4 4.3,119.8 24.8,119.8 		"/>
		<polygon style="fill:none;" points="45.8,120 29.4,129.3 52.7,129.3 66.4,120 		"/>
		<polygon style="fill:none;" points="24.8,120 5.7,129.3 29,129.3 45.4,120 		"/>
		<polygon style="fill:none;" points="3.8,120 -18,129.3 5.2,129.3 24.4,120 		"/>
		<polygon style="fill:none;" points="158.5,93.3 171.4,93.3 171.4,90.3 159.4,90.3 		"/>
		<polygon style="fill:none;" points="160.2,87.5 171.4,87.5 171.4,85.2 160.9,85.2 		"/>
		<polygon style="fill:none;" points="157.5,96.9 171.4,96.9 171.4,93.4 158.5,93.4 		"/>
		<polygon style="fill:none;" points="156.2,101.1 171.4,101.1 171.4,97 157.4,97 		"/>
		<polygon style="fill:none;" points="153,112.2 171.4,112.2 171.4,106.3 154.7,106.3 		"/>
		<polygon style="fill:none;" points="150.8,119.8 171.4,119.8 171.4,112.4 153,112.4 		"/>
		<polygon style="fill:none;" points="154.8,106.2 171.4,106.2 171.4,101.3 156.2,101.3 		"/>
		<polygon style="fill:none;" points="116.2,75.4 108.4,75.4 105.5,76.6 113.6,76.6 		"/>
		<polygon style="fill:none;" points="104.1,81.2 94.7,81.2 90.4,83.1 100.4,83.1 		"/>
		<polygon style="fill:none;" points="107.6,79.6 98.7,79.6 94.8,81.2 104.2,81.2 		"/>
		<polygon style="fill:none;" points="113.6,76.7 105.5,76.7 102.3,78 110.8,78 		"/>
		<polygon style="fill:none;" points="110.7,78 102.2,78 98.8,79.5 107.7,79.5 		"/>
		<polygon style="fill:none;" points="124.1,75.4 126.1,74.3 118.7,74.3 116.4,75.4 		"/>
		<polygon style="fill:none;" points="118.5,74.3 111.1,74.3 108.5,75.4 116.2,75.4 		"/>
		<polygon style="fill:none;" points="160.9,85.2 171.4,85.2 171.5,83.1 161.5,83.1 		"/>
		<polygon style="fill:none;" points="85.5,90.3 73.4,90.3 66.4,93.3 79.3,93.3 		"/>
		<polygon style="fill:none;" points="100.3,83.1 90.3,83.1 85.5,85.2 96.1,85.2 		"/>
		<polygon style="fill:none;" points="71.7,97 57.7,97 48,101.1 63.2,101.1 		"/>
		<polygon style="fill:none;" points="62.9,101.3 47.7,101.3 36.2,106.2 52.9,106.2 		"/>
		<polygon style="fill:none;" points="79.1,93.4 66.1,93.4 57.9,96.9 71.9,96.9 		"/>
		<polygon style="fill:none;" points="95.9,85.2 85.4,85.2 79.9,87.5 91.2,87.5 		"/>
		<polygon style="fill:none;" points="52.5,106.3 35.9,106.3 22,112.2 40.3,112.2 		"/>
		<polygon style="fill:none;" points="91.1,87.6 79.8,87.6 73.6,90.2 85.6,90.2 		"/>
		<polygon style="fill:none;" points="161.5,83.1 171.5,83.1 171.5,81.2 162,81.2 		"/>
		<polygon style="fill:none;" points="171.8,120 171.8,129.3 195.1,129.3 192.4,120 		"/>
		<polygon style="fill:none;" points="213.7,120 219.2,129.3 242.5,129.3 234.3,120 		"/>
		<polygon style="fill:none;" points="184.6,93.4 171.7,93.4 171.7,96.9 185.6,96.9 		"/>
		<polygon style="fill:none;" points="192.7,120 195.5,129.3 218.8,129.3 213.3,120 		"/>
		<polygon style="fill:none;" points="188.4,106.3 171.7,106.3 171.7,112.2 190.1,112.2 		"/>
		<polygon style="fill:none;" points="185.7,97 171.7,97 171.7,101.1 186.9,101.1 		"/>
		<polygon style="fill:none;" points="186.9,101.3 171.7,101.3 171.7,106.2 188.3,106.2 		"/>
		<polygon style="fill:none;" points="190.1,112.4 171.7,112.4 171.8,119.8 192.3,119.8 		"/>
		<polygon style="fill:none;" points="117,79.5 125.9,79.5 128.1,78 119.6,78 		"/>
		<polygon style="fill:none;" points="339.3,120 318.7,120 337.9,129.3 361.1,129.3 		"/>
		<polygon style="fill:none;" points="297.7,120 314.1,129.3 337.4,129.3 318.3,120 		"/>
		<polygon style="fill:none;" points="255.7,120 266.7,129.3 290,129.3 276.3,120 		"/>
		<polygon style="fill:none;" points="234.7,120 243,129.3 266.2,129.3 255.3,120 		"/>
		<polygon style="fill:none;" points="276.7,120 290.4,129.3 313.7,129.3 297.3,120 		"/>
		<polygon style="fill:none;" points="181.6,83.1 171.6,83.1 171.7,85.2 182.2,85.2 		"/>
		<polygon style="fill:none;" points="183.7,90.3 171.7,90.3 171.7,93.3 184.6,93.3 		"/>
		<polygon style="fill:none;" points="179,74.3 171.6,74.3 171.6,75.4 179.4,75.4 		"/>
		<polygon style="fill:none;" points="179.4,75.4 171.6,75.4 171.6,76.6 179.7,76.6 		"/>
		<polygon style="fill:none;" points="163.4,76.6 171.5,76.6 171.5,75.4 163.7,75.4 		"/>
		<polygon style="fill:none;" points="162,81.2 171.5,81.2 171.5,79.6 162.5,79.6 		"/>
		<polygon style="fill:none;" points="162.5,79.5 171.5,79.5 171.5,78 163,78 		"/>
		<polygon style="fill:none;" points="163,78 171.5,78 171.5,76.7 163.4,76.7 		"/>
		<polygon style="fill:none;" points="163.7,75.4 171.5,75.4 171.5,74.3 164.1,74.3 		"/>
		<polygon style="fill:none;" points="182.2,85.2 171.7,85.2 171.7,87.5 182.9,87.5 		"/>
		<polygon style="fill:none;" points="182.9,87.6 171.7,87.6 171.7,90.2 183.7,90.2 		"/>
		<polygon style="fill:none;" points="179.7,76.7 171.6,76.7 171.6,78 180.1,78 		"/>
		<polygon style="fill:none;" points="132,75.4 133.6,74.3 126.2,74.3 124.3,75.4 		"/>
		<polygon style="fill:none;" points="181.1,81.2 171.6,81.2 171.6,83.1 181.6,83.1 		"/>
		<polygon style="fill:none;" points="180.1,78 171.6,78 171.6,79.5 180.6,79.5 		"/>
		<polygon style="fill:none;" points="180.6,79.6 171.6,79.6 171.6,81.2 181.1,81.2 		"/>
		<polygon style="fill:none;" points="159.4,90.2 171.4,90.2 171.4,87.6 160.2,87.6 		"/>
		<polygon style="fill:none;" points="151.1,83.1 141.1,83.1 139.3,85.2 149.9,85.2 		"/>
		<polygon style="fill:none;" points="153.2,79.6 144.3,79.6 142.8,81.2 152.3,81.2 		"/>
		<polygon style="fill:none;" points="152.2,81.2 142.8,81.2 141.2,83.1 151.2,83.1 		"/>
		<polygon style="fill:none;" points="154.9,76.7 146.8,76.7 145.6,78 154.1,78 		"/>
		<polygon style="fill:none;" points="154.1,78 145.6,78 144.3,79.5 153.2,79.5 		"/>
		<polygon style="fill:none;" points="146.9,90.3 134.8,90.3 132.2,93.3 145.1,93.3 		"/>
		<polygon style="fill:none;" points="149.9,85.2 139.3,85.2 137.3,87.5 148.5,87.5 		"/>
		<polygon style="fill:none;" points="148.5,87.6 137.2,87.6 134.9,90.2 146.9,90.2 		"/>
		<polygon style="fill:none;" points="122.1,76.6 130.2,76.6 132,75.4 124.2,75.4 		"/>
		<polygon style="fill:none;" points="113.8,76.6 121.9,76.6 124.1,75.4 116.3,75.4 		"/>
		<polygon style="fill:none;" points="111,78 119.5,78 121.8,76.7 113.7,76.7 		"/>
		<polygon style="fill:none;" points="107.9,79.5 116.8,79.5 119.4,78 110.9,78 		"/>
		<polygon style="fill:none;" points="130.3,76.6 138.4,76.6 139.9,75.4 132.1,75.4 		"/>
		<polygon style="fill:none;" points="145,93.4 132.1,93.4 129,96.9 143,96.9 		"/>
		<polygon style="fill:none;" points="138.6,76.6 146.7,76.6 147.8,75.4 140,75.4 		"/>
		<polygon style="fill:none;" points="104.4,81.2 113.8,81.2 116.7,79.6 107.8,79.6 		"/>
		<polygon style="fill:none;" points="155.7,75.4 147.9,75.4 146.8,76.6 155,76.6 		"/>
		<polygon style="fill:none;" points="86.4,96.9 100.3,96.9 105.5,93.4 92.5,93.4 		"/>
		<polygon style="fill:none;" points="98.1,90.2 110.2,90.2 114,87.6 102.8,87.6 		"/>
		<polygon style="fill:none;" points="92.7,93.3 105.6,93.3 110,90.3 98,90.3 		"/>
		<polygon style="fill:none;" points="102.9,87.5 114.1,87.5 117.5,85.2 106.9,85.2 		"/>
		<polygon style="fill:none;" points="107,85.2 117.6,85.2 120.6,83.1 110.6,83.1 		"/>
		<polygon style="fill:none;" points="139.9,75.4 141.2,74.3 133.8,74.3 132.2,75.4 		"/>
		<polygon style="fill:none;" points="114,81.2 123.4,81.2 125.9,79.6 116.9,79.6 		"/>
		<polygon style="fill:none;" points="142.9,97 128.9,97 125.3,101.1 140.5,101.1 		"/>
		<polygon style="fill:none;" points="78.9,101.1 94.1,101.1 100.2,97 86.2,97 		"/>
		<polygon style="fill:none;" points="137.4,106.3 120.8,106.3 115.6,112.2 133.9,112.2 		"/>
		<polygon style="fill:none;" points="140.4,101.3 125.2,101.3 120.9,106.2 137.5,106.2 		"/>
		<polygon style="fill:none;" points="120.5,106.3 103.8,106.3 96.8,112.2 115.2,112.2 		"/>
		<polygon style="fill:none;" points="70.1,106.2 86.7,106.2 93.9,101.3 78.7,101.3 		"/>
		<polygon style="fill:none;" points="59.4,112.2 77.8,112.2 86.5,106.3 69.8,106.3 		"/>
		<polygon style="fill:none;" points="103.5,106.3 86.8,106.3 78.1,112.2 96.5,112.2 		"/>
		<polygon style="fill:none;" points="110.7,83.1 120.7,83.1 123.4,81.2 113.9,81.2 		"/>
		<polygon style="fill:none;" points="158.2,93.4 145.3,93.4 143.2,96.9 157.2,96.9 		"/>
		<polygon style="fill:none;" points="160,87.6 148.7,87.6 147.2,90.2 159.2,90.2 		"/>
		<polygon style="fill:none;" points="159.2,90.3 147.1,90.3 145.3,93.3 158.3,93.3 		"/>
		<polygon style="fill:none;" points="152.6,112.4 134.2,112.4 129.9,119.8 150.4,119.8 		"/>
		<polygon style="fill:none;" points="157.2,97 143.2,97 140.8,101.1 155.9,101.1 		"/>
		<polygon style="fill:none;" points="154.4,106.3 137.8,106.3 134.3,112.2 152.7,112.2 		"/>
		<polygon style="fill:none;" points="161.3,83.1 151.3,83.1 150.1,85.2 160.7,85.2 		"/>
		<polygon style="fill:none;" points="155.9,101.3 140.7,101.3 137.8,106.2 154.5,106.2 		"/>
		<polygon style="fill:none;" points="160.7,85.2 150.1,85.2 148.7,87.5 160,87.5 		"/>
		<polygon style="fill:none;" points="100.6,83.1 110.5,83.1 113.8,81.2 104.3,81.2 		"/>
		<polygon style="fill:none;" points="163.6,75.4 155.8,75.4 155.1,76.6 163.2,76.6 		"/>
		<polygon style="fill:none;" points="155.7,75.4 156.3,74.3 148.9,74.3 147.9,75.4 		"/>
		<polygon style="fill:none;" points="161.8,81.2 152.4,81.2 151.3,83.1 161.3,83.1 		"/>
		<polygon style="fill:none;" points="162.3,79.6 153.4,79.6 152.4,81.2 161.9,81.2 		"/>
		<polygon style="fill:none;" points="163.2,76.7 155.1,76.7 154.3,78 162.8,78 		"/>
		<polygon style="fill:none;" points="162.8,78 154.3,78 153.4,79.5 162.4,79.5 		"/>
		<polygon style="fill:none;" points="133.8,112.4 115.4,112.4 109,119.8 129.5,119.8 		"/>
		<polygon style="fill:none;" points="79.5,93.3 92.4,93.3 97.8,90.3 85.7,90.3 		"/>
		<polygon style="fill:none;" points="85.9,90.2 97.9,90.2 102.5,87.6 91.3,87.6 		"/>
		<polygon style="fill:none;" points="72.1,96.9 86.1,96.9 92.3,93.4 79.3,93.4 		"/>
		<polygon style="fill:none;" points="147.8,75.4 148.8,74.3 141.4,74.3 140.1,75.4 		"/>
		<polygon style="fill:none;" points="63.5,101.1 78.6,101.1 85.9,97 71.9,97 		"/>
		<polygon style="fill:none;" points="96.3,85.2 106.8,85.2 110.4,83.1 100.5,83.1 		"/>
		<polygon style="fill:none;" points="91.4,87.5 102.7,87.5 106.7,85.2 96.2,85.2 		"/>
		<polygon style="fill:none;" points="25.2,119.8 45.8,119.8 58.7,112.4 40.3,112.4 		"/>
		<polygon style="fill:none;" points="77.5,112.4 59.1,112.4 46.2,119.8 66.7,119.8 		"/>
		<polygon style="fill:none;" points="115,112.4 96.6,112.4 88,119.8 108.6,119.8 		"/>
		<polygon style="fill:none;" points="40.7,112.2 59,112.2 69.5,106.3 52.9,106.3 		"/>
		<polygon style="fill:none;" points="53.2,106.2 69.8,106.2 78.4,101.3 63.2,101.3 		"/>
		<polygon style="fill:none;" points="96.3,112.4 77.9,112.4 67.1,119.8 87.6,119.8 		"/>
		<path style="fill:#FFFFFF;" d="M232.1,74.2H111l-130.2,55.3h381.5L232.1,74.2z M338.8,119.8h-20.5l-15.1-7.3h18.4L338.8,119.8z
			 M228.6,96.9l-4.1-3.5h12.9l5.1,3.5H228.6z M242.7,97l6,4.1h-15.2l-4.8-4.1H242.7z M224.3,93.3l-3.6-3h12l4.4,3H224.3z
			 M220.7,90.2l-3.1-2.6h11.3l3.9,2.6H220.7z M217.5,87.5l-2.7-2.3h10.6l3.4,2.3H217.5z M214.7,85.2l-2.4-2h10l3,2H214.7z
			 M212.3,83.1l-2.1-1.8h9.4l2.7,1.8H212.3z M210.1,81.2l-1.9-1.6h8.9l2.4,1.6H210.1z M208.1,79.5l-1.7-1.5h8.5l2.2,1.5H208.1z
			 M207.9,79.5H199l-1.3-1.5h8.5L207.9,79.5z M208,79.6l1.9,1.6h-9.4l-1.4-1.6H208z M209.9,81.2l2.1,1.8h-10l-1.6-1.8H209.9z
			 M212.1,83.1l2.4,2H204l-1.8-2H212.1z M214.6,85.2l2.7,2.3h-11.2l-2-2.3H214.6z M217.4,87.6l3.1,2.6h-12l-2.3-2.6H217.4z
			 M220.5,90.3l3.5,3h-12.9l-2.7-3H220.5z M224.2,93.4l4.1,3.5h-13.9l-3.1-3.5H224.2z M228.4,97l4.8,4.1h-15.2l-3.6-4.1H228.4z
			 M233.4,101.3l5.7,4.9h-16.6l-4.3-4.9H233.4z M233.7,101.3h15.2l7.2,4.9h-16.6L233.7,101.3z M249.2,101.3h15.2l8.6,4.9h-16.6
			L249.2,101.3z M249,101.1l-6.1-4.1h14l7.2,4.1H249z M242.8,96.9l-5.2-3.5h12.9l6.2,3.5H242.8z M237.5,93.3l-4.4-3h12l5.3,3H237.5z
			 M232.9,90.2l-3.9-2.6h11.3l4.6,2.6H232.9z M229,87.5l-3.4-2.3h10.6l4.1,2.3H229z M225.5,85.2l-3-2h10l3.6,2H225.5z M222.4,83.1
			l-2.7-1.8h9.4l3.2,1.8H222.4z M219.7,81.2l-2.4-1.6h8.9l2.9,1.6H219.7z M217.2,79.5L215,78h8.5l2.6,1.5H217.2z M215,78l-2-1.3h8.1
			l2.4,1.3H215z M214.8,78h-8.5l-1.6-1.3h8.1L214.8,78z M206.1,78h-8.5l-1.2-1.3h8.1L206.1,78z M197.5,78H189l-0.8-1.3h8.1L197.5,78
			z M197.5,78l1.3,1.5h-8.9L189,78H197.5z M198.8,79.6l1.4,1.6h-9.4l-1-1.6H198.8z M200.3,81.2l1.6,1.8h-10l-1.1-1.8H200.3z
			 M202,83.1l1.8,2h-10.6l-1.2-2H202z M203.8,85.2l2,2.3h-11.2l-1.4-2.3H203.8z M205.9,87.6l2.3,2.6h-12l-1.6-2.6H205.9z
			 M208.3,90.3l2.7,3H198l-1.8-3H208.3z M211,93.4l3.1,3.5h-13.9l-2.1-3.5H211z M214.2,97l3.6,4.1h-15.2l-2.4-4.1H214.2z
			 M217.9,101.3l4.3,4.9h-16.6l-2.9-4.9H217.9z M222.3,106.3l5.2,5.9h-18.4l-3.5-5.9H222.3z M222.6,106.3h16.7l7,5.9h-18.4
			L222.6,106.3z M239.6,106.3h16.7l8.7,5.9h-18.4L239.6,106.3z M256.6,106.3h16.7l10.4,5.9h-18.4L256.6,106.3z M273.6,106.3h16.7
			l12.2,5.9h-18.4L273.6,106.3z M273.3,106.2l-8.6-4.9h15.2l10.1,4.9H273.3z M264.5,101.1l-7.3-4.1h14l8.4,4.1H264.5z M257,96.9
			l-6.2-3.5h12.9l7.2,3.5H257z M250.7,93.3l-5.3-3h12l6.2,3H250.7z M245.2,90.2l-4.6-2.6h11.3l5.4,2.6H245.2z M240.4,87.5l-4.1-2.3
			h10.6l4.7,2.3H240.4z M236.3,85.2l-3.6-2h10l4.2,2H236.3z M232.6,83.1l-3.2-1.8h9.4l3.7,1.8H232.6z M229.3,81.2l-2.9-1.6h8.9
			l3.4,1.6H229.3z M226.3,79.5l-2.6-1.5h8.5l3,1.5H226.3z M223.6,78l-2.4-1.3h8.1l2.7,1.3H223.6z M221.2,76.6l-2.2-1.2h7.8l2.5,1.2
			H221.2z M221,76.6h-8.1l-1.8-1.2h7.8L221,76.6z M212.8,76.6h-8.1l-1.4-1.2h7.8L212.8,76.6z M204.5,76.6h-8.1l-1.1-1.2h7.8
			L204.5,76.6z M196.3,76.6h-8.1l-0.7-1.2h7.8L196.3,76.6z M188,76.6h-8.1l-0.4-1.2h7.8L188,76.6z M188,76.7l0.8,1.3h-8.5l-0.4-1.3
			H188z M188.8,78l0.9,1.5h-8.9l-0.4-1.5H188.8z M189.7,79.6l1,1.6h-9.4l-0.5-1.6H189.7z M190.7,81.2l1.1,1.8h-10l-0.5-1.8H190.7z
			 M191.8,83.1l1.2,2h-10.6l-0.6-2H191.8z M193,85.2l1.3,2.3h-11.2l-0.7-2.3H193z M194.4,87.6l1.5,2.6h-12l-0.8-2.6H194.4z
			 M196,90.3l1.8,3h-12.9l-0.9-3H196z M197.8,93.4l2,3.5h-14l-1-3.5H197.8z M199.9,97l2.4,4.1h-15.2l-1.2-4.1H199.9z M202.4,101.3
			l2.9,4.9h-16.6l-1.5-4.9H202.4z M205.3,106.3l3.5,5.9h-18.4l-1.8-5.9H205.3z M208.9,112.4l4.3,7.3h-20.5l-2.2-7.3H208.9z
			 M209.3,112.4h18.4l6.4,7.3h-20.5L209.3,112.4z M228.1,112.4h18.4l8.6,7.3h-20.5L228.1,112.4z M246.8,112.4h18.4l10.8,7.3h-20.5
			L246.8,112.4z M265.6,112.4H284l12.9,7.3h-20.5L265.6,112.4z M284.4,112.4h18.4l15.1,7.3h-20.5L284.4,112.4z M321.1,112.2h-18.4
			l-12.2-5.9h16.7L321.1,112.2z M306.9,106.2h-16.6l-10.1-4.9h15.2L306.9,106.2z M295.1,101.1h-15.2l-8.5-4.1h14L295.1,101.1z
			 M285.2,96.9h-13.9l-7.2-3.5H277L285.2,96.9z M276.7,93.3h-12.9l-6.2-3h12L276.7,93.3z M269.5,90.2h-12l-5.4-2.6h11.3L269.5,90.2z
			 M263.2,87.5h-11.2l-4.8-2.3h10.6L263.2,87.5z M257.6,85.2H247l-4.2-2h10L257.6,85.2z M252.7,83.1h-10l-3.8-1.8h9.4L252.7,83.1z
			 M248.3,81.2h-9.4l-3.4-1.6h8.9L248.3,81.2z M244.3,79.5h-8.9l-3-1.5h8.5L244.3,79.5z M240.8,78h-8.5l-2.8-1.3h8.1L240.8,78z
			 M237.6,76.6h-8.1l-2.5-1.2h7.8L237.6,76.6z M232,74.3l2.6,1.1h-7.7l-2.3-1.1H232z M224.4,74.3l2.3,1.1H219l-2-1.1H224.4z
			 M216.9,74.3l2,1.1h-7.7l-1.6-1.1H216.9z M209.3,74.3l1.6,1.1h-7.7l-1.3-1.1H209.3z M201.7,74.3l1.3,1.1h-7.7l-1-1.1H201.7z
			 M194.2,74.3l1,1.1h-7.7l-0.7-1.1H194.2z M186.6,74.3l0.7,1.1h-7.7l-0.3-1.1H186.6z M163.9,74.3l-0.3,1.1h-7.7l0.7-1.1H163.9z
			 M135,79.6l-1.9,1.6h-9.4l2.4-1.6H135z M126.1,79.5l2.2-1.5h8.5l-1.7,1.5H126.1z M133,81.2l-2.1,1.8h-10l2.7-1.8H133z M130.8,83.1
			l-2.4,2h-10.6l3-2H130.8z M128.3,85.2l-2.7,2.3h-11.2l3.4-2.3H128.3z M125.5,87.6l-3.1,2.6h-12l3.9-2.6H125.5z M122.3,90.3l-3.6,3
			h-12.9l4.4-3H122.3z M118.7,93.4l-4.1,3.5h-13.9l5.1-3.5H118.7z M114.4,97l-4.8,4.1H94.4l6-4.1H114.4z M109.4,101.3l-5.8,4.9H87
			l7.2-4.9H109.4z M109.7,101.3h15.2l-4.3,4.9H104L109.7,101.3z M109.9,101.1l4.8-4.1h14l-3.6,4.1H109.9z M114.8,96.9l4.1-3.5h12.9
			l-3.1,3.5H114.8z M119,93.3l3.5-3h12l-2.7,3H119z M122.6,90.2l3.1-2.6H137l-2.3,2.6H122.6z M125.8,87.5l2.7-2.3h10.6l-2,2.3H125.8
			z M128.6,85.2l2.4-2h10l-1.8,2H128.6z M131,83.1l2.1-1.8h9.4l-1.6,1.8H131z M133.2,81.2l1.9-1.6h8.9l-1.4,1.6H133.2z M135.2,79.5
			l1.7-1.5h8.5l-1.3,1.5H135.2z M137,78l1.6-1.3h8.1l-1.2,1.3H137z M136.8,78h-8.5l2-1.3h8.1L136.8,78z M128.1,78h-8.5l2.4-1.3h8.1
			L128.1,78z M128.1,78l-2.2,1.5H117l2.6-1.5H128.1z M125.9,79.6l-2.4,1.6H114l2.9-1.6H125.9z M123.4,81.2l-2.7,1.8h-10l3.2-1.8
			H123.4z M120.6,83.1l-3,2H107l3.6-2H120.6z M117.5,85.2l-3.4,2.3h-11.2l4.1-2.3H117.5z M114,87.6l-3.9,2.6h-12l4.6-2.6H114z
			 M110,90.3l-4.4,3H92.7l5.3-3H110z M105.5,93.4l-5.2,3.5h-14l6.2-3.5H105.5z M100.2,97l-6.1,4.1H78.9l7.2-4.1H100.2z M93.9,101.3
			l-7.2,4.9H70.1l8.6-4.9H93.9z M86.5,106.3l-8.7,5.9H59.4l10.4-5.9H86.5z M86.8,106.3h16.7l-7,5.9H78.1L86.8,106.3z M103.8,106.3
			h16.7l-5.2,5.9H96.8L103.8,106.3z M120.8,106.3h16.7l-3.5,5.9h-18.4L120.8,106.3z M120.9,106.2l4.3-4.9h15.2l-2.9,4.9H120.9z
			 M125.3,101.1l3.6-4.1h14l-2.4,4.1H125.3z M129,96.9l3.1-3.5H145l-2.1,3.5H129z M132.2,93.3l2.7-3h12l-1.8,3H132.2z M134.9,90.2
			l2.3-2.6h11.3l-1.6,2.6H134.9z M137.3,87.5l2-2.3h10.6l-1.4,2.3H137.3z M139.3,85.2l1.8-2h10l-1.2,2H139.3z M141.2,83.1l1.6-1.8
			h9.4l-1.1,1.8H141.2z M142.8,81.2l1.4-1.6h8.9l-1,1.6H142.8z M144.3,79.5l1.3-1.5h8.5l-0.9,1.5H144.3z M145.6,78l1.2-1.3h8.1
			l-0.8,1.3H145.6z M146.8,76.6l1.1-1.2h7.8l-0.7,1.2H146.8z M146.7,76.6h-8.1l1.4-1.2h7.8L146.7,76.6z M138.4,76.6h-8.1l1.8-1.2
			h7.8L138.4,76.6z M130.2,76.6h-8.1l2.1-1.2h7.8L130.2,76.6z M121.9,76.6h-8.1l2.5-1.2h7.8L121.9,76.6z M121.8,76.7l-2.4,1.3H111
			l2.7-1.3H121.8z M119.4,78l-2.6,1.5h-8.9l3-1.5H119.4z M116.7,79.6l-2.9,1.6h-9.4l3.4-1.6H116.7z M113.8,81.2l-3.2,1.8h-10
			l3.7-1.8H113.8z M110.4,83.1l-3.6,2H96.3l4.2-2H110.4z M106.7,85.2l-4.1,2.3H91.4l4.7-2.3H106.7z M102.5,87.6l-4.6,2.6h-12
			l5.4-2.6H102.5z M97.8,90.3l-5.3,3H79.5l6.2-3H97.8z M92.3,93.4l-6.2,3.5H72.1l7.2-3.5H92.3z M85.9,97l-7.3,4.1H63.5l8.4-4.1H85.9
			z M78.4,101.3l-8.6,4.9H53.2l10.1-4.9H78.4z M69.5,106.3L59,112.2H40.7l12.2-5.9H69.5z M58.7,112.4l-13,7.3H25.2l15.1-7.3H58.7z
			 M59.1,112.4h18.4l-10.8,7.3H46.2L59.1,112.4z M77.9,112.4h18.4l-8.6,7.3H67.1L77.9,112.4z M96.6,112.4H115l-6.5,7.3H88
			L96.6,112.4z M115.4,112.4h18.4l-4.3,7.3H109L115.4,112.4z M134.2,112.4h18.4l-2.2,7.3h-20.5L134.2,112.4z M134.3,112.2l3.5-5.9
			h16.7l-1.8,5.9H134.3z M137.8,106.2l2.9-4.9h15.2l-1.5,4.9H137.8z M140.8,101.1l2.4-4.1h14l-1.2,4.1H140.8z M143.2,96.9l2-3.5
			h12.9l-1,3.5H143.2z M145.3,93.3l1.8-3h12l-0.9,3H145.3z M147.2,90.2l1.5-2.6H160l-0.8,2.6H147.2z M148.7,87.5l1.3-2.3h10.6
			l-0.7,2.3H148.7z M150.1,85.2l1.2-2h10l-0.6,2H150.1z M151.3,83.1l1.1-1.8h9.4l-0.5,1.8H151.3z M152.4,81.2l1-1.6h8.9l-0.5,1.6
			H152.4z M153.4,79.5l0.9-1.5h8.5l-0.4,1.5H153.4z M154.3,78l0.8-1.3h8.1l-0.4,1.3H154.3z M155.1,76.6l0.7-1.2h7.8l-0.4,1.2H155.1z
			 M156.3,74.3l-0.7,1.1h-7.7l1-1.1H156.3z M148.8,74.3l-1,1.1h-7.7l1.3-1.1H148.8z M141.2,74.3l-1.3,1.1h-7.7l1.6-1.1H141.2z
			 M133.6,74.3l-1.6,1.1h-7.7l2-1.1H133.6z M126.1,74.3l-2,1.1h-7.7l2.3-1.1H126.1z M111.1,74.3h7.4l-2.3,1.1h-7.7L111.1,74.3z
			 M108.4,75.4h7.8l-2.5,1.2h-8.1L108.4,75.4z M105.5,76.7h8.1l-2.8,1.3h-8.5L105.5,76.7z M102.2,78h8.5l-3,1.5h-8.9L102.2,78z
			 M98.7,79.6h8.9l-3.4,1.6h-9.4L98.7,79.6z M94.7,81.2h9.4l-3.8,1.8h-10L94.7,81.2z M90.3,83.1h10l-4.2,2H85.5L90.3,83.1z
			 M85.4,85.2h10.6l-4.8,2.3H79.9L85.4,85.2z M79.8,87.6h11.3l-5.4,2.6h-12L79.8,87.6z M73.4,90.3h12l-6.2,3H66.4L73.4,90.3z
			 M66.1,93.4h12.9l-7.2,3.5H57.9L66.1,93.4z M57.7,97h14l-8.5,4.1H48L57.7,97z M47.7,101.3h15.2l-10.1,4.9H36.2L47.7,101.3z
			 M35.9,106.3h16.7l-12.2,5.9H22L35.9,106.3z M21.5,112.4H40l-15.1,7.3H4.3L21.5,112.4z M-18,129.3L3.8,120h20.6l-19.1,9.3H-18z
			 M5.7,129.3l19.1-9.3h20.6L29,129.3H5.7z M29.4,129.3l16.4-9.3h20.6l-13.7,9.3H29.4z M53.1,129.3l13.6-9.3h20.6l-11,9.3H53.1z
			 M76.9,129.3l10.9-9.3h20.6l-8.2,9.3H76.9z M100.6,129.3l8.2-9.3h20.6l-5.5,9.3H100.6z M124.3,129.3l5.4-9.3h20.6l-2.8,9.3H124.3z
			 M171.3,129.3h-23.3l2.7-9.3h20.6L171.3,129.3z M171.4,119.8h-20.5l2.1-7.3h18.4L171.4,119.8z M171.4,112.2H153l1.7-5.9h16.7
			L171.4,112.2z M171.4,106.2h-16.6l1.4-4.9h15.2L171.4,106.2z M171.4,101.1h-15.2l1.2-4.1h14L171.4,101.1z M171.4,96.9h-13.9l1-3.5
			h12.9L171.4,96.9z M171.4,93.3h-12.9l0.9-3h12L171.4,93.3z M171.4,90.2h-12l0.8-2.6h11.3L171.4,90.2z M171.4,87.5h-11.2l0.7-2.3
			h10.6L171.4,87.5z M171.4,85.2h-10.6l0.6-2h10L171.4,85.2z M171.5,83.1h-10l0.5-1.8h9.4L171.5,83.1z M171.5,81.2H162l0.5-1.6h8.9
			L171.5,81.2z M171.5,79.5h-8.9L163,78h8.5L171.5,79.5z M171.5,78H163l0.4-1.3h8.1L171.5,78z M171.5,76.6h-8.1l0.4-1.2h7.8
			L171.5,76.6z M171.5,75.4h-7.7l0.3-1.1h7.4L171.5,75.4z M171.6,74.3h7.4l0.3,1.1h-7.7L171.6,74.3z M171.6,75.4h7.8l0.4,1.2h-8.1
			L171.6,75.4z M171.6,76.7h8.1l0.4,1.3h-8.5L171.6,76.7z M171.6,78h8.5l0.4,1.5h-8.9L171.6,78z M171.6,79.6h8.9l0.5,1.6h-9.4
			L171.6,79.6z M171.6,81.2h9.4l0.5,1.8h-10L171.6,81.2z M171.6,83.1h10l0.6,2h-10.6L171.6,83.1z M171.7,85.2h10.6l0.7,2.3h-11.2
			L171.7,85.2z M171.7,87.6h11.3l0.8,2.6h-12L171.7,87.6z M171.7,90.3h12l0.9,3h-12.9L171.7,90.3z M171.7,93.4h12.9l1,3.5h-14
			L171.7,93.4z M171.7,97h14l1.2,4.1h-15.2L171.7,97z M171.7,101.3h15.2l1.4,4.9h-16.6L171.7,101.3z M171.7,106.3h16.7l1.7,5.9
			h-18.4L171.7,106.3z M171.7,112.4h18.4l2.1,7.3h-20.5L171.7,112.4z M171.8,129.3l0-9.3h20.6l2.7,9.3H171.8z M195.5,129.3l-2.8-9.3
			h20.6l5.4,9.3H195.5z M219.2,129.3l-5.5-9.3h20.6l8.2,9.3H219.2z M243,129.3l-8.2-9.3h20.6l10.9,9.3H243z M266.7,129.3l-11-9.3
			h20.6l13.6,9.3H266.7z M290.4,129.3l-13.7-9.3h20.6l16.4,9.3H290.4z M314.1,129.3l-16.4-9.3h20.6l19.1,9.3H314.1z M318.7,120h20.6
			l21.8,9.3h-23.3L318.7,120z"/>
	</g>
	<g style="clip-path:url(#SVGID_5_);">
		<polygon style="fill:none;" points="271.2,96.9 285.2,96.9 277,93.4 264,93.4 		"/>
		<polygon style="fill:none;" points="302.8,112.2 321.1,112.2 307.2,106.3 290.6,106.3 		"/>
		<polygon style="fill:none;" points="279.9,101.1 295.1,101.1 285.4,97 271.4,97 		"/>
		<polygon style="fill:none;" points="317.9,119.8 302.8,112.4 284.4,112.4 297.3,119.8 		"/>
		<polygon style="fill:none;" points="290.3,106.2 306.9,106.2 295.4,101.3 280.2,101.3 		"/>
		<polygon style="fill:none;" points="255.1,119.8 246.5,112.4 228.1,112.4 234.5,119.8 		"/>
		<polygon style="fill:none;" points="232.3,78 240.8,78 237.6,76.7 229.5,76.7 		"/>
		<polygon style="fill:none;" points="195.3,75.4 196.4,76.6 204.5,76.6 203.1,75.4 		"/>
		<polygon style="fill:none;" points="235.4,79.5 244.3,79.5 240.9,78 232.4,78 		"/>
		<polygon style="fill:none;" points="263.8,93.3 276.7,93.3 269.7,90.3 257.6,90.3 		"/>
		<polygon style="fill:none;" points="242.7,83.1 252.7,83.1 248.4,81.2 239,81.2 		"/>
		<polygon style="fill:none;" points="234.1,119.8 227.7,112.4 209.3,112.4 213.6,119.8 		"/>
		<polygon style="fill:none;" points="238.9,81.2 248.3,81.2 244.4,79.6 235.5,79.6 		"/>
		<polygon style="fill:none;" points="257.5,90.2 269.5,90.2 263.3,87.6 252,87.6 		"/>
		<polygon style="fill:none;" points="247,85.2 257.6,85.2 252.8,83.1 242.8,83.1 		"/>
		<polygon style="fill:none;" points="251.9,87.5 263.2,87.5 257.7,85.2 247.2,85.2 		"/>
		<polygon style="fill:none;" points="296.9,119.8 284,112.4 265.6,112.4 276.4,119.8 		"/>
		<polygon style="fill:none;" points="190.7,81.2 189.7,79.6 180.8,79.6 181.2,81.2 		"/>
		<polygon style="fill:none;" points="189.7,79.5 188.8,78 180.3,78 180.7,79.5 		"/>
		<polygon style="fill:none;" points="191.8,83.1 190.7,81.2 181.3,81.2 181.8,83.1 		"/>
		<polygon style="fill:none;" points="188.8,78 188,76.7 179.9,76.7 180.3,78 		"/>
		<polygon style="fill:none;" points="187.4,75.4 188.2,76.6 196.3,76.6 195.2,75.4 		"/>
		<polygon style="fill:none;" points="193,85.2 191.8,83.1 181.8,83.1 182.4,85.2 		"/>
		<polygon style="fill:none;" points="179.5,75.4 179.9,76.6 188,76.6 187.3,75.4 		"/>
		<polygon style="fill:none;" points="213.2,119.8 208.9,112.4 190.5,112.4 192.7,119.8 		"/>
		<polygon style="fill:none;" points="205.3,106.2 202.4,101.3 187.2,101.3 188.6,106.2 		"/>
		<polygon style="fill:none;" points="194.4,87.5 193,85.2 182.4,85.2 183.1,87.5 		"/>
		<polygon style="fill:none;" points="208.8,112.2 205.3,106.3 188.7,106.3 190.4,112.2 		"/>
		<polygon style="fill:none;" points="202.3,101.1 199.9,97 185.9,97 187.2,101.1 		"/>
		<polygon style="fill:none;" points="199.9,96.9 197.8,93.4 184.9,93.4 185.9,96.9 		"/>
		<polygon style="fill:none;" points="195.9,90.2 194.4,87.6 183.1,87.6 183.9,90.2 		"/>
		<polygon style="fill:none;" points="197.8,93.3 196,90.3 183.9,90.3 184.8,93.3 		"/>
		<polygon style="fill:none;" points="276,119.8 265.2,112.4 246.8,112.4 255.5,119.8 		"/>
		<polygon style="fill:none;" points="131.9,93.4 118.9,93.4 114.8,96.9 128.8,96.9 		"/>
		<polygon style="fill:none;" points="137,87.6 125.7,87.6 122.6,90.2 134.7,90.2 		"/>
		<polygon style="fill:none;" points="134.6,90.3 122.6,90.3 119,93.3 131.9,93.3 		"/>
		<polygon style="fill:none;" points="128.7,97 114.7,97 109.9,101.1 125,101.1 		"/>
		<polygon style="fill:none;" points="94.4,101.1 109.6,101.1 114.4,97 100.4,97 		"/>
		<polygon style="fill:none;" points="87,106.2 103.7,106.2 109.4,101.3 94.2,101.3 		"/>
		<polygon style="fill:none;" points="124.9,101.3 109.7,101.3 104,106.2 120.6,106.2 		"/>
		<polygon style="fill:none;" points="141,83.1 131,83.1 128.6,85.2 139.1,85.2 		"/>
		<polygon style="fill:none;" points="145.4,78 136.9,78 135.2,79.5 144.1,79.5 		"/>
		<polygon style="fill:none;" points="146.7,76.7 138.5,76.7 137,78 145.5,78 		"/>
		<polygon style="fill:none;" points="128.3,78 136.8,78 138.4,76.7 130.3,76.7 		"/>
		<polygon style="fill:none;" points="142.6,81.2 133.2,81.2 131,83.1 141,83.1 		"/>
		<polygon style="fill:none;" points="144.1,79.6 135.1,79.6 133.2,81.2 142.7,81.2 		"/>
		<polygon style="fill:none;" points="119.6,78 128.1,78 130.1,76.7 122,76.7 		"/>
		<polygon style="fill:none;" points="139.1,85.2 128.5,85.2 125.8,87.5 137.1,87.5 		"/>
		<polygon style="fill:none;" points="234.6,75.4 232,74.3 224.6,74.3 226.9,75.4 		"/>
		<polygon style="fill:none;" points="187.3,75.4 186.6,74.3 179.2,74.3 179.5,75.4 		"/>
		<polygon style="fill:none;" points="203.1,75.4 201.7,74.3 194.3,74.3 195.3,75.4 		"/>
		<polygon style="fill:none;" points="195.2,75.4 194.2,74.3 186.8,74.3 187.4,75.4 		"/>
		<polygon style="fill:none;" points="210.9,75.4 209.3,74.3 201.9,74.3 203.2,75.4 		"/>
		<polygon style="fill:none;" points="229.5,76.6 237.6,76.6 234.7,75.4 226.9,75.4 		"/>
		<polygon style="fill:none;" points="226.7,75.4 224.4,74.3 217,74.3 219,75.4 		"/>
		<polygon style="fill:none;" points="218.8,75.4 216.9,74.3 209.5,74.3 211.1,75.4 		"/>
		<polygon style="fill:none;" points="114.3,87.5 125.6,87.5 128.3,85.2 117.7,85.2 		"/>
		<polygon style="fill:none;" points="163.6,75.4 163.9,74.3 156.5,74.3 155.8,75.4 		"/>
		<polygon style="fill:none;" points="117.8,85.2 128.4,85.2 130.8,83.1 120.8,83.1 		"/>
		<polygon style="fill:none;" points="110.4,90.2 122.4,90.2 125.5,87.6 114.2,87.6 		"/>
		<polygon style="fill:none;" points="105.9,93.3 118.8,93.3 122.3,90.3 110.3,90.3 		"/>
		<polygon style="fill:none;" points="123.6,81.2 133,81.2 135,79.6 126,79.6 		"/>
		<polygon style="fill:none;" points="136.8,78 128.3,78 126.1,79.5 135,79.5 		"/>
		<polygon style="fill:none;" points="120.9,83.1 130.8,83.1 133,81.2 123.6,81.2 		"/>
		<polygon style="fill:none;" points="100.6,96.9 114.5,96.9 118.7,93.4 105.7,93.4 		"/>
		<polygon style="fill:none;" points="233.2,101.1 228.4,97 214.4,97 218.1,101.1 		"/>
		<polygon style="fill:none;" points="256.1,106.2 248.9,101.3 233.7,101.3 239.4,106.2 		"/>
		<polygon style="fill:none;" points="239.1,106.2 233.4,101.3 218.2,101.3 222.5,106.2 		"/>
		<polygon style="fill:none;" points="273,106.2 264.4,101.3 249.2,101.3 256.4,106.2 		"/>
		<polygon style="fill:none;" points="220.5,90.2 217.4,87.6 206.1,87.6 208.4,90.2 		"/>
		<polygon style="fill:none;" points="228.3,96.9 224.2,93.4 211.3,93.4 214.3,96.9 		"/>
		<polygon style="fill:none;" points="217.3,87.5 214.6,85.2 204,85.2 206.1,87.5 		"/>
		<polygon style="fill:none;" points="224.1,93.3 220.5,90.3 208.5,90.3 211.2,93.3 		"/>
		<polygon style="fill:none;" points="213,76.7 215,78 223.5,78 221.1,76.7 		"/>
		<polygon style="fill:none;" points="219.7,81.2 222.4,83.1 232.4,83.1 229.2,81.2 		"/>
		<polygon style="fill:none;" points="217.3,79.6 219.7,81.2 229.1,81.2 226.2,79.6 		"/>
		<polygon style="fill:none;" points="215,78 217.2,79.5 226.1,79.5 223.5,78 		"/>
		<polygon style="fill:none;" points="222.5,83.1 225.5,85.2 236.1,85.2 232.5,83.1 		"/>
		<polygon style="fill:none;" points="229.1,87.6 232.9,90.2 245,90.2 240.3,87.6 		"/>
		<polygon style="fill:none;" points="233.1,90.3 237.5,93.3 250.4,93.3 245.1,90.3 		"/>
		<polygon style="fill:none;" points="225.6,85.2 229,87.5 240.2,87.5 236.2,85.2 		"/>
		<polygon style="fill:none;" points="237.6,93.4 242.8,96.9 256.7,96.9 250.6,93.4 		"/>
		<polygon style="fill:none;" points="214.5,85.2 212.1,83.1 202.2,83.1 204,85.2 		"/>
		<polygon style="fill:none;" points="248.7,101.1 242.7,97 228.7,97 233.5,101.1 		"/>
		<polygon style="fill:none;" points="214.8,85.2 217.5,87.5 228.8,87.5 225.4,85.2 		"/>
		<polygon style="fill:none;" points="217.6,87.6 220.7,90.2 232.7,90.2 228.9,87.6 		"/>
		<polygon style="fill:none;" points="224.4,93.4 228.6,96.9 242.5,96.9 237.4,93.4 		"/>
		<polygon style="fill:none;" points="318.3,119.8 338.8,119.8 321.6,112.4 303.2,112.4 		"/>
		<polygon style="fill:none;" points="220.8,90.3 224.3,93.3 237.3,93.3 232.8,90.3 		"/>
		<polygon style="fill:none;" points="197.7,78 199,79.5 207.9,79.5 206.2,78 		"/>
		<polygon style="fill:none;" points="209.9,81.2 208,79.6 199,79.6 200.5,81.2 		"/>
		<polygon style="fill:none;" points="212.1,83.1 209.9,81.2 200.5,81.2 202.1,83.1 		"/>
		<polygon style="fill:none;" points="206.3,78 208.1,79.5 217,79.5 214.9,78 		"/>
		<polygon style="fill:none;" points="212.3,83.1 214.7,85.2 225.3,85.2 222.3,83.1 		"/>
		<polygon style="fill:none;" points="210.1,81.2 212.3,83.1 222.2,83.1 219.5,81.2 		"/>
		<polygon style="fill:none;" points="208.1,79.6 210.1,81.2 219.5,81.2 217.1,79.6 		"/>
		<polygon style="fill:none;" points="245.3,90.3 250.7,93.3 263.6,93.3 257.4,90.3 		"/>
		<polygon style="fill:none;" points="236.4,85.2 240.4,87.5 251.7,87.5 246.9,85.2 		"/>
		<polygon style="fill:none;" points="203.2,75.4 204.7,76.6 212.8,76.6 211,75.4 		"/>
		<polygon style="fill:none;" points="240.6,87.6 245.2,90.2 257.2,90.2 251.8,87.6 		"/>
		<polygon style="fill:none;" points="250.8,93.4 257,96.9 271,96.9 263.8,93.4 		"/>
		<polygon style="fill:none;" points="257.2,97 264.5,101.1 279.6,101.1 271.2,97 		"/>
		<polygon style="fill:none;" points="302.4,112.2 290.2,106.3 273.6,106.3 284.1,112.2 		"/>
		<polygon style="fill:none;" points="264.7,101.3 273.3,106.2 289.9,106.2 279.9,101.3 		"/>
		<polygon style="fill:none;" points="229.3,81.2 232.6,83.1 242.5,83.1 238.8,81.2 		"/>
		<polygon style="fill:none;" points="219,75.4 221.2,76.6 229.3,76.6 226.8,75.4 		"/>
		<polygon style="fill:none;" points="211.1,75.4 212.9,76.6 221,76.6 218.9,75.4 		"/>
		<polygon style="fill:none;" points="221.3,76.7 223.6,78 232.1,78 229.4,76.7 		"/>
		<polygon style="fill:none;" points="232.7,83.1 236.3,85.2 246.8,85.2 242.6,83.1 		"/>
		<polygon style="fill:none;" points="223.7,78 226.3,79.5 235.2,79.5 232.2,78 		"/>
		<polygon style="fill:none;" points="283.7,112.2 273.3,106.3 256.6,106.3 265.3,112.2 		"/>
		<polygon style="fill:none;" points="226.4,79.6 229.3,81.2 238.7,81.2 235.3,79.6 		"/>
		<polygon style="fill:none;" points="217.8,101.1 214.2,97 200.2,97 202.6,101.1 		"/>
		<polygon style="fill:none;" points="201.9,83.1 200.3,81.2 190.9,81.2 192,83.1 		"/>
		<polygon style="fill:none;" points="200.3,81.2 198.8,79.6 189.9,79.6 190.8,81.2 		"/>
		<polygon style="fill:none;" points="203.8,85.2 202,83.1 192,83.1 193.2,85.2 		"/>
		<polygon style="fill:none;" points="198.8,79.5 197.5,78 189,78 189.9,79.5 		"/>
		<polygon style="fill:none;" points="205.8,87.5 203.8,85.2 193.2,85.2 194.6,87.5 		"/>
		<polygon style="fill:none;" points="196.4,76.7 197.6,78 206.1,78 204.6,76.7 		"/>
		<polygon style="fill:none;" points="188.2,76.7 189,78 197.5,78 196.3,76.7 		"/>
		<polygon style="fill:none;" points="214.1,96.9 211,93.4 198.1,93.4 200.1,96.9 		"/>
		<polygon style="fill:none;" points="227.5,112.2 222.3,106.3 205.7,106.3 209.2,112.2 		"/>
		<polygon style="fill:none;" points="246.3,112.2 239.3,106.3 222.6,106.3 227.9,112.2 		"/>
		<polygon style="fill:none;" points="222.2,106.2 217.9,101.3 202.7,101.3 205.6,106.2 		"/>
		<polygon style="fill:none;" points="265,112.2 256.3,106.3 239.6,106.3 246.6,112.2 		"/>
		<polygon style="fill:none;" points="210.9,93.3 208.3,90.3 196.2,90.3 198,93.3 		"/>
		<polygon style="fill:none;" points="208.2,90.2 205.9,87.6 194.6,87.6 196.2,90.2 		"/>
		<polygon style="fill:none;" points="204.7,76.7 206.3,78 214.8,78 212.8,76.7 		"/>
		<polygon style="fill:none;" points="242.9,97 249,101.1 264.2,101.1 256.9,97 		"/>
		<polygon style="fill:none;" points="148.1,129.3 171.3,129.3 171.4,120 150.8,120 		"/>
		<polygon style="fill:none;" points="108.8,120 100.6,129.3 123.9,129.3 129.4,120 		"/>
		<polygon style="fill:none;" points="87.8,120 76.9,129.3 100.1,129.3 108.4,120 		"/>
		<polygon style="fill:none;" points="129.8,120 124.3,129.3 147.6,129.3 150.4,120 		"/>
		<polygon style="fill:none;" points="66.8,120 53.1,129.3 76.4,129.3 87.4,120 		"/>
		<polygon style="fill:none;" points="40,112.4 21.5,112.4 4.3,119.8 24.8,119.8 		"/>
		<polygon style="fill:none;" points="45.8,120 29.4,129.3 52.7,129.3 66.4,120 		"/>
		<polygon style="fill:none;" points="24.8,120 5.7,129.3 29,129.3 45.4,120 		"/>
		<polygon style="fill:none;" points="3.8,120 -18,129.3 5.2,129.3 24.4,120 		"/>
		<polygon style="fill:none;" points="158.5,93.3 171.4,93.3 171.4,90.3 159.4,90.3 		"/>
		<polygon style="fill:none;" points="160.2,87.5 171.4,87.5 171.4,85.2 160.9,85.2 		"/>
		<polygon style="fill:none;" points="157.5,96.9 171.4,96.9 171.4,93.4 158.5,93.4 		"/>
		<polygon style="fill:none;" points="156.2,101.1 171.4,101.1 171.4,97 157.4,97 		"/>
		<polygon style="fill:none;" points="153,112.2 171.4,112.2 171.4,106.3 154.7,106.3 		"/>
		<polygon style="fill:none;" points="150.8,119.8 171.4,119.8 171.4,112.4 153,112.4 		"/>
		<polygon style="fill:none;" points="154.8,106.2 171.4,106.2 171.4,101.3 156.2,101.3 		"/>
		<polygon style="fill:none;" points="116.2,75.4 108.4,75.4 105.5,76.6 113.6,76.6 		"/>
		<polygon style="fill:none;" points="104.1,81.2 94.7,81.2 90.4,83.1 100.4,83.1 		"/>
		<polygon style="fill:none;" points="107.6,79.6 98.7,79.6 94.8,81.2 104.2,81.2 		"/>
		<polygon style="fill:none;" points="113.6,76.7 105.5,76.7 102.3,78 110.8,78 		"/>
		<polygon style="fill:none;" points="110.7,78 102.2,78 98.8,79.5 107.7,79.5 		"/>
		<polygon style="fill:none;" points="124.1,75.4 126.1,74.3 118.7,74.3 116.4,75.4 		"/>
		<polygon style="fill:none;" points="118.5,74.3 111.1,74.3 108.5,75.4 116.2,75.4 		"/>
		<polygon style="fill:none;" points="160.9,85.2 171.4,85.2 171.5,83.1 161.5,83.1 		"/>
		<polygon style="fill:none;" points="85.5,90.3 73.4,90.3 66.4,93.3 79.3,93.3 		"/>
		<polygon style="fill:none;" points="100.3,83.1 90.3,83.1 85.5,85.2 96.1,85.2 		"/>
		<polygon style="fill:none;" points="71.7,97 57.7,97 48,101.1 63.2,101.1 		"/>
		<polygon style="fill:none;" points="62.9,101.3 47.7,101.3 36.2,106.2 52.9,106.2 		"/>
		<polygon style="fill:none;" points="79.1,93.4 66.1,93.4 57.9,96.9 71.9,96.9 		"/>
		<polygon style="fill:none;" points="95.9,85.2 85.4,85.2 79.9,87.5 91.2,87.5 		"/>
		<polygon style="fill:none;" points="52.5,106.3 35.9,106.3 22,112.2 40.3,112.2 		"/>
		<polygon style="fill:none;" points="91.1,87.6 79.8,87.6 73.6,90.2 85.6,90.2 		"/>
		<polygon style="fill:none;" points="161.5,83.1 171.5,83.1 171.5,81.2 162,81.2 		"/>
		<polygon style="fill:none;" points="171.8,120 171.8,129.3 195.1,129.3 192.4,120 		"/>
		<polygon style="fill:none;" points="213.7,120 219.2,129.3 242.5,129.3 234.3,120 		"/>
		<polygon style="fill:none;" points="184.6,93.4 171.7,93.4 171.7,96.9 185.6,96.9 		"/>
		<polygon style="fill:none;" points="192.7,120 195.5,129.3 218.8,129.3 213.3,120 		"/>
		<polygon style="fill:none;" points="188.4,106.3 171.7,106.3 171.7,112.2 190.1,112.2 		"/>
		<polygon style="fill:none;" points="185.7,97 171.7,97 171.7,101.1 186.9,101.1 		"/>
		<polygon style="fill:none;" points="186.9,101.3 171.7,101.3 171.7,106.2 188.3,106.2 		"/>
		<polygon style="fill:none;" points="190.1,112.4 171.7,112.4 171.8,119.8 192.3,119.8 		"/>
		<polygon style="fill:none;" points="117,79.5 125.9,79.5 128.1,78 119.6,78 		"/>
		<polygon style="fill:none;" points="339.3,120 318.7,120 337.9,129.3 361.1,129.3 		"/>
		<polygon style="fill:none;" points="297.7,120 314.1,129.3 337.4,129.3 318.3,120 		"/>
		<polygon style="fill:none;" points="255.7,120 266.7,129.3 290,129.3 276.3,120 		"/>
		<polygon style="fill:none;" points="234.7,120 243,129.3 266.2,129.3 255.3,120 		"/>
		<polygon style="fill:none;" points="276.7,120 290.4,129.3 313.7,129.3 297.3,120 		"/>
		<polygon style="fill:none;" points="181.6,83.1 171.6,83.1 171.7,85.2 182.2,85.2 		"/>
		<polygon style="fill:none;" points="183.7,90.3 171.7,90.3 171.7,93.3 184.6,93.3 		"/>
		<polygon style="fill:none;" points="179,74.3 171.6,74.3 171.6,75.4 179.4,75.4 		"/>
		<polygon style="fill:none;" points="179.4,75.4 171.6,75.4 171.6,76.6 179.7,76.6 		"/>
		<polygon style="fill:none;" points="163.4,76.6 171.5,76.6 171.5,75.4 163.7,75.4 		"/>
		<polygon style="fill:none;" points="162,81.2 171.5,81.2 171.5,79.6 162.5,79.6 		"/>
		<polygon style="fill:none;" points="162.5,79.5 171.5,79.5 171.5,78 163,78 		"/>
		<polygon style="fill:none;" points="163,78 171.5,78 171.5,76.7 163.4,76.7 		"/>
		<polygon style="fill:none;" points="163.7,75.4 171.5,75.4 171.5,74.3 164.1,74.3 		"/>
		<polygon style="fill:none;" points="182.2,85.2 171.7,85.2 171.7,87.5 182.9,87.5 		"/>
		<polygon style="fill:none;" points="182.9,87.6 171.7,87.6 171.7,90.2 183.7,90.2 		"/>
		<polygon style="fill:none;" points="179.7,76.7 171.6,76.7 171.6,78 180.1,78 		"/>
		<polygon style="fill:none;" points="132,75.4 133.6,74.3 126.2,74.3 124.3,75.4 		"/>
		<polygon style="fill:none;" points="181.1,81.2 171.6,81.2 171.6,83.1 181.6,83.1 		"/>
		<polygon style="fill:none;" points="180.1,78 171.6,78 171.6,79.5 180.6,79.5 		"/>
		<polygon style="fill:none;" points="180.6,79.6 171.6,79.6 171.6,81.2 181.1,81.2 		"/>
		<polygon style="fill:none;" points="159.4,90.2 171.4,90.2 171.4,87.6 160.2,87.6 		"/>
		<polygon style="fill:none;" points="151.1,83.1 141.1,83.1 139.3,85.2 149.9,85.2 		"/>
		<polygon style="fill:none;" points="153.2,79.6 144.3,79.6 142.8,81.2 152.3,81.2 		"/>
		<polygon style="fill:none;" points="152.2,81.2 142.8,81.2 141.2,83.1 151.2,83.1 		"/>
		<polygon style="fill:none;" points="154.9,76.7 146.8,76.7 145.6,78 154.1,78 		"/>
		<polygon style="fill:none;" points="154.1,78 145.6,78 144.3,79.5 153.2,79.5 		"/>
		<polygon style="fill:none;" points="146.9,90.3 134.8,90.3 132.2,93.3 145.1,93.3 		"/>
		<polygon style="fill:none;" points="149.9,85.2 139.3,85.2 137.3,87.5 148.5,87.5 		"/>
		<polygon style="fill:none;" points="148.5,87.6 137.2,87.6 134.9,90.2 146.9,90.2 		"/>
		<polygon style="fill:none;" points="122.1,76.6 130.2,76.6 132,75.4 124.2,75.4 		"/>
		<polygon style="fill:none;" points="113.8,76.6 121.9,76.6 124.1,75.4 116.3,75.4 		"/>
		<polygon style="fill:none;" points="111,78 119.5,78 121.8,76.7 113.7,76.7 		"/>
		<polygon style="fill:none;" points="107.9,79.5 116.8,79.5 119.4,78 110.9,78 		"/>
		<polygon style="fill:none;" points="130.3,76.6 138.4,76.6 139.9,75.4 132.1,75.4 		"/>
		<polygon style="fill:none;" points="145,93.4 132.1,93.4 129,96.9 143,96.9 		"/>
		<polygon style="fill:none;" points="138.6,76.6 146.7,76.6 147.8,75.4 140,75.4 		"/>
		<polygon style="fill:none;" points="104.4,81.2 113.8,81.2 116.7,79.6 107.8,79.6 		"/>
		<polygon style="fill:none;" points="155.7,75.4 147.9,75.4 146.8,76.6 155,76.6 		"/>
		<polygon style="fill:none;" points="86.4,96.9 100.3,96.9 105.5,93.4 92.5,93.4 		"/>
		<polygon style="fill:none;" points="98.1,90.2 110.2,90.2 114,87.6 102.8,87.6 		"/>
		<polygon style="fill:none;" points="92.7,93.3 105.6,93.3 110,90.3 98,90.3 		"/>
		<polygon style="fill:none;" points="102.9,87.5 114.1,87.5 117.5,85.2 106.9,85.2 		"/>
		<polygon style="fill:none;" points="107,85.2 117.6,85.2 120.6,83.1 110.6,83.1 		"/>
		<polygon style="fill:none;" points="139.9,75.4 141.2,74.3 133.8,74.3 132.2,75.4 		"/>
		<polygon style="fill:none;" points="114,81.2 123.4,81.2 125.9,79.6 116.9,79.6 		"/>
		<polygon style="fill:none;" points="142.9,97 128.9,97 125.3,101.1 140.5,101.1 		"/>
		<polygon style="fill:none;" points="78.9,101.1 94.1,101.1 100.2,97 86.2,97 		"/>
		<polygon style="fill:none;" points="137.4,106.3 120.8,106.3 115.6,112.2 133.9,112.2 		"/>
		<polygon style="fill:none;" points="140.4,101.3 125.2,101.3 120.9,106.2 137.5,106.2 		"/>
		<polygon style="fill:none;" points="120.5,106.3 103.8,106.3 96.8,112.2 115.2,112.2 		"/>
		<polygon style="fill:none;" points="70.1,106.2 86.7,106.2 93.9,101.3 78.7,101.3 		"/>
		<polygon style="fill:none;" points="59.4,112.2 77.8,112.2 86.5,106.3 69.8,106.3 		"/>
		<polygon style="fill:none;" points="103.5,106.3 86.8,106.3 78.1,112.2 96.5,112.2 		"/>
		<polygon style="fill:none;" points="110.7,83.1 120.7,83.1 123.4,81.2 113.9,81.2 		"/>
		<polygon style="fill:none;" points="158.2,93.4 145.3,93.4 143.2,96.9 157.2,96.9 		"/>
		<polygon style="fill:none;" points="160,87.6 148.7,87.6 147.2,90.2 159.2,90.2 		"/>
		<polygon style="fill:none;" points="159.2,90.3 147.1,90.3 145.3,93.3 158.3,93.3 		"/>
		<polygon style="fill:none;" points="152.6,112.4 134.2,112.4 129.9,119.8 150.4,119.8 		"/>
		<polygon style="fill:none;" points="157.2,97 143.2,97 140.8,101.1 155.9,101.1 		"/>
		<polygon style="fill:none;" points="154.4,106.3 137.8,106.3 134.3,112.2 152.7,112.2 		"/>
		<polygon style="fill:none;" points="161.3,83.1 151.3,83.1 150.1,85.2 160.7,85.2 		"/>
		<polygon style="fill:none;" points="155.9,101.3 140.7,101.3 137.8,106.2 154.5,106.2 		"/>
		<polygon style="fill:none;" points="160.7,85.2 150.1,85.2 148.7,87.5 160,87.5 		"/>
		<polygon style="fill:none;" points="100.6,83.1 110.5,83.1 113.8,81.2 104.3,81.2 		"/>
		<polygon style="fill:none;" points="163.6,75.4 155.8,75.4 155.1,76.6 163.2,76.6 		"/>
		<polygon style="fill:none;" points="155.7,75.4 156.3,74.3 148.9,74.3 147.9,75.4 		"/>
		<polygon style="fill:none;" points="161.8,81.2 152.4,81.2 151.3,83.1 161.3,83.1 		"/>
		<polygon style="fill:none;" points="162.3,79.6 153.4,79.6 152.4,81.2 161.9,81.2 		"/>
		<polygon style="fill:none;" points="163.2,76.7 155.1,76.7 154.3,78 162.8,78 		"/>
		<polygon style="fill:none;" points="162.8,78 154.3,78 153.4,79.5 162.4,79.5 		"/>
		<polygon style="fill:none;" points="133.8,112.4 115.4,112.4 109,119.8 129.5,119.8 		"/>
		<polygon style="fill:none;" points="79.5,93.3 92.4,93.3 97.8,90.3 85.7,90.3 		"/>
		<polygon style="fill:none;" points="85.9,90.2 97.9,90.2 102.5,87.6 91.3,87.6 		"/>
		<polygon style="fill:none;" points="72.1,96.9 86.1,96.9 92.3,93.4 79.3,93.4 		"/>
		<polygon style="fill:none;" points="147.8,75.4 148.8,74.3 141.4,74.3 140.1,75.4 		"/>
		<polygon style="fill:none;" points="63.5,101.1 78.6,101.1 85.9,97 71.9,97 		"/>
		<polygon style="fill:none;" points="96.3,85.2 106.8,85.2 110.4,83.1 100.5,83.1 		"/>
		<polygon style="fill:none;" points="91.4,87.5 102.7,87.5 106.7,85.2 96.2,85.2 		"/>
		<polygon style="fill:none;" points="25.2,119.8 45.8,119.8 58.7,112.4 40.3,112.4 		"/>
		<polygon style="fill:none;" points="77.5,112.4 59.1,112.4 46.2,119.8 66.7,119.8 		"/>
		<polygon style="fill:none;" points="115,112.4 96.6,112.4 88,119.8 108.6,119.8 		"/>
		<polygon style="fill:none;" points="40.7,112.2 59,112.2 69.5,106.3 52.9,106.3 		"/>
		<polygon style="fill:none;" points="53.2,106.2 69.8,106.2 78.4,101.3 63.2,101.3 		"/>
		<polygon style="fill:none;" points="96.3,112.4 77.9,112.4 67.1,119.8 87.6,119.8 		"/>
		<path style="fill:#FFFFFF;" d="M232.1,74.2H111l-130.2,55.3h381.5L232.1,74.2z M338.8,119.8h-20.5l-15.1-7.3h18.4L338.8,119.8z
			 M228.6,96.9l-4.1-3.5h12.9l5.1,3.5H228.6z M242.7,97l6,4.1h-15.2l-4.8-4.1H242.7z M224.3,93.3l-3.6-3h12l4.4,3H224.3z
			 M220.7,90.2l-3.1-2.6h11.3l3.9,2.6H220.7z M217.5,87.5l-2.7-2.3h10.6l3.4,2.3H217.5z M214.7,85.2l-2.4-2h10l3,2H214.7z
			 M212.3,83.1l-2.1-1.8h9.4l2.7,1.8H212.3z M210.1,81.2l-1.9-1.6h8.9l2.4,1.6H210.1z M208.1,79.5l-1.7-1.5h8.5l2.2,1.5H208.1z
			 M207.9,79.5H199l-1.3-1.5h8.5L207.9,79.5z M208,79.6l1.9,1.6h-9.4l-1.4-1.6H208z M209.9,81.2l2.1,1.8h-10l-1.6-1.8H209.9z
			 M212.1,83.1l2.4,2H204l-1.8-2H212.1z M214.6,85.2l2.7,2.3h-11.2l-2-2.3H214.6z M217.4,87.6l3.1,2.6h-12l-2.3-2.6H217.4z
			 M220.5,90.3l3.5,3h-12.9l-2.7-3H220.5z M224.2,93.4l4.1,3.5h-13.9l-3.1-3.5H224.2z M228.4,97l4.8,4.1h-15.2l-3.6-4.1H228.4z
			 M233.4,101.3l5.7,4.9h-16.6l-4.3-4.9H233.4z M233.7,101.3h15.2l7.2,4.9h-16.6L233.7,101.3z M249.2,101.3h15.2l8.6,4.9h-16.6
			L249.2,101.3z M249,101.1l-6.1-4.1h14l7.2,4.1H249z M242.8,96.9l-5.2-3.5h12.9l6.2,3.5H242.8z M237.5,93.3l-4.4-3h12l5.3,3H237.5z
			 M232.9,90.2l-3.9-2.6h11.3l4.6,2.6H232.9z M229,87.5l-3.4-2.3h10.6l4.1,2.3H229z M225.5,85.2l-3-2h10l3.6,2H225.5z M222.4,83.1
			l-2.7-1.8h9.4l3.2,1.8H222.4z M219.7,81.2l-2.4-1.6h8.9l2.9,1.6H219.7z M217.2,79.5L215,78h8.5l2.6,1.5H217.2z M215,78l-2-1.3h8.1
			l2.4,1.3H215z M214.8,78h-8.5l-1.6-1.3h8.1L214.8,78z M206.1,78h-8.5l-1.2-1.3h8.1L206.1,78z M197.5,78H189l-0.8-1.3h8.1L197.5,78
			z M197.5,78l1.3,1.5h-8.9L189,78H197.5z M198.8,79.6l1.4,1.6h-9.4l-1-1.6H198.8z M200.3,81.2l1.6,1.8h-10l-1.1-1.8H200.3z
			 M202,83.1l1.8,2h-10.6l-1.2-2H202z M203.8,85.2l2,2.3h-11.2l-1.4-2.3H203.8z M205.9,87.6l2.3,2.6h-12l-1.6-2.6H205.9z
			 M208.3,90.3l2.7,3H198l-1.8-3H208.3z M211,93.4l3.1,3.5h-13.9l-2.1-3.5H211z M214.2,97l3.6,4.1h-15.2l-2.4-4.1H214.2z
			 M217.9,101.3l4.3,4.9h-16.6l-2.9-4.9H217.9z M222.3,106.3l5.2,5.9h-18.4l-3.5-5.9H222.3z M222.6,106.3h16.7l7,5.9h-18.4
			L222.6,106.3z M239.6,106.3h16.7l8.7,5.9h-18.4L239.6,106.3z M256.6,106.3h16.7l10.4,5.9h-18.4L256.6,106.3z M273.6,106.3h16.7
			l12.2,5.9h-18.4L273.6,106.3z M273.3,106.2l-8.6-4.9h15.2l10.1,4.9H273.3z M264.5,101.1l-7.3-4.1h14l8.4,4.1H264.5z M257,96.9
			l-6.2-3.5h12.9l7.2,3.5H257z M250.7,93.3l-5.3-3h12l6.2,3H250.7z M245.2,90.2l-4.6-2.6h11.3l5.4,2.6H245.2z M240.4,87.5l-4.1-2.3
			h10.6l4.7,2.3H240.4z M236.3,85.2l-3.6-2h10l4.2,2H236.3z M232.6,83.1l-3.2-1.8h9.4l3.7,1.8H232.6z M229.3,81.2l-2.9-1.6h8.9
			l3.4,1.6H229.3z M226.3,79.5l-2.6-1.5h8.5l3,1.5H226.3z M223.6,78l-2.4-1.3h8.1l2.7,1.3H223.6z M221.2,76.6l-2.2-1.2h7.8l2.5,1.2
			H221.2z M221,76.6h-8.1l-1.8-1.2h7.8L221,76.6z M212.8,76.6h-8.1l-1.4-1.2h7.8L212.8,76.6z M204.5,76.6h-8.1l-1.1-1.2h7.8
			L204.5,76.6z M196.3,76.6h-8.1l-0.7-1.2h7.8L196.3,76.6z M188,76.6h-8.1l-0.4-1.2h7.8L188,76.6z M188,76.7l0.8,1.3h-8.5l-0.4-1.3
			H188z M188.8,78l0.9,1.5h-8.9l-0.4-1.5H188.8z M189.7,79.6l1,1.6h-9.4l-0.5-1.6H189.7z M190.7,81.2l1.1,1.8h-10l-0.5-1.8H190.7z
			 M191.8,83.1l1.2,2h-10.6l-0.6-2H191.8z M193,85.2l1.3,2.3h-11.2l-0.7-2.3H193z M194.4,87.6l1.5,2.6h-12l-0.8-2.6H194.4z
			 M196,90.3l1.8,3h-12.9l-0.9-3H196z M197.8,93.4l2,3.5h-14l-1-3.5H197.8z M199.9,97l2.4,4.1h-15.2l-1.2-4.1H199.9z M202.4,101.3
			l2.9,4.9h-16.6l-1.5-4.9H202.4z M205.3,106.3l3.5,5.9h-18.4l-1.8-5.9H205.3z M208.9,112.4l4.3,7.3h-20.5l-2.2-7.3H208.9z
			 M209.3,112.4h18.4l6.4,7.3h-20.5L209.3,112.4z M228.1,112.4h18.4l8.6,7.3h-20.5L228.1,112.4z M246.8,112.4h18.4l10.8,7.3h-20.5
			L246.8,112.4z M265.6,112.4H284l12.9,7.3h-20.5L265.6,112.4z M284.4,112.4h18.4l15.1,7.3h-20.5L284.4,112.4z M321.1,112.2h-18.4
			l-12.2-5.9h16.7L321.1,112.2z M306.9,106.2h-16.6l-10.1-4.9h15.2L306.9,106.2z M295.1,101.1h-15.2l-8.5-4.1h14L295.1,101.1z
			 M285.2,96.9h-13.9l-7.2-3.5H277L285.2,96.9z M276.7,93.3h-12.9l-6.2-3h12L276.7,93.3z M269.5,90.2h-12l-5.4-2.6h11.3L269.5,90.2z
			 M263.2,87.5h-11.2l-4.8-2.3h10.6L263.2,87.5z M257.6,85.2H247l-4.2-2h10L257.6,85.2z M252.7,83.1h-10l-3.8-1.8h9.4L252.7,83.1z
			 M248.3,81.2h-9.4l-3.4-1.6h8.9L248.3,81.2z M244.3,79.5h-8.9l-3-1.5h8.5L244.3,79.5z M240.8,78h-8.5l-2.8-1.3h8.1L240.8,78z
			 M237.6,76.6h-8.1l-2.5-1.2h7.8L237.6,76.6z M232,74.3l2.6,1.1h-7.7l-2.3-1.1H232z M224.4,74.3l2.3,1.1H219l-2-1.1H224.4z
			 M216.9,74.3l2,1.1h-7.7l-1.6-1.1H216.9z M209.3,74.3l1.6,1.1h-7.7l-1.3-1.1H209.3z M201.7,74.3l1.3,1.1h-7.7l-1-1.1H201.7z
			 M194.2,74.3l1,1.1h-7.7l-0.7-1.1H194.2z M186.6,74.3l0.7,1.1h-7.7l-0.3-1.1H186.6z M163.9,74.3l-0.3,1.1h-7.7l0.7-1.1H163.9z
			 M135,79.6l-1.9,1.6h-9.4l2.4-1.6H135z M126.1,79.5l2.2-1.5h8.5l-1.7,1.5H126.1z M133,81.2l-2.1,1.8h-10l2.7-1.8H133z M130.8,83.1
			l-2.4,2h-10.6l3-2H130.8z M128.3,85.2l-2.7,2.3h-11.2l3.4-2.3H128.3z M125.5,87.6l-3.1,2.6h-12l3.9-2.6H125.5z M122.3,90.3l-3.6,3
			h-12.9l4.4-3H122.3z M118.7,93.4l-4.1,3.5h-13.9l5.1-3.5H118.7z M114.4,97l-4.8,4.1H94.4l6-4.1H114.4z M109.4,101.3l-5.8,4.9H87
			l7.2-4.9H109.4z M109.7,101.3h15.2l-4.3,4.9H104L109.7,101.3z M109.9,101.1l4.8-4.1h14l-3.6,4.1H109.9z M114.8,96.9l4.1-3.5h12.9
			l-3.1,3.5H114.8z M119,93.3l3.5-3h12l-2.7,3H119z M122.6,90.2l3.1-2.6H137l-2.3,2.6H122.6z M125.8,87.5l2.7-2.3h10.6l-2,2.3H125.8
			z M128.6,85.2l2.4-2h10l-1.8,2H128.6z M131,83.1l2.1-1.8h9.4l-1.6,1.8H131z M133.2,81.2l1.9-1.6h8.9l-1.4,1.6H133.2z M135.2,79.5
			l1.7-1.5h8.5l-1.3,1.5H135.2z M137,78l1.6-1.3h8.1l-1.2,1.3H137z M136.8,78h-8.5l2-1.3h8.1L136.8,78z M128.1,78h-8.5l2.4-1.3h8.1
			L128.1,78z M128.1,78l-2.2,1.5H117l2.6-1.5H128.1z M125.9,79.6l-2.4,1.6H114l2.9-1.6H125.9z M123.4,81.2l-2.7,1.8h-10l3.2-1.8
			H123.4z M120.6,83.1l-3,2H107l3.6-2H120.6z M117.5,85.2l-3.4,2.3h-11.2l4.1-2.3H117.5z M114,87.6l-3.9,2.6h-12l4.6-2.6H114z
			 M110,90.3l-4.4,3H92.7l5.3-3H110z M105.5,93.4l-5.2,3.5h-14l6.2-3.5H105.5z M100.2,97l-6.1,4.1H78.9l7.2-4.1H100.2z M93.9,101.3
			l-7.2,4.9H70.1l8.6-4.9H93.9z M86.5,106.3l-8.7,5.9H59.4l10.4-5.9H86.5z M86.8,106.3h16.7l-7,5.9H78.1L86.8,106.3z M103.8,106.3
			h16.7l-5.2,5.9H96.8L103.8,106.3z M120.8,106.3h16.7l-3.5,5.9h-18.4L120.8,106.3z M120.9,106.2l4.3-4.9h15.2l-2.9,4.9H120.9z
			 M125.3,101.1l3.6-4.1h14l-2.4,4.1H125.3z M129,96.9l3.1-3.5H145l-2.1,3.5H129z M132.2,93.3l2.7-3h12l-1.8,3H132.2z M134.9,90.2
			l2.3-2.6h11.3l-1.6,2.6H134.9z M137.3,87.5l2-2.3h10.6l-1.4,2.3H137.3z M139.3,85.2l1.8-2h10l-1.2,2H139.3z M141.2,83.1l1.6-1.8
			h9.4l-1.1,1.8H141.2z M142.8,81.2l1.4-1.6h8.9l-1,1.6H142.8z M144.3,79.5l1.3-1.5h8.5l-0.9,1.5H144.3z M145.6,78l1.2-1.3h8.1
			l-0.8,1.3H145.6z M146.8,76.6l1.1-1.2h7.8l-0.7,1.2H146.8z M146.7,76.6h-8.1l1.4-1.2h7.8L146.7,76.6z M138.4,76.6h-8.1l1.8-1.2
			h7.8L138.4,76.6z M130.2,76.6h-8.1l2.1-1.2h7.8L130.2,76.6z M121.9,76.6h-8.1l2.5-1.2h7.8L121.9,76.6z M121.8,76.7l-2.4,1.3H111
			l2.7-1.3H121.8z M119.4,78l-2.6,1.5h-8.9l3-1.5H119.4z M116.7,79.6l-2.9,1.6h-9.4l3.4-1.6H116.7z M113.8,81.2l-3.2,1.8h-10
			l3.7-1.8H113.8z M110.4,83.1l-3.6,2H96.3l4.2-2H110.4z M106.7,85.2l-4.1,2.3H91.4l4.7-2.3H106.7z M102.5,87.6l-4.6,2.6h-12
			l5.4-2.6H102.5z M97.8,90.3l-5.3,3H79.5l6.2-3H97.8z M92.3,93.4l-6.2,3.5H72.1l7.2-3.5H92.3z M85.9,97l-7.3,4.1H63.5l8.4-4.1H85.9
			z M78.4,101.3l-8.6,4.9H53.2l10.1-4.9H78.4z M69.5,106.3L59,112.2H40.7l12.2-5.9H69.5z M58.7,112.4l-13,7.3H25.2l15.1-7.3H58.7z
			 M59.1,112.4h18.4l-10.8,7.3H46.2L59.1,112.4z M77.9,112.4h18.4l-8.6,7.3H67.1L77.9,112.4z M96.6,112.4H115l-6.5,7.3H88
			L96.6,112.4z M115.4,112.4h18.4l-4.3,7.3H109L115.4,112.4z M134.2,112.4h18.4l-2.2,7.3h-20.5L134.2,112.4z M134.3,112.2l3.5-5.9
			h16.7l-1.8,5.9H134.3z M137.8,106.2l2.9-4.9h15.2l-1.5,4.9H137.8z M140.8,101.1l2.4-4.1h14l-1.2,4.1H140.8z M143.2,96.9l2-3.5
			h12.9l-1,3.5H143.2z M145.3,93.3l1.8-3h12l-0.9,3H145.3z M147.2,90.2l1.5-2.6H160l-0.8,2.6H147.2z M148.7,87.5l1.3-2.3h10.6
			l-0.7,2.3H148.7z M150.1,85.2l1.2-2h10l-0.6,2H150.1z M151.3,83.1l1.1-1.8h9.4l-0.5,1.8H151.3z M152.4,81.2l1-1.6h8.9l-0.5,1.6
			H152.4z M153.4,79.5l0.9-1.5h8.5l-0.4,1.5H153.4z M154.3,78l0.8-1.3h8.1l-0.4,1.3H154.3z M155.1,76.6l0.7-1.2h7.8l-0.4,1.2H155.1z
			 M156.3,74.3l-0.7,1.1h-7.7l1-1.1H156.3z M148.8,74.3l-1,1.1h-7.7l1.3-1.1H148.8z M141.2,74.3l-1.3,1.1h-7.7l1.6-1.1H141.2z
			 M133.6,74.3l-1.6,1.1h-7.7l2-1.1H133.6z M126.1,74.3l-2,1.1h-7.7l2.3-1.1H126.1z M111.1,74.3h7.4l-2.3,1.1h-7.7L111.1,74.3z
			 M108.4,75.4h7.8l-2.5,1.2h-8.1L108.4,75.4z M105.5,76.7h8.1l-2.8,1.3h-8.5L105.5,76.7z M102.2,78h8.5l-3,1.5h-8.9L102.2,78z
			 M98.7,79.6h8.9l-3.4,1.6h-9.4L98.7,79.6z M94.7,81.2h9.4l-3.8,1.8h-10L94.7,81.2z M90.3,83.1h10l-4.2,2H85.5L90.3,83.1z
			 M85.4,85.2h10.6l-4.8,2.3H79.9L85.4,85.2z M79.8,87.6h11.3l-5.4,2.6h-12L79.8,87.6z M73.4,90.3h12l-6.2,3H66.4L73.4,90.3z
			 M66.1,93.4h12.9l-7.2,3.5H57.9L66.1,93.4z M57.7,97h14l-8.5,4.1H48L57.7,97z M47.7,101.3h15.2l-10.1,4.9H36.2L47.7,101.3z
			 M35.9,106.3h16.7l-12.2,5.9H22L35.9,106.3z M21.5,112.4H40l-15.1,7.3H4.3L21.5,112.4z M-18,129.3L3.8,120h20.6l-19.1,9.3H-18z
			 M5.7,129.3l19.1-9.3h20.6L29,129.3H5.7z M29.4,129.3l16.4-9.3h20.6l-13.7,9.3H29.4z M53.1,129.3l13.6-9.3h20.6l-11,9.3H53.1z
			 M76.9,129.3l10.9-9.3h20.6l-8.2,9.3H76.9z M100.6,129.3l8.2-9.3h20.6l-5.5,9.3H100.6z M124.3,129.3l5.4-9.3h20.6l-2.8,9.3H124.3z
			 M171.3,129.3h-23.3l2.7-9.3h20.6L171.3,129.3z M171.4,119.8h-20.5l2.1-7.3h18.4L171.4,119.8z M171.4,112.2H153l1.7-5.9h16.7
			L171.4,112.2z M171.4,106.2h-16.6l1.4-4.9h15.2L171.4,106.2z M171.4,101.1h-15.2l1.2-4.1h14L171.4,101.1z M171.4,96.9h-13.9l1-3.5
			h12.9L171.4,96.9z M171.4,93.3h-12.9l0.9-3h12L171.4,93.3z M171.4,90.2h-12l0.8-2.6h11.3L171.4,90.2z M171.4,87.5h-11.2l0.7-2.3
			h10.6L171.4,87.5z M171.4,85.2h-10.6l0.6-2h10L171.4,85.2z M171.5,83.1h-10l0.5-1.8h9.4L171.5,83.1z M171.5,81.2H162l0.5-1.6h8.9
			L171.5,81.2z M171.5,79.5h-8.9L163,78h8.5L171.5,79.5z M171.5,78H163l0.4-1.3h8.1L171.5,78z M171.5,76.6h-8.1l0.4-1.2h7.8
			L171.5,76.6z M171.5,75.4h-7.7l0.3-1.1h7.4L171.5,75.4z M171.6,74.3h7.4l0.3,1.1h-7.7L171.6,74.3z M171.6,75.4h7.8l0.4,1.2h-8.1
			L171.6,75.4z M171.6,76.7h8.1l0.4,1.3h-8.5L171.6,76.7z M171.6,78h8.5l0.4,1.5h-8.9L171.6,78z M171.6,79.6h8.9l0.5,1.6h-9.4
			L171.6,79.6z M171.6,81.2h9.4l0.5,1.8h-10L171.6,81.2z M171.6,83.1h10l0.6,2h-10.6L171.6,83.1z M171.7,85.2h10.6l0.7,2.3h-11.2
			L171.7,85.2z M171.7,87.6h11.3l0.8,2.6h-12L171.7,87.6z M171.7,90.3h12l0.9,3h-12.9L171.7,90.3z M171.7,93.4h12.9l1,3.5h-14
			L171.7,93.4z M171.7,97h14l1.2,4.1h-15.2L171.7,97z M171.7,101.3h15.2l1.4,4.9h-16.6L171.7,101.3z M171.7,106.3h16.7l1.7,5.9
			h-18.4L171.7,106.3z M171.7,112.4h18.4l2.1,7.3h-20.5L171.7,112.4z M171.8,129.3l0-9.3h20.6l2.7,9.3H171.8z M195.5,129.3l-2.8-9.3
			h20.6l5.4,9.3H195.5z M219.2,129.3l-5.5-9.3h20.6l8.2,9.3H219.2z M243,129.3l-8.2-9.3h20.6l10.9,9.3H243z M266.7,129.3l-11-9.3
			h20.6l13.6,9.3H266.7z M290.4,129.3l-13.7-9.3h20.6l16.4,9.3H290.4z M314.1,129.3l-16.4-9.3h20.6l19.1,9.3H314.1z M318.7,120h20.6
			l21.8,9.3h-23.3L318.7,120z"/>
	</g>
</g>
<path style="opacity:0.48;fill:#4E4E4E;" d="M171.5,43.5L171.5,43.5c8,0,14.5-6.5,14.5-14.5V13.5c0-8-6.5-14.5-14.5-14.5h0
	c-8,0-14.5,6.5-14.5,14.5V29C157,37,163.5,43.5,171.5,43.5z"/>
<path style="opacity:0.45;fill:none;stroke:#C9C9C9;stroke-width:2;stroke-linecap:round;stroke-miterlimit:10;" d="M166.9,26.5
	l4.5,4.1c0.2,0.1,0.4,0.1,0.5,0l4.5-4.1"/>
<path style="opacity:0.45;fill:none;stroke:#C9C9C9;stroke-width:2;stroke-linecap:round;stroke-miterlimit:10;" d="M166.9,20
	l4.5,4.1c0.2,0.1,0.4,0.1,0.5,0l4.5-4.1"/>
</svg>
