<svg xmlns="http://www.w3.org/2000/svg" viewBox="0 0 18 18"><title>Asset 1</title><g id="Layer_2" data-name="Layer 2"><g id="Layer_1-2" data-name="Layer 1"><path d="M12.37,14.83l.12.22.88,1.51.13.24-.24.12a8.81,8.81,0,0,1-4,1.07H9V15.73h.25A6.76,6.76,0,0,0,12.14,15l.23-.12Z" style="fill:#487fea;opacity:0.48"/><path d="M15.73,9H18v.27a8.81,8.81,0,0,1-1.07,4l-.12.24-.24-.13-1.51-.88-.22-.12.12-.23a6.76,6.76,0,0,0,.77-2.89V9Z" style="fill:#487fea;opacity:0.12"/><path d="M14.83,12.37l.22.12,1.51.88.24.13-.15.23a9.05,9.05,0,0,1-2.92,2.92l-.23.15-.13-.24-.88-1.51-.12-.22.21-.14a6.64,6.64,0,0,0,2.11-2.11l.14-.21Z" style="fill:#487fea;opacity:0.36"/><path d="M5.63,14.83l.23.12a6.76,6.76,0,0,0,2.89.77H9V18H8.73a8.81,8.81,0,0,1-4-1.07L4.5,16.8l.13-.24.88-1.51.12-.22Z" style="fill:#487fea;opacity:0.66"/><path d="M0,9H2.27v.25a6.76,6.76,0,0,0,.77,2.89l.12.23L3,12.49l-1.51.88-.24.13-.12-.24A8.81,8.81,0,0,1,0,9.27V9Z" style="fill:#487fea;opacity:0.86"/><path d="M3.17,12.37l.14.21a6.64,6.64,0,0,0,2.11,2.11l.21.14-.12.22-.88,1.51-.13.24-.23-.15a9.05,9.05,0,0,1-2.92-2.92L1.2,13.5l.24-.13L3,12.49l.22-.12Z" style="fill:#487fea;opacity:0.75"/><path d="M4.5,1.2l.13.24L5.51,3l.12.22-.21.14A6.64,6.64,0,0,0,3.31,5.42l-.14.21L3,5.51,1.44,4.63,1.2,4.5l.15-.23A9.05,9.05,0,0,1,4.27,1.35L4.5,1.2Z" style="fill:#487fea;opacity:0.98"/><path d="M16.8,4.5l.12.24a8.81,8.81,0,0,1,1.07,4V9H15.73V8.75A6.76,6.76,0,0,0,15,5.86l-.12-.23.22-.12,1.51-.88.24-.13Z" style="fill:#487fea;opacity:0.07"/><path d="M1.2,4.5l.24.13L3,5.51l.22.12-.12.23a6.76,6.76,0,0,0-.77,2.89V9H0V8.73a8.81,8.81,0,0,1,1.07-4L1.2,4.5Z" style="fill:#487fea;opacity:0.9400000000000001"/><path d="M9,0V2.27H8.75a6.76,6.76,0,0,0-2.89.77l-.23.12L5.51,3,4.63,1.44,4.5,1.2l.24-.12A8.81,8.81,0,0,1,8.73,0Z" style="fill:#487fea"/><path d="M9,0h.27a8.81,8.81,0,0,1,4,1.07l.24.12-.13.24L12.49,3l-.12.22-.23-.12a6.76,6.76,0,0,0-2.89-.77H9V0Z" style="fill:#487fea"/><path d="M13.5,1.2l.23.15a9.05,9.05,0,0,1,2.92,2.92l.15.23-.24.13-1.51.88-.22.12-.14-.21a6.64,6.64,0,0,0-2.11-2.11l-.21-.14L12.49,3l.88-1.51.13-.24Z" style="fill:#487fea"/></g></g></svg>