<svg xmlns="http://www.w3.org/2000/svg" viewBox="0 0 20 20.05"><title>Asset 2</title><g id="Layer_2" data-name="Layer 2"><g id="Layer_1-2" data-name="Layer 1"><path d="M4.61,16.73,16.7,4.61a2.85,2.85,0,0,1,2.67-.77L16.28.75A2.47,2.47,0,0,0,12.81.68L.69,12.8a2.44,2.44,0,0,0,.05,3.45l3.07,3.08a2.88,2.88,0,0,1,.8-2.6Z" style="fill:#fff"/><path d="M6.13,20.05a.78.78,0,0,0,.78-.78V15.86L5.33,17.45a1.93,1.93,0,0,0-.09,2.6Z" style="fill:#fff"/><path d="M17.42,5.33,15.93,6.82h3.29A.78.78,0,0,0,20,6V5.25a1.91,1.91,0,0,0-2.58.08Z" style="fill:#fff"/></g></g></svg>